<svg id="Capa_1" data-name="Capa 1" xmlns="http://www.w3.org/2000/svg" viewBox="0 0 2000 1185"><defs><style>.cls-1{fill:#1f2f59;}.cls-2{fill:none;stroke:#0059ed;stroke-linecap:round;stroke-linejoin:round;stroke-width:3.12px;}.cls-3{fill:#0059ed;}.cls-4{fill:#fff;}.cls-5{fill:#00b0ec;}.cls-6{fill:#00b0ea;}</style></defs><rect class="cls-1" width="1999.93" height="1185.15"/><g id="Capa_6" data-name="Capa 6"><g id="Grupo_103" data-name="Grupo 103"><path id="Trazado_402" data-name="Trazado 402" class="cls-2" d="M1801.57,323.61l0-74.6a31.49,31.49,0,0,0-31.47-31.48h-29"/><line id="Línea_47" data-name="Línea 47" class="cls-2" x1="1723.68" y1="217.52" x2="1643.8" y2="217.51"/><line id="Línea_48" data-name="Línea 48" class="cls-2" x1="1623.58" y1="217.51" x2="1590.57" y2="217.51"/></g></g><path id="Trazado_406" data-name="Trazado 406" class="cls-3" d="M0,997.09c16.06,17.25-4.71,39.09,11.36,56.35s36.84-4.59,52.9,12.65-4.71,39.09,11.36,56.34,36.84-4.58,52.91,12.67-4.71,32.43,11.36,49.69H0V997.09"/><path class="cls-4" d="M158.35,921.39h-.13v-.16h-.37c-1.31-.06-4.36-.65-4.36-4.73h0a.94.94,0,0,0,0-.14h-.32v.5c-.06,1.31-.64,4.36-4.73,4.36v.17h0v.16h.38c1.3.07,4.36.66,4.36,4.73h0v.14h.33v-.5c.06-1.31.64-4.36,4.72-4.36v-.17h.13"/><path class="cls-4" d="M206.05,921.39h-.12v-.16h-.37c-1.32-.06-4.37-.65-4.37-4.73h0a.94.94,0,0,0,0-.14h-.32v.5c-.06,1.31-.64,4.36-4.72,4.36v.17h0v.16h.37c1.31.07,4.36.66,4.36,4.73h0a.79.79,0,0,0,0,.14h.32v-.5c.06-1.31.64-4.36,4.73-4.36v-.17h.12"/><path class="cls-4" d="M253.76,921.39h-.13v-.16h-.37c-1.31-.06-4.37-.65-4.37-4.73h0v-.14h-.33v.5c-.06,1.31-.64,4.36-4.72,4.36v.33h.37c1.31.07,4.36.66,4.36,4.73h0a.79.79,0,0,0,0,.14h.32v-.5c.06-1.31.65-4.36,4.73-4.36v-.17h.13"/><path class="cls-5" d="M301.46,921.39h-.13v-.16H301c-1.31-.06-4.36-.65-4.36-4.73h0v-.14h-.33v.5c-.06,1.31-.64,4.36-4.72,4.36v.33h.37c1.31.07,4.36.66,4.36,4.73h0c0,.09,0,.14,0,.14h.32v-.5c.06-1.31.65-4.36,4.73-4.36v-.17h.13"/><path class="cls-5" d="M349.16,921.39H349v-.16h-.37c-1.31-.06-4.36-.65-4.36-4.73h0v-.14H344v.5c0,1.31-.64,4.36-4.72,4.36v.33h.37c1.31.07,4.36.66,4.36,4.73h0c0,.09,0,.14,0,.14h.32v-.5c.07-1.31.65-4.36,4.73-4.36v-.17h.13"/><path class="cls-5" d="M396.86,921.39h-.13v-.16h-.37c-1.31-.06-4.36-.65-4.36-4.73h0a1.25,1.25,0,0,1,0-.14h-.33v.5c-.05,1.31-.64,4.36-4.72,4.36v.33h.37c1.31.07,4.36.66,4.36,4.73h0v.14H392v-.5c.06-1.31.64-4.36,4.72-4.36v-.17h.13"/><path class="cls-4" d="M158.35,959.5h-.13v-.16h-.37c-1.31-.06-4.36-.64-4.36-4.72h0a.94.94,0,0,0,0-.14h-.32v.5c-.06,1.31-.64,4.36-4.73,4.36v.17h0v.16h.38c1.3.06,4.36.65,4.36,4.73h0v.14h.33V964c.06-1.31.64-4.36,4.72-4.36v-.17h.13"/><path class="cls-4" d="M206.05,959.5h-.12v-.16h-.37c-1.32-.06-4.37-.64-4.37-4.72h0a.94.94,0,0,0,0-.14h-.32v.5c-.06,1.31-.64,4.36-4.72,4.36v.17h0v.16h.37c1.31.06,4.36.65,4.36,4.73h0a.79.79,0,0,0,0,.14h.32V964c.06-1.31.64-4.36,4.73-4.36v-.17h.12"/><path class="cls-4" d="M253.76,959.5h-.13v-.16h-.37c-1.31-.06-4.37-.64-4.37-4.72h0v-.14h-.33v.5c-.06,1.31-.64,4.36-4.72,4.36v.33h.37c1.31.06,4.36.65,4.36,4.73h0a.79.79,0,0,0,0,.14h.32V964c.06-1.31.65-4.36,4.73-4.36v-.17h.13"/><path class="cls-5" d="M301.46,959.5h-.13v-.16H301c-1.31-.06-4.36-.64-4.36-4.72h0v-.14h-.33v.5c-.06,1.31-.64,4.36-4.72,4.36v.33h.37c1.31.06,4.36.65,4.36,4.73h0c0,.09,0,.14,0,.14h.32V964c.06-1.31.65-4.36,4.73-4.36v-.17h.13"/><path class="cls-5" d="M349.16,959.5H349v-.16h-.37c-1.31-.06-4.36-.64-4.36-4.72h0v-.14H344v.5c0,1.31-.64,4.36-4.72,4.36v.33h.37c1.31.06,4.36.65,4.36,4.73h0c0,.09,0,.14,0,.14h.32V964c.07-1.31.65-4.36,4.73-4.36v-.17h.13"/><path class="cls-5" d="M396.86,959.5h-.13v-.16h-.37c-1.31-.06-4.36-.64-4.36-4.72h0a1.25,1.25,0,0,1,0-.14h-.33v.5c-.05,1.31-.64,4.36-4.72,4.36v.33h.37c1.31.06,4.36.65,4.36,4.73h0v.14H392V964c.06-1.31.64-4.36,4.72-4.36v-.17h.13"/><path class="cls-4" d="M158.35,997.6h-.13v-.15h-.37c-1.31-.06-4.36-.64-4.36-4.73h0a.73.73,0,0,0,0-.13h-.32v.5c-.06,1.31-.64,4.36-4.73,4.36v.16h0v.16h.38c1.3.06,4.36.65,4.36,4.73h0v.14h.33v-.5c.06-1.31.64-4.37,4.72-4.37v-.16h.13"/><path class="cls-4" d="M206.05,997.6h-.12v-.15h-.37c-1.32-.06-4.37-.64-4.37-4.73h0a.73.73,0,0,0,0-.13h-.32v.5c-.06,1.31-.64,4.36-4.72,4.36v.16h0v.16h.37c1.31.06,4.36.65,4.36,4.73h0a.94.94,0,0,0,0,.14h.32v-.5c.06-1.31.64-4.37,4.73-4.37v-.16h.12"/><path class="cls-4" d="M253.76,997.6h-.13v-.15h-.37c-1.31-.06-4.37-.64-4.37-4.73h0v-.13h-.33v.5c-.06,1.31-.64,4.36-4.72,4.36v.32h.37c1.31.06,4.36.65,4.36,4.73h0a.94.94,0,0,0,0,.14h.32v-.5c.06-1.31.65-4.37,4.73-4.37v-.16h.13"/><path class="cls-5" d="M301.46,997.6h-.13v-.15H301c-1.31-.06-4.36-.64-4.36-4.73h0v-.13h-.33v.5c-.06,1.31-.64,4.36-4.72,4.36v.32h.37c1.31.06,4.36.65,4.36,4.73h0a1.25,1.25,0,0,1,0,.14h.32v-.5c.06-1.31.65-4.37,4.73-4.37v-.16h.13"/><path class="cls-5" d="M349.16,997.6H349v-.15h-.37c-1.31-.06-4.36-.64-4.36-4.73h0v-.13H344v.5c0,1.31-.64,4.36-4.72,4.36v.32h.37c1.31.06,4.36.65,4.36,4.73h0a1.25,1.25,0,0,1,0,.14h.32v-.5c.07-1.31.65-4.37,4.73-4.37v-.16h.13"/><path class="cls-5" d="M396.86,997.6h-.13v-.15h-.37c-1.31-.06-4.36-.64-4.36-4.73h0a1.16,1.16,0,0,1,0-.13h-.33v.5c-.05,1.31-.64,4.36-4.72,4.36v.32h.37c1.31.06,4.36.65,4.36,4.73h0v.14H392v-.5c.06-1.31.64-4.37,4.72-4.37v-.16h.13"/><path class="cls-4" d="M158.35,1035.71h-.13v-.15h-.37c-1.31-.06-4.36-.64-4.36-4.73h0a1.13,1.13,0,0,0,0-.14h-.32v.51c-.06,1.31-.64,4.36-4.73,4.36v.16h0v.16h.38c1.3.06,4.36.65,4.36,4.73h0v.14h.33v-.51c.06-1.31.64-4.36,4.72-4.36v-.16h.13"/><path class="cls-4" d="M206.05,1035.71h-.12v-.15h-.37c-1.32-.06-4.37-.64-4.37-4.73h0a1.13,1.13,0,0,0,0-.14h-.32v.51c-.06,1.31-.64,4.36-4.72,4.36v.16h0v.16h.37c1.31.06,4.36.65,4.36,4.73h0a1.13,1.13,0,0,0,0,.14h.32v-.51c.06-1.31.64-4.36,4.73-4.36v-.16h.12"/><path class="cls-4" d="M253.76,1035.71h-.13v-.15h-.37c-1.31-.06-4.37-.64-4.37-4.73h0v-.14h-.33v.51c-.06,1.31-.64,4.36-4.72,4.36v.32h.37c1.31.06,4.36.65,4.36,4.73h0a1.13,1.13,0,0,0,0,.14h.32v-.51c.06-1.31.65-4.36,4.73-4.36v-.16h.13"/><path class="cls-5" d="M301.46,1035.71h-.13v-.15H301c-1.31-.06-4.36-.64-4.36-4.73h0v-.14h-.33v.51c-.06,1.31-.64,4.36-4.72,4.36v.32h.37c1.31.06,4.36.65,4.36,4.73h0a1.13,1.13,0,0,1,0,.14h.32v-.51c.06-1.31.65-4.36,4.73-4.36v-.16h.13"/><path class="cls-5" d="M349.16,1035.71H349v-.15h-.37c-1.31-.06-4.36-.64-4.36-4.73h0v-.14H344v.51c0,1.31-.64,4.36-4.72,4.36v.32h.37c1.31.06,4.36.65,4.36,4.73h0a1.13,1.13,0,0,1,0,.14h.32v-.51c.07-1.31.65-4.36,4.73-4.36v-.16h.13"/><path class="cls-5" d="M396.86,1035.71h-.13v-.15h-.37c-1.31-.06-4.36-.64-4.36-4.73h0a1.13,1.13,0,0,1,0-.14h-.33v.51c-.05,1.31-.64,4.36-4.72,4.36v.32h.37c1.31.06,4.36.65,4.36,4.73h0v.14H392v-.51c.06-1.31.64-4.36,4.72-4.36v-.16h.13"/><path class="cls-4" d="M158.35,1073.82h-.13v-.15h-.37c-1.31-.06-4.36-.64-4.36-4.73h0a1.13,1.13,0,0,0,0-.14h-.32v.51c-.06,1.31-.64,4.36-4.73,4.36v.16h0v.16h.38c1.3.06,4.36.65,4.36,4.72h0v.15h.33v-.51c.06-1.31.64-4.36,4.72-4.36v-.16h.13"/><path class="cls-4" d="M206.05,1073.82h-.12v-.15h-.37c-1.32-.06-4.37-.64-4.37-4.73h0a1.13,1.13,0,0,0,0-.14h-.32v.51c-.06,1.31-.64,4.36-4.72,4.36v.16h0v.16h.37c1.31.06,4.36.65,4.36,4.72h0a1.19,1.19,0,0,0,0,.15h.32v-.51c.06-1.31.64-4.36,4.73-4.36v-.16h.12"/><path class="cls-4" d="M253.76,1073.82h-.13v-.15h-.37c-1.31-.06-4.37-.64-4.37-4.73h0v-.14h-.33v.51c-.06,1.31-.64,4.36-4.72,4.36v.32h.37c1.31.06,4.36.65,4.36,4.72h0a1.19,1.19,0,0,0,0,.15h.32v-.51c.06-1.31.65-4.36,4.73-4.36v-.16h.13"/><path class="cls-5" d="M301.46,1073.82h-.13v-.15H301c-1.31-.06-4.36-.64-4.36-4.73h0v-.14h-.33v.51c-.06,1.31-.64,4.36-4.72,4.36v.32h.37c1.31.06,4.36.65,4.36,4.72h0a1.36,1.36,0,0,1,0,.15h.32v-.51c.06-1.31.65-4.36,4.73-4.36v-.16h.13"/><path class="cls-5" d="M349.16,1073.82H349v-.15h-.37c-1.31-.06-4.36-.64-4.36-4.73h0v-.14H344v.51c0,1.31-.64,4.36-4.72,4.36v.32h.37c1.31.06,4.36.65,4.36,4.72h0a1.36,1.36,0,0,1,0,.15h.32v-.51c.07-1.31.65-4.36,4.73-4.36v-.16h.13"/><path class="cls-5" d="M396.86,1073.82h-.13v-.15h-.37c-1.31-.06-4.36-.64-4.36-4.73h0a1.13,1.13,0,0,1,0-.14h-.33v.51c-.05,1.31-.64,4.36-4.72,4.36v.32h.37c1.31.06,4.36.65,4.36,4.72h0v.15H392v-.51c.06-1.31.64-4.36,4.72-4.36v-.16h.13"/><path id="Trazado_405" data-name="Trazado 405" class="cls-5" d="M1760.71,918.15H1681v79.67a79.68,79.68,0,1,0,79.68-79.67"/><path class="cls-6" d="M1969.65,95.11h.13v.16h.37c1.31.06,4.36.65,4.36,4.73h0a1.25,1.25,0,0,1,0,.14h.32v-.5c.07-1.31.65-4.36,4.73-4.36V95.1h0v-.16h-.37c-1.31-.07-4.36-.66-4.36-4.73h0v-.14h-.33v.5c-.06,1.31-.64,4.36-4.72,4.36v.17h-.13"/><path class="cls-6" d="M1922,95.11h.13v.16h.37c1.31.06,4.36.65,4.36,4.73h0a.94.94,0,0,0,0,.14h.32v-.5c.06-1.31.65-4.36,4.73-4.36v-.33h-.37c-1.31-.07-4.36-.66-4.36-4.73h0v-.14h-.33v.5c-.06,1.31-.64,4.36-4.72,4.36v.17H1922"/><path class="cls-4" d="M1874.25,95.11h.13v.16h.37c1.31.06,4.36.65,4.36,4.73h0a.94.94,0,0,0,0,.14h.32v-.5c.06-1.31.65-4.36,4.73-4.36v-.33h-.37c-1.31-.07-4.37-.66-4.37-4.73h0v-.14h-.33v.5c-.06,1.31-.64,4.36-4.72,4.36v.17h-.13"/><path class="cls-4" d="M1826.54,95.11h.14v.16h.37c1.31.06,4.36.65,4.36,4.73h0a.94.94,0,0,0,0,.14h.32v-.5c.06-1.31.64-4.36,4.73-4.36v-.33h-.37c-1.32-.07-4.37-.66-4.37-4.73h0a.79.79,0,0,0,0-.14h-.32v.5c-.06,1.31-.64,4.36-4.72,4.36v.17h-.14"/><path class="cls-4" d="M1778.84,95.11h.13v.16h.38c1.31.06,4.36.65,4.36,4.73h0v.14h.33v-.5c.06-1.31.64-4.36,4.73-4.36v-.33h-.38c-1.31-.07-4.36-.66-4.36-4.73h0a.79.79,0,0,0,0-.14h-.32v.5c-.06,1.31-.64,4.36-4.73,4.36v.17h-.13"/><path class="cls-6" d="M1969.65,57h.13v.16h.37c1.31.06,4.36.64,4.36,4.72h0a1.25,1.25,0,0,1,0,.14h.32v-.5c.07-1.31.65-4.36,4.73-4.36V57h0v-.16h-.37c-1.31-.06-4.36-.65-4.36-4.73h0V52h-.33v.5c-.06,1.31-.64,4.36-4.72,4.36V57h-.13"/><path class="cls-6" d="M1922,57h.13v.16h.37c1.31.06,4.36.64,4.36,4.72h0a.94.94,0,0,0,0,.14h.32v-.5c.06-1.31.65-4.36,4.73-4.36v-.33h-.37c-1.31-.06-4.36-.65-4.36-4.73h0V52h-.33v.5c-.06,1.31-.64,4.36-4.72,4.36V57H1922"/><path class="cls-4" d="M1874.25,57h.13v.16h.37c1.31.06,4.36.64,4.36,4.72h0a.94.94,0,0,0,0,.14h.32v-.5c.06-1.31.65-4.36,4.73-4.36v-.33h-.37c-1.31-.06-4.37-.65-4.37-4.73h0V52h-.33v.5c-.06,1.31-.64,4.36-4.72,4.36V57h-.13"/><path class="cls-4" d="M1826.54,57h.14v.16h.37c1.31.06,4.36.64,4.36,4.72h0a.94.94,0,0,0,0,.14h.32v-.5c.06-1.31.64-4.36,4.73-4.36v-.33h-.37c-1.32-.06-4.37-.65-4.37-4.73h0a.79.79,0,0,0,0-.14h-.32v.5c-.06,1.31-.64,4.36-4.72,4.36V57h-.14"/><path class="cls-4" d="M1778.84,57h.13v.16h.38c1.31.06,4.36.64,4.36,4.72h0V62h.33v-.5c.06-1.31.64-4.36,4.73-4.36v-.33h-.38c-1.31-.06-4.36-.65-4.36-4.73h0a.79.79,0,0,0,0-.14h-.32v.5c-.06,1.31-.64,4.36-4.73,4.36V57h-.13"/><path class="cls-6" d="M1969.65,18.9h.13v.15h.37c1.31.06,4.36.64,4.36,4.73h0a1.16,1.16,0,0,1,0,.13h.32v-.5c.07-1.31.65-4.36,4.73-4.36v-.16h0v-.16h-.37c-1.31-.06-4.36-.65-4.36-4.73h0v-.14h-.33v.5c-.06,1.31-.64,4.37-4.72,4.37v.16h-.13"/><path class="cls-6" d="M1922,18.9h.13v.15h.37c1.31.06,4.36.64,4.36,4.73h0a.73.73,0,0,0,0,.13h.32v-.5c.06-1.31.65-4.36,4.73-4.36v-.32h-.37c-1.31-.06-4.36-.65-4.36-4.73h0v-.14h-.33v.5c-.06,1.31-.64,4.37-4.72,4.37v.16H1922"/><path class="cls-4" d="M1874.25,18.9h.13v.15h.37c1.31.06,4.36.64,4.36,4.73h0a.73.73,0,0,0,0,.13h.32v-.5c.06-1.31.65-4.36,4.73-4.36v-.32h-.37c-1.31-.06-4.37-.65-4.37-4.73h0v-.14h-.33v.5c-.06,1.31-.64,4.37-4.72,4.37v.16h-.13"/><path class="cls-4" d="M1826.54,18.9h.14v.15h.37c1.31.06,4.36.64,4.36,4.73h0a.73.73,0,0,0,0,.13h.32v-.5c.06-1.31.64-4.36,4.73-4.36v-.32h-.37c-1.32-.06-4.37-.65-4.37-4.73h0a.94.94,0,0,0,0-.14h-.32v.5c-.06,1.31-.64,4.37-4.72,4.37v.16h-.14"/><path class="cls-4" d="M1778.84,18.9h.13v.15h.38c1.31.06,4.36.64,4.36,4.73h0v.13h.33v-.5c.06-1.31.64-4.36,4.73-4.36v-.32h-.38c-1.31-.06-4.36-.65-4.36-4.73h0a.94.94,0,0,0,0-.14h-.32v.5c-.06,1.31-.64,4.37-4.73,4.37v.16h-.13"/></svg>