<svg id="Capa_1" data-name="Capa 1" xmlns="http://www.w3.org/2000/svg" viewBox="0 0 1281.17 720.66"><defs><style>.cls-1{fill:#1f2f59;}.cls-2{fill:#0059ed;}.cls-13,.cls-14,.cls-16,.cls-3,.cls-7{fill:none;}.cls-3{stroke:#d9d9d9;}.cls-14,.cls-3,.cls-8{stroke-miterlimit:10;}.cls-13,.cls-3,.cls-7{stroke-width:2px;}.cls-4{fill:#d3d5d8;}.cls-5,.cls-9{fill:#00499d;}.cls-6{fill:#f61c36;}.cls-7{stroke:#00b2ef;}.cls-13,.cls-16,.cls-7,.cls-8{stroke-linecap:round;}.cls-13,.cls-16,.cls-7{stroke-linejoin:round;}.cls-17,.cls-26,.cls-8{fill:#ededed;}.cls-8{stroke:#ededed;stroke-width:6.57px;}.cls-9{font-size:19px;font-family:Lato-Bold, Lato;font-weight:700;}.cls-10{letter-spacing:-0.01em;}.cls-11{letter-spacing:-0.02em;}.cls-12{fill:#00b0ec;}.cls-13{stroke:#ff1634;}.cls-14{stroke:#00499d;}.cls-14,.cls-16{stroke-width:3px;}.cls-15{fill:#d9d9d9;}.cls-16{stroke:#0059ed;}.cls-17{font-size:44.39px;font-family:Lato-Black, Lato;font-weight:800;}.cls-18{letter-spacing:-0.02em;}.cls-19{letter-spacing:-0.02em;}.cls-20{letter-spacing:-0.03em;}.cls-21{font-size:26.64px;font-family:Lato-Semibold, Lato;font-weight:600;}.cls-22{letter-spacing:-0.01em;}.cls-23{letter-spacing:-0.02em;}.cls-24{letter-spacing:-0.01em;}.cls-25{letter-spacing:-0.02em;}</style></defs><rect class="cls-1" width="1281.17" height="721.11" rx="40" transform="translate(1281.17 721.11) rotate(-180)"/><path class="cls-2" d="M0-.46H217a40,40,0,0,1,40,40V720.66a0,0,0,0,1,0,0H55a55,55,0,0,1-55-55V-.46a0,0,0,0,1,0,0Z" transform="translate(256.95 720.2) rotate(-180)"/><line class="cls-3" x1="1169.41" y1="50.72" x2="1093.73" y2="50.72"/><path class="cls-3" d="M1231.46,93.4V70.92a20.2,20.2,0,0,0-20.2-20.2h-7.7"/><line class="cls-3" x1="1231.46" y1="163.51" x2="1231.46" y2="116.87"/><rect class="cls-2" x="231.29" y="642.91" width="156.92" height="77.74" transform="translate(619.5 1363.57) rotate(-180)"/><path class="cls-4" d="M663.67,21.81H956.41a0,0,0,0,1,0,0V980.12a65.75,65.75,0,0,1-65.75,65.75H588.55a6.68,6.68,0,0,1-6.68-6.68V103.61a81.8,81.8,0,0,1,81.8-81.8Z" transform="translate(1302.98 -235.29) rotate(90)"/><path class="cls-5" d="M742.49,289.78h516.64a22.11,22.11,0,0,1,22,22V499.65a58.43,58.43,0,0,0-50-57.82H742.49a22.11,22.11,0,0,1-22-22v-108A22.11,22.11,0,0,1,742.49,289.78Z"/><path class="cls-6" d="M782.41,289.78c14.55,13.49-4.27,30.57,10.29,44.06s33.37-3.59,47.92,9.9-4.26,30.57,10.29,44.06,33.37-3.58,47.93,9.91-4.27,30.57,10.29,44.06H782.41v-152"/><line class="cls-7" x1="106.22" y1="655.65" x2="189.97" y2="655.65"/><line class="cls-8" x1="71.48" y1="655.65" x2="106.22" y2="655.65"/><text class="cls-9" transform="translate(1011.52 602.17)">Maximizá pa<tspan class="cls-10" x="107.37" y="0">r</tspan><tspan x="114.84" y="0">a </tspan><tspan class="cls-11" x="128.45" y="0">v</tspan><tspan x="138.27" y="0">er en </tspan><tspan x="14.46" y="22.8">pantalla completa</tspan></text><path id="Trazado_157" data-name="Trazado 157" class="cls-5" d="M1127.34,510.55h-8.25a1.23,1.23,0,0,0,0,2.45h8.25a1.54,1.54,0,0,1,1.55,1.55v50.79a1.54,1.54,0,0,1-1.55,1.55h-50.78a1.55,1.55,0,0,1-1.56-1.55V514.55a1.55,1.55,0,0,1,1.56-1.55h36.25a1.23,1.23,0,0,0,0-2.45h-36.25a4,4,0,0,0-4,4v50.79a4,4,0,0,0,4,4h50.78a4,4,0,0,0,4-4V514.55A4,4,0,0,0,1127.34,510.55Z"/><path id="Trazado_158" data-name="Trazado 158" class="cls-12" d="M1116.64,517.9h5.63L1109,531.12a1.22,1.22,0,0,0,1.71,1.75l0,0L1124,519.63v5.62a1.23,1.23,0,0,0,2.45,0v-8.58a1.23,1.23,0,0,0-1.23-1.22h-8.58a1.23,1.23,0,0,0,0,2.45Z"/><path id="Trazado_159" data-name="Trazado 159" class="cls-12" d="M1095.46,546.43a1.22,1.22,0,0,0-1.73,0l-13.83,13.83v-5.62a1.23,1.23,0,0,0-2.45,0v8.58a1.22,1.22,0,0,0,1.22,1.22h8.58a1.23,1.23,0,0,0,0-2.45h-5.62l13.83-13.83A1.22,1.22,0,0,0,1095.46,546.43Z"/><path id="Trazado_160" data-name="Trazado 160" class="cls-12" d="M1088.47,516.67a1.22,1.22,0,0,0-1.22-1.22h-8.58a1.22,1.22,0,0,0-1.22,1.22h0v8.58a1.23,1.23,0,0,0,2.45,0v-5.62l13.22,13.22a1.22,1.22,0,0,0,1.73,0,1.23,1.23,0,0,0,0-1.71l-13.22-13.22h5.62a1.21,1.21,0,0,0,1.22-1.22Z"/><path id="Trazado_161" data-name="Trazado 161" class="cls-12" d="M1115.42,563.22a1.22,1.22,0,0,0,1.22,1.22h8.58a1.22,1.22,0,0,0,1.22-1.22h0v-8.58a1.23,1.23,0,0,0-2.45,0v5.62l-13.83-13.83a1.22,1.22,0,0,0-1.73,1.73L1122.26,562h-5.62A1.23,1.23,0,0,0,1115.42,563.22Z"/><path class="cls-13" d="M1118.87,505.72h10.46a6.61,6.61,0,0,1,6.61,6.61v7.43"/><path class="cls-13" d="M1085,574H1074.5a6.61,6.61,0,0,1-6.61-6.62V560"/><path class="cls-12" d="M498.76,224.38H722.41a60,60,0,0,1,60,60V496.27a0,0,0,0,1,0,0H558.76a60,60,0,0,1-60-60V224.38A0,0,0,0,1,498.76,224.38Z"/><circle class="cls-14" cx="633.86" cy="310.3" r="38.69"/><path class="cls-15" d="M651.49,311l-26.82,15.48a2,2,0,0,1-3-1.74v-31a2,2,0,0,1,3-1.75l26.82,15.49A2,2,0,0,1,651.49,311Z"/><path class="cls-16" d="M634.13,258.43A51.86,51.86,0,0,1,686,310.29"/><path class="cls-16" d="M647.52,360.42a51.85,51.85,0,0,1-13.39,1.74c-1.2,0-2.41,0-3.6-.12"/><path class="cls-16" d="M681,332.45a52.1,52.1,0,0,1-17.56,20.62"/><text class="cls-17" transform="translate(541.1 418.19)"><tspan class="cls-18">P</tspan><tspan x="27.32" y="0">oné pl</tspan><tspan class="cls-19" x="149.67" y="0">a</tspan><tspan class="cls-20" x="171.89" y="0">y</tspan><tspan x="194.66" y="0"> </tspan><tspan class="cls-21"><tspan x="0" y="31.96">pa</tspan><tspan class="cls-22" x="28.42" y="31.96">r</tspan><tspan x="38.05" y="31.96">a</tspan><tspan class="cls-23" x="51.43" y="31.96"> </tspan><tspan class="cls-24" x="57.43" y="31.96">v</tspan><tspan x="70.94" y="31.96">e</tspan><tspan class="cls-25" x="85.09" y="31.96">r</tspan><tspan x="94.36" y="31.96" xml:space="preserve"> el</tspan><tspan class="cls-23" x="121.59" y="31.96"> </tspan><tspan x="127.58" y="31.96">video</tspan></tspan></text><path class="cls-26" d="M183.94,91.4h-.08v-.1h-.23a2.73,2.73,0,0,1-2.8-3h0v-.09h-.21v.32a2.74,2.74,0,0,1-3,2.79v.1h0v.1h.24a2.75,2.75,0,0,1,2.79,3h0v.09h.21V94.3a2.74,2.74,0,0,1,3-2.8v-.1h.08"/><path class="cls-26" d="M214.48,91.4h-.08v-.1h-.24a2.73,2.73,0,0,1-2.79-3h0a.41.41,0,0,0,0-.09h-.2v.32a2.75,2.75,0,0,1-3,2.79v.1h0v.1h.24a2.75,2.75,0,0,1,2.79,3h0v.09h.21V94.3a2.75,2.75,0,0,1,3-2.8v-.1h.08"/><path class="cls-26" d="M245,91.4h-.09v-.1h-.23a2.74,2.74,0,0,1-2.8-3h0v-.09h-.21v.32a2.74,2.74,0,0,1-3,2.79v.2h.23a2.75,2.75,0,0,1,2.8,3h0v.09h.21V94.3a2.74,2.74,0,0,1,3-2.8v-.1H245"/><path class="cls-2" d="M275.55,91.4h-.08v-.1h-.24a2.73,2.73,0,0,1-2.79-3h0v-.09h-.21v.32a2.75,2.75,0,0,1-3,2.79v.2h.24a2.75,2.75,0,0,1,2.79,3h0a.41.41,0,0,0,0,.09h.2V94.3a2.75,2.75,0,0,1,3-2.8v-.1h.08"/><path class="cls-2" d="M306.09,91.4H306v-.1h-.23a2.73,2.73,0,0,1-2.79-3h0v-.09h-.21v.32a2.74,2.74,0,0,1-3,2.79v.2H300a2.75,2.75,0,0,1,2.8,3h0v.09H303V94.3a2.74,2.74,0,0,1,3-2.8v-.1h.09"/><path class="cls-2" d="M336.62,91.4h-.08v-.1h-.24a2.73,2.73,0,0,1-2.79-3h0v-.09h-.21v.32a2.74,2.74,0,0,1-3,2.79v.2h.24a2.75,2.75,0,0,1,2.79,3h0v.09h.21V94.3a2.74,2.74,0,0,1,3-2.8v-.1h.08"/><path class="cls-26" d="M183.94,115.79h-.08v-.1h-.23a2.74,2.74,0,0,1-2.8-3h0v-.09h-.21v.32a2.74,2.74,0,0,1-3,2.79v.11h0v.1h.24a2.73,2.73,0,0,1,2.79,3h0V119h.21v-.32a2.73,2.73,0,0,1,3-2.79v-.1h.08"/><path class="cls-26" d="M214.48,115.79h-.08v-.1h-.24a2.74,2.74,0,0,1-2.79-3h0a.55.55,0,0,0,0-.09h-.2v.32a2.75,2.75,0,0,1-3,2.79v.11h0v.1h.24a2.73,2.73,0,0,1,2.79,3h0V119h.21v-.32a2.75,2.75,0,0,1,3-2.79v-.1h.08"/><path class="cls-26" d="M245,115.79h-.09v-.1h-.23a2.75,2.75,0,0,1-2.8-3h0v-.09h-.21v.32a2.74,2.74,0,0,1-3,2.79v.21h.23a2.74,2.74,0,0,1,2.8,3h0V119h.21v-.32a2.74,2.74,0,0,1,3-2.79v-.1H245"/><path class="cls-2" d="M275.55,115.79h-.08v-.1h-.24a2.74,2.74,0,0,1-2.79-3h0v-.09h-.21v.32a2.75,2.75,0,0,1-3,2.79v.21h.24a2.73,2.73,0,0,1,2.79,3h0a.31.31,0,0,0,0,.09h.2v-.32a2.75,2.75,0,0,1,3-2.79v-.1h.08"/><path class="cls-2" d="M306.09,115.79H306v-.1h-.23a2.74,2.74,0,0,1-2.79-3h0v-.09h-.21v.32a2.74,2.74,0,0,1-3,2.79v.21H300a2.74,2.74,0,0,1,2.8,3h0V119H303v-.32a2.74,2.74,0,0,1,3-2.79v-.1h.09"/><path class="cls-2" d="M336.62,115.79h-.08v-.1h-.24a2.74,2.74,0,0,1-2.79-3h0v-.09h-.21v.32a2.74,2.74,0,0,1-3,2.79v.21h.24a2.73,2.73,0,0,1,2.79,3h0V119h.21v-.32a2.74,2.74,0,0,1,3-2.79v-.1h.08"/><path class="cls-26" d="M183.94,140.19h-.08v-.1h-.23a2.74,2.74,0,0,1-2.8-3h0V137h-.21v.32a2.74,2.74,0,0,1-3,2.79v.1h0v.11h.24a2.75,2.75,0,0,1,2.79,3h0v.09h.21v-.32a2.73,2.73,0,0,1,3-2.79v-.11h.08"/><path class="cls-26" d="M214.48,140.19h-.08v-.1h-.24a2.74,2.74,0,0,1-2.79-3h0a.41.41,0,0,0,0-.09h-.2v.32a2.75,2.75,0,0,1-3,2.79v.1h0v.11h.24a2.75,2.75,0,0,1,2.79,3h0v.09h.21v-.32a2.75,2.75,0,0,1,3-2.79v-.11h.08"/><path class="cls-26" d="M245,140.19h-.09v-.1h-.23a2.74,2.74,0,0,1-2.8-3h0V137h-.21v.32a2.74,2.74,0,0,1-3,2.79v.21h.23a2.75,2.75,0,0,1,2.8,3h0v.09h.21v-.32a2.74,2.74,0,0,1,3-2.79v-.11H245"/><path class="cls-2" d="M275.55,140.19h-.08v-.1h-.24a2.74,2.74,0,0,1-2.79-3h0V137h-.21v.32a2.75,2.75,0,0,1-3,2.79v.21h.24a2.75,2.75,0,0,1,2.79,3h0a.55.55,0,0,0,0,.09h.2v-.32a2.75,2.75,0,0,1,3-2.79v-.11h.08"/><path class="cls-2" d="M306.09,140.19H306v-.1h-.23a2.74,2.74,0,0,1-2.79-3h0V137h-.21v.32a2.74,2.74,0,0,1-3,2.79v.21H300a2.75,2.75,0,0,1,2.8,3h0v.09H303v-.32a2.74,2.74,0,0,1,3-2.79v-.11h.09"/><path class="cls-2" d="M336.62,140.19h-.08v-.1h-.24a2.74,2.74,0,0,1-2.79-3h0V137h-.21v.32a2.74,2.74,0,0,1-3,2.79v.21h.24a2.75,2.75,0,0,1,2.79,3h0v.09h.21v-.32a2.74,2.74,0,0,1,3-2.79v-.11h.08"/><path class="cls-26" d="M183.94,164.58h-.08v-.1h-.23a2.74,2.74,0,0,1-2.8-3h0v-.09h-.21v.32a2.74,2.74,0,0,1-3,2.79v.11h0v.1h.24a2.75,2.75,0,0,1,2.79,3h0v.09h.21v-.33a2.73,2.73,0,0,1,3-2.79v-.11h.08"/><path class="cls-26" d="M214.48,164.58h-.08v-.1h-.24a2.74,2.74,0,0,1-2.79-3h0a.55.55,0,0,0,0-.09h-.2v.32a2.75,2.75,0,0,1-3,2.79v.11h0v.1h.24a2.75,2.75,0,0,1,2.79,3h0v.09h.21v-.33a2.75,2.75,0,0,1,3-2.79v-.11h.08"/><path class="cls-26" d="M245,164.58h-.09v-.1h-.23a2.75,2.75,0,0,1-2.8-3h0v-.09h-.21v.32a2.74,2.74,0,0,1-3,2.79v.21h.23a2.76,2.76,0,0,1,2.8,3h0v.09h.21v-.33a2.74,2.74,0,0,1,3-2.79v-.11H245"/><path class="cls-2" d="M275.55,164.58h-.08v-.1h-.24a2.74,2.74,0,0,1-2.79-3h0v-.09h-.21v.32a2.75,2.75,0,0,1-3,2.79v.21h.24a2.75,2.75,0,0,1,2.79,3h0a.31.31,0,0,0,0,.09h.2v-.33a2.75,2.75,0,0,1,3-2.79v-.11h.08"/><path class="cls-2" d="M306.09,164.58H306v-.1h-.23a2.74,2.74,0,0,1-2.79-3h0v-.09h-.21v.32a2.74,2.74,0,0,1-3,2.79v.21H300a2.76,2.76,0,0,1,2.8,3h0v.09H303v-.33a2.74,2.74,0,0,1,3-2.79v-.11h.09"/><path class="cls-2" d="M336.62,164.58h-.08v-.1h-.24a2.74,2.74,0,0,1-2.79-3h0v-.09h-.21v.32a2.74,2.74,0,0,1-3,2.79v.21h.24a2.75,2.75,0,0,1,2.79,3h0v.09h.21v-.33a2.74,2.74,0,0,1,3-2.79v-.11h.08"/><path class="cls-26" d="M183.94,189h-.08v-.1h-.23a2.73,2.73,0,0,1-2.8-3h0v-.09h-.21v.33a2.74,2.74,0,0,1-3,2.79v.1h0v.11h.24a2.75,2.75,0,0,1,2.79,3h0v.09h.21v-.32a2.73,2.73,0,0,1,3-2.79V189h.08"/><path class="cls-26" d="M214.48,189h-.08v-.1h-.24a2.73,2.73,0,0,1-2.79-3h0a.31.31,0,0,0,0-.09h-.2v.33a2.75,2.75,0,0,1-3,2.79v.1h0v.11h.24a2.75,2.75,0,0,1,2.79,3h0v.09h.21v-.32a2.75,2.75,0,0,1,3-2.79V189h.08"/><path class="cls-26" d="M245,189h-.09v-.1h-.23a2.74,2.74,0,0,1-2.8-3h0v-.09h-.21v.33a2.74,2.74,0,0,1-3,2.79v.21h.23a2.75,2.75,0,0,1,2.8,3h0v.09h.21v-.32a2.74,2.74,0,0,1,3-2.79V189H245"/><path class="cls-2" d="M275.55,189h-.08v-.1h-.24a2.73,2.73,0,0,1-2.79-3h0v-.09h-.21v.33a2.75,2.75,0,0,1-3,2.79v.21h.24a2.75,2.75,0,0,1,2.79,3h0a.55.55,0,0,0,0,.09h.2v-.32a2.75,2.75,0,0,1,3-2.79V189h.08"/><path class="cls-2" d="M306.09,189H306v-.1h-.23a2.73,2.73,0,0,1-2.79-3h0v-.09h-.21v.33a2.74,2.74,0,0,1-3,2.79v.21H300a2.75,2.75,0,0,1,2.8,3h0v.09H303v-.32a2.74,2.74,0,0,1,3-2.79V189h.09"/><path class="cls-2" d="M336.62,189h-.08v-.1h-.24a2.73,2.73,0,0,1-2.79-3h0v-.09h-.21v.33a2.74,2.74,0,0,1-3,2.79v.21h.24a2.75,2.75,0,0,1,2.79,3h0v.09h.21v-.32a2.74,2.74,0,0,1,3-2.79V189h.08"/></svg>