<svg id="Capa_1" data-name="Capa 1" xmlns="http://www.w3.org/2000/svg" viewBox="0 0 1281.17 720.66"><defs><style>.cls-1{fill:#d9d9d9;}.cls-2{fill:#b2b2b2;}.cls-10,.cls-11,.cls-12,.cls-3{fill:none;}.cls-11,.cls-3{stroke:#00499d;}.cls-10,.cls-12,.cls-3{stroke-linecap:round;stroke-linejoin:round;}.cls-10,.cls-3{stroke-width:2px;}.cls-4{fill:#ededed;}.cls-5{fill:#0059ed;}.cls-6{font-size:19px;font-family:Lato-Bold, Lato;font-weight:700;}.cls-13,.cls-6{fill:#fff;}.cls-7{letter-spacing:-0.01em;}.cls-8{letter-spacing:-0.02em;}.cls-9{fill:#00b0ec;}.cls-10{stroke:#ff1634;}.cls-11{stroke-miterlimit:10;}.cls-11,.cls-12{stroke-width:3px;}.cls-12{stroke:#0059ed;}.cls-13{font-size:44.39px;font-family:Lato-Black, Lato;font-weight:800;}.cls-14{letter-spacing:-0.02em;}.cls-15{letter-spacing:-0.02em;}.cls-16{letter-spacing:-0.03em;}.cls-17{font-size:26.64px;font-family:Lato-Semibold, Lato;font-weight:600;}.cls-18{letter-spacing:-0.01em;}.cls-19{letter-spacing:-0.02em;}.cls-20{letter-spacing:-0.01em;}.cls-21{letter-spacing:-0.02em;}</style></defs><rect class="cls-1" width="1281.17" height="721.11" rx="40"/><path class="cls-2" d="M976-.46h305.18a0,0,0,0,1,0,0V680.66a40,40,0,0,1-40,40H921a0,0,0,0,1,0,0V54.54A55,55,0,0,1,976-.46Z"/><line class="cls-3" x1="111.75" y1="50.72" x2="187.44" y2="50.72"/><path class="cls-3" d="M49.71,93.4V70.92a20.2,20.2,0,0,1,20.2-20.2H77.6"/><line class="cls-3" x1="49.71" y1="163.51" x2="49.71" y2="116.87"/><path class="cls-4" d="M994.15,151h.09v.1h.23a2.75,2.75,0,0,1,2.8,3h0v.09h.21v-.32a2.74,2.74,0,0,1,3-2.79V151h0v-.1h-.23a2.75,2.75,0,0,1-2.8-3h0v-.09h-.21v.32a2.73,2.73,0,0,1-3,2.79V151h-.09"/><path class="cls-4" d="M963.62,151h.08v.1h.24a2.75,2.75,0,0,1,2.79,3h0a.41.41,0,0,0,0,.09h.2v-.32a2.75,2.75,0,0,1,3-2.79V151h0v-.1h-.24a2.75,2.75,0,0,1-2.79-3h0a.41.41,0,0,0,0-.09h-.2v.32a2.75,2.75,0,0,1-3,2.79V151h-.08"/><path class="cls-4" d="M933.08,151h.09v.1h.23a2.75,2.75,0,0,1,2.79,3h0v.09h.21v-.32a2.74,2.74,0,0,1,3-2.79v-.21h-.23a2.75,2.75,0,0,1-2.8-3h0v-.09h-.21v.32a2.74,2.74,0,0,1-3,2.79V151h-.09"/><path class="cls-5" d="M902.55,151h.08v.1h.24a2.75,2.75,0,0,1,2.79,3h0v.09h.21v-.32a2.74,2.74,0,0,1,3-2.79v-.21h-.24a2.75,2.75,0,0,1-2.79-3h0a.51.51,0,0,1,0-.09h-.21v.32a2.73,2.73,0,0,1-3,2.79V151h-.08"/><path class="cls-5" d="M872,151h.09v.1h.23a2.75,2.75,0,0,1,2.79,3h0v.09h.21v-.32a2.73,2.73,0,0,1,3-2.79v-.21h-.24a2.75,2.75,0,0,1-2.79-3h0v-.09h-.21v.32a2.74,2.74,0,0,1-3,2.79V151H872"/><path class="cls-5" d="M841.47,151h.09v.1h.24a2.75,2.75,0,0,1,2.79,3h0v.09h.21v-.32a2.74,2.74,0,0,1,3-2.79v-.21h-.24a2.75,2.75,0,0,1-2.8-3h0v-.09h-.21v.32a2.74,2.74,0,0,1-3,2.79V151h-.09"/><path class="cls-4" d="M994.15,126.58h.09v.1h.23a2.74,2.74,0,0,1,2.8,3h0v.08h.21v-.32a2.74,2.74,0,0,1,3-2.79v-.11h0v-.1h-.23a2.74,2.74,0,0,1-2.8-3h0v-.09h-.21v.32a2.74,2.74,0,0,1-3,2.8v.1h-.09"/><path class="cls-4" d="M963.62,126.58h.08v.1h.24a2.74,2.74,0,0,1,2.79,3h0a.28.28,0,0,0,0,.08h.2v-.32a2.75,2.75,0,0,1,3-2.79v-.11h0v-.1h-.24a2.74,2.74,0,0,1-2.79-3h0a.31.31,0,0,0,0-.09h-.2v.32a2.75,2.75,0,0,1-3,2.8v.1h-.08"/><path class="cls-4" d="M933.08,126.58h.09v.1h.23a2.74,2.74,0,0,1,2.79,3h0v.08h.21v-.32a2.74,2.74,0,0,1,3-2.79v-.21h-.23a2.74,2.74,0,0,1-2.8-3h0v-.09h-.21v.32a2.74,2.74,0,0,1-3,2.8v.1h-.09"/><path class="cls-5" d="M902.55,126.58h.08v.1h.24a2.74,2.74,0,0,1,2.79,3h0v.08h.21v-.32a2.74,2.74,0,0,1,3-2.79v-.21h-.24a2.74,2.74,0,0,1-2.79-3h0a.62.62,0,0,1,0-.09h-.21v.32a2.74,2.74,0,0,1-3,2.8v.1h-.08"/><path class="cls-5" d="M872,126.58h.09v.1h.23a2.74,2.74,0,0,1,2.79,3h0v.08h.21v-.32a2.73,2.73,0,0,1,3-2.79v-.21h-.24a2.74,2.74,0,0,1-2.79-3h0v-.09h-.21v.32a2.74,2.74,0,0,1-3,2.8v.1H872"/><path class="cls-5" d="M841.47,126.58h.09v.1h.24a2.74,2.74,0,0,1,2.79,3h0v.08h.21v-.32a2.74,2.74,0,0,1,3-2.79v-.21h-.24a2.74,2.74,0,0,1-2.8-3h0v-.09h-.21v.32a2.74,2.74,0,0,1-3,2.8v.1h-.09"/><path class="cls-4" d="M994.15,102.18h.09v.1h.23a2.73,2.73,0,0,1,2.8,3h0v.09h.21v-.32a2.74,2.74,0,0,1,3-2.79v-.1h0v-.11h-.23a2.75,2.75,0,0,1-2.8-3h0V99h-.21v.32a2.73,2.73,0,0,1-3,2.79v.11h-.09"/><path class="cls-4" d="M963.62,102.18h.08v.1h.24a2.73,2.73,0,0,1,2.79,3h0a.41.41,0,0,0,0,.09h.2v-.32a2.75,2.75,0,0,1,3-2.79v-.1h0v-.11h-.24a2.75,2.75,0,0,1-2.79-3h0a.41.41,0,0,0,0-.09h-.2v.32a2.75,2.75,0,0,1-3,2.79v.11h-.08"/><path class="cls-4" d="M933.08,102.18h.09v.1h.23a2.73,2.73,0,0,1,2.79,3h0v.09h.21v-.32a2.74,2.74,0,0,1,3-2.79v-.21h-.23a2.75,2.75,0,0,1-2.8-3h0V99h-.21v.32a2.74,2.74,0,0,1-3,2.79v.11h-.09"/><path class="cls-5" d="M902.55,102.18h.08v.1h.24a2.73,2.73,0,0,1,2.79,3h0v.09h.21v-.32a2.74,2.74,0,0,1,3-2.79v-.21h-.24a2.75,2.75,0,0,1-2.79-3h0a.51.51,0,0,1,0-.09h-.21v.32a2.73,2.73,0,0,1-3,2.79v.11h-.08"/><path class="cls-5" d="M872,102.18h.09v.1h.23a2.73,2.73,0,0,1,2.79,3h0v.09h.21v-.32a2.73,2.73,0,0,1,3-2.79v-.21h-.24a2.75,2.75,0,0,1-2.79-3h0V99h-.21v.32a2.74,2.74,0,0,1-3,2.79v.11H872"/><path class="cls-5" d="M841.47,102.18h.09v.1h.24a2.73,2.73,0,0,1,2.79,3h0v.09h.21v-.32a2.74,2.74,0,0,1,3-2.79v-.21h-.24a2.75,2.75,0,0,1-2.8-3h0V99h-.21v.32a2.74,2.74,0,0,1-3,2.79v.11h-.09"/><path class="cls-4" d="M994.15,77.79h.09v.09h.23a2.74,2.74,0,0,1,2.8,3h0V81h.21v-.32a2.74,2.74,0,0,1,3-2.8v-.1h0v-.1h-.23a2.74,2.74,0,0,1-2.8-3h0v-.09h-.21v.33a2.73,2.73,0,0,1-3,2.79v.1h-.09"/><path class="cls-4" d="M963.62,77.79h.08v.09h.24a2.74,2.74,0,0,1,2.79,3h0a.55.55,0,0,0,0,.09h.2v-.32a2.75,2.75,0,0,1,3-2.8v-.1h0v-.1h-.24a2.74,2.74,0,0,1-2.79-3h0a.31.31,0,0,0,0-.09h-.2v.33a2.75,2.75,0,0,1-3,2.79v.1h-.08"/><path class="cls-4" d="M933.08,77.79h.09v.09h.23a2.74,2.74,0,0,1,2.79,3h0V81h.21v-.32a2.74,2.74,0,0,1,3-2.8v-.2h-.23a2.74,2.74,0,0,1-2.8-3h0v-.09h-.21v.33a2.74,2.74,0,0,1-3,2.79v.1h-.09"/><path class="cls-5" d="M902.55,77.79h.08v.09h.24a2.74,2.74,0,0,1,2.79,3h0V81h.21v-.32a2.75,2.75,0,0,1,3-2.8v-.2h-.24a2.74,2.74,0,0,1-2.79-3h0a.62.62,0,0,1,0-.09h-.21v.33a2.73,2.73,0,0,1-3,2.79v.1h-.08"/><path class="cls-5" d="M872,77.79h.09v.09h.23a2.74,2.74,0,0,1,2.79,3h0V81h.21v-.32a2.74,2.74,0,0,1,3-2.8v-.2h-.24a2.74,2.74,0,0,1-2.79-3h0v-.09h-.21v.33a2.74,2.74,0,0,1-3,2.79v.1H872"/><path class="cls-5" d="M841.47,77.79h.09v.09h.24a2.74,2.74,0,0,1,2.79,3h0V81h.21v-.32a2.75,2.75,0,0,1,3-2.8v-.2h-.24a2.74,2.74,0,0,1-2.8-3h0v-.09h-.21v.33a2.74,2.74,0,0,1-3,2.79v.1h-.09"/><path class="cls-4" d="M994.15,53.39h.09v.1h.23a2.73,2.73,0,0,1,2.8,3h0v.09h.21v-.32a2.74,2.74,0,0,1,3-2.79v-.1h0v-.11h-.23a2.75,2.75,0,0,1-2.8-3h0v-.09h-.21v.32a2.73,2.73,0,0,1-3,2.79v.11h-.09"/><path class="cls-4" d="M963.62,53.39h.08v.1h.24a2.73,2.73,0,0,1,2.79,3h0a.41.41,0,0,0,0,.09h.2v-.32a2.75,2.75,0,0,1,3-2.79v-.1h0v-.11h-.24a2.75,2.75,0,0,1-2.79-3h0a.55.55,0,0,0,0-.09h-.2v.32a2.75,2.75,0,0,1-3,2.79v.11h-.08"/><path class="cls-4" d="M933.08,53.39h.09v.1h.23a2.73,2.73,0,0,1,2.79,3h0v.09h.21v-.32a2.74,2.74,0,0,1,3-2.79v-.21h-.23a2.75,2.75,0,0,1-2.8-3h0v-.09h-.21v.32a2.74,2.74,0,0,1-3,2.79v.11h-.09"/><path class="cls-5" d="M902.55,53.39h.08v.1h.24a2.73,2.73,0,0,1,2.79,3h0v.09h.21v-.32a2.74,2.74,0,0,1,3-2.79v-.21h-.24a2.75,2.75,0,0,1-2.79-3h0a.44.44,0,0,1,0-.09h-.21v.32a2.73,2.73,0,0,1-3,2.79v.11h-.08"/><path class="cls-5" d="M872,53.39h.09v.1h.23a2.73,2.73,0,0,1,2.79,3h0v.09h.21v-.32a2.73,2.73,0,0,1,3-2.79v-.21h-.24a2.75,2.75,0,0,1-2.79-3h0v-.09h-.21v.32a2.74,2.74,0,0,1-3,2.79v.11H872"/><path class="cls-5" d="M841.47,53.39h.09v.1h.24a2.73,2.73,0,0,1,2.79,3h0v.09h.21v-.32a2.74,2.74,0,0,1,3-2.79v-.21h-.24a2.75,2.75,0,0,1-2.8-3h0v-.09h-.21v.32a2.74,2.74,0,0,1-3,2.79v.11h-.09"/><text class="cls-6" transform="translate(1011.52 602.17)">Maximizá pa<tspan class="cls-7" x="107.37" y="0">r</tspan><tspan x="114.84" y="0">a </tspan><tspan class="cls-8" x="128.45" y="0">v</tspan><tspan x="138.27" y="0">er en </tspan><tspan x="14.46" y="22.8">pantalla completa</tspan></text><path id="Trazado_157" data-name="Trazado 157" class="cls-5" d="M1128.34,508.55h-8.25a1.23,1.23,0,0,0,0,2.45h8.25a1.54,1.54,0,0,1,1.55,1.55v50.79a1.54,1.54,0,0,1-1.55,1.55h-50.78a1.55,1.55,0,0,1-1.56-1.55V512.55a1.55,1.55,0,0,1,1.56-1.55h36.25a1.23,1.23,0,0,0,0-2.45h-36.25a4,4,0,0,0-4,4v50.79a4,4,0,0,0,4,4h50.78a4,4,0,0,0,4-4V512.55A4,4,0,0,0,1128.34,508.55Z"/><path id="Trazado_158" data-name="Trazado 158" class="cls-9" d="M1117.64,515.9h5.63L1110,529.12a1.22,1.22,0,0,0,1.71,1.75l0,0L1125,517.63v5.62a1.23,1.23,0,0,0,2.45,0v-8.58a1.23,1.23,0,0,0-1.23-1.22h-8.58a1.23,1.23,0,0,0,0,2.45Z"/><path id="Trazado_159" data-name="Trazado 159" class="cls-9" d="M1096.46,544.43a1.22,1.22,0,0,0-1.73,0l-13.83,13.83v-5.62a1.23,1.23,0,0,0-2.45,0v8.58a1.22,1.22,0,0,0,1.22,1.22h8.58a1.23,1.23,0,0,0,0-2.45h-5.62l13.83-13.83A1.22,1.22,0,0,0,1096.46,544.43Z"/><path id="Trazado_160" data-name="Trazado 160" class="cls-9" d="M1089.47,514.67a1.22,1.22,0,0,0-1.22-1.22h-8.58a1.22,1.22,0,0,0-1.22,1.22h0v8.58a1.23,1.23,0,0,0,2.45,0v-5.62l13.22,13.22a1.22,1.22,0,0,0,1.73,0,1.23,1.23,0,0,0,0-1.71l-13.22-13.22h5.62a1.21,1.21,0,0,0,1.22-1.22Z"/><path id="Trazado_161" data-name="Trazado 161" class="cls-9" d="M1116.42,561.22a1.22,1.22,0,0,0,1.22,1.22h8.58a1.22,1.22,0,0,0,1.22-1.22h0v-8.58a1.23,1.23,0,0,0-2.45,0v5.62l-13.83-13.83a1.22,1.22,0,0,0-1.73,1.73L1123.26,560h-5.62A1.23,1.23,0,0,0,1116.42,561.22Z"/><path class="cls-10" d="M1119.87,503.72h10.46a6.61,6.61,0,0,1,6.61,6.61v7.43"/><path class="cls-10" d="M1086,572H1075.5a6.61,6.61,0,0,1-6.61-6.62V558"/><rect class="cls-2" x="803.08" y="642.91" width="141.13" height="77.74"/><path class="cls-4" d="M279.9,73.35H582a65.75,65.75,0,0,1,65.75,65.75V994.34a0,0,0,0,1,0,0H355a81.8,81.8,0,0,1-81.8-81.8V80A6.68,6.68,0,0,1,279.9,73.35Z" transform="translate(994.34 73.35) rotate(90)"/><path class="cls-9" d="M498.76,224.38H722.41a60,60,0,0,1,60,60V496.27a0,0,0,0,1,0,0H558.76a60,60,0,0,1-60-60V224.38A0,0,0,0,1,498.76,224.38Z"/><circle class="cls-11" cx="633.86" cy="310.3" r="38.69"/><path class="cls-1" d="M651.49,311l-26.82,15.48a2,2,0,0,1-3-1.74v-31a2,2,0,0,1,3-1.75l26.82,15.49A2,2,0,0,1,651.49,311Z"/><path class="cls-12" d="M634.13,258.43A51.86,51.86,0,0,1,686,310.29"/><path class="cls-12" d="M647.52,360.42a51.85,51.85,0,0,1-13.39,1.74c-1.2,0-2.41,0-3.6-.12"/><path class="cls-12" d="M681,332.45a52.1,52.1,0,0,1-17.56,20.62"/><text class="cls-13" transform="translate(541.1 418.19)"><tspan class="cls-14">P</tspan><tspan x="27.32" y="0">oné pl</tspan><tspan class="cls-15" x="149.67" y="0">a</tspan><tspan class="cls-16" x="171.89" y="0">y</tspan><tspan x="194.66" y="0"> </tspan><tspan class="cls-17"><tspan x="0" y="31.96">pa</tspan><tspan class="cls-18" x="28.42" y="31.96">r</tspan><tspan x="38.05" y="31.96">a</tspan><tspan class="cls-19" x="51.43" y="31.96"> </tspan><tspan class="cls-20" x="57.43" y="31.96">v</tspan><tspan x="70.94" y="31.96">e</tspan><tspan class="cls-21" x="85.09" y="31.96">r</tspan><tspan x="94.36" y="31.96" xml:space="preserve"> el</tspan><tspan class="cls-19" x="121.59" y="31.96"> </tspan><tspan x="127.58" y="31.96">video</tspan></tspan></text></svg>