<svg id="Capa_1" data-name="Capa 1" xmlns="http://www.w3.org/2000/svg" viewBox="0 0 248.43 162.51"><defs><style>.cls-1{fill:#fff;}.cls-2{fill:#00b0ec;}</style></defs><path class="cls-1" d="M9.92,5H9.79V4.88H9.42C8.11,4.81,5.06,4.22,5.06.14h0a.94.94,0,0,0,0-.14H4.73V.52C4.67,1.82,4.08,4.88,0,4.88V5H0V5.2H.37c1.31.06,4.36.65,4.36,4.73h0v.14l.33,0V9.57c0-1.32.64-4.37,4.72-4.37V5h.13"/><path class="cls-1" d="M57.62,5h-.13V4.88h-.37c-1.31-.06-4.36-.65-4.36-4.73h0a.94.94,0,0,0,0-.14h-.32V.52c-.06,1.3-.64,4.36-4.73,4.36V5h0V5.2h.37c1.32.06,4.37.65,4.37,4.73h0v.14l.33,0V9.57c.06-1.32.64-4.37,4.72-4.37V5h.13"/><path class="cls-1" d="M105.33,5h-.13V4.88h-.38c-1.31-.06-4.36-.65-4.36-4.73h0V0h-.33V.52c-.06,1.3-.64,4.36-4.73,4.36V5.2h.38c1.31.06,4.36.65,4.36,4.73h0v.14l.33,0V9.57c.06-1.32.64-4.37,4.73-4.37V5h.13"/><path class="cls-2" d="M153,5h-.14V4.88h-.36c-1.32-.06-4.37-.65-4.37-4.73h0V0h-.33V.52c-.06,1.3-.64,4.36-4.72,4.36V5.2h.37c1.31.06,4.36.65,4.36,4.73h0a1.13,1.13,0,0,0,0,.14l.32,0V9.57c.06-1.32.64-4.37,4.72-4.37V5H153"/><path class="cls-2" d="M200.73,5h-.14V4.88h-.36c-1.31-.06-4.37-.65-4.37-4.73h0V0h-.33V.52c-.06,1.3-.64,4.36-4.72,4.36V5.2h.37c1.31.06,4.36.65,4.36,4.73h0a1.13,1.13,0,0,0,0,.14l.32,0V9.57c.06-1.32.65-4.37,4.72-4.37V5h.14"/><path class="cls-2" d="M248.43,5h-.13V4.88h-.37c-1.31-.06-4.36-.65-4.36-4.73h0V0h-.33V.52c-.06,1.3-.64,4.36-4.72,4.36V5.2h.37c1.31.06,4.36.65,4.36,4.73h0a1.13,1.13,0,0,0,0,.14l.32,0V9.57c.06-1.32.65-4.37,4.73-4.37V5h.13"/><path class="cls-1" d="M9.92,43.14H9.79V43H9.42c-1.31-.06-4.36-.64-4.36-4.73h0a1.13,1.13,0,0,0,0-.14H4.73v.51C4.67,39.93,4.08,43,0,43v.17H0v.16H.37c1.31.06,4.36.65,4.36,4.72h0v.15l.33,0v-.5c0-1.31.64-4.36,4.72-4.36v-.17h.13"/><path class="cls-1" d="M57.62,43.14h-.13V43h-.37c-1.31-.06-4.36-.64-4.36-4.73h0a1.13,1.13,0,0,0,0-.14h-.32v.51c-.06,1.3-.64,4.35-4.73,4.35v.17h0v.16h.37c1.32.06,4.37.65,4.37,4.72h0v.15l.33,0v-.5c.06-1.31.64-4.36,4.72-4.36v-.17h.13"/><path class="cls-1" d="M105.33,43.14h-.13V43h-.38c-1.31-.06-4.36-.64-4.36-4.73h0v-.14h-.33v.51c-.06,1.3-.64,4.35-4.73,4.35v.33h.38c1.31.06,4.36.65,4.36,4.72h0v.15l.33,0v-.5c.06-1.31.64-4.36,4.73-4.36v-.17h.13"/><path class="cls-2" d="M153,43.14h-.14V43h-.36c-1.32-.06-4.37-.64-4.37-4.73h0v-.14h-.33v.51c-.06,1.3-.64,4.35-4.72,4.35v.33h.37c1.31.06,4.36.65,4.36,4.72h0a1.19,1.19,0,0,0,0,.15l.32,0v-.5c.06-1.31.64-4.36,4.72-4.36v-.17H153"/><path class="cls-2" d="M200.73,43.14h-.14V43h-.36c-1.31-.06-4.37-.64-4.37-4.73h0v-.14h-.33v.51c-.06,1.3-.64,4.35-4.72,4.35v.33h.37c1.31.06,4.36.65,4.36,4.72h0a1.19,1.19,0,0,0,0,.15l.32,0v-.5c.06-1.31.65-4.36,4.72-4.36v-.17h.14"/><path class="cls-2" d="M248.43,43.14h-.13V43h-.37c-1.31-.06-4.36-.64-4.36-4.73h0v-.14h-.33v.51c-.06,1.3-.64,4.35-4.72,4.35v.33h.37c1.31.06,4.36.65,4.36,4.72h0a1.19,1.19,0,0,0,0,.15l.32,0v-.5c.06-1.31.65-4.36,4.73-4.36v-.17h.13"/><path class="cls-1" d="M9.92,81.25H9.79v-.16H9.42c-1.31-.07-4.36-.65-4.36-4.73h0a.94.94,0,0,0,0-.14H4.73v.5C4.67,78,4.08,81.09,0,81.09v.17H0v.16H.37c1.31.06,4.36.65,4.36,4.73h0v.14h.33v-.5c0-1.31.64-4.36,4.72-4.36v-.17h.13"/><path class="cls-1" d="M57.62,81.25h-.13v-.16h-.37c-1.31-.07-4.36-.65-4.36-4.73h0a.94.94,0,0,0,0-.14h-.32v.5c-.06,1.31-.64,4.36-4.73,4.36v.17h0v.16h.37c1.32.06,4.37.65,4.37,4.73h0v.14h.33v-.5c.06-1.31.64-4.36,4.72-4.36v-.17h.13"/><path class="cls-1" d="M105.33,81.25h-.13v-.16h-.38c-1.31-.07-4.36-.65-4.36-4.73h0v-.14h-.33v.5c-.06,1.31-.64,4.36-4.73,4.36v.33h.38c1.31.06,4.36.65,4.36,4.73h0v.14h.33v-.5c.06-1.31.64-4.36,4.73-4.36v-.17h.13"/><path class="cls-2" d="M153,81.25h-.14v-.16h-.36c-1.32-.07-4.37-.65-4.37-4.73h0v-.14h-.33v.5c-.06,1.31-.64,4.36-4.72,4.36v.33h.37c1.31.06,4.36.65,4.36,4.73h0a.79.79,0,0,0,0,.14h.32v-.5c.06-1.31.64-4.36,4.72-4.36v-.17H153"/><path class="cls-2" d="M200.73,81.25h-.14v-.16h-.36c-1.31-.07-4.37-.65-4.37-4.73h0v-.14h-.33v.5c-.06,1.31-.64,4.36-4.72,4.36v.33h.37c1.31.06,4.36.65,4.36,4.73h0a.79.79,0,0,0,0,.14h.32v-.5c.06-1.31.65-4.36,4.72-4.36v-.17h.14"/><path class="cls-2" d="M248.43,81.25h-.13v-.16h-.37c-1.31-.07-4.36-.65-4.36-4.73h0v-.14h-.33v.5c-.06,1.31-.64,4.36-4.72,4.36v.33h.37c1.31.06,4.36.65,4.36,4.73h0a.79.79,0,0,0,0,.14h.32v-.5c.06-1.31.65-4.36,4.73-4.36v-.17h.13"/><path class="cls-1" d="M9.92,119.35H9.79v-.15H9.42c-1.31-.06-4.36-.64-4.36-4.72h0a.79.79,0,0,0,0-.14H4.73v.5c-.06,1.31-.65,4.36-4.73,4.36v.16H0v.17H.37c1.31.07,4.36.65,4.36,4.73h0v.14h.33v-.5c0-1.31.64-4.36,4.72-4.36v-.17h.13"/><path class="cls-1" d="M57.62,119.35h-.13v-.15h-.37c-1.31-.06-4.36-.64-4.36-4.72h0a.79.79,0,0,0,0-.14h-.32v.5c-.06,1.31-.64,4.36-4.73,4.36v.16h0v.17h.37c1.32.07,4.37.65,4.37,4.73h0v.14h.33v-.5c.06-1.31.64-4.36,4.72-4.36v-.17h.13"/><path class="cls-1" d="M105.33,119.35h-.13v-.15h-.38c-1.31-.06-4.36-.64-4.36-4.72h0v-.14h-.33v.5c-.06,1.31-.64,4.36-4.73,4.36v.33h.38c1.31.07,4.36.65,4.36,4.73h0v.14h.33v-.5c.06-1.31.64-4.36,4.73-4.36v-.17h.13"/><path class="cls-2" d="M153,119.35h-.14v-.15h-.36c-1.32-.06-4.37-.64-4.37-4.72h0v-.14h-.33v.5c-.06,1.31-.64,4.36-4.72,4.36v.33h.37c1.31.07,4.36.65,4.36,4.73h0a.94.94,0,0,0,0,.14h.32v-.5c.06-1.31.64-4.36,4.72-4.36v-.17H153"/><path class="cls-2" d="M200.73,119.35h-.14v-.15h-.36c-1.31-.06-4.37-.64-4.37-4.72h0v-.14h-.33v.5c-.06,1.31-.64,4.36-4.72,4.36v.33h.37c1.31.07,4.36.65,4.36,4.73h0a.94.94,0,0,0,0,.14h.32v-.5c.06-1.31.65-4.36,4.72-4.36v-.17h.14"/><path class="cls-2" d="M248.43,119.35h-.13v-.15h-.37c-1.31-.06-4.36-.64-4.36-4.72h0v-.14h-.33v.5c-.06,1.31-.64,4.36-4.72,4.36v.33h.37c1.31.07,4.36.65,4.36,4.73h0a.94.94,0,0,0,0,.14h.32v-.5c.06-1.31.65-4.36,4.73-4.36v-.17h.13"/><path class="cls-1" d="M9.92,157.46H9.79v-.15H9.42c-1.31-.06-4.36-.64-4.36-4.73h0a.73.73,0,0,0,0-.13H4.73V153c-.06,1.31-.65,4.36-4.73,4.36v.16H0v.16H.37c1.31.06,4.36.65,4.36,4.73h0v.14h.33V162c0-1.32.64-4.37,4.72-4.37v-.16h.13"/><path class="cls-1" d="M57.62,157.46h-.13v-.15h-.37c-1.31-.06-4.36-.64-4.36-4.73h0a.73.73,0,0,0,0-.13h-.32V153c-.06,1.31-.64,4.36-4.73,4.36v.16h0v.16h.37c1.32.06,4.37.65,4.37,4.73h0v.14h.33V162c.06-1.32.64-4.37,4.72-4.37v-.16h.13"/><path class="cls-1" d="M105.33,157.46h-.13v-.15h-.38c-1.31-.06-4.36-.64-4.36-4.73h0v-.13h-.33V153c-.06,1.31-.64,4.36-4.73,4.36v.32h.38c1.31.06,4.36.65,4.36,4.73h0v.14h.33V162c.06-1.32.64-4.37,4.73-4.37v-.16h.13"/><path class="cls-2" d="M153,157.46h-.14v-.15h-.36c-1.32-.06-4.37-.64-4.37-4.73h0v-.13h-.33V153c-.06,1.31-.64,4.36-4.72,4.36v.32h.37c1.31.06,4.36.65,4.36,4.73h0a1.13,1.13,0,0,0,0,.14h.32V162c.06-1.32.64-4.37,4.72-4.37v-.16H153"/><path class="cls-2" d="M200.73,157.46h-.14v-.15h-.36c-1.31-.06-4.37-.64-4.37-4.73h0v-.13h-.33V153c-.06,1.31-.64,4.36-4.72,4.36v.32h.37c1.31.06,4.36.65,4.36,4.73h0a1.13,1.13,0,0,0,0,.14h.32V162c.06-1.32.65-4.37,4.72-4.37v-.16h.14"/><path class="cls-2" d="M248.43,157.46h-.13v-.15h-.37c-1.31-.06-4.36-.64-4.36-4.73h0v-.13h-.33V153c-.06,1.31-.64,4.36-4.72,4.36v.32h.37c1.31.06,4.36.65,4.36,4.73h0a1.13,1.13,0,0,0,0,.14h.32V162c.06-1.32.65-4.37,4.73-4.37v-.16h.13"/></svg>