<svg id="Capa_1" data-name="Capa 1" xmlns="http://www.w3.org/2000/svg" viewBox="0 0 159.35 159.35"><defs><style>.cls-1{fill:#00b0ea;}.cls-2{fill:#fff;}.cls-3{fill:#174a9a;}</style></defs><path class="cls-1" d="M79.67,159.35h79.68V79.67a79.68,79.68,0,1,0-79.68,79.68"/><g id="Capa_7" data-name="Capa 7"><g id="Grupo_105" data-name="Grupo 105"><path id="Trazado_428" data-name="Trazado 428" class="cls-2" d="M60.74,72.28A5.05,5.05,0,0,1,65.59,67H80.93a4.51,4.51,0,0,1,.12,9H71.22V80.3h7.93a4,4,0,0,1,0,8H71.22v5.82a5.24,5.24,0,0,1-10.48,0Z"/><path id="Trazado_429" data-name="Trazado 429" class="cls-2" d="M109.37,86.82v9.85A4.53,4.53,0,0,1,105,101.4h-.43a4.65,4.65,0,0,1-4-2.05,10.76,10.76,0,0,1-7,2.29c-6,0-9.56-3-9.56-7.65s4-8,9.9-8a14.94,14.94,0,0,1,5,.73c0-1.51-1.7-2.83-4-2.83s-3.17.83-4.92.83a3.79,3.79,0,0,1-4-3.54v-.41A4.76,4.76,0,0,1,88.36,77c1-.69,3.41-1.86,8.78-1.86,7.41,0,12.24,4.49,12.24,11.71M99.09,93.5a2.13,2.13,0,0,0-2.25-2,2,2,0,0,0-.63,3.9,2.22,2.22,0,0,0,.63,0,2.13,2.13,0,0,0,2.25-2"/><path id="Trazado_430" data-name="Trazado 430" class="cls-2" d="M138,85.1V96.49a5.15,5.15,0,1,1-10.3.13V88.43c0-2-.86-3-2.62-3a2.43,2.43,0,0,0-2.53,2.72V96.5a5.15,5.15,0,0,1-10.3,0V81a4.69,4.69,0,0,1,4.48-4.86H117a4.6,4.6,0,0,1,4.62,3.38,9,9,0,0,1,7.3-3.62c5.34,0,9,3.67,9,9.15"/><path id="Trazado_431" data-name="Trazado 431" class="cls-3" d="M50.63,81.78a3.61,3.61,0,1,0,.1-7.22h-.91L50.38,72a3.91,3.91,0,0,0-7.65-1.65h0l-.92,4.24H37.76L38.32,72a3.91,3.91,0,0,0-7.65-1.65h0l-.92,4.24H27.37a3.61,3.61,0,1,0,0,7.22h.82l-1,4.79H25a3.61,3.61,0,0,0,0,7.22h.6L25,96.41a3.91,3.91,0,0,0,7.65,1.66l.93-4.28h4l-.57,2.62a3.91,3.91,0,1,0,7.65,1.65h0l.92-4.27h2.6a3.61,3.61,0,0,0,0-7.22h-1l1-4.78Zm-11.41,4.8H35.16l1-4.79h4Z"/></g></g></svg>