<svg id="Capa_1" data-name="Capa 1" xmlns="http://www.w3.org/2000/svg" viewBox="0 0 512 512"><defs><style>.cls-1{fill:#bbbdc2;}.cls-2{fill:#fff;}.cls-3{fill:#00b2ef;}.cls-4,.cls-5,.cls-8{fill:none;}.cls-4{stroke:#b8babf;stroke-width:8.52px;}.cls-4,.cls-5{stroke-linecap:round;stroke-linejoin:bevel;}.cls-5,.cls-8{stroke:#ff1920;}.cls-5{stroke-width:4.26px;}.cls-6{fill:#ff1920;}.cls-7{fill:#002861;}.cls-8{stroke-miterlimit:10;stroke-width:2.38px;}</style></defs><path class="cls-1" d="M271.5,458.11H.29v-380H337.87V391.74a66.37,66.37,0,0,1-66.37,66.37"/><path class="cls-2" d="M255.08,419.45H18.75v-322h295V360.83a58.62,58.62,0,0,1-58.62,58.62"/><path class="cls-3" d="M244.15,104.53H100.72V67.82a18.67,18.67,0,0,1,18.67-18.67H225.48a18.67,18.67,0,0,1,18.67,18.67Z"/><path class="cls-4" d="M41.81,161l3.27-2.53a46,46,0,0,1,46.51-5.7,45.9,45.9,0,0,0,37.35-.18l6.25-2.82a46,46,0,0,1,35.58-.93L185,154.38a45.86,45.86,0,0,0,33.75-.15l11.33-4.52a46,46,0,0,1,38.54,2L286,161"/><path class="cls-4" d="M41.81,202.4l3.27-2.52a45.92,45.92,0,0,1,46.51-5.7,45.94,45.94,0,0,0,37.35-.19l6.25-2.82a45.86,45.86,0,0,1,35.58-.92L185,195.8a45.86,45.86,0,0,0,33.75-.15l11.33-4.53a46,46,0,0,1,38.54,2.06L286,202.4"/><path class="cls-2" d="M41.81,243.82l3.27-2.53a46,46,0,0,1,46.51-5.69,45.9,45.9,0,0,0,37.35-.18l6.25-2.82a45.86,45.86,0,0,1,35.58-.93L185,237.22a45.91,45.91,0,0,0,33.75-.14l11.33-4.53a45.93,45.93,0,0,1,38.54,2.06L286,243.82"/><path class="cls-5" d="M41.81,243.82l3.27-2.53a46,46,0,0,1,46.51-5.69,45.9,45.9,0,0,0,37.35-.18l6.25-2.82a45.86,45.86,0,0,1,35.58-.93L185,237.22a45.91,45.91,0,0,0,33.75-.14l11.33-4.53a45.93,45.93,0,0,1,38.54,2.06L286,243.82"/><path class="cls-4" d="M41.81,285.25l3.27-2.53A45.92,45.92,0,0,1,91.59,277a45.94,45.94,0,0,0,37.35-.19l6.25-2.83a45.9,45.9,0,0,1,35.58-.91L185,278.65a45.91,45.91,0,0,0,33.75-.14L230.08,274A45.89,45.89,0,0,1,268.62,276L286,285.25"/><path class="cls-4" d="M41.81,326.67l3.27-2.53a46,46,0,0,1,46.51-5.7,45.9,45.9,0,0,0,37.35-.18l6.25-2.82a46,46,0,0,1,35.58-.93L185,320.07a45.86,45.86,0,0,0,33.75-.15l11.33-4.52a45.89,45.89,0,0,1,38.54,2.06L286,326.67"/><path class="cls-6" d="M369.75,451.61V116.68h19V451.61a9.52,9.52,0,0,1-19,0"/><path class="cls-1" d="M380.81,84.37l8,32.31h-19l8-32.31a1.58,1.58,0,0,1,3.07,0"/><rect class="cls-6" x="441.6" y="297.59" width="70.11" height="78.46"/><polygon class="cls-6" points="425.58 279.58 441.6 297.6 511.71 297.6 495.69 279.58 425.58 279.58"/><polygon class="cls-7" points="425.58 279.58 425.58 376.06 441.6 376.06 441.6 297.6 425.58 279.58"/><path class="cls-3" d="M511.71,376.06v71a15.82,15.82,0,0,1-15.83,15.82H441.6l-15.69-15.68V376.06Z"/><polygon class="cls-7" points="441.6 376.06 441.6 462.85 425.58 447.17 425.58 376.06 441.6 376.06"/><line class="cls-8" x1="452.63" y1="252.32" x2="461.35" y2="258.27"/><line class="cls-8" x1="456.07" y1="262.6" x2="450.12" y2="271.33"/><line class="cls-8" x1="463.41" y1="238.56" x2="457.46" y2="247.29"/><line class="cls-8" x1="439.45" y1="261.59" x2="449.83" y2="259.62"/><line class="cls-8" x1="448.95" y1="252.48" x2="446.99" y2="242.1"/><line class="cls-8" x1="440.89" y1="245.52" x2="434.94" y2="254.26"/><line class="cls-8" x1="484.38" y1="252.32" x2="493.11" y2="258.27"/><line class="cls-8" x1="487.83" y1="262.6" x2="481.87" y2="271.33"/><line class="cls-8" x1="495.16" y1="238.56" x2="489.21" y2="247.29"/><line class="cls-8" x1="471.21" y1="261.59" x2="481.59" y2="259.62"/><line class="cls-8" x1="480.7" y1="252.48" x2="478.74" y2="242.1"/><line class="cls-8" x1="472.64" y1="245.52" x2="466.7" y2="254.26"/><line class="cls-8" x1="477.48" y1="222.52" x2="468.75" y2="216.57"/><line class="cls-8" x1="474.03" y1="212.24" x2="479.99" y2="203.51"/><line class="cls-8" x1="466.7" y1="236.28" x2="472.64" y2="227.55"/><line class="cls-8" x1="490.65" y1="213.25" x2="480.27" y2="215.22"/><line class="cls-8" x1="481.16" y1="222.36" x2="483.12" y2="232.74"/><line class="cls-8" x1="489.21" y1="229.31" x2="495.16" y2="220.59"/><line class="cls-8" x1="445.73" y1="222.52" x2="436.99" y2="216.57"/><line class="cls-8" x1="442.28" y1="212.24" x2="448.23" y2="203.51"/><line class="cls-8" x1="434.94" y1="236.28" x2="440.89" y2="227.55"/><line class="cls-8" x1="458.9" y1="213.25" x2="448.52" y2="215.22"/><line class="cls-8" x1="449.41" y1="222.36" x2="451.37" y2="232.74"/><line class="cls-8" x1="457.46" y1="229.31" x2="463.41" y2="220.59"/></svg>