<svg id="Capa_1" data-name="Capa 1" xmlns="http://www.w3.org/2000/svg" viewBox="0 0 512 512"><defs><style>.cls-1{fill:#d9d9d9;}.cls-2{fill:#eceff1;}.cls-3,.cls-4,.cls-7,.cls-8{fill:none;}.cls-3,.cls-4{stroke:#fc1f25;}.cls-3{stroke-miterlimit:10;stroke-width:13.9px;}.cls-4,.cls-7,.cls-8{stroke-linecap:round;stroke-linejoin:round;}.cls-4{stroke-width:10px;}.cls-5{fill:#00b2ef;}.cls-6{fill:#002c60;}.cls-7{stroke:#b0b0b0;stroke-width:13px;}.cls-8{stroke:#002861;stroke-width:14px;}</style></defs><path class="cls-1" d="M426.94,87.72l-47-47a21.91,21.91,0,0,0-15.49-6.42H130.24a21.9,21.9,0,0,0-21.9,21.91v401a21.9,21.9,0,0,0,21.9,21.9H411.45a21.91,21.91,0,0,0,21.91-21.9V103.21A21.91,21.91,0,0,0,426.94,87.72Z"/><path class="cls-2" d="M96.94,464.46H395.7a21.68,21.68,0,0,0,21.69-21.68V79.57l-77-77H96.94A21.69,21.69,0,0,0,75.26,24.28v418.5A21.68,21.68,0,0,0,96.94,464.46Z"/><path class="cls-1" d="M417.35,79H354.16A13.26,13.26,0,0,1,340.9,65.78V2.59Z"/><rect class="cls-3" x="212.11" y="350.73" width="170.65" height="68.43" rx="4.31"/><line class="cls-4" x1="241.38" y1="384.95" x2="266.53" y2="384.95"/><line class="cls-4" x1="293.59" y1="384.95" x2="352.41" y2="384.95"/><path class="cls-5" d="M272,273.75l33.89-33.88a24.64,24.64,0,0,1,34.86,0l84.88,84.88a24.66,24.66,0,0,1,0,34.87L391.73,393.5Z"/><path class="cls-6" d="M460.15,145.46a51.32,51.32,0,0,0-51.32,51.31v4.28l-77,81.26,42.76,42.76,81.26-77h4.27a51.32,51.32,0,1,0,0-102.63Z"/><path class="cls-6" d="M259.8,285.94,272,273.75,391.73,393.49l-12.18,12.19a19.06,19.06,0,0,1-26.95,0l-92.8-92.8A19,19,0,0,1,259.8,285.94Z"/><line class="cls-7" x1="242.01" y1="171.11" x2="299.68" y2="171.11"/><line class="cls-7" x1="155.92" y1="171.11" x2="213.59" y2="171.11"/><line class="cls-7" x1="122.65" y1="213.88" x2="290.58" y2="213.88"/><line class="cls-7" x1="172.91" y1="248.09" x2="250.14" y2="248.09"/><line class="cls-7" x1="122.65" y1="248.09" x2="147.25" y2="248.09"/><line class="cls-7" x1="122.65" y1="282.31" x2="216.61" y2="282.31"/><line class="cls-7" x1="188.91" y1="316.52" x2="216.61" y2="316.52"/><line class="cls-7" x1="122.65" y1="316.52" x2="165.29" y2="316.52"/><line class="cls-7" x1="122.65" y1="350.73" x2="182.56" y2="350.73"/><line class="cls-7" x1="122.65" y1="384.95" x2="182.56" y2="384.95"/><line class="cls-7" x1="122.65" y1="419.08" x2="182.56" y2="419.08"/><circle class="cls-5" cx="109.47" cy="120.4" r="84.37"/><polyline class="cls-8" points="62.79 113.05 109.47 156.9 190.1 61.18"/></svg>