<svg id="Capa_1" data-name="Capa 1" xmlns="http://www.w3.org/2000/svg" viewBox="0 0 512 512"><defs><style>.cls-1,.cls-3,.cls-5{fill:none;}.cls-1{stroke:#00b2ef;}.cls-1,.cls-3,.cls-4,.cls-5{stroke-linecap:round;stroke-linejoin:round;}.cls-1,.cls-3,.cls-4{stroke-width:13px;}.cls-2{fill:#0059ea;}.cls-3{stroke:#ff4c6c;}.cls-4{fill:#fc1f25;}.cls-4,.cls-5{stroke:#fff;}.cls-5{stroke-width:8px;}</style></defs><line class="cls-1" x1="458.6" y1="129.49" x2="418.79" y2="129.49"/><line class="cls-1" x1="435.94" y1="80.84" x2="407.78" y2="108.99"/><line class="cls-1" x1="390.43" y1="62.23" x2="390.43" y2="102.05"/><path class="cls-2" d="M186.45,438.66a69.55,69.55,0,0,0,139.1,0"/><path class="cls-3" d="M219.49,81.71V43.3A36.52,36.52,0,0,1,256,6.79h0A36.52,36.52,0,0,1,292.51,43.3V78"/><path class="cls-4" d="M97.17,233.78a158.83,158.83,0,0,1,317.66,0V438.66H97.17Z"/><path class="cls-5" d="M235.77,144a78.45,78.45,0,0,0-78.45,78.45v37.84"/></svg>