<svg id="Capa_1" data-name="Capa 1" xmlns="http://www.w3.org/2000/svg" viewBox="0 0 512 512"><defs><style>.cls-1{fill:#0054a6;}.cls-2,.cls-3,.cls-4,.cls-6{fill:none;stroke-linecap:round;stroke-linejoin:round;}.cls-2,.cls-4{stroke:#fff;}.cls-2,.cls-6{stroke-width:10px;}.cls-3{stroke:#0059ea;stroke-width:13px;}.cls-4{stroke-width:4px;}.cls-5{fill:#00a1d6;}.cls-6{stroke:#ff1920;}.cls-7{fill:#fc1f25;}.cls-8{fill:#b0b0b0;}</style></defs><path class="cls-1" d="M473.39,428h-245a21.53,21.53,0,0,1-21.52-21.53V57.56a21.93,21.93,0,0,1,21.93-21.93H411.84L494.92,116V406.5A21.53,21.53,0,0,1,473.39,428Z"/><rect class="cls-2" x="258.66" y="92.68" width="139.4" height="167.8" rx="15.32" transform="translate(656.72 353.16) rotate(-180)"/><path class="cls-3" d="M495,177.24V131a23.21,23.21,0,0,0-7-16.83l-76.63-72.8a20,20,0,0,0-13.73-5.68H227.72c-11.47,0-20.86,10-20.86,22.41V405.76c0,12.29,9.39,22.3,20.86,22.3H474.1c11.46,0,20.86-10,20.86-22.3V244.36"/><polyline class="cls-4" points="305.15 96.98 305.15 152 391.23 152"/><line class="cls-4" x1="349.75" y1="96.98" x2="349.75" y2="152.01"/><line class="cls-4" x1="305.15" y1="201.15" x2="305.15" y2="256.18"/><line class="cls-4" x1="349.75" y1="201.15" x2="349.75" y2="256.18"/><line class="cls-4" x1="265.49" y1="201.38" x2="391.23" y2="201.38"/><ellipse id="Elipse_6" data-name="Elipse 6" class="cls-5" cx="348.42" cy="472.78" rx="155.61" ry="12.6"/><line class="cls-6" x1="109.24" y1="26.62" x2="109.24" y2="63.82"/><line class="cls-6" x1="63.79" y1="47.79" x2="90.09" y2="74.09"/><line class="cls-6" x1="46.41" y1="90.3" x2="83.61" y2="90.3"/><path class="cls-7" d="M243.84,155.89,213.52,93.22a22.68,22.68,0,0,0-19.23-12.59L124.73,77.9A22.51,22.51,0,0,0,105.07,88L11.64,230.75a22.34,22.34,0,0,0,6.47,31L118,327.14a22.36,22.36,0,0,0,31-6.47L242.41,178A22.44,22.44,0,0,0,243.84,155.89ZM158,157.1a22.39,22.39,0,1,1,31-6.47A22.36,22.36,0,0,1,158,157.1Z"/><path class="cls-7" d="M242.41,178,149,320.67a22.36,22.36,0,0,1-31,6.47l-49.94-32.7L158,157.1a22.39,22.39,0,1,0,24.52-37.46l23.13-35.33a22.42,22.42,0,0,1,7.9,8.91l30.32,62.67A22.44,22.44,0,0,1,242.41,178Z"/><path class="cls-8" d="M228,63.75,184.65,130a7.46,7.46,0,0,1-12.49-8.17l43.35-66.22A7.46,7.46,0,1,1,228,63.75Z"/></svg>