<?xml version="1.0" encoding="utf-8"?>
<!-- Generator: Adobe Illustrator 24.1.1, SVG Export Plug-In . SVG Version: 6.00 Build 0)  -->
<svg version="1.1" id="Capa_1" xmlns="http://www.w3.org/2000/svg" xmlns:xlink="http://www.w3.org/1999/xlink" x="0px" y="0px"
	 viewBox="0 0 512 512" style="enable-background:new 0 0 512 512;" xml:space="preserve">
<style type="text/css">
	.st0{fill:#00B1EC;}
	.st1{fill:none;stroke:#0054A6;stroke-width:9.0945;stroke-miterlimit:10;}
	.st2{fill:#1F2F59;}
	.st3{fill:#FC1F25;stroke:#FFFFFF;stroke-width:1.728;stroke-miterlimit:10;}
	.st4{fill:#0459E8;}
	.st5{opacity:0.5;fill:#FFFFFF;enable-background:new    ;}
	.st6{fill:#FF1634;}
	.st7{fill:none;stroke:#00B1EC;stroke-width:12.2906;stroke-linecap:round;stroke-linejoin:round;}
</style>
<g>
	<path class="st0" d="M27.2,462.1h375.5c11.2,0,20.3,11.2,20.3,24.9v0c0,13.8-9.1,24.9-20.3,24.9H27.2C16,512,6.9,500.8,6.9,487.1v0
		C6.9,473.3,16,462.1,27.2,462.1z"/>
	<g>
		<path class="st1" d="M42.6,179.8h35.5c12.7,0,22.9,10.3,22.9,22.9v204.6c0,12.7-10.3,22.9-22.9,22.9H42.6
			c-12.7,0-22.9-10.3-22.9-22.9V202.7C19.7,190,29.9,179.8,42.6,179.8z"/>
		<path class="st2" d="M346.2,80.8h35.5c12.7,0,22.9,10.3,22.9,22.9v303.6c0,12.7-10.3,22.9-22.9,22.9h-35.5
			c-12.7,0-22.9-10.3-22.9-22.9V103.7C323.3,91.1,333.5,80.8,346.2,80.8z"/>
		<path class="st3" d="M194.4,0h35.5c12.7,0,22.9,10.3,22.9,22.9v384.4c0,12.7-10.3,22.9-22.9,22.9h-35.5
			c-12.7,0-22.9-10.3-22.9-22.9V22.9C171.5,10.3,181.7,0,194.4,0z"/>
		<path class="st4" d="M399.1,381.4l62,61.9c10.9,9.7,27.6,8.8,37.3-2.1c8.9-10,8.9-25.2,0-35.2l-61.9-62
			C427,359.1,414.2,371.9,399.1,381.4z"/>
		<path class="st5" d="M416.9,196.1c-46.4-46.4-121.6-46.5-168-0.1s-46.5,121.6-0.1,168c37.1,37.2,94.3,45.6,140.5,20.6
			c20.4-10.9,37.2-27.6,48.1-48.1C462.4,290.3,454,233.2,416.9,196.1z"/>
		<path class="st6" d="M333.1,404.4c-6.1,0-12.2-0.4-18.2-1.3c-68-10-115-73.1-105-141.1c10-68,73.1-115,141.1-105
			c26.5,3.9,51.1,16.2,70,35.2l0,0c38.8,38.9,47.5,98.6,21.4,147c-11.4,21.4-28.9,38.9-50.3,50.3
			C373.9,399.3,353.7,404.4,333.1,404.4z M332.9,166.9c-62.5,0-113.2,50.6-113.2,113.2c0,62.5,50.6,113.2,113.2,113.2
			c18.8,0,37.3-4.7,53.9-13.6c19.5-10.4,35.4-26.3,45.8-45.8c29.7-54.9,9.3-123.6-45.6-153.3C370.3,171.5,351.7,166.9,332.9,166.9
			L332.9,166.9z"/>
		<path class="st7" d="M368.1,197.9c31.1,13.9,52.2,43.6,54.9,77.5"/>
	</g>
</g>
</svg>
