<?xml version="1.0" encoding="utf-8"?>
<!-- Generator: Adobe Illustrator 24.1.1, SVG Export Plug-In . SVG Version: 6.00 Build 0)  -->
<svg version="1.1" id="Capa_1" xmlns="http://www.w3.org/2000/svg" xmlns:xlink="http://www.w3.org/1999/xlink" x="0px" y="0px"
	 viewBox="0 0 512 512" style="enable-background:new 0 0 512 512;" xml:space="preserve">
<style type="text/css">
	.st0{fill:#00B1EC;}
	.st1{fill:#F7F8F7;}
	.st2{fill:#BABCC0;}
	.st3{fill:none;stroke:#626364;stroke-width:3.5656;stroke-miterlimit:10;}
	.st4{fill:#0059EA;}
</style>
<path class="st0" d="M57.6,0h386.3c18.8,0,34,15.2,34,34v0v40.7l0,0H33l0,0V24.7C33,11.1,44,0,57.6,0z"/>
<path class="st1" d="M33,74.8h444.9l0,0v429.7c0,4.1-3.3,7.5-7.5,7.5c0,0,0,0,0,0H33l0,0V74.8L33,74.8z"/>
<path class="st2" d="M428.4,74.8h49.5l0,0v418.9c0,10.1-8.2,18.3-18.3,18.3h-31.2l0,0V74.8L428.4,74.8z"/>
<line class="st3" x1="452.5" y1="130.2" x2="452.5" y2="486.1"/>
<line class="st3" x1="464.5" y1="130.2" x2="464.5" y2="486.1"/>
<path class="st2" d="M177.2,159.7h189.5c4.5,0,8.2,3.7,8.2,8.2l0,0c0,4.5-3.7,8.2-8.2,8.2H177.2c-4.5,0-8.2-3.7-8.2-8.2l0,0
	C169,163.4,172.7,159.7,177.2,159.7z"/>
<path class="st2" d="M177.2,229h189.5c4.5,0,8.2,3.7,8.2,8.2l0,0c0,4.5-3.7,8.2-8.2,8.2H177.2c-4.5,0-8.2-3.7-8.2-8.2l0,0
	C169,232.7,172.7,229,177.2,229z"/>
<path class="st2" d="M177.2,298.3h189.5c4.5,0,8.2,3.7,8.2,8.2v0c0,4.5-3.7,8.2-8.2,8.2H177.2c-4.5,0-8.2-3.7-8.2-8.2v0
	C169,302,172.7,298.3,177.2,298.3z"/>
<path class="st2" d="M177.2,367.6h189.5c4.5,0,8.2,3.7,8.2,8.2v0c0,4.5-3.7,8.2-8.2,8.2H177.2c-4.5,0-8.2-3.7-8.2-8.2v0
	C169,371.3,172.7,367.6,177.2,367.6z"/>
<path class="st4" d="M135.8,167.8c0,11.6-9.4,21-21,21c-11.6,0-21-9.4-21-21c0-11.6,9.4-21,21-21l0,0
	C126.4,146.9,135.8,156.3,135.8,167.8L135.8,167.8"/>
<path class="st4" d="M135.8,237.1c0,11.6-9.4,21-21,21s-21-9.4-21-21c0-11.6,9.4-21,21-21l0,0l0,0
	C126.4,216.2,135.8,225.6,135.8,237.1"/>
<path class="st4" d="M135.8,306.5c0,11.6-9.4,21-21,21s-21-9.4-21-21c0-11.6,9.4-21,21-21l0,0l0,0
	C126.4,285.5,135.8,294.9,135.8,306.5"/>
<path class="st4" d="M135.8,375.8c0,11.6-9.4,21-21,21c-11.6,0-21-9.4-21-21c0-11.6,9.4-21,21-21l0,0
	C126.4,354.8,135.8,364.2,135.8,375.8L135.8,375.8"/>
</svg>
