<svg id="Capa_1" data-name="Capa 1" xmlns="http://www.w3.org/2000/svg" viewBox="0 0 512 512"><defs><style>.cls-1{fill:#bbbdc2;}.cls-2{fill:#eaeff0;}.cls-3{fill:#b9bbbe;}.cls-10,.cls-4,.cls-8,.cls-9{fill:none;}.cls-4{stroke:#00b0ea;stroke-width:12.4px;}.cls-4,.cls-8{stroke-miterlimit:10;}.cls-5{fill:#0059ea;}.cls-6{fill:#fff;}.cls-7{fill:#fc1f25;}.cls-8{stroke:#1f2f59;}.cls-8,.cls-9{stroke-width:3.81px;}.cls-9{stroke:#fff;}.cls-10,.cls-9{stroke-linecap:round;stroke-linejoin:round;}.cls-10{stroke:#fc1f25;stroke-width:6.05px;}</style></defs><ellipse id="Elipse_6" data-name="Elipse 6" class="cls-1" cx="256" cy="500.54" rx="122.13" ry="11.46"/><path class="cls-2" d="M351,464.88H152.23a23.64,23.64,0,0,1-23.64-23.64V407H374.67v34.26A23.65,23.65,0,0,1,351,464.88Z"/><path class="cls-3" d="M273.34,443.16H229.91a7.24,7.24,0,0,1,0-14.47h43.43a7.24,7.24,0,1,1,0,14.47Z"/><path class="cls-2" d="M152.23,45.09H351a23.65,23.65,0,0,1,23.63,23.64V103H128.59V68.73A23.64,23.64,0,0,1,152.23,45.09Z"/><path class="cls-3" d="M287.82,81.28H215.44a7.24,7.24,0,1,1,0-14.47h72.38a7.24,7.24,0,0,1,0,14.47Z"/><rect class="cls-4" x="128.59" y="45.09" width="246.08" height="419.78" rx="23.58"/><rect class="cls-5" x="135.51" y="103" width="232.06" height="303.98"/><rect class="cls-6" x="157.54" y="131.95" width="188.18" height="115.8" rx="4.7"/><polygon class="cls-7" points="229.91 211.56 229.91 168.13 273.34 189.85 229.91 211.56"/><circle class="cls-8" cx="245.35" cy="189.72" r="39.81"/><line class="cls-9" x1="161.66" y1="285.52" x2="345.72" y2="285.52"/><line class="cls-9" x1="161.66" y1="324.5" x2="345.72" y2="324.5"/><line class="cls-9" x1="161.66" y1="363.47" x2="345.72" y2="363.47"/><line class="cls-10" x1="423.41" y1="48.01" x2="397.75" y2="48.01"/><line class="cls-10" x1="408.8" y1="16.65" x2="390.66" y2="34.8"/><line class="cls-10" x1="379.47" y1="4.66" x2="379.47" y2="30.32"/></svg>