<svg id="Capa_1" data-name="Capa 1" xmlns="http://www.w3.org/2000/svg" viewBox="0 0 512 512"><defs><style>.cls-1{fill:#00499d;}.cls-2{fill:#002c60;}.cls-3,.cls-6{fill:#fc1f25;}.cls-4,.cls-5,.cls-7,.cls-8{fill:none;stroke-linejoin:round;}.cls-4,.cls-5,.cls-6,.cls-7,.cls-8{stroke:#fff;}.cls-4,.cls-5,.cls-8{stroke-linecap:round;}.cls-4,.cls-6,.cls-7{stroke-width:5.92px;}.cls-5{stroke-width:5.92px;}.cls-6{stroke-miterlimit:10;}.cls-8{stroke-width:8.26px;}</style></defs><polygon class="cls-1" points="246.71 512 342.49 511.77 341.7 340.71 244.59 341.07 246.71 512"/><polygon class="cls-2" points="341.7 340.71 341.93 375.94 244.76 386.01 244.59 341.35 341.7 340.71"/><path class="cls-3" d="M158.93,200.36l.84,126a15.56,15.56,0,0,0,15.65,15.46l226.65-1.5a15.54,15.54,0,0,0,15.45-15.65l-.83-126V126.58H298.26"/><path class="cls-4" d="M158.93,200.36l.84,126a15.56,15.56,0,0,0,15.65,15.46l226.65-1.5a15.54,15.54,0,0,0,15.45-15.65l-.83-126V126.58H298.26"/><path class="cls-3" d="M189.12,187.65l-108-40.88c-10.23-4-21.14-.4-24.38,8L44.26,187C41,195.4,46.68,205.39,56.9,209.35l110.64,42.88"/><path class="cls-5" d="M189.12,187.65l-108-40.88c-10.23-4-21.14-.4-24.38,8L44.26,187C41,195.4,46.68,205.39,56.9,209.35l110.64,42.88"/><path class="cls-3" d="M414.61,152.3,473,94.87a19.91,19.91,0,0,0,0-28.15L455.64,49.37a19.9,19.9,0,0,0-28.14,0l-82.4,82.41"/><path class="cls-4" d="M414.61,152.3,473,94.87a19.91,19.91,0,0,0,0-28.15L455.64,49.37a19.9,19.9,0,0,0-28.14,0l-82.4,82.41"/><path class="cls-3" d="M308,216.09l24.54-.17a19.89,19.89,0,0,0,19.77-20l-.6-89.62a19.88,19.88,0,0,0-20-19.76l-24.54.16a19.9,19.9,0,0,0-19.77,20l.6,89.61a19.89,19.89,0,0,0,20,19.77"/><path class="cls-4" d="M308,216.09l24.54-.17a19.89,19.89,0,0,0,19.77-20l-.6-89.62a19.88,19.88,0,0,0-20-19.76l-24.54.16a19.9,19.9,0,0,0-19.77,20l.6,89.61A19.89,19.89,0,0,0,308,216.09Z"/><path class="cls-3" d="M244.73,231.67l22.27-.15a21,21,0,0,0,20.89-21.16l-.68-102.52A21,21,0,0,0,266.05,87l-22.28.14a21,21,0,0,0-20.89,21.18l.67,102.51a21,21,0,0,0,21.18,20.89"/><path class="cls-4" d="M244.73,231.67l22.27-.15a21,21,0,0,0,20.89-21.16l-.68-102.52A21,21,0,0,0,266.05,87l-22.28.14a21,21,0,0,0-20.89,21.18l.67,102.51A21,21,0,0,0,244.73,231.67Z"/><path class="cls-6" d="M179.19,216.51l24.54-.16a19.9,19.9,0,0,0,19.77-20l-.6-89.61a19.89,19.89,0,0,0-20-19.77l-24.54.16a19.89,19.89,0,0,0-19.76,20l.59,89.62a19.88,19.88,0,0,0,20,19.76"/><path class="cls-7" d="M179.19,216.51l24.54-.16a19.9,19.9,0,0,0,19.77-20l-.6-89.61a19.89,19.89,0,0,0-20-19.77l-24.54.16a19.89,19.89,0,0,0-19.76,20l.59,89.62A19.88,19.88,0,0,0,179.19,216.51Z"/><path class="cls-8" d="M398.64,39.85A47.12,47.12,0,0,1,481,29.54"/><path class="cls-8" d="M59.6,236.56a47.12,47.12,0,0,1-48-67.72"/></svg>