<svg id="Capa_1" data-name="Capa 1" xmlns="http://www.w3.org/2000/svg" viewBox="0 0 512 512"><defs><style>.cls-1{fill:#00b2ef;}.cls-2{fill:#0054a6;}.cls-3{fill:#fff;}.cls-4{fill:#002c60;}.cls-5{fill:none;stroke:#09afea;stroke-linecap:round;stroke-linejoin:round;stroke-width:3.94px;}.cls-6{fill:#fc1f25;}</style></defs><path class="cls-1" d="M0,378.67H512a37.75,37.75,0,0,1-37.75,37.75H37.75A37.74,37.74,0,0,1,0,378.67"/><path class="cls-2" d="M487.91,378.67H24.09V110A14.44,14.44,0,0,1,38.53,95.58h435A14.43,14.43,0,0,1,487.91,110Z"/><rect class="cls-3" x="45.34" y="118.79" width="421.32" height="246.72" rx="7.23"/><path class="cls-4" d="M305.12,392.24H206.88a5.5,5.5,0,0,1-5.5-5.5v-7.4H310.62v7.4A5.5,5.5,0,0,1,305.12,392.24Z"/><path class="cls-5" d="M233.21,143.59a104.07,104.07,0,0,1,11.23-2.67"/><path class="cls-5" d="M204.24,157.36a103.65,103.65,0,0,1,21.54-11.25"/><path class="cls-5" d="M162.86,273.6a104.49,104.49,0,0,1,28-105.39q2-1.91,4-3.67"/><circle class="cls-6" cx="261.68" cy="241.54" r="91.78"/><path class="cls-3" d="M244.56,292.67v4.82a4,4,0,0,0,4,4h26.3a4,4,0,0,0,4-4v-4.82a4,4,0,0,1,2.51-3.69l.05,0a4,4,0,0,1,4.37.84l3.41,3.41a4,4,0,0,0,5.61,0l18.59-18.59a4,4,0,0,0,0-5.62l-3.41-3.41a4,4,0,0,1-.84-4.37l0-.05a4,4,0,0,1,3.69-2.5h4.82a4,4,0,0,0,4-4V228.4a4,4,0,0,0-4-4h-4.82a4,4,0,0,1-3.69-2.51l0,0a4,4,0,0,1,.84-4.37l3.41-3.41a4,4,0,0,0,0-5.61l-18.59-18.6a4,4,0,0,0-5.62,0l-3.4,3.41a4,4,0,0,1-4.38.84l-.06,0a4,4,0,0,1-2.5-3.69v-4.83a4,4,0,0,0-4-4h-26.3a4,4,0,0,0-4,4v4.83a4,4,0,0,1-2.51,3.69l-.05,0a4,4,0,0,1-4.37-.85l-3.41-3.41a4,4,0,0,0-5.61,0L210,208.47a4,4,0,0,0,0,5.62l3.41,3.41a4,4,0,0,1,.84,4.36l0,.06a4,4,0,0,1-3.69,2.5h-4.82a4,4,0,0,0-4,4v26.3a4,4,0,0,0,4,4h4.82a4,4,0,0,1,3.69,2.51l0,.05a4,4,0,0,1-.84,4.37L210,269a4,4,0,0,0,0,5.61l18.59,18.6a4,4,0,0,0,5.62,0l3.41-3.41A4,4,0,0,1,242,289l.06,0A4,4,0,0,1,244.56,292.67ZM228.61,281.1l-6.49-6.49a4,4,0,0,1,0-5.61l1.66-1.66a4,4,0,0,0,.66-4.75l-.12-.2a42.71,42.71,0,0,1-3.78-9.18l-.07-.22a4,4,0,0,0-3.82-2.89h-2.36a4,4,0,0,1-4-4V237a4,4,0,0,1,4-4h2.36a4,4,0,0,0,3.82-2.89l.07-.22a42.63,42.63,0,0,1,3.78-9.17l.12-.21a4,4,0,0,0-.66-4.74l-1.66-1.66a4,4,0,0,1,0-5.62l6.49-6.49a4,4,0,0,1,5.61,0l1.66,1.66a4,4,0,0,0,4.75.66l.2-.12A42.71,42.71,0,0,1,250,200.4l.22-.06a4,4,0,0,0,2.89-3.82v-2.37a4,4,0,0,1,4-4h9.18a4,4,0,0,1,4,4v2.36a4,4,0,0,0,2.89,3.83l.23.06a42.63,42.63,0,0,1,9.17,3.78l.21.12a4,4,0,0,0,4.74-.66l1.66-1.66a4,4,0,0,1,5.61,0l6.49,6.49a4,4,0,0,1,0,5.62l-1.66,1.66a4,4,0,0,0-.65,4.74l.11.21a42.65,42.65,0,0,1,3.79,9.17l.06.22a4,4,0,0,0,3.82,2.89h2.36a4,4,0,0,1,4,4v9.18a4,4,0,0,1-4,4h-2.36a4,4,0,0,0-3.82,2.89l-.07.22a42.71,42.71,0,0,1-3.78,9.18l-.12.2a4,4,0,0,0,.66,4.75l1.66,1.66a4,4,0,0,1,0,5.61l-6.49,6.49a4,4,0,0,1-5.61,0l-1.66-1.66a4,4,0,0,0-4.75-.66l-.2.11a42.23,42.23,0,0,1-9.18,3.79l-.22.06a4,4,0,0,0-2.89,3.82v2.36a4,4,0,0,1-4,4h-9.18a4,4,0,0,1-4-4v-2.36a4,4,0,0,0-2.89-3.82l-.23-.06a42.15,42.15,0,0,1-9.17-3.79l-.21-.11a4,4,0,0,0-4.74.66l-1.66,1.65A4,4,0,0,1,228.61,281.1Z"/><path class="cls-3" d="M259.34,267.12a25.68,25.68,0,1,0-23.24-23.23A25.71,25.71,0,0,0,259.34,267.12Zm.94-42.64a17.12,17.12,0,1,1-15.66,15.67A17.13,17.13,0,0,1,260.28,224.48Z"/></svg>