<svg id="Capa_1" data-name="Capa 1" xmlns="http://www.w3.org/2000/svg" viewBox="0 0 512 512"><defs><style>.cls-1{fill:#00b2ef;}.cls-2{fill:#0054a6;}.cls-3{fill:#e9ece9;}.cls-4{fill:#002c60;}.cls-5{fill:#fff;stroke:#002c60;stroke-miterlimit:10;stroke-width:6.88px;}.cls-6{fill:#fc1f25;}.cls-7,.cls-8{fill:none;stroke-linecap:round;stroke-linejoin:round;}.cls-7{stroke:#e7e9e6;stroke-width:13px;}.cls-8{stroke:#09afea;stroke-width:8.39px;}</style></defs><path class="cls-1" d="M0,408.22H432.62a31.9,31.9,0,0,1-31.9,31.9H31.9A31.89,31.89,0,0,1,0,408.22"/><path class="cls-2" d="M412.26,408.22H20.35v-227A12.21,12.21,0,0,1,32.55,169H400.07a12.19,12.19,0,0,1,12.19,12.19Z"/><rect class="cls-3" x="38.3" y="188.63" width="356" height="208.47"/><rect class="cls-4" x="170.16" y="408.79" width="92.3" height="10.9"/><path class="cls-5" d="M448,315.68H180.86a12.2,12.2,0,0,1-12.19-12.2V130.34a12.2,12.2,0,0,1,12.19-12.2H448a12.2,12.2,0,0,1,12.2,12.2V303.48A12.2,12.2,0,0,1,448,315.68Z"/><rect class="cls-6" x="181.29" y="148.04" width="266.28" height="149.87"/><path class="cls-6" d="M387.94,135.38a6.3,6.3,0,1,1-6.3-6.31,6.29,6.29,0,0,1,6.3,6.31"/><path class="cls-6" d="M410,135.38a6.3,6.3,0,1,1-6.3-6.31,6.29,6.29,0,0,1,6.3,6.31"/><path class="cls-6" d="M432.08,135.38a6.3,6.3,0,1,1-6.3-6.31,6.29,6.29,0,0,1,6.3,6.31"/><polyline class="cls-7" points="256.09 220.51 276.15 248.02 365.59 184.39"/><line class="cls-8" x1="449.56" y1="79.56" x2="452.5" y2="104.27"/><line class="cls-8" x1="498.44" y1="119.14" x2="473.28" y2="122.13"/><line class="cls-8" x1="482.58" y1="89.32" x2="469.79" y2="105.55"/></svg>