<svg id="Capa_1" data-name="Capa 1" xmlns="http://www.w3.org/2000/svg" viewBox="0 0 512 512"><defs><style>.cls-1{fill:#00b2ef;}.cls-2{fill:#0054a6;}.cls-3{fill:#fff;}.cls-4{fill:#002c60;}.cls-5,.cls-7{fill:none;stroke-linecap:round;stroke-linejoin:round;}.cls-5{stroke:#09afea;stroke-width:4.26px;}.cls-6{fill:#fc1f25;}.cls-7{stroke:#fff;stroke-width:7.72px;}</style></defs><path class="cls-1" d="M0,378.67H512a37.75,37.75,0,0,1-37.75,37.75H37.75A37.74,37.74,0,0,1,0,378.67"/><path class="cls-2" d="M487.91,378.67H24.09V110A14.44,14.44,0,0,1,38.53,95.58h435A14.43,14.43,0,0,1,487.91,110Z"/><rect class="cls-3" x="45.34" y="118.79" width="421.32" height="246.72" rx="9.45"/><path class="cls-4" d="M303.38,392.24H208.62a7.24,7.24,0,0,1-7.24-7.24v-5.66H310.62V385A7.24,7.24,0,0,1,303.38,392.24Z"/><path class="cls-5" d="M231.3,137.64a112,112,0,0,1,12.17-2.9"/><path class="cls-5" d="M199.91,152.56a112.5,112.5,0,0,1,23.34-12.2"/><path class="cls-5" d="M155.06,278.53a113.25,113.25,0,0,1,30.35-114.22q2.15-2.06,4.37-4"/><circle class="cls-6" cx="262.16" cy="243.79" r="99.47"/><path class="cls-2" d="M418.5,142.75a4,4,0,1,1-4-4,4,4,0,0,1,4,4"/><path class="cls-1" d="M432.5,142.75a4,4,0,1,1-4-4,4,4,0,0,1,4,4"/><path class="cls-6" d="M446.51,142.75a4,4,0,1,1-4-4,4,4,0,0,1,4,4"/><polyline class="cls-7" points="204.88 245 268.96 245 248.88 224.58 269.31 245 248.88 265.43"/><polyline class="cls-7" points="232.09 205.83 232.09 183.22 307.13 183.22 307.13 306.78 232.09 306.78 232.09 284.17"/></svg>