<?xml version="1.0" encoding="utf-8"?>
<!-- Generator: Adobe Illustrator 24.1.1, SVG Export Plug-In . SVG Version: 6.00 Build 0)  -->
<svg version="1.1" id="Capa_1" xmlns="http://www.w3.org/2000/svg" xmlns:xlink="http://www.w3.org/1999/xlink" x="0px" y="0px"
	 viewBox="0 0 512 512" style="enable-background:new 0 0 512 512;" xml:space="preserve">
<style type="text/css">
	.st0{fill:#FFFFFF;}
	.st1{fill:none;stroke:#FFFFFF;stroke-width:17;stroke-linecap:round;stroke-linejoin:round;}
</style>
<g>
	<path class="st0" d="M237.6,356.2c0-9.9,8.2-18.7,18.4-18.7s18.4,8.8,18.4,18.7s-8.2,18.4-18.4,18.4S237.6,366.1,237.6,356.2z
		 M277.6,161.4c0,14.5-4.3,51.7-9.4,106.6l-4.4,47.5c-0.4,4-3.7,7-7.7,7h0c-4,0-7.3-3-7.7-7l-4.4-47.5c-5.1-54.9-9.4-92.1-9.4-106.6
		c0-16.9,8.2-23.9,21.6-23.9C269.3,137.4,277.6,144.5,277.6,161.4z"/>
</g>
<path class="st1" d="M142.1,37.6C177.3,19.2,216.3,9.7,256,9.7C392,9.7,502.3,120,502.3,256S392,502.3,256,502.3S9.7,392,9.7,256
	C9.6,187.6,38.1,122.2,88.2,75.7"/>
</svg>
