<svg id="Capa_1" data-name="Capa 1" xmlns="http://www.w3.org/2000/svg" viewBox="0 0 512 512"><defs><style>.cls-1{fill:#fa1f25;}.cls-2{fill:#0054a6;}.cls-3{fill:#09afea;}.cls-4{fill:#002c60;}.cls-5{fill:none;stroke:#fff;stroke-linecap:round;stroke-miterlimit:10;stroke-width:6.67px;}.cls-6{fill:#fff;}.cls-7{fill:#100148;}</style></defs><rect class="cls-1" x="274.21" y="205.24" width="36.27" height="306.76"/><path class="cls-2" d="M160.67,355.49H118.15a20.18,20.18,0,0,1-19.93-23.37l23-143.42h83.4l-24,149.8a20.19,20.19,0,0,1-19.93,17"/><path class="cls-3" d="M432.52,188.7H155.64V15.23H400.83a31.69,31.69,0,0,1,31.69,31.68Z"/><path class="cls-4" d="M186.78,15.23H139A17.79,17.79,0,0,0,121.17,33V188.7h83.4V33a17.79,17.79,0,0,0-17.79-17.79"/><path class="cls-5" d="M204.57,6.33H227.5a22.09,22.09,0,0,1,22.1,22.09V198.14"/><path class="cls-5" d="M331.89,6.33h22.93a22.09,22.09,0,0,1,22.1,22.09V198.14"/><path class="cls-1" d="M241,102.24a14.3,14.3,0,1,1-14.3-14.3,14.3,14.3,0,0,1,14.3,14.3"/><rect class="cls-1" x="120.74" y="98.91" width="105.95" height="5.3"/><polygon class="cls-1" points="125.69 123.12 97.96 123.12 101.5 98.92 125.69 98.92 125.69 123.12"/><path class="cls-6" d="M231.09,102.24a4,4,0,1,1-4-4,4,4,0,0,1,4,4"/><polygon class="cls-7" points="310.48 216.49 274.21 229.84 274.21 188.69 310.48 188.69 310.48 216.49"/></svg>