<svg id="Capa_1" data-name="Capa 1" xmlns="http://www.w3.org/2000/svg" viewBox="0 0 512 512"><defs><style>.cls-1{fill:#00b0ec;}.cls-2,.cls-4{fill:none;}.cls-2{stroke:#0053a9;stroke-miterlimit:10;stroke-width:8.98px;}.cls-3{fill:#002861;}.cls-4{stroke:#fc1f25;stroke-linecap:round;stroke-linejoin:round;stroke-width:8px;}</style></defs><path class="cls-1" d="M506,317.23c0-70.17-61.68-127.06-137.75-127.06S230.53,247.06,230.53,317.23Z"/><path class="cls-2" d="M448.22,90.54a79.94,79.94,0,1,1-79.94-80.08A80,80,0,0,1,448.22,90.54Z"/><path class="cls-3" d="M288.34,465.22c0-70.17-61.67-127.06-137.75-127.06S12.84,395.05,12.84,465.22Z"/><path class="cls-2" d="M230.53,238.53a79.94,79.94,0,1,1-79.94-80.08A80,80,0,0,1,230.53,238.53Z"/><path class="cls-4" d="M489.76,359a190.48,190.48,0,0,0,3.6-19l-30.29-1.43S457,430.85,357.2,428l5.71-24.6-50.26,34.22,33.5,43.13,6.42-23.53S447.51,466.3,482.64,381"/><path class="cls-4" d="M178.17,32.73A189.68,189.68,0,0,1,207.5,31l5.35-25.67,34.93,48.84L199.68,87,201.8,61.6S111.62,48.8,94.51,151.26l-29.58-1.62S72,67.7,148.59,40"/></svg>