<svg id="Capa_1" data-name="Capa 1" xmlns="http://www.w3.org/2000/svg" viewBox="0 0 512 512"><defs><style>.cls-1{fill:#00b2ef;}.cls-2{fill:#002c60;}.cls-3{fill:#fff;}.cls-4{fill:#bbbdc2;}.cls-5,.cls-7{fill:none;stroke-miterlimit:10;}.cls-5{stroke:#002c60;stroke-width:3.22px;}.cls-6{fill:#fc1f25;}.cls-7{stroke:#626364;stroke-width:3.37px;}</style></defs><path class="cls-1" d="M36.13,28.38H460.79a0,0,0,0,1,0,0v121.4a0,0,0,0,1,0,0H0a0,0,0,0,1,0,0V64.51A36.13,36.13,0,0,1,36.13,28.38Z"/><path class="cls-2" d="M460.79,28.38h27.53A23.68,23.68,0,0,1,512,52.06v97.71a0,0,0,0,1,0,0H460.79a0,0,0,0,1,0,0V28.38A0,0,0,0,1,460.79,28.38Z"/><rect class="cls-3" y="149.78" width="460.79" height="333.84"/><path class="cls-4" d="M460.79,149.78H512a0,0,0,0,1,0,0V466.48a17.14,17.14,0,0,1-17.14,17.14H460.79a0,0,0,0,1,0,0V149.78A0,0,0,0,1,460.79,149.78Z"/><rect class="cls-5" x="22.2" y="170.88" width="72.48" height="72.48" rx="11.92"/><rect class="cls-5" x="107.56" y="170.88" width="72.48" height="72.48" rx="11.92"/><rect class="cls-5" x="192.92" y="170.88" width="72.48" height="72.48" rx="11.92"/><rect class="cls-5" x="278.29" y="170.88" width="72.48" height="72.48" rx="11.92"/><rect class="cls-5" x="363.65" y="170.88" width="72.48" height="72.48" rx="11.92"/><rect class="cls-5" x="22.2" y="255.18" width="72.48" height="72.48" rx="11.92"/><rect class="cls-5" x="107.56" y="255.18" width="72.48" height="72.48" rx="11.92"/><rect class="cls-6" x="192.92" y="255.18" width="72.48" height="72.48" rx="11.92"/><rect class="cls-5" x="278.29" y="255.18" width="72.48" height="72.48" rx="11.92"/><rect class="cls-5" x="363.65" y="255.18" width="72.48" height="72.48" rx="11.92"/><rect class="cls-5" x="22.2" y="339.48" width="72.48" height="72.48" rx="11.92"/><rect class="cls-5" x="107.56" y="339.48" width="72.48" height="72.48" rx="11.92"/><rect class="cls-5" x="192.92" y="339.48" width="72.48" height="72.48" rx="11.92"/><rect class="cls-5" x="278.29" y="339.48" width="72.48" height="72.48" rx="11.92"/><rect class="cls-5" x="363.65" y="339.48" width="72.48" height="72.48" rx="11.92"/><line class="cls-7" x1="473.22" y1="163.27" x2="473.22" y2="470.13"/><line class="cls-7" x1="485.65" y1="163.27" x2="485.65" y2="470.13"/><line class="cls-7" x1="498.09" y1="163.27" x2="498.09" y2="470.13"/></svg>