<svg id="Capa_1" data-name="Capa 1" xmlns="http://www.w3.org/2000/svg" viewBox="0 0 512 512"><defs><style>.cls-1{fill:#b0b0b0;}.cls-2{fill:#0054a6;}.cls-3{fill:#ff404e;}.cls-4,.cls-5,.cls-6,.cls-7,.cls-8,.cls-9{fill:none;stroke-linecap:round;stroke-linejoin:round;}.cls-4,.cls-6{stroke:#fff;}.cls-4{stroke-width:6.76px;}.cls-5{stroke:#f61c36;stroke-width:13.51px;}.cls-6{stroke-width:3.38px;}.cls-7{stroke:#0059ea;stroke-width:13.51px;}.cls-8{stroke:#b0b0b0;stroke-width:8.38px;}.cls-9{stroke:#00b2ef;stroke-width:7.33px;}</style></defs><ellipse id="Elipse_6" data-name="Elipse 6" class="cls-1" cx="379.33" cy="497.87" rx="101.8" ry="8.24"/><polygon class="cls-2" points="470.99 470.84 282.51 470.84 282.51 214.13 416.64 214.13 470.99 266.69 470.99 470.84"/><polygon class="cls-3" points="220.91 268 32.44 268 32.44 11.29 166.57 11.29 220.91 63.85 220.91 268"/><rect class="cls-4" x="66.35" y="48.61" width="91.2" height="109.78" rx="10.03" transform="translate(223.9 207) rotate(-180)"/><path class="cls-5" d="M221,103.93V73.66a15.19,15.19,0,0,0-4.6-11L166.23,15a13.09,13.09,0,0,0-9-3.72H46.11c-7.49,0-13.64,6.55-13.64,14.66V253.43c0,8,6.15,14.59,13.64,14.59H207.3c7.5,0,13.65-6.55,13.65-14.59V147.84"/><polyline class="cls-6" points="96.67 51.09 96.67 87.09 152.98 87.09"/><line class="cls-6" x1="125.85" y1="51.09" x2="125.85" y2="87.09"/><line class="cls-6" x1="96.67" y1="119.24" x2="96.67" y2="155.24"/><line class="cls-6" x1="125.85" y1="119.24" x2="125.85" y2="155.24"/><line class="cls-6" x1="70.73" y1="119.39" x2="152.98" y2="119.39"/><rect class="cls-4" x="316.42" y="251.45" width="91.2" height="109.78" rx="10.03" transform="translate(724.04 612.68) rotate(-180)"/><path class="cls-7" d="M471,306.77V276.5a15.22,15.22,0,0,0-4.59-11L416.3,217.87a13.07,13.07,0,0,0-9-3.72H296.19c-7.5,0-13.65,6.55-13.65,14.66V456.27c0,8,6.15,14.59,13.65,14.59H457.37c7.5,0,13.65-6.55,13.65-14.59V350.68"/><polyline class="cls-6" points="346.84 254.27 346.84 290.26 403.15 290.26"/><line class="cls-6" x1="376.02" y1="254.27" x2="376.02" y2="290.26"/><line class="cls-6" x1="346.84" y1="322.42" x2="346.84" y2="358.42"/><line class="cls-6" x1="376.02" y1="322.42" x2="376.02" y2="358.42"/><line class="cls-6" x1="320.89" y1="322.57" x2="403.15" y2="322.57"/><path class="cls-8" d="M262.61,351.83q-4.44.14-9-.06a118.23,118.23,0,0,1-100.09-64.33"/><path class="cls-8" d="M367.23,186.1a118.43,118.43,0,0,0-133.74-68"/><polyline class="cls-8" points="357.24 186.44 371.43 193.93 374.25 179.07"/><polyline class="cls-8" points="166.57 291.55 152.38 284.05 149.56 298.92"/><line class="cls-9" x1="491.2" y1="235.08" x2="466.87" y2="235.08"/><line class="cls-9" x1="477.35" y1="205.35" x2="460.14" y2="222.56"/><line class="cls-9" x1="449.54" y1="193.98" x2="449.54" y2="218.31"/></svg>