<svg id="Capa_1" data-name="Capa 1" xmlns="http://www.w3.org/2000/svg" viewBox="0 0 512 512"><defs><style>.cls-1{fill:#ff1634;}.cls-2{fill:#bbbdc2;}.cls-3{fill:#fc1f25;}.cls-4{fill:#fff;}.cls-5,.cls-6{fill:none;stroke-linecap:round;stroke-linejoin:round;}.cls-5{stroke:#fff;stroke-width:9.19px;stroke-dasharray:9.06 27.18;}.cls-6{stroke:#1f2f59;stroke-width:14.93px;}</style></defs><path class="cls-1" d="M534.94-251.17a158.21,158.21,0,0,0,0,223.75,158.2,158.2,0,0,0,223.75,0,158.2,158.2,0,0,0,0-223.76,158.21,158.21,0,0,0-223.75,0"/><ellipse id="Elipse_6" data-name="Elipse 6" class="cls-2" cx="256" cy="494.62" rx="176.81" ry="7.52"/><circle id="Oval" class="cls-3" cx="240.22" cy="239.61" r="200.93"/><path class="cls-4" d="M320.15,303.12A56.77,56.77,0,0,1,307,321.38a66.86,66.86,0,0,1-20.4,12.73,96.06,96.06,0,0,1-26.69,6.45v30.37H228v-31a150.73,150.73,0,0,1-38.51-10,146.51,146.51,0,0,1-33.9-19.17l23.93-35a183.66,183.66,0,0,0,24.39,15.8,93,93,0,0,0,25.62,9.05V251.89a197.37,197.37,0,0,1-29-10.28,75.09,75.09,0,0,1-20.56-13.35,50.1,50.1,0,0,1-12.27-17.95,63.07,63.07,0,0,1-4.15-23.78,57.17,57.17,0,0,1,4.61-23.32,54.63,54.63,0,0,1,13-18.25,64.68,64.68,0,0,1,20.4-12.58A99.63,99.63,0,0,1,228,126.09v-17.8h31.91V126.7a128.23,128.23,0,0,1,57.07,22.71l-20.56,35.9a176.48,176.48,0,0,0-18.72-10.9,94.42,94.42,0,0,0-19.33-7.21v46.33q35,9.53,50.78,25t15.8,41.27A55.53,55.53,0,0,1,320.15,303.12ZM229.48,164.44q-11,1.55-16.11,6.75a17.43,17.43,0,0,0-5.06,12.58,18.65,18.65,0,0,0,4.3,12.27q4.29,5.22,16.87,9.82Zm46,104.63q-4.59-5.22-17.18-9.82V302.2q21.78-3.36,21.79-19.94A19.2,19.2,0,0,0,275.5,269.07Z"/><circle class="cls-5" cx="240.22" cy="239.61" r="178.81" transform="translate(-99.07 240.04) rotate(-45)"/><path id="Oval-2" data-name="Oval" class="cls-6" d="M446.17,343.79A230.74,230.74,0,0,1,240.22,470.37C112.78,470.37,9.47,367.05,9.47,239.61S112.78,8.86,240.22,8.86,471,112.17,471,239.61"/><polyline class="cls-6" points="435.28 214.32 471.16 241.44 503.04 207.43"/></svg>