<svg id="Capa_1" data-name="Capa 1" xmlns="http://www.w3.org/2000/svg" viewBox="0 0 512 512"><defs><style>.cls-1{fill:#00b2ef;}.cls-2,.cls-3{fill:none;stroke-linecap:round;stroke-linejoin:round;stroke-width:10px;}.cls-2{stroke:#0059ea;}.cls-3{stroke:#fc1f25;}.cls-4{fill:#fff;}</style></defs><path class="cls-1" d="M459.24,334.79H75a53.06,53.06,0,0,1-53.06-53.06V141.16A53.05,53.05,0,0,1,75,88.11H459.24a53.06,53.06,0,0,1,53.06,53.05V281.73a53.07,53.07,0,0,1-53.06,53.06"/><polygon class="cls-2" points="344.26 302.64 450.73 302.64 450.73 423.89 344.26 302.64"/><path class="cls-3" d="M5.7,210.05v88.24c0,31.34,27,58.33,60.31,58.33H218.18"/><path class="cls-4" d="M181.24,250.82v19.77H108V250.82H132.7V186c0-1.64,0-3.31.08-5s.15-3.37.27-5.08L118.4,188.07a8.71,8.71,0,0,1-3.84,1.81,10.18,10.18,0,0,1-3.57,0,8.53,8.53,0,0,1-3-1.15A6.71,6.71,0,0,1,106,187l-8.65-11.47,40.07-33.63h22.6V250.82Z"/><path class="cls-4" d="M290.23,245.88a9.7,9.7,0,0,1,7,2.43,8.38,8.38,0,0,1,2.56,6.39v15.89H209.39v-8.83a16,16,0,0,1,1.06-5.47,13.18,13.18,0,0,1,3.7-5.29l37.07-37.34a121,121,0,0,0,8.3-9.09,56.63,56.63,0,0,0,5.82-8.51,38.58,38.58,0,0,0,3.44-8.39,33.22,33.22,0,0,0,1.15-8.87q0-7.68-3.66-11.78t-11.17-4.1a16.36,16.36,0,0,0-10.28,3.22,16.54,16.54,0,0,0-5.78,8q-1.84,4.85-4.85,6.44c-2,1.06-4.86,1.29-8.56.7l-14.48-2.56A48.13,48.13,0,0,1,216.58,162a39.46,39.46,0,0,1,23.61-19,56.34,56.34,0,0,1,16.5-2.34,50,50,0,0,1,17.17,2.78,38.46,38.46,0,0,1,13,7.72,33.37,33.37,0,0,1,8.25,11.78,38.59,38.59,0,0,1,2.87,15A41.15,41.15,0,0,1,296,191a50.91,50.91,0,0,1-5.43,11.43,79.07,79.07,0,0,1-8,10.5q-4.55,5.09-9.67,10.29L247.78,249a73.28,73.28,0,0,1,9.62-2.3,53.89,53.89,0,0,1,8.83-.79Z"/><path class="cls-4" d="M327.47,178.71A48.13,48.13,0,0,1,332.9,162a39.46,39.46,0,0,1,23.61-19,56.34,56.34,0,0,1,16.5-2.34A49.62,49.62,0,0,1,390,143.28a38,38,0,0,1,12.53,7.28,30.86,30.86,0,0,1,7.77,10.64A31.51,31.51,0,0,1,412.9,174a42,42,0,0,1-1.23,10.72,24.79,24.79,0,0,1-3.66,8,22.22,22.22,0,0,1-6,5.74,36.78,36.78,0,0,1-8.16,3.93q21.36,7.5,21.36,29.12a40.21,40.21,0,0,1-3.71,17.83,36.59,36.59,0,0,1-9.93,12.62,42.55,42.55,0,0,1-14.43,7.55A58.32,58.32,0,0,1,370,272a61.34,61.34,0,0,1-16.33-2,37.75,37.75,0,0,1-12.7-6.18,41,41,0,0,1-9.76-10.73,72.1,72.1,0,0,1-7.28-15.53l12.18-4.94a15.17,15.17,0,0,1,8.83-1,8.29,8.29,0,0,1,5.82,4.06q4,7.32,8.43,10.63a17,17,0,0,0,10.46,3.31,19.18,19.18,0,0,0,8-1.54,17.39,17.39,0,0,0,5.64-4,16.44,16.44,0,0,0,3.4-5.52,17.76,17.76,0,0,0,1.15-6.26,44.13,44.13,0,0,0-.57-7.46,9.78,9.78,0,0,0-3.23-5.7,18.32,18.32,0,0,0-8-3.66,67.31,67.31,0,0,0-14.87-1.28V195.4a54.89,54.89,0,0,0,13-1.24,19.64,19.64,0,0,0,7.63-3.4,10.23,10.23,0,0,0,3.58-5.25,24.61,24.61,0,0,0,.88-6.8q0-7.58-3.66-11.69t-11.17-4.1a16.36,16.36,0,0,0-10.28,3.22,16.54,16.54,0,0,0-5.78,8c-1.24,3.23-2.85,5.38-4.85,6.44s-4.86,1.29-8.56.7Z"/></svg>