<?xml version="1.0" encoding="utf-8"?>
<!-- Generator: Adobe Illustrator 24.1.1, SVG Export Plug-In . SVG Version: 6.00 Build 0)  -->
<svg version="1.1" id="Capa_1" xmlns="http://www.w3.org/2000/svg" xmlns:xlink="http://www.w3.org/1999/xlink" x="0px" y="0px"
	 viewBox="0 0 512 512" style="enable-background:new 0 0 512 512;" xml:space="preserve">
<style type="text/css">
	.st0{fill:#878787;}
	.st1{fill:#C92025;}
	.st2{fill:#E6E6E6;}
	.st3{fill:#ECEFF1;}
	.st4{fill:#D9D9D9;}
	.st5{fill:#00B0EC;}
	.st6{fill:none;stroke:#B0B0B0;stroke-width:7.7187;stroke-linecap:round;stroke-linejoin:round;}
	.st7{fill:#F01D23;}
	.st8{fill:#FC1F25;}
	.st9{fill:#FFFFFF;stroke:#0054A6;stroke-width:9.0841;stroke-miterlimit:10;}
	.st10{fill:#00B1EC;}
</style>
<ellipse id="Elipse_6" class="st0" cx="266.3" cy="506.1" rx="101.3" ry="5.9"/>
<g>
	<polygon class="st1" points="394.5,168 121.4,164.8 54.1,245.9 441.3,245.9 	"/>
	<path class="st2" d="M296.1,14.2H126.7c-13.4,0-24.2,10.8-24.2,24.2v338.8c0,13.4,10.8,24.2,24.2,24.2h242
		c13.4,0,24.2-10.8,24.2-24.2l0,0l0,0V111L296.1,14.2z"/>
	<path class="st3" d="M307.7,0H138.3c-13.4,0-24.2,10.8-24.2,24.2V363c0,13.4,10.8,24.2,24.2,24.2h242c13.4,0,24.2-10.8,24.2-24.2
		V96.8L307.7,0z"/>
	<path class="st4" d="M307.7,0v72.6c0,13.4,10.8,24.2,24.2,24.2h72.6L307.7,0z"/>
	<path class="st5" d="M238.1,190.6c-1.5,3.3-3.6,6.2-6.3,8.7c-2.8,2.6-6.1,4.6-9.6,6c-4.1,1.6-8.3,2.6-12.7,3.1v14.4h-15.1v-14.7
		c-6.3-0.8-12.4-2.3-18.2-4.7c-5.7-2.3-11.1-5.4-16.1-9.1l11.3-16.6c3.7,2.8,7.5,5.3,11.6,7.5c3.8,2,7.9,3.4,12.1,4.3v-23.1
		c-4.7-1.2-9.3-2.9-13.7-4.8c-3.6-1.6-6.9-3.7-9.7-6.3c-2.5-2.4-4.5-5.3-5.8-8.5c-1.4-3.6-2-7.4-1.9-11.2c-0.1-3.8,0.6-7.6,2.1-11.1
		c1.4-3.3,3.5-6.3,6.2-8.7c2.8-2.6,6.1-4.6,9.6-6c4-1.6,8.2-2.6,12.5-3v-8.4h15.1v8.8c9.7,1.3,19,5,27,10.8l-9.7,17
		c-2.8-1.9-5.8-3.6-8.9-5.2c-2.9-1.5-6-2.6-9.2-3.4v22c11.1,3,19.1,7,24.1,11.9c5,4.9,7.5,11.4,7.5,19.5
		C240.4,183.3,239.6,187.1,238.1,190.6z M195.1,124.9c-3.5,0.5-6,1.6-7.6,3.2c-1.6,1.6-2.4,3.7-2.3,6c0,2.1,0.7,4.2,2,5.8
		c1.4,1.7,4,3.2,8,4.7L195.1,124.9z M216.9,174.5c-1.4-1.6-4.2-3.2-8.1-4.7v20.3c6.9-1.1,10.3-4.2,10.3-9.4
		C219.2,178.4,218.4,176.2,216.9,174.5z"/>
	<line class="st6" x1="274.5" y1="163.9" x2="362.2" y2="163.9"/>
	<line class="st6" x1="274.5" y1="121.1" x2="362.2" y2="121.1"/>
	<line class="st6" x1="274" y1="206.7" x2="362.2" y2="206.7"/>
	<line class="st6" x1="157.3" y1="249.5" x2="362.2" y2="249.5"/>
	<line class="st6" x1="155.1" y1="292.3" x2="362.2" y2="292.3"/>
	<line class="st6" x1="155.1" y1="335.1" x2="362.2" y2="335.1"/>
	<path class="st7" d="M271.5,245.9h-33.1l4.5-6c5.1-6.8,14.6-8.1,21.4-3.1c1.3,1,2.5,2.2,3.4,3.6L271.5,245.9z"/>
	<path class="st7" d="M271.5,245.9l162.6,238c-4.6,4.5-10.7,7.1-17.1,7H78.4c-6.4,0-12.6-2.5-17.1-7l177.1-238L271.5,245.9z"/>
	<path class="st8" d="M238.4,245.9L61.3,484c-4.6-4.6-7.2-10.8-7.2-17.3V245.9H238.4z"/>
	<path class="st8" d="M441.3,245.9v220.7c0,6.5-2.6,12.7-7.2,17.3l-162.6-238H441.3z"/>
	<path class="st9" d="M413.9,172.3L413.9,172.3c35.7,0,64.6,28.9,64.6,64.6v0c0,35.7-28.9,64.6-64.6,64.6h0
		c-35.7,0-64.6-28.9-64.6-64.6v0C349.3,201.2,378.2,172.3,413.9,172.3z"/>
	<path class="st10" d="M453,231.9c-0.3-1.7-1.9-2.8-3.5-2.6c-1.7,0.3-2.8,1.9-2.6,3.5v0.1c3.1,18.5-9.3,36.1-27.9,39.3
		c-18.5,3.1-36.1-9.3-39.3-27.9c-3.1-18.5,9.3-36.1,27.9-39.3c11.4-1.9,23,2,30.8,10.6l-13.7,4.6c-1.6,0.5-2.5,2.2-2,3.8l0,0
		c0.5,1.6,2.3,2.5,3.9,2l0,0l18.6-6.2c1.3-0.4,2.1-1.6,2.1-2.9v-18.5c0-1.7-1.4-3.1-3.1-3.1c-1.7,0-3.1,1.4-3.1,3.1c0,0,0,0,0,0
		v11.3c-15.9-15.1-41.1-14.5-56.2,1.4c-15.1,15.9-14.5,41.1,1.4,56.2c15.9,15.1,41.1,14.5,56.2-1.4
		C451.2,256.9,455.1,244.3,453,231.9L453,231.9z"/>
</g>
</svg>
