<svg id="Capa_1" data-name="Capa 1" xmlns="http://www.w3.org/2000/svg" viewBox="0 0 512 512"><defs><style>.cls-1{fill:#002c60;}.cls-2,.cls-4,.cls-5{fill:none;stroke-linecap:round;stroke-linejoin:round;}.cls-2{stroke:#fc1f25;}.cls-2,.cls-5{stroke-width:13.18px;}.cls-3{fill:#0059ea;}.cls-4,.cls-5{stroke:#fff;}.cls-4{stroke-width:4.06px;}</style></defs><path class="cls-1" d="M70.76,191.79l.43,128.51h0l-.43-.43H18.49a17,17,0,0,1-17-17V208.76a17,17,0,0,1,17-17H70.76l.43-.43Z"/><polyline class="cls-2" points="124.37 319.04 124.37 402.34 258.97 402.34 258.97 319.04"/><polygon class="cls-3" points="366.29 383.48 258.55 360.55 125.71 331.55 71.19 320.3 71.19 320.3 70.75 191.79 71.19 191.36 366.29 128.19 366.29 383.48"/><line class="cls-2" x1="366.29" y1="93.78" x2="366.29" y2="418.22"/><path class="cls-4" d="M42.94,308.73H23.3a10.61,10.61,0,0,1-10.61-10.6V263.36"/><line class="cls-4" x1="12.69" y1="252.82" x2="12.69" y2="241.83"/><line class="cls-5" x1="424.82" y1="195.21" x2="492.07" y2="155.89"/><line class="cls-5" x1="424.82" y1="255.71" x2="503.47" y2="255.71"/><line class="cls-5" x1="424.82" y1="312.42" x2="494.92" y2="355.52"/></svg>