<svg id="Capa_1" data-name="Capa 1" xmlns="http://www.w3.org/2000/svg" viewBox="0 0 512 512"><defs><style>.cls-1{fill:#ff1920;}.cls-2{fill:#002861;}.cls-3{fill:none;stroke:#ededed;stroke-linecap:round;stroke-linejoin:round;stroke-width:11.55px;}</style></defs><path class="cls-1" d="M24.55,123.06h0a23.69,23.69,0,0,1,18.92,9.43l125.83,167H170V145.11a23,23,0,0,1,23-23h3.15a23,23,0,0,1,23,23V363.58a23.69,23.69,0,0,1-42.61,14.26l-125.83-167h-.67V366.88a23,23,0,0,1-23,23H23.91a23,23,0,0,1-23-23V146.74a23.69,23.69,0,0,1,23.69-23.68"/><path class="cls-2" d="M511.14,256.42A125.82,125.82,0,1,1,385.32,130.61,125.81,125.81,0,0,1,511.14,256.42"/><line x1="329.04" y1="195.8" x2="445.95" y2="312.72"/><line class="cls-3" x1="329.04" y1="195.8" x2="445.95" y2="312.72"/><line x1="448.11" y1="193.64" x2="326.87" y2="314.88"/><line class="cls-3" x1="448.11" y1="193.64" x2="326.87" y2="314.88"/></svg>