<svg id="Capa_1" data-name="Capa 1" xmlns="http://www.w3.org/2000/svg" viewBox="0 0 509.33 487.98"><defs><style>.cls-1{fill:#00b1ec;}.cls-2{fill:#fff;}.cls-3{fill:#fc1f25;}.cls-4,.cls-5{fill:none;stroke-linecap:round;stroke-linejoin:round;}.cls-4{stroke:#fc1f25;stroke-width:4.1px;}.cls-5{stroke:#fff;stroke-width:13.34px;}</style></defs><path class="cls-1" d="M362,52.2a65.7,65.7,0,0,1,0,131.4H68.2a65.7,65.7,0,0,1,0-131.4Z" transform="translate(-2.5 -2.02)"/><circle class="cls-2" cx="107.2" cy="114.38" r="15.7"/><circle class="cls-2" cx="164.4" cy="115.88" r="15.7"/><path class="cls-1" d="M362,205.4a65.71,65.71,0,0,1,0,131.4H68.2a65.71,65.71,0,0,1,0-131.4Z" transform="translate(-2.5 -2.02)"/><circle class="cls-2" cx="109.67" cy="269.65" r="15.7" transform="translate(-169.58 357.91) rotate(-85.94)"/><circle class="cls-2" cx="164.4" cy="269.08" r="15.7"/><path class="cls-1" d="M362,358.6A65.71,65.71,0,0,1,362,490H68.2a65.71,65.71,0,0,1,0-131.4Z" transform="translate(-2.5 -2.02)"/><circle class="cls-2" cx="109.68" cy="422.85" r="15.7" transform="translate(-322.38 500.25) rotate(-85.94)"/><circle class="cls-2" cx="164.4" cy="422.28" r="15.7"/><circle class="cls-3" cx="398.29" cy="105.6" r="97.78"/><path class="cls-4" d="M497.84,156.8a108.65,108.65,0,0,1-6.08,10.4" transform="translate(-2.5 -2.02)"/><path class="cls-4" d="M508.32,125.05a107.68,107.68,0,0,1-7,24.34" transform="translate(-2.5 -2.02)"/><path class="cls-4" d="M436.31,4.07a109,109,0,0,1,73.47,103.08c0,1.9,0,3.8-.14,5.68" transform="translate(-2.5 -2.02)"/><polyline class="cls-5" points="448.45 61.55 401.83 108.17 448.45 154.78 402.6 108.17"/><polyline class="cls-5" points="355.53 154.53 402.16 107.91 355.53 61.29 401.39 107.91"/></svg>