<svg id="Capa_1" data-name="Capa 1" xmlns="http://www.w3.org/2000/svg" viewBox="0 0 512 512"><defs><style>.cls-1{fill:#002861;}.cls-2,.cls-3,.cls-4{fill:none;}.cls-2{stroke:#00b0ec;stroke-width:68.52px;}.cls-2,.cls-3{stroke-linecap:round;stroke-linejoin:round;}.cls-3,.cls-4{stroke:#fc1f25;stroke-width:20px;}.cls-4{stroke-miterlimit:10;}.cls-5{fill:#bbbdc2;}</style></defs><circle class="cls-1" cx="257.1" cy="232.54" r="217.39"/><polyline class="cls-2" points="143.17 259.01 252.13 364.56 368.83 257.5 252.13 363.25 252.13 84.84"/><path class="cls-3" d="M129.09,56.28A215.25,215.25,0,0,1,256,15.15c119.46,0,216.3,96.84,216.3,216.29S375.46,447.74,256,447.74,39.7,350.9,39.7,231.44A215.27,215.27,0,0,1,70.79,119.67"/><line class="cls-4" x1="103.06" y1="384.39" x2="408.94" y2="78.5"/><path class="cls-5" d="M386.71,493.71c0,10.1-58.53,18.29-130.71,18.29s-130.71-8.19-130.71-18.29S183.8,475.44,256,475.44s130.71,8.17,130.71,18.27"/></svg>