<svg id="Capa_1" data-name="Capa 1" xmlns="http://www.w3.org/2000/svg" viewBox="0 0 512 512"><defs><style>.cls-1{fill:#0053a9;}.cls-2{fill:#002861;}.cls-3{fill:none;stroke:#00b2ef;stroke-linecap:round;stroke-linejoin:round;stroke-width:60px;}</style></defs><circle class="cls-1" cx="256" cy="256" r="227.04"/><path class="cls-2" d="M255.71,512C386,512,496.65,412.38,510.55,283.22A214.32,214.32,0,0,0,512.29,256c0-141.32-114.68-256-256-256C114.39-.58-.29,114.1-.29,255.42a207.65,207.65,0,0,0,1.74,27.22C14.77,412.38,125.39,512,255.71,512Zm0-454.66c109.47,0,198.08,89.2,198.08,198.08,0,109.47-89.19,198.08-198.08,198.08-109.47,0-198.08-89.19-198.08-198.08A198,198,0,0,1,255.71,57.34Z"/><polyline class="cls-3" points="151.28 229.72 260.49 331.17 481.58 68.7"/></svg>