<svg id="Capa_1" data-name="Capa 1" xmlns="http://www.w3.org/2000/svg" viewBox="0 0 512 512"><defs><style>.cls-1{fill:#002861;}.cls-2{fill:none;stroke:#0053a9;stroke-width:13px;}.cls-2,.cls-4{stroke-miterlimit:10;}.cls-3{fill:#00b2ef;}.cls-4{fill:#fff;stroke:#fff;stroke-width:3.57px;}</style></defs><path class="cls-1" d="M455.44,502c0-101.59-89.3-184-199.44-184S56.56,400.41,56.56,502Z"/><path class="cls-2" d="M371.74,173.79A115.74,115.74,0,1,1,256,57.84,115.84,115.84,0,0,1,371.74,173.79Z"/><path class="cls-3" d="M511.34,71.12A71.12,71.12,0,1,1,440.22,0a71.12,71.12,0,0,1,71.12,71.12"/><path class="cls-1" d="M405.29,32.53H386.24l-2.49,20.1h-8.07l2.48-20.1h-19l.95-7.5h19l2.48-20h8l-2.44,20h19.1Z"/><path class="cls-4" d="M433.2,94.89l-.86,6.71H401.26l.86-6.71h11.67l4.87-39.28c.09-.66.18-1.31.28-2s.21-1.33.32-2l-9.83,8.42a3.31,3.31,0,0,1-1.33.64,3,3,0,0,1-1.2,0,2.54,2.54,0,0,1-1-.38,1.65,1.65,0,0,1-.57-.62l-2.31-3.85L422.17,40h7.26l-6.75,54.93Z"/><path class="cls-4" d="M458.53,62.79c-.42.51-.84,1-1.26,1.49l-1.22,1.46a18.07,18.07,0,0,1,4-1.6,16.7,16.7,0,0,1,4.47-.58,15.54,15.54,0,0,1,5.66,1,13.39,13.39,0,0,1,4.66,3.06A14.76,14.76,0,0,1,478,72.6a17.81,17.81,0,0,1,1.18,6.73,23.49,23.49,0,0,1-1.71,9,22.84,22.84,0,0,1-4.72,7.29,21.88,21.88,0,0,1-7.14,4.89,22.49,22.49,0,0,1-9,1.77,18.35,18.35,0,0,1-7.11-1.3,14.73,14.73,0,0,1-5.33-3.7,16.26,16.26,0,0,1-3.33-5.73,22.47,22.47,0,0,1-1.15-7.39,26,26,0,0,1,.55-5.37A27.09,27.09,0,0,1,442,73.53a39.24,39.24,0,0,1,2.88-5.31,63,63,0,0,1,4.09-5.6l16.33-20.39a5.67,5.67,0,0,1,2.07-1.54,6.59,6.59,0,0,1,2.88-.64h7.87Zm-1.15,32.14a12.22,12.22,0,0,0,5.09-1.07,12.46,12.46,0,0,0,4.08-3,13.84,13.84,0,0,0,2.71-4.48,15.78,15.78,0,0,0,1-5.67,13.45,13.45,0,0,0-.66-4.34,9,9,0,0,0-1.92-3.29,8.39,8.39,0,0,0-3-2.07,10.18,10.18,0,0,0-3.95-.73,11.25,11.25,0,0,0-5,1.11,12.53,12.53,0,0,0-4,3A13.89,13.89,0,0,0,449.09,79a16.1,16.1,0,0,0-.95,5.58,14.38,14.38,0,0,0,.6,4.19A9.35,9.35,0,0,0,450.5,92a7.83,7.83,0,0,0,2.88,2.13A9.65,9.65,0,0,0,457.38,94.93Z"/></svg>