<?xml version="1.0" encoding="utf-8"?>
<!-- Generator: Adobe Illustrator 24.1.3, SVG Export Plug-In . SVG Version: 6.00 Build 0)  -->
<svg version="1.1" id="Capa_1" xmlns="http://www.w3.org/2000/svg" xmlns:xlink="http://www.w3.org/1999/xlink" x="0px" y="0px"
	 viewBox="0 0 682.7 682.7" style="enable-background:new 0 0 682.7 682.7;" xml:space="preserve">
<style type="text/css">
	.st0{fill:#FFFFFF;}
</style>
<path class="st0" d="M618.3,213c23.6,0,42.7-19.1,42.7-42.7V63.7c0-23.6-19.1-42.7-42.7-42.7H511.7C488.1,21,469,40.1,469,63.7V85
	h-32V63.7c0-23.6-19.1-42.7-42.7-42.7H287.7C264.1,21,245,40.1,245,63.7V85h-32V63.7c0-23.6-19.1-42.7-42.7-42.7H63.7
	C40.1,21,21,40.1,21,63.7v106.7c0,23.6,19.1,42.7,42.7,42.7H85v32H63.7C40.1,245,21,264.1,21,287.7v106.7
	c0,23.6,19.1,42.7,42.7,42.7H85v32H63.7C40.1,469,21,488.1,21,511.7v106.7c0,23.6,19.1,42.7,42.7,42.7h106.7
	c23.6,0,42.7-19.1,42.7-42.7V597h32v21.3c0,23.6,19.1,42.7,42.7,42.7h106.7c23.6,0,42.7-19.1,42.7-42.7V597h32v21.3
	c0,23.6,19.1,42.7,42.7,42.7h106.7c23.6,0,42.7-19.1,42.7-42.7V511.7c0-23.6-19.1-42.7-42.7-42.7H597v-32h21.3
	c23.6,0,42.7-19.1,42.7-42.7V287.7c0-23.6-19.1-42.7-42.7-42.7H597v-32H618.3z M490.3,63.7c0-11.8,9.6-21.3,21.3-21.3h106.7
	c11.8,0,21.3,9.6,21.3,21.3v106.7c0,11.8-9.6,21.3-21.3,21.3H511.7c-11.8,0-21.3-9.6-21.3-21.3V63.7z M511.7,245
	c-23.6,0-42.7,19.1-42.7,42.7v106.7c0,23.6,19.1,42.7,42.7,42.7H533v32h-21.3c-23.6,0-42.7,19.1-42.7,42.7V533h-32v-21.3
	c0-23.6-19.1-42.7-42.7-42.7H287.7c-23.6,0-42.7,19.1-42.7,42.7V533h-32v-21.3c0-23.6-19.1-42.7-42.7-42.7H149v-32h21.3
	c23.6,0,42.7-19.1,42.7-42.7V287.7c0-23.6-19.1-42.7-42.7-42.7H149v-32h21.3c23.6,0,42.7-19.1,42.7-42.7V149h32v21.3
	c0,23.6,19.1,42.7,42.7,42.7h106.7c23.6,0,42.7-19.1,42.7-42.7V149h32v21.3c0,23.6,19.1,42.7,42.7,42.7H533v32H511.7z M469,106.3
	v21.3h-32v-21.3H469z M266.3,63.7c0-11.8,9.6-21.3,21.3-21.3h106.7c11.8,0,21.3,9.6,21.3,21.3v106.7c0,11.8-9.6,21.3-21.3,21.3
	H287.7c-11.8,0-21.3-9.6-21.3-21.3V63.7z M245,106.3v21.3h-32v-21.3H245z M42.3,170.3V63.7c0-11.8,9.6-21.3,21.3-21.3h106.7
	c11.8,0,21.3,9.6,21.3,21.3v106.7c0,11.8-9.6,21.3-21.3,21.3H63.7C51.9,191.7,42.3,182.1,42.3,170.3z M106.3,213h21.3v32h-21.3V213z
	 M42.3,394.3V287.7c0-11.8,9.6-21.3,21.3-21.3h106.7c11.8,0,21.3,9.6,21.3,21.3v106.7c0,11.8-9.6,21.3-21.3,21.3H63.7
	C51.9,415.7,42.3,406.1,42.3,394.3z M106.3,437h21.3v32h-21.3V437z M191.7,618.3c0,11.8-9.6,21.3-21.3,21.3H63.7
	c-11.8,0-21.3-9.6-21.3-21.3V511.7c0-11.8,9.6-21.3,21.3-21.3h106.7c11.8,0,21.3,9.6,21.3,21.3V618.3z M213,575.7v-21.3h32v21.3H213
	z M415.7,618.3c0,11.8-9.6,21.3-21.3,21.3H287.7c-11.8,0-21.3-9.6-21.3-21.3V511.7c0-11.8,9.6-21.3,21.3-21.3h106.7
	c11.8,0,21.3,9.6,21.3,21.3V618.3z M437,575.7v-21.3h32v21.3H437z M639.7,511.7v106.7c0,11.8-9.6,21.3-21.3,21.3H511.7
	c-11.8,0-21.3-9.6-21.3-21.3V511.7c0-11.8,9.6-21.3,21.3-21.3h106.7C630.1,490.3,639.7,499.9,639.7,511.7z M575.7,469h-21.3v-32
	h21.3V469z M639.7,287.7v106.7c0,11.8-9.6,21.3-21.3,21.3H511.7c-11.8,0-21.3-9.6-21.3-21.3V287.7c0-11.8,9.6-21.3,21.3-21.3h106.7
	C630.1,266.3,639.7,275.9,639.7,287.7z M575.7,245h-21.3v-32h21.3V245z"/>
<path class="st0" d="M394.3,245H287.7c-23.6,0-42.7,19.1-42.7,42.7v106.7c0,23.6,19.1,42.7,42.7,42.7h106.7
	c23.6,0,42.7-19.1,42.7-42.7V287.7C437,264.1,417.9,245,394.3,245z M415.7,394.3c0,11.8-9.6,21.3-21.3,21.3H287.7
	c-11.8,0-21.3-9.6-21.3-21.3V287.7c0-11.8,9.6-21.3,21.3-21.3h106.7c11.8,0,21.3,9.6,21.3,21.3V394.3z"/>
<path class="st0" d="M117,74.3c0-5.9-4.8-10.7-10.7-10.7h-32c-5.9,0-10.7,4.8-10.7,10.7v32c0,5.9,4.8,10.7,10.7,10.7
	c5.9,0,10.7-4.8,10.7-10.7V85h21.3C112.2,85,117,80.2,117,74.3z"/>
<path class="st0" d="M565,607.7c0,5.9,4.8,10.7,10.7,10.7h32c5.9,0,10.7-4.8,10.7-10.7v-32c0-5.9-4.8-10.7-10.7-10.7
	c-5.9,0-10.7,4.8-10.7,10.7V597h-21.3C569.8,597,565,601.8,565,607.7z"/>
</svg>
