<?xml version="1.0" encoding="utf-8"?>
<!-- Generator: Adobe Illustrator 24.1.1, SVG Export Plug-In . SVG Version: 6.00 Build 0)  -->
<svg version="1.1" id="Capa_1" xmlns="http://www.w3.org/2000/svg" xmlns:xlink="http://www.w3.org/1999/xlink" x="0px" y="0px"
	 viewBox="0 0 465 511" style="enable-background:new 0 0 465 511;" xml:space="preserve">
<style type="text/css">
	.st0{fill:#B3B6B7;}
	.st1{fill:#1F2F59;}
	.st2{fill:#FFFFFF;stroke:#FF1634;stroke-width:14.89;stroke-miterlimit:10;}
	.st3{clip-path:url(#SVGID_2_);}
	.st4{fill:#0053A9;}
	.st5{fill:#00A1D6;}
</style>
<ellipse id="Elipse_6" class="st0" cx="195.5" cy="499.6" rx="195.5" ry="11.4"/>
<path class="st1" d="M295.6,351.9l96.6,96.4c17.1,15,43.1,13.3,58.1-3.7c13.7-15.6,13.7-38.9-0.1-54.4l-96.5-96.6
	C339,317.1,319.1,337.1,295.6,351.9z"/>
<path class="st2" d="M323.5,61.8C251.3-10.6,134-10.7,61.7,61.5S-10.7,251,61.6,323.3c57.8,58,146.9,71,218.9,32.1
	c31.8-17,57.9-43,74.9-74.9C394.1,208.5,381.2,119.6,323.5,61.8z"/>
<g>
	<defs>
		<circle id="SVGID_1_" cx="192.5" cy="192.5" r="143"/>
	</defs>
	<clipPath id="SVGID_2_">
		<use xlink:href="#SVGID_1_"  style="overflow:visible;"/>
	</clipPath>
	<g class="st3">
		<path class="st4" d="M308.1,335.5c0-58.9-51.8-106.6-115.6-106.6S76.9,276.6,76.9,335.5H308.1z"/>
		<path class="st5" d="M259.6,142.6c-0.1,37.1-30.2,67-67.2,67c-37.1-0.1-67-30.2-67-67.2c0.1-37,30.1-67,67.1-67
			C229.6,75.4,259.6,105.5,259.6,142.6z"/>
	</g>
</g>
</svg>
