<svg id="Capa_1" data-name="Capa 1" xmlns="http://www.w3.org/2000/svg" viewBox="0 0 512 512"><defs><style>.cls-1{fill:#e7e8e9;}.cls-2{fill:#1f2f59;}.cls-3{fill:#fff;}.cls-4{fill:#174a9a;}.cls-5{fill:#f61c36;}.cls-6{fill:#0059ea;}.cls-7{fill:#00b1ed;}.cls-8{fill:none;stroke:#fff;stroke-miterlimit:10;stroke-width:5.44px;}.cls-9{fill:#002c60;}.cls-10{fill:#fc1f25;}</style></defs><g id="Grupo_51" data-name="Grupo 51"><ellipse id="Elipse_6" data-name="Elipse 6" class="cls-1" cx="257.56" cy="441.79" rx="142.31" ry="8.66"/><g id="Grupo_50" data-name="Grupo 50"><g id="Grupo_49" data-name="Grupo 49"><g id="Grupo_48" data-name="Grupo 48"><path id="Trazado_256" data-name="Trazado 256" class="cls-2" d="M512,85.53V345.68a24.06,24.06,0,0,1-24,24H24a24,24,0,0,1-24-24V85.53a24,24,0,0,1,23.93-24H488a24,24,0,0,1,24,24Zm-13.21,257v-253A14.34,14.34,0,0,0,484.46,75.2H28.82A14.29,14.29,0,0,0,14.49,89.45V342.57a14.34,14.34,0,0,0,14.29,14.37H484.47a14.35,14.35,0,0,0,14.32-14.37Z"/><path id="Trazado_257" data-name="Trazado 257" class="cls-3" d="M498.79,89.53v253a14.35,14.35,0,0,1-14.32,14.37H28.82A14.33,14.33,0,0,1,14.49,342.6V89.53A14.3,14.3,0,0,1,28.74,75.2H484.47A14.33,14.33,0,0,1,498.79,89.53Z"/><path id="Trazado_258" data-name="Trazado 258" class="cls-4" d="M335,436.18v5.89H181.51v-5.89a12,12,0,0,1,12-12H322.94A12,12,0,0,1,335,436.18Z"/><rect id="Rectángulo_56" data-name="Rectángulo 56" class="cls-5" x="223.38" y="369.72" width="71.07" height="54.47"/></g></g></g><rect id="Rectángulo_57" data-name="Rectángulo 57" class="cls-6" x="87.07" y="106.51" width="171.84" height="168.49"/><rect id="Rectángulo_58" data-name="Rectángulo 58" class="cls-6" x="258.91" y="106.51" width="171.84" height="168.49"/><rect id="Rectángulo_59" data-name="Rectángulo 59" class="cls-7" x="87.07" y="275" width="343.69" height="44.4"/><rect id="Rectángulo_60" data-name="Rectángulo 60" class="cls-7" x="87.07" y="275" width="343.69" height="44.4"/><rect id="Rectángulo_61" data-name="Rectángulo 61" class="cls-8" x="101.1" y="129.81" width="80.42" height="80.42"/><line id="Línea_16" data-name="Línea 16" class="cls-8" x1="202.03" y1="159.41" x2="407.36" y2="159.41"/><line id="Línea_17" data-name="Línea 17" class="cls-8" x1="202.03" y1="184.82" x2="407.36" y2="184.82"/><line id="Línea_18" data-name="Línea 18" class="cls-8" x1="202.03" y1="210.23" x2="407.36" y2="210.23"/><rect id="Rectángulo_62" data-name="Rectángulo 62" class="cls-8" x="101.1" y="290.46" width="88.55" height="15.47"/><rect id="Rectángulo_63" data-name="Rectángulo 63" class="cls-8" x="211.71" y="290.46" width="88.55" height="15.47"/><rect id="Rectángulo_64" data-name="Rectángulo 64" class="cls-8" x="322.32" y="290.46" width="88.55" height="15.47"/><rect id="Rectángulo_65" data-name="Rectángulo 65" class="cls-8" x="101.1" y="230.14" width="306.25" height="27.07"/><circle id="Elipse_7" data-name="Elipse 7" class="cls-3" cx="419.98" cy="115.69" r="2.76"/><circle id="Elipse_8" data-name="Elipse 8" class="cls-9" cx="408.55" cy="115.69" r="2.76"/><circle id="Elipse_9" data-name="Elipse 9" class="cls-10" cx="397.11" cy="115.69" r="2.76"/></g></svg>