<?xml version="1.0" encoding="utf-8"?>
<!-- Generator: Adobe Illustrator 24.1.1, SVG Export Plug-In . SVG Version: 6.00 Build 0)  -->
<svg version="1.1" id="Capa_1" xmlns="http://www.w3.org/2000/svg" xmlns:xlink="http://www.w3.org/1999/xlink" x="0px" y="0px"
	 viewBox="0 0 512 512" style="enable-background:new 0 0 512 512;" xml:space="preserve">
<style type="text/css">
	.st0{fill:#1F2F59;}
	.st1{fill:#FFFFFF;}
	.st2{fill:#0059EA;}
	.st3{fill:#00B0EC;stroke:#00B0EC;stroke-width:3.0015;stroke-miterlimit:10;}
	.st4{fill:none;stroke:#00B0EC;stroke-width:3.0015;stroke-miterlimit:10;}
	.st5{fill:none;stroke:#FFFFFF;stroke-width:6.6138;stroke-linecap:round;stroke-linejoin:round;}
	.st6{fill:#FC1F25;}
	.st7{fill:none;stroke:#FFFFFF;stroke-width:5.8976;stroke-linecap:round;stroke-linejoin:round;stroke-dasharray:5.8134,17.4402;}
</style>
<path class="st0" d="M91.8,0h226c19.1,0,34.6,15.5,34.6,34.6v442.7c0,19.1-15.5,34.6-34.6,34.6h-226c-19.1,0-34.6-15.5-34.6-34.6
	V34.6C57.2,15.5,72.7,0,91.8,0z"/>
<path class="st1" d="M107,26.9h195.6c11.3,0,20.5,9.2,20.5,20.5v357.5c0,11.3-9.2,20.5-20.5,20.5H107c-11.3,0-20.5-9.2-20.5-20.5
	V47.3C86.5,36,95.7,26.9,107,26.9z"/>
<path class="st2" d="M223.4,472.1c0,10.3-8.3,18.6-18.6,18.6s-18.6-8.3-18.6-18.6c0-10.3,8.3-18.6,18.6-18.6c0,0,0,0,0,0l0,0
	C215,453.5,223.4,461.8,223.4,472.1"/>
<path class="st3" d="M124.1,66.2h65.6c3.4,0,6.2,2.8,6.2,6.2V138c0,3.4-2.8,6.2-6.2,6.2h-65.6c-3.4,0-6.2-2.8-6.2-6.2V72.4
	C118,69,120.7,66.2,124.1,66.2z"/>
<path class="st4" d="M220.6,66.2h65.6c3.4,0,6.2,2.8,6.2,6.2V138c0,3.4-2.8,6.2-6.2,6.2h-65.6c-3.4,0-6.2-2.8-6.2-6.2V72.4
	C214.4,69,217.2,66.2,220.6,66.2z"/>
<path class="st4" d="M124.1,172.5h65.6c3.4,0,6.2,2.8,6.2,6.2v65.6c0,3.4-2.8,6.2-6.2,6.2h-65.6c-3.4,0-6.2-2.8-6.2-6.2v-65.6
	C118,175.3,120.7,172.5,124.1,172.5z"/>
<path class="st4" d="M220.6,172.5h65.6c3.4,0,6.2,2.8,6.2,6.2v65.6c0,3.4-2.8,6.2-6.2,6.2h-65.6c-3.4,0-6.2-2.8-6.2-6.2v-65.6
	C214.4,175.3,217.2,172.5,220.6,172.5z"/>
<path class="st4" d="M124.1,278.8h65.6c3.4,0,6.2,2.8,6.2,6.2v65.6c0,3.4-2.8,6.2-6.2,6.2h-65.6c-3.4,0-6.2-2.8-6.2-6.2V285
	C118,281.6,120.7,278.8,124.1,278.8z"/>
<path class="st4" d="M220.6,278.8h65.6c3.4,0,6.2,2.8,6.2,6.2v65.6c0,3.4-2.8,6.2-6.2,6.2h-65.6c-3.4,0-6.2-2.8-6.2-6.2V285
	C214.4,281.6,217.2,278.8,220.6,278.8z"/>
<polyline class="st5" points="130.6,110.2 144.4,128.5 183.4,83.7 "/>
<circle id="Oval" class="st6" cx="327.9" cy="235" r="128.9"/>
<path class="st1" d="M379.2,275.8c-2,4.4-4.9,8.4-8.4,11.7c-3.8,3.5-8.3,6.3-13.1,8.2c-5.5,2.2-11.2,3.6-17.1,4.1v19.5h-20.4v-19.9
	c-8.5-1-16.8-3.2-24.7-6.4c-7.8-3.1-15.1-7.3-21.7-12.3l15.4-22.5c4.9,3.8,10.2,7.2,15.6,10.1c5.2,2.7,10.7,4.7,16.4,5.8v-31.3
	c-6.4-1.7-12.6-3.9-18.6-6.6c-4.8-2.1-9.3-5-13.2-8.6c-3.4-3.2-6.1-7.1-7.9-11.5c-1.9-4.9-2.8-10-2.7-15.3c-0.1-5.1,0.9-10.2,3-15
	c1.9-4.4,4.8-8.4,8.3-11.7c3.8-3.5,8.3-6.2,13.1-8.1c5.4-2.1,11.2-3.5,17-4v-11.4h20.5v11.8c13.2,1.8,25.8,6.8,36.6,14.6l-13.2,23
	c-3.9-2.6-7.9-4.9-12-7c-4-2-8.1-3.5-12.4-4.6v29.7c15,4.1,25.8,9.4,32.6,16s10.1,15.4,10.2,26.5C382.4,266,381.3,271.1,379.2,275.8
	z M321,186.8c-4.7,0.7-8.2,2.1-10.3,4.3c-2.1,2.1-3.3,5.1-3.2,8.1c-0.1,2.9,0.9,5.7,2.8,7.9c1.8,2.2,5.4,4.3,10.8,6.3V186.8z
	 M350.5,253.9c-2-2.2-5.6-4.3-11-6.3v27.6c9.3-1.4,14-5.7,14-12.8C353.6,259.3,352.5,256.3,350.5,253.9L350.5,253.9z"/>
<circle class="st7" cx="327.9" cy="235" r="114.7"/>
</svg>
