<svg id="Capa_1" data-name="Capa 1" xmlns="http://www.w3.org/2000/svg" viewBox="0 0 512 512"><defs><style>.cls-1{fill:#e6e6e6;}.cls-2{fill:#eceff1;}.cls-3{fill:#d9d9d9;}.cls-4{fill:none;stroke:#b0b0b0;stroke-linecap:round;stroke-linejoin:round;stroke-width:9.81px;}.cls-5{fill:#939598;}.cls-6{fill:#1f2f59;}.cls-7{fill:#fc1f25;}.cls-8{fill:#0059ea;}.cls-9{fill:#f1f2f2;}</style></defs><path class="cls-1" d="M291.28,19.38H75.75A30.83,30.83,0,0,0,45,50.17V481.23A30.82,30.82,0,0,0,75.75,512H383.67a30.8,30.8,0,0,0,30.79-30.79h0V142.54Z"/><path class="cls-2" d="M306,1.27H90.51A30.83,30.83,0,0,0,59.73,32.06V463.12a30.81,30.81,0,0,0,30.78,30.79H398.42a30.82,30.82,0,0,0,30.8-30.79V124.42Z"/><path class="cls-3" d="M306,1.27V93.63a30.8,30.8,0,0,0,30.79,30.79H429.2Z"/><line class="cls-4" x1="114.7" y1="209.84" x2="375.45" y2="209.84"/><line class="cls-4" x1="263.74" y1="155.4" x2="375.45" y2="155.4"/><line class="cls-4" x1="111.89" y1="264.27" x2="375.45" y2="264.27"/><line class="cls-4" x1="114.7" y1="318.72" x2="375.45" y2="318.72"/><line class="cls-4" x1="111.89" y1="373.16" x2="375.45" y2="373.16"/><line class="cls-4" x1="111.89" y1="427.59" x2="375.45" y2="427.59"/><g id="surface1"><path class="cls-5" d="M253.16,371.46l8.19-57.34,36.86,12.29,12.29,36.86Z"/><path class="cls-6" d="M384.23,191.24l16.39-16.38L449.77,224l-16.38,16.38Z"/><path class="cls-7" d="M429.66,156.68a33.6,33.6,0,0,0-5.79,1.1,34.7,34.7,0,0,0-15.06,8.86l-8.17,8.23L449.77,224l8.16-8.16a34.76,34.76,0,0,0-28.27-59.15Z"/><path class="cls-8" d="M384.26,191.21,261.34,314.13l32.81,16.37,73.7-73.73-73.7,73.73,7.4,14.79,9,17.95L429.7,244.1l3.71-3.71-9.52-9.51Zm.53,48.62,8.19-8.19Z"/><path class="cls-9" d="M309.65,320.76a5.79,5.79,0,0,1-4.09-9.89l62.16-62.14a5.79,5.79,0,1,1,8.18,8.17l-62.15,62.17A5.82,5.82,0,0,1,309.65,320.76Z"/><path class="cls-9" d="M388.18,242.23a5.79,5.79,0,0,1-4.09-9.89l8.19-8.19a5.79,5.79,0,0,1,8.19,8.19l-8.19,8.19A5.79,5.79,0,0,1,388.18,242.23Z"/></g></svg>