<?xml version="1.0" encoding="utf-8"?>
<!-- Generator: Adobe Illustrator 24.1.1, SVG Export Plug-In . SVG Version: 6.00 Build 0)  -->
<svg version="1.1" id="Capa_1" xmlns="http://www.w3.org/2000/svg" xmlns:xlink="http://www.w3.org/1999/xlink" x="0px" y="0px"
	 viewBox="0 0 512 512" style="enable-background:new 0 0 512 512;" xml:space="preserve">
<style type="text/css">
	.st0{fill:#00B0EC;}
	.st1{fill:none;stroke:#0053A9;stroke-width:9.2324;stroke-miterlimit:10;}
	.st2{fill:#002861;}
	.st3{enable-background:new    ;}
	.st4{fill:#F61C36;stroke:#F61C36;stroke-miterlimit:10;}
</style>
<g>
	<path class="st0" d="M513.2,482c0-61.5-54-111.2-120.6-111.2S272,420.6,272,482H513.2z"/>
	<path class="st1" d="M462.7,283.6c-0.1,38.7-31.5,69.9-70.1,69.9s-69.9-31.5-69.9-70.1c0.1-38.7,31.4-69.9,70-69.9
		C431.3,213.5,462.7,244.8,462.7,283.6L462.7,283.6z"/>
</g>
<g>
	<path class="st2" d="M242.4,482c0-61.5-54-111.2-120.6-111.2S1.2,420.6,1.2,482H242.4z"/>
	<path class="st1" d="M191.9,283.6c-0.1,38.7-31.5,69.9-70.1,69.9S51.8,322,51.8,283.4c0.1-38.7,31.4-69.9,70-69.9
		C160.5,213.5,191.9,244.8,191.9,283.6L191.9,283.6z"/>
</g>
<g class="st3">
	<path class="st4" d="M249.6,373.1l-13,20.8h-11.1l13.5-20.8h-24.6v-10.2h31.1l15.2-23.5h-46.2v-10.2h52.7l13-20.8h11.1l-13.5,20.8
		h24.7v10.2h-31.2l-15,23.5h46.2v10.2H249.6z"/>
</g>
</svg>
