<svg id="Capa_1" data-name="Capa 1" xmlns="http://www.w3.org/2000/svg" viewBox="0 0 512 512"><defs><style>.cls-1{fill:#00b1ec;}.cls-2{fill:#f7f8f7;}.cls-3{fill:#002c60;}.cls-4{fill:#babcc0;}.cls-11,.cls-5,.cls-7,.cls-9{fill:none;}.cls-5{stroke:#626364;stroke-width:3px;}.cls-5,.cls-6{stroke-miterlimit:10;}.cls-6{fill:#fff;stroke:#002c60;stroke-width:14px;}.cls-7,.cls-9{stroke:#09afea;}.cls-11,.cls-7,.cls-9{stroke-linecap:round;stroke-linejoin:round;}.cls-7{stroke-width:6.58px;}.cls-8{fill:#fc1f25;}.cls-9{stroke-width:3.21px;}.cls-10{fill:#0459e8;}.cls-11{stroke:#fc1f25;stroke-width:5.25px;}</style></defs><path class="cls-1" d="M21.13,81.25h325a28.64,28.64,0,0,1,28.64,28.64v34.27a0,0,0,0,1,0,0H.38a0,0,0,0,1,0,0V102A20.75,20.75,0,0,1,21.13,81.25Z"/><path class="cls-2" d="M.38,144.15H374.72a0,0,0,0,1,0,0V505.71a6.29,6.29,0,0,1-6.29,6.29H.38a0,0,0,0,1,0,0V144.15A0,0,0,0,1,.38,144.15Z"/><path class="cls-3" d="M353.92,81.25h22.37a19.24,19.24,0,0,1,19.24,19.24v43.67a0,0,0,0,1,0,0H353.92a0,0,0,0,1,0,0V81.25A0,0,0,0,1,353.92,81.25Z"/><path class="cls-4" d="M353.92,144.15h41.61a0,0,0,0,1,0,0V496.6a15.4,15.4,0,0,1-15.4,15.4h-26.2a0,0,0,0,1,0,0V144.15A0,0,0,0,1,353.92,144.15Z"/><line class="cls-5" x1="374.12" y1="190.83" x2="374.12" y2="490.26"/><line class="cls-5" x1="384.22" y1="190.83" x2="384.22" y2="490.26"/><rect class="cls-4" x="69.12" y="215.61" width="236.87" height="13.72" rx="6.03"/><rect class="cls-4" x="69.12" y="273.92" width="236.87" height="13.72" rx="6.03"/><rect class="cls-4" x="69.12" y="332.23" width="236.87" height="13.72" rx="6.03"/><rect class="cls-4" x="69.12" y="390.55" width="236.87" height="13.72" rx="6.03"/><rect class="cls-6" x="274.59" y="45.77" width="198.97" height="198.97" rx="99.48"/><line class="cls-7" x1="301.19" y1="145.26" x2="319.12" y2="145.26"/><line class="cls-7" x1="430.68" y1="145.26" x2="448.61" y2="145.26"/><line class="cls-7" x1="374.9" y1="71.55" x2="374.9" y2="89.48"/><line class="cls-7" x1="374.9" y1="201.04" x2="374.9" y2="218.97"/><line class="cls-7" x1="322.78" y1="93.14" x2="335.46" y2="105.82"/><line class="cls-7" x1="414.34" y1="184.7" x2="427.02" y2="197.38"/><line class="cls-7" x1="427.02" y1="93.14" x2="414.34" y2="105.82"/><line class="cls-7" x1="335.46" y1="184.7" x2="322.78" y2="197.38"/><path class="cls-8" d="M343.79,0h61.5a15.47,15.47,0,0,1,15.47,15.47v8.25a4.12,4.12,0,0,1-4.12,4.12H333.15A4.12,4.12,0,0,1,329,23.73v-9A14.75,14.75,0,0,1,343.79,0Z"/><circle class="cls-9" cx="374.08" cy="145.26" r="10.14"/><rect class="cls-10" x="357.7" y="27.84" width="32.76" height="10.93" rx="5.47"/><path class="cls-11" d="M459,232a118.11,118.11,0,0,1-27.12,20.42"/><path class="cls-11" d="M493.68,137.69a119.28,119.28,0,0,1-19.45,75.58c-1.3,2-2.62,3.84-4,5.69"/></svg>