<?xml version="1.0" encoding="utf-8"?>
<!-- Generator: Adobe Illustrator 24.1.1, SVG Export Plug-In . SVG Version: 6.00 Build 0)  -->
<svg version="1.1" id="Capa_1" xmlns="http://www.w3.org/2000/svg" xmlns:xlink="http://www.w3.org/1999/xlink" x="0px" y="0px"
	 viewBox="0 0 512 512" style="enable-background:new 0 0 512 512;" xml:space="preserve">
<style type="text/css">
	.st0{fill:#00B2EF;}
	.st1{fill:#0054A6;}
	.st2{fill:#FFFFFF;}
	.st3{fill:#002C60;}
	.st4{fill:#FC1F25;}
	.st5{fill:#002D5F;}
	.st6{fill:none;stroke:#0054A6;stroke-width:4;stroke-miterlimit:10;}
	.st7{fill:#F7F8F7;}
	.st8{fill:#00B1EC;}
	.st9{fill:none;stroke:#FFFFFF;stroke-width:3.9296;stroke-linecap:round;stroke-linejoin:round;}
	.st10{fill:none;stroke:#FFFFFF;stroke-width:4.4153;stroke-linecap:round;stroke-linejoin:round;}
</style>
<path class="st0" d="M-0.5,378.2h512c0,20.8-16.9,37.8-37.8,37.8l0,0H37.2C16.4,415.9-0.5,399-0.5,378.2
	C-0.5,378.2-0.5,378.2-0.5,378.2L-0.5,378.2"/>
<path class="st1" d="M487.4,378.2H23.6V109.5c0-8,6.5-14.4,14.4-14.4h435c8,0,14.4,6.5,14.4,14.4V378.2z"/>
<path class="st2" d="M54.3,118.3h402.4c5.2,0,9.5,4.2,9.5,9.4v227.8c0,5.2-4.2,9.5-9.5,9.5H54.3c-5.2,0-9.5-4.2-9.5-9.5V127.7
	C44.8,122.5,49.1,118.3,54.3,118.3z"/>
<path class="st3" d="M302.9,391.7h-94.8c-4,0-7.2-3.2-7.2-7.2v-5.7h109.2v5.7C310.1,388.5,306.9,391.7,302.9,391.7z"/>
<rect x="44.7" y="117.1" class="st0" width="421.4" height="17.9"/>
<circle class="st4" cx="55.1" cy="125.9" r="3.2"/>
<circle class="st1" cx="70" cy="125.9" r="3.2"/>
<circle class="st5" cx="84.9" cy="125.9" r="3.2"/>
<path class="st3" d="M215.9,326.3c0-34.2-30-61.8-67.1-61.8s-67.1,27.7-67.1,61.8H215.9z"/>
<ellipse class="st6" cx="148.8" cy="212.6" rx="38.9" ry="39"/>
<path class="st7" d="M253.4,169h163.2c6.3,0,11.4,5.1,11.4,11.4v13.5l0,0H241.9l0,0v-13.5C241.9,174.1,247,169,253.4,169L253.4,169z
	"/>
<path class="st4" d="M241.9,193.9H428l0,0v120.9c0,6.3-5.1,11.4-11.4,11.4H253.3c-6.3,0-11.4-5.1-11.4-11.4L241.9,193.9L241.9,193.9
	z"/>
<path class="st8" d="M308.9,220.6L308.9,220.6c20.4,0,36.9,16.5,36.9,36.9v0c0,20.4-16.5,36.9-36.9,36.9h0
	c-20.4,0-36.9-16.5-36.9-36.9v0C271.9,237.1,288.5,220.6,308.9,220.6z"/>
<polyline class="st9" points="287.4,259.8 297.5,273.1 330.4,241.9 "/>
<line class="st10" x1="365.8" y1="220.6" x2="406.8" y2="220.6"/>
<line class="st10" x1="365.8" y1="247.1" x2="406.8" y2="247.1"/>
<line class="st10" x1="365.8" y1="273.7" x2="406.8" y2="273.7"/>
<line class="st10" x1="365.8" y1="300.3" x2="406.8" y2="300.3"/>
</svg>
