<?xml version="1.0" encoding="utf-8"?>
<!-- Generator: Adobe Illustrator 24.1.1, SVG Export Plug-In . SVG Version: 6.00 Build 0)  -->
<svg version="1.1" id="Capa_1" xmlns="http://www.w3.org/2000/svg" xmlns:xlink="http://www.w3.org/1999/xlink" x="0px" y="0px"
	 viewBox="0 0 512 512" style="enable-background:new 0 0 512 512;" xml:space="preserve">
<style type="text/css">
	.st0{fill:#0054A6;}
	.st1{fill:#FFFFFF;}
	.st2{fill:#002C60;}
	.st3{fill:#00B2EF;}
	.st4{fill:#FC1F25;}
	.st5{fill:#002D5F;}
	.st6{fill:#F7F8F7;}
	.st7{fill:#BABCC0;}
	.st8{fill:none;stroke:#F7F8F7;stroke-width:2.1551;stroke-linecap:round;stroke-linejoin:round;}
</style>
<path class="st0" d="M-0.2,378.2h512c0,20.8-16.9,37.8-37.7,37.8c0,0,0,0,0,0H37.6C16.7,416-0.2,399.1-0.2,378.2
	C-0.2,378.3-0.2,378.3-0.2,378.2L-0.2,378.2"/>
<path class="st0" d="M487.7,378.2H23.9V109.6c0-8,6.5-14.4,14.4-14.4h435c7.9,0,14.4,6.5,14.4,14.4V378.2z"/>
<path class="st1" d="M54.8,118.3h410.9c5.3,0,9.6,4.2,9.6,9.4v227.8c0,5.2-4.3,9.5-9.6,9.5H54.8c-5.3,0-9.6-4.2-9.6-9.5V127.8
	C45.2,122.6,49.5,118.3,54.8,118.3z"/>
<path class="st2" d="M303.2,391.8h-94.8c-4,0-7.2-3.2-7.2-7.2v-5.7h109.2v5.7C310.4,388.6,307.2,391.8,303.2,391.8z"/>
<path class="st3" d="M54.8,117.2h410.8c5.4,0,9.8,4.4,9.8,9.8v8.1H45v-8.1C45,121.5,49.4,117.2,54.8,117.2z"/>
<circle class="st4" cx="55.5" cy="125.9" r="3.2"/>
<circle class="st0" cx="70.4" cy="125.9" r="3.2"/>
<circle class="st5" cx="85.3" cy="125.9" r="3.2"/>
<rect x="54.2" y="135" class="st6" width="421.2" height="230.1"/>
<path class="st7" d="M193.2,166.4h163.6c2.4,0,4.4,2,4.4,4.4v1.2c0,2.4-2,4.4-4.4,4.4H193.2c-2.4,0-4.4-2-4.4-4.4v-1.2
	C188.9,168.3,190.8,166.4,193.2,166.4z"/>
<path class="st7" d="M193.2,208.8h163.6c2.4,0,4.4,2,4.4,4.4v1.2c0,2.4-2,4.4-4.4,4.4H193.2c-2.4,0-4.4-2-4.4-4.4v-1.2
	C188.9,210.8,190.8,208.8,193.2,208.8z"/>
<path class="st7" d="M193.2,251.2h163.6c2.4,0,4.4,2,4.4,4.4v1.2c0,2.4-2,4.4-4.4,4.4H193.2c-2.4,0-4.4-2-4.4-4.4v-1.2
	C188.9,253.2,190.8,251.2,193.2,251.2z"/>
<path class="st7" d="M193.2,293.6h163.6c2.4,0,4.4,2,4.4,4.4v1.2c0,2.4-2,4.4-4.4,4.4H193.2c-2.4,0-4.4-2-4.4-4.4V298
	C188.9,295.6,190.8,293.6,193.2,293.6z"/>
<circle class="st0" cx="154.2" cy="171.4" r="13.3"/>
<circle class="st0" cx="154.2" cy="213.8" r="13.3"/>
<circle class="st0" cx="154.2" cy="255.8" r="13.3"/>
<circle class="st0" cx="154.2" cy="298.6" r="13.3"/>
<path class="st4" d="M285.2,324H351c5.6,0,10.2,4.6,10.2,10.2v0c0,5.6-4.6,10.2-10.2,10.2h-65.8c-5.6,0-10.2-4.6-10.2-10.2v0
	C275,328.6,279.6,324,285.2,324z"/>
<circle class="st3" cx="362.4" cy="334.2" r="14.5"/>
<polyline class="st8" points="354.7,336.3 358.8,340 369.6,328.5 "/>
<circle class="st6" cx="154.2" cy="171.4" r="3.2"/>
<circle class="st6" cx="154.2" cy="213.6" r="3.2"/>
<circle class="st6" cx="154.2" cy="255.8" r="3.2"/>
<circle class="st6" cx="154.2" cy="298.6" r="3.2"/>
</svg>
