<?xml version="1.0" encoding="utf-8"?>
<!-- Generator: Adobe Illustrator 24.1.1, SVG Export Plug-In . SVG Version: 6.00 Build 0)  -->
<svg version="1.1" id="Capa_1" xmlns="http://www.w3.org/2000/svg" xmlns:xlink="http://www.w3.org/1999/xlink" x="0px" y="0px"
	 viewBox="0 0 512 512" style="enable-background:new 0 0 512 512;" xml:space="preserve">
<style type="text/css">
	.st0{fill:#00B2EF;}
	.st1{fill:#0054A6;}
	.st2{fill:#FFFFFF;}
	.st3{fill:#002C60;}
	.st4{fill:#FC1F25;}
	.st5{fill:#002D5F;}
	.st6{fill:#F7F8F7;}
	.st7{fill:#BABCC0;}
	.st8{fill:none;stroke:#0054A6;stroke-width:2;stroke-miterlimit:10;}
	.st9{fill:none;stroke:#BABCC0;stroke-width:5.5296;stroke-linecap:round;stroke-miterlimit:10;}
</style>
<path class="st0" d="M-0.5,376.6h512c0,20.8-16.9,37.8-37.8,37.8H37.2C16.4,414.4-0.5,397.5-0.5,376.6L-0.5,376.6"/>
<path class="st1" d="M487.4,376.6H23.6V108c0-8,6.4-14.5,14.4-14.5c0,0,0,0,0,0h435c8,0,14.4,6.5,14.4,14.5c0,0,0,0,0,0V376.6z"/>
<path class="st2" d="M54.3,116.7h402.4c5.2,0,9.5,4.2,9.5,9.4V354c0,5.2-4.2,9.5-9.5,9.5H54.3c-5.2,0-9.5-4.2-9.5-9.5V126.2
	C44.8,121,49.1,116.7,54.3,116.7z"/>
<path class="st3" d="M302.9,390.2h-94.8c-4,0-7.2-3.2-7.2-7.2v-5.7h109.2v5.7C310.1,387,306.8,390.2,302.9,390.2z"/>
<rect x="44.7" y="115.6" class="st0" width="421.4" height="17.9"/>
<circle class="st4" cx="55.1" cy="124.3" r="3.2"/>
<circle class="st1" cx="70" cy="124.3" r="3.2"/>
<circle class="st5" cx="84.9" cy="124.3" r="3.2"/>
<rect x="44.7" y="133.4" class="st6" width="143.3" height="230.1"/>
<rect x="188" y="133.4" class="st7" width="278.1" height="230.1"/>
<path class="st6" d="M234.5,166.3h171.6c2.5,0,4.6,2.1,4.6,4.6v1.3c0,2.5-2.1,4.6-4.6,4.6H234.5c-2.5,0-4.6-2.1-4.6-4.6v-1.3
	C229.9,168.4,232,166.3,234.5,166.3z"/>
<path class="st6" d="M234.5,210.8h171.6c2.5,0,4.6,2.1,4.6,4.6v1.3c0,2.5-2.1,4.6-4.6,4.6H234.5c-2.5,0-4.6-2.1-4.6-4.6v-1.3
	C229.9,212.9,232,210.8,234.5,210.8z"/>
<path class="st6" d="M234.5,255.3h171.6c2.5,0,4.6,2.1,4.6,4.6v1.3c0,2.5-2.1,4.6-4.6,4.6H234.5c-2.5,0-4.6-2.1-4.6-4.6v-1.3
	C229.9,257.4,232,255.3,234.5,255.3z"/>
<path class="st6" d="M234.5,299.9h171.6c2.5,0,4.6,2.1,4.6,4.6v1.3c0,2.5-2.1,4.6-4.6,4.6H234.5c-2.5,0-4.6-2.1-4.6-4.6v-1.3
	C229.9,301.9,232,299.9,234.5,299.9z"/>
<g>
	<path class="st3" d="M145.8,233.5c0-15.1-13.3-27.3-29.6-27.3s-29.6,12.2-29.6,27.3H145.8z"/>
	<ellipse class="st8" cx="116.1" cy="183.2" rx="17.2" ry="17.2"/>
</g>
<line class="st9" x1="66.8" y1="251.2" x2="165.4" y2="251.2"/>
<line class="st9" x1="66.8" y1="272.8" x2="165.4" y2="272.8"/>
<line class="st9" x1="66.8" y1="294.4" x2="165.4" y2="294.4"/>
</svg>
