<svg id="Capa_1" data-name="Capa 1" xmlns="http://www.w3.org/2000/svg" viewBox="0 0 512 512"><defs><style>.cls-1{fill:#1f2f59;}.cls-2{fill:#fff;}.cls-3{fill:#fc1f25;}.cls-4,.cls-5,.cls-7{fill:none;stroke-linecap:round;stroke-linejoin:round;}.cls-4{stroke:#fc1f25;stroke-width:4px;}.cls-5{stroke:#21ade4;stroke-width:15.43px;}.cls-6{fill:#0059ea;}.cls-7{stroke:#fff;stroke-width:15px;}.cls-8{fill:#e7e8e9;}</style></defs><rect class="cls-1" x="75.17" width="275.53" height="477.81" rx="32.32"/><rect class="cls-2" x="102.54" y="25.07" width="220.78" height="371.88" rx="19.11"/><circle class="cls-3" cx="370.46" cy="382.49" r="95.32"/><path class="cls-4" d="M465.06,430.44a106.17,106.17,0,0,1-5.92,10.12"/><path class="cls-4" d="M475.28,399.48a105.69,105.69,0,0,1-6.85,23.73"/><path class="cls-4" d="M405.08,281.55A106.3,106.3,0,0,1,476.71,382c0,1.86,0,3.7-.14,5.54"/><line class="cls-5" x1="144.75" y1="220.25" x2="229.71" y2="135.29"/><line class="cls-5" x1="148.52" y1="275.78" x2="281.11" y2="139.42"/><path class="cls-6" d="M230.29,440.56a17.36,17.36,0,1,1-17.36-17.35,17.36,17.36,0,0,1,17.36,17.35"/><polyline class="cls-7" points="411.67 345.3 373.94 383.03 411.67 420.75 374.56 383.03"/><polyline class="cls-7" points="336.48 420.54 374.2 382.81 336.48 345.09 373.58 382.81"/><ellipse id="Elipse_6" data-name="Elipse 6" class="cls-8" cx="213.97" cy="494.6" rx="130.2" ry="10.54"/></svg>