<svg id="Capa_1" data-name="Capa 1" xmlns="http://www.w3.org/2000/svg" viewBox="0 0 512 512"><defs><style>.cls-1{fill:#0054a6;}.cls-2,.cls-3,.cls-4,.cls-6{fill:none;stroke-linecap:round;stroke-linejoin:round;}.cls-2,.cls-4{stroke:#fff;}.cls-2{stroke-width:11.13px;}.cls-3{stroke:#0059ea;stroke-width:20.65px;}.cls-4{stroke-width:5.57px;}.cls-5{fill:#00a1d6;}.cls-6{stroke:#fc1f25;stroke-width:10px;}.cls-7{fill:#fc1f25;}.cls-8{fill:#fff;}</style></defs><polygon class="cls-1" points="412.32 436.57 101.78 436.57 101.78 13.61 322.78 13.61 412.32 100.2 412.32 436.57"/><rect class="cls-2" x="157.66" y="75.1" width="150.26" height="180.87" rx="16.52" transform="translate(465.58 331.07) rotate(-180)"/><path class="cls-3" d="M412.29,166.16V116.29a25,25,0,0,0-7.57-18.14L322.13,19.68a21.56,21.56,0,0,0-14.8-6.12H124.23c-12.35,0-22.48,10.79-22.48,24.15V412.48c0,13.24,10.13,24,22.48,24H389.81c12.35,0,22.48-10.8,22.48-24v-174"/><polyline class="cls-4" points="207.78 79.74 207.78 139.04 300.56 139.04"/><line class="cls-4" x1="255.85" y1="79.74" x2="255.85" y2="139.05"/><line class="cls-4" x1="207.78" y1="192.02" x2="207.78" y2="251.33"/><line class="cls-4" x1="255.85" y1="192.02" x2="255.85" y2="251.33"/><line class="cls-4" x1="165.03" y1="192.27" x2="300.56" y2="192.27"/><ellipse id="Elipse_6" data-name="Elipse 6" class="cls-5" cx="254.42" cy="484.81" rx="167.73" ry="13.58"/><line class="cls-6" x1="485.31" y1="363.84" x2="452.7" y2="354.41"/><line class="cls-6" x1="478.27" y1="318.62" x2="448.54" y2="335.01"/><line class="cls-6" x1="445.41" y1="292.61" x2="435.98" y2="325.22"/><circle class="cls-7" cx="363.97" cy="385" r="75.55"/><path class="cls-8" d="M338.05,347.58a46.35,46.35,0,0,1,5.44-3.92,42.57,42.57,0,0,1,6.32-3.22,39.76,39.76,0,0,1,7.27-2.16,42.73,42.73,0,0,1,8.41-.77,36.12,36.12,0,0,1,11.45,1.69,24.87,24.87,0,0,1,8.7,4.82,21.21,21.21,0,0,1,5.5,7.58,24.29,24.29,0,0,1,1.93,9.83,24.19,24.19,0,0,1-5,15.41,27.45,27.45,0,0,1-4.77,4.8q-2.61,2-4.93,3.75a38.89,38.89,0,0,0-4.06,3.41,7.57,7.57,0,0,0-2.19,3.78l-1.9,9.47H355.9l-1.49-10.88a9.4,9.4,0,0,1,.68-5.78,15.62,15.62,0,0,1,3.33-4.46,38.64,38.64,0,0,1,4.78-3.78,48.24,48.24,0,0,0,4.93-3.86A21.4,21.4,0,0,0,372,368.7a11.18,11.18,0,0,0,1.59-6.05,8.25,8.25,0,0,0-2.67-6.46,10.58,10.58,0,0,0-7.33-2.4,20.44,20.44,0,0,0-6,.75,24.67,24.67,0,0,0-4.12,1.65c-1.15.61-2.15,1.17-3,1.66a5.07,5.07,0,0,1-2.57.74,4.66,4.66,0,0,1-4.33-2.5Zm12.44,78.87a11.32,11.32,0,0,1,3.41-8.18,11.63,11.63,0,0,1,3.75-2.46,11.84,11.84,0,0,1,4.73-.92,11.67,11.67,0,0,1,4.66.92,12,12,0,0,1,3.79,2.46,11.26,11.26,0,0,1,2.54,3.65,11.38,11.38,0,0,1,.9,4.53,11.59,11.59,0,0,1-.9,4.56,11.07,11.07,0,0,1-2.54,3.68,11.81,11.81,0,0,1-3.79,2.44,12.38,12.38,0,0,1-4.66.87,12.56,12.56,0,0,1-4.73-.87,11.42,11.42,0,0,1-3.75-2.44,11.11,11.11,0,0,1-2.5-3.68A11.43,11.43,0,0,1,350.49,426.45Z"/></svg>