<?xml version="1.0" encoding="utf-8"?>
<!-- Generator: Adobe Illustrator 24.1.1, SVG Export Plug-In . SVG Version: 6.00 Build 0)  -->
<svg version="1.1" id="Capa_1" xmlns="http://www.w3.org/2000/svg" xmlns:xlink="http://www.w3.org/1999/xlink" x="0px" y="0px"
	 viewBox="0 0 512 512" style="enable-background:new 0 0 512 512;" xml:space="preserve">
<style type="text/css">
	.st0{fill:#1F2F59;}
	.st1{fill:#FFFFFF;}
	.st2{fill:#0059EA;}
	.st3{fill:#00B1EC;}
	.st4{fill:none;stroke:#0059EA;stroke-width:5.2653;stroke-linecap:round;stroke-linejoin:round;}
</style>
<path class="st0" d="M140,0h226c19.2,0,34.6,15.5,34.6,34.6v442.7c0,19.2-15.5,34.6-34.6,34.6H140c-19.2,0-34.6-15.5-34.6-34.6V34.6
	C105.4,15.5,120.9,0,140,0z"/>
<path class="st1" d="M155.2,26.9h195.7c11.3,0,20.4,9.2,20.4,20.4v357.5c0,11.3-9.2,20.4-20.4,20.4H155.2
	c-11.3,0-20.4-9.2-20.4-20.4V47.4C134.7,36,143.9,26.9,155.2,26.9z"/>
<path class="st2" d="M271.6,472.1c0,10.3-8.3,18.6-18.6,18.6c-10.3,0-18.6-8.3-18.6-18.6c0-10.3,8.3-18.6,18.6-18.6l0,0l0,0
	C263.3,453.4,271.6,461.8,271.6,472.1"/>
<g>
	<path class="st3" d="M179.9,210.5l32.8-40.4c0.3-0.3,0.8-0.3,1.2,0l0,0l34.6,40.4c0.3,0.3,0.2,0.8-0.1,1.2
		c-0.1,0.1-0.3,0.2-0.5,0.2h-15.6c-0.4,0-0.8,0.3-0.8,0.8l0,0v73.5c0,0.4-0.4,0.8-0.8,0.8l0,0h-32.8c-0.4,0-0.8-0.4-0.8-0.8l0,0
		v-73.6c0-0.4-0.3-0.8-0.8-0.8l0,0h-15.7c-0.4,0-0.8-0.4-0.8-0.8C179.7,210.8,179.8,210.6,179.9,210.5z"/>
	<path class="st3" d="M330.1,252.6l-32.6,40.4c-0.3,0.3-0.8,0.4-1.2,0.1c0,0,0,0-0.1-0.1l-34.6-40.4c-0.3-0.3-0.2-0.8,0.1-1.2
		c0.1-0.1,0.3-0.2,0.5-0.2h15.6c0.4,0,0.8-0.4,0.8-0.8l0,0v-73.5c0-0.4,0.4-0.8,0.8-0.8l0,0h32.8c0.4,0,0.8,0.4,0.8,0.8l0,0v73.5
		c0,0.4,0.4,0.8,0.8,0.8l0,0h15.7c0.4,0,0.8,0.4,0.8,0.8C330.3,252.3,330.2,252.5,330.1,252.6z"/>
	<path class="st4" d="M360.5,210.1c2.2,9.9,3.1,20.2,2.3,30.3"/>
	<path class="st4" d="M305.8,138.3c21.3,11.3,38.1,29.3,47.9,51.2c0.8,1.9,1.6,3.8,2.3,5.7"/>
	<path class="st4" d="M198.7,323.3c8.6,5.5,18,9.6,27.8,12.4"/>
	<path class="st4" d="M149.3,247.7c3.5,23.8,14.8,45.7,32.2,62.2c1.5,1.5,3.1,2.8,4.6,4.2"/>
</g>
</svg>
