<?xml version="1.0" encoding="utf-8"?>
<!-- Generator: Adobe Illustrator 24.1.1, SVG Export Plug-In . SVG Version: 6.00 Build 0)  -->
<svg version="1.1" id="Capa_1" xmlns="http://www.w3.org/2000/svg" xmlns:xlink="http://www.w3.org/1999/xlink" x="0px" y="0px"
	 viewBox="0 0 512 512" style="enable-background:new 0 0 512 512;" xml:space="preserve">
<style type="text/css">
	.st0{fill:#E6E6E6;}
	.st1{fill:#ECEFF1;}
	.st2{fill:#D9D9D9;}
	.st3{fill:none;stroke:#B0B0B0;stroke-width:8.9392;stroke-linecap:round;stroke-linejoin:round;}
	.st4{fill:none;stroke:#B0B0B0;stroke-width:9.7464;stroke-linecap:round;stroke-linejoin:round;}
	.st5{fill:none;stroke:#0054A6;stroke-width:8.9392;stroke-linecap:round;stroke-linejoin:round;}
	.st6{fill:#1F2F59;}
	.st7{fill:#FFFFFF;}
	.st8{fill:#0059EA;}
	.st9{fill:none;stroke:#0059EA;stroke-width:2.1768;stroke-linecap:round;stroke-linejoin:round;}
</style>
<path class="st0" d="M45.3,126.6v354.3l0,0c0,17.2,13.5,31.1,30.1,31.1h301.2c16.6,0,30.1-13.9,30.1-31.1V46
	c0-17.2-13.5-31-30.1-31.1H165.8L45.3,126.6z"/>
<path class="st1" d="M33.3,125.5v341.7c0,17.2,13.5,31.1,30.1,31.1h301.2c16.6,0,30.1-13.9,30.1-31.1v-435c0-17.1-13.5-31-30.1-31
	L163.6,0L33.3,125.5z"/>
<path class="st2" d="M33.3,126.4H131c18,0,32.6-14.1,32.6-31.6V0L33.3,126.4z"/>
<line class="st3" x1="139.4" y1="211.7" x2="342.2" y2="211.7"/>
<line class="st4" x1="232.9" y1="156.8" x2="342.2" y2="156.8"/>
<line class="st3" x1="137.2" y1="266.6" x2="342.2" y2="266.6"/>
<line class="st3" x1="139.4" y1="321.5" x2="342.2" y2="321.5"/>
<line class="st3" x1="137.2" y1="376.5" x2="342.2" y2="376.5"/>
<line class="st3" x1="137.2" y1="431.4" x2="342.2" y2="431.4"/>
<line class="st5" x1="116.1" y1="211.7" x2="79.5" y2="211.7"/>
<line class="st5" x1="116.1" y1="268.1" x2="79.5" y2="268.1"/>
<line class="st5" x1="116.1" y1="321.5" x2="79.5" y2="321.5"/>
<line class="st5" x1="116.1" y1="376.5" x2="79.5" y2="376.5"/>
<line class="st5" x1="116.1" y1="431.4" x2="79.5" y2="431.4"/>
<g>
	<path class="st6" d="M318.4,126.6h142.7c12.1,0,21.9,9.8,21.9,21.9v279.6c0,12.1-9.8,21.9-21.9,21.9H318.4
		c-12.1,0-21.9-9.8-21.9-21.9V148.5C296.5,136.4,306.3,126.6,318.4,126.6z"/>
	<path class="st7" d="M328,143.6h123.6c7.1,0,12.9,5.8,12.9,12.9v225.8c0,7.1-5.8,12.9-12.9,12.9H328c-7.1,0-12.9-5.8-12.9-12.9
		V156.5C315,149.4,320.8,143.6,328,143.6z"/>
	<path class="st8" d="M401.5,424.8c0,6.5-5.3,11.8-11.8,11.8c-6.5,0-11.8-5.3-11.8-11.8s5.3-11.8,11.8-11.8l0,0l0,0
		C396.2,413,401.5,418.3,401.5,424.8"/>
	<g>
		<circle class="st8" cx="389" cy="271.3" r="51.7"/>
		<path class="st9" d="M436.1,302.1c1.2-1.8,2.2-3.6,3.2-5.5"/>
		<path class="st9" d="M441.1,292.7c1.7-4.1,3-8.5,3.7-12.9"/>
		<path class="st9" d="M445.5,273.4c0.1-1,0.1-2,0.1-3c0-24.6-15.6-46.5-38.9-54.5"/>
		<path class="st7" d="M408.2,285.4c-0.7,1.6-1.7,3-3,4.1c-1.4,1.2-2.9,2.2-4.7,2.9c-1.9,0.8-4,1.3-6,1.5v6.9h-7.2v-7
			c-3-0.4-5.9-1.1-8.7-2.3c-2.7-1.1-5.3-2.6-7.7-4.3l5.4-7.9c1.7,1.3,3.6,2.5,5.5,3.6c1.8,1,3.8,1.6,5.8,2v-10.9
			c-2.2-0.6-4.4-1.4-6.6-2.3c-1.7-0.7-3.3-1.8-4.7-3c-1.2-1.1-2.2-2.5-2.8-4.1c-0.7-1.7-1-3.5-0.9-5.4c0-1.8,0.3-3.6,1-5.3
			c0.7-1.6,1.7-3,2.9-4.1c1.4-1.2,2.9-2.2,4.7-2.8c1.9-0.7,3.9-1.2,6-1.4v-4h7.2v4.2c4.7,0.6,9.1,2.4,12.9,5.1l-4.7,8.1
			c-1.4-0.9-2.8-1.7-4.2-2.5c-1.4-0.7-2.9-1.2-4.4-1.6v10.5c5.3,1.4,9.1,3.3,11.5,5.6c2.4,2.5,3.7,5.9,3.6,9.3
			C409.3,282,409,283.8,408.2,285.4z M387.7,254.1c-1.3,0.1-2.6,0.7-3.6,1.6c-0.8,0.8-1.2,1.8-1.2,2.8c0,1,0.3,2,1,2.8
			c1.1,1,2.4,1.8,3.8,2.2L387.7,254.1z M398.1,277.8c-1.1-1.1-2.4-1.8-3.9-2.3v9.7c3.3-0.5,4.9-2,4.9-4.5
			C399.2,279.6,398.8,278.5,398.1,277.8L398.1,277.8z"/>
	</g>
</g>
</svg>
