<?xml version="1.0" encoding="utf-8"?>
<!-- Generator: Adobe Illustrator 24.1.1, SVG Export Plug-In . SVG Version: 6.00 Build 0)  -->
<svg version="1.1" id="Capa_1" xmlns="http://www.w3.org/2000/svg" xmlns:xlink="http://www.w3.org/1999/xlink" x="0px" y="0px"
	 viewBox="0 0 512 512" style="enable-background:new 0 0 512 512;" xml:space="preserve">
<style type="text/css">
	.st0{fill:#00B1EC;}
	.st1{fill:#F7F8F7;}
	.st2{fill:#BABCC0;}
	.st3{fill:none;stroke:#626364;stroke-width:3.2661;stroke-miterlimit:10;}
	.st4{fill:#0059EA;}
	.st5{fill:#0459E8;}
	.st6{opacity:0.95;fill:#FFFFFF;enable-background:new    ;}
	.st7{fill:#FF1634;}
	.st8{fill:none;stroke:#00B1EC;stroke-width:10.2991;stroke-linecap:round;stroke-linejoin:round;}
</style>
<path class="st0" d="M52.7,0h353.8c17.2,0,31.2,14,31.2,31.2c0,0,0,0,0,0v37.3l0,0H30.1l0,0V22.6C30.1,10.1,40.2,0,52.7,0z"/>
<path class="st1" d="M30.1,68.5h407.5l0,0v393.6c0,3.8-3.1,6.8-6.8,6.8c0,0,0,0,0,0H30.1l0,0V68.5L30.1,68.5z"/>
<path class="st2" d="M392.3,68.5h45.3l0,0v383.7c0,9.3-7.5,16.8-16.8,16.8h-28.5l0,0L392.3,68.5L392.3,68.5z"/>
<line class="st3" x1="414.3" y1="119.3" x2="414.3" y2="445.3"/>
<line class="st3" x1="425.3" y1="119.3" x2="425.3" y2="445.3"/>
<path class="st2" d="M162.1,146.3h173.6c4.1,0,7.5,3.3,7.5,7.5l0,0c0,4.1-3.3,7.5-7.5,7.5H162.1c-4.1,0-7.5-3.3-7.5-7.5l0,0
	C154.7,149.6,158,146.3,162.1,146.3z"/>
<path class="st2" d="M162.1,209.8h173.6c4.1,0,7.5,3.3,7.5,7.5l0,0c0,4.1-3.3,7.5-7.5,7.5H162.1c-4.1,0-7.5-3.3-7.5-7.5l0,0
	C154.7,213.1,158,209.8,162.1,209.8z"/>
<path class="st2" d="M162.1,273.3h173.6c4.1,0,7.5,3.3,7.5,7.5v0c0,4.1-3.3,7.5-7.5,7.5H162.1c-4.1,0-7.5-3.3-7.5-7.5v0
	C154.7,276.6,158,273.3,162.1,273.3z"/>
<path class="st2" d="M162.1,336.7h173.6c4.1,0,7.5,3.3,7.5,7.5v0c0,4.1-3.3,7.5-7.5,7.5H162.1c-4.1,0-7.5-3.3-7.5-7.5v0
	C154.7,340.1,158,336.7,162.1,336.7z"/>
<path class="st4" d="M124.2,153.7c0,10.6-8.6,19.2-19.2,19.2s-19.2-8.6-19.2-19.2c0-10.6,8.6-19.2,19.2-19.2l0,0l0,0
	C115.6,134.5,124.2,143.1,124.2,153.7"/>
<path class="st4" d="M124.2,217.2c0,10.6-8.6,19.3-19.2,19.3c-10.6,0-19.3-8.6-19.3-19.2c0-10.6,8.6-19.3,19.2-19.3c0,0,0,0,0,0l0,0
	C115.6,198,124.2,206.6,124.2,217.2"/>
<path class="st4" d="M124.2,280.7c0,10.6-8.6,19.2-19.2,19.2s-19.2-8.6-19.2-19.2c0-10.6,8.6-19.2,19.2-19.2l0,0
	C115.6,261.5,124.2,270.1,124.2,280.7L124.2,280.7"/>
<path class="st4" d="M124.2,344.2c0,10.6-8.6,19.2-19.2,19.2s-19.2-8.6-19.2-19.2c0-10.6,8.6-19.2,19.2-19.2l0,0l0,0
	C115.6,325,124.2,333.6,124.2,344.2"/>
<path class="st5" d="M422.4,454.5l52,51.9c9.1,8.1,23.1,7.4,31.3-1.8c7.5-8.4,7.5-21.1,0-29.5l-51.9-52
	C445.8,435.8,435.1,446.5,422.4,454.5z"/>
<path class="st6" d="M437.4,299.2c-38.8-38.9-101.9-38.9-140.8-0.1s-38.9,101.9-0.1,140.8c31.1,31.2,79,38.2,117.7,17.3
	c17.1-9.1,31.1-23.2,40.3-40.3C475.5,378.2,468.5,330.4,437.4,299.2z"/>
<path class="st7" d="M367.2,473.8c-5.1,0-10.2-0.4-15.2-1.1c-57-8.3-96.4-61.2-88.1-118.2c8.3-57,61.2-96.4,118.2-88.1
	c22.2,3.2,42.8,13.6,58.6,29.4l0,0c32.5,32.6,39.8,82.6,17.9,123.1c-9.5,17.9-24.2,32.6-42.2,42.2
	C401.3,469.5,384.4,473.8,367.2,473.8z M367,274.8c-52.4,0-94.9,42.5-94.9,94.8c0,52.4,42.5,94.9,94.8,94.9
	c15.8,0,31.3-3.9,45.1-11.4c16.3-8.7,29.6-22,38.3-38.3c24.9-46,7.8-103.6-38.2-128.5C398.3,278.7,382.7,274.8,367,274.8L367,274.8z
	"/>
<path class="st8" d="M396.5,300.8c26.1,11.6,43.7,36.5,46,65"/>
</svg>
