<?xml version="1.0" encoding="utf-8"?>
<!-- Generator: Adobe Illustrator 24.1.1, SVG Export Plug-In . SVG Version: 6.00 Build 0)  -->
<svg version="1.1" id="Capa_1" xmlns="http://www.w3.org/2000/svg" xmlns:xlink="http://www.w3.org/1999/xlink" x="0px" y="0px"
	 viewBox="0 0 512 512" style="enable-background:new 0 0 512 512;" xml:space="preserve">
<style type="text/css">
	.st0{fill:#00B1EC;}
	.st1{fill:#0054A6;}
	.st2{fill:#0459E8;}
	.st3{fill:#002C60;}
	.st4{fill:none;stroke:#FFFFFF;stroke-width:6.4703;stroke-linecap:round;stroke-linejoin:round;}
	.st5{fill:none;stroke:#0459E8;stroke-width:6.0747;stroke-linecap:round;stroke-linejoin:round;}
	.st6{fill:none;stroke:#FFFFFF;stroke-width:11.3019;stroke-linecap:round;stroke-linejoin:round;}
	.st7{fill:#FFFFFF;}
</style>
<path class="st0" d="M409.9,24.4c40.1,0.6,72.1,33.5,71.6,73.6c-0.5,39.3-32.3,71-71.6,71.6H85.4C45.4,169,13.3,136,13.9,95.9
	c0.5-39.3,32.3-71,71.6-71.6H409.9z"/>
<path class="st1" d="M409.9,193.6c40.1,0,72.6,32.5,72.5,72.6c0,40.1-32.5,72.5-72.5,72.5H85.4c-40.1,0-72.6-32.5-72.5-72.6
	c0-40.1,32.5-72.5,72.5-72.5H409.9z"/>
<path class="st1" d="M409.9,362.8c40.1,0.6,72.1,33.5,71.6,73.6c-0.5,39.3-32.3,71-71.6,71.6H85.4c-40.1-0.6-72.1-33.5-71.6-73.6
	c0.5-39.3,32.3-71,71.6-71.6H409.9z"/>
<circle class="st2" cx="86.9" cy="97" r="54"/>
<circle class="st3" cx="86.9" cy="266.2" r="54"/>
<circle class="st3" cx="86.9" cy="435.4" r="54"/>
<polyline class="st4" points="61.1,101 74.6,118.9 112.8,75 "/>
<path class="st5" d="M504.5,97L504.5,97c0-50.2-40.7-90.9-90.9-91c0,0,0,0,0,0H372"/>
<line class="st5" x1="353" y1="6" x2="304.1" y2="6"/>
<line class="st6" x1="177.1" y1="74.1" x2="397.5" y2="74.1"/>
<line class="st6" x1="177.1" y1="124.6" x2="397.5" y2="124.6"/>
<line class="st6" x1="177.1" y1="240.9" x2="397.5" y2="240.9"/>
<line class="st6" x1="177.1" y1="291.4" x2="397.5" y2="291.4"/>
<line class="st6" x1="177.1" y1="410.2" x2="397.5" y2="410.2"/>
<line class="st6" x1="177.1" y1="460.7" x2="397.5" y2="460.7"/>
<circle class="st7" cx="62" cy="266.2" r="5.8"/>
<circle class="st7" cx="87.5" cy="266.2" r="5.8"/>
<circle class="st7" cx="113" cy="266.2" r="5.8"/>
<circle class="st7" cx="62" cy="435.4" r="5.8"/>
<circle class="st7" cx="87.5" cy="435.4" r="5.8"/>
<circle class="st7" cx="113" cy="435.4" r="5.8"/>
</svg>
