<?xml version="1.0" encoding="utf-8"?>
<!-- Generator: Adobe Illustrator 24.1.1, SVG Export Plug-In . SVG Version: 6.00 Build 0)  -->
<svg version="1.1" id="Capa_1" xmlns="http://www.w3.org/2000/svg" xmlns:xlink="http://www.w3.org/1999/xlink" x="0px" y="0px"
	 viewBox="0 0 512 512" style="enable-background:new 0 0 512 512;" xml:space="preserve">
<style type="text/css">
	.st0{fill:none;stroke:#FC1F25;stroke-width:12.3;stroke-linecap:round;stroke-linejoin:round;}
	.st1{fill:#002C60;}
	.st2{fill:#0054A6;}
	.st3{fill:#0053A9;}
	.st4{fill:none;stroke:#FFFFFF;stroke-width:5;stroke-linecap:round;stroke-linejoin:round;stroke-dasharray:12,15;}
	.st5{fill:#FFFFFF;}
</style>
<path class="st0" d="M354.2,51.9h-71.1c-11.4,0-20.7,9.3-20.7,20.7c0,0,0,0,0,0v367.5c0,11.5,9.3,20.7,20.7,20.7h71.1"/>
<line class="st0" x1="222.6" y1="256.3" x2="354.2" y2="256.3"/>
<path class="st1" d="M14.8,190.8h193.1c8.2,0,14.8,6.6,14.8,14.8v101.6c0,8.2-6.6,14.8-14.8,14.8H14.8c-8.2,0-14.8-6.6-14.8-14.8
	V205.5C0,197.4,6.6,190.8,14.8,190.8z"/>
<path class="st2" d="M24.7,307.1V205.5c0-8.1,6.6-14.7,14.8-14.8H14.8c-8.1,0-14.7,6.6-14.8,14.8v101.6c0,8.1,6.6,14.7,14.8,14.8
	h24.7C31.3,321.9,24.7,315.3,24.7,307.1z"/>
<path class="st3" d="M364.7,5.4h136.8c5.8,0,10.5,4.7,10.5,10.5v72c0,5.8-4.7,10.5-10.5,10.5H364.7c-5.8,0-10.5-4.7-10.5-10.5v-72
	C354.2,10.1,358.9,5.4,364.7,5.4z"/>
<path class="st3" d="M364.7,209.9h136.8c5.8,0,10.5,4.7,10.5,10.5v72c0,5.8-4.7,10.5-10.5,10.5H364.7c-5.8,0-10.5-4.7-10.5-10.5v-72
	C354.2,214.6,358.9,209.9,364.7,209.9z"/>
<path class="st1" d="M501.5,292.3H364.7c-5.8,0-10.5-4.7-10.5-10.5v10.5c0,5.8,4.7,10.4,10.5,10.5h136.8c5.8,0,10.4-4.7,10.5-10.5
	v-10.5C512,287.6,507.3,292.3,501.5,292.3z"/>
<path class="st1" d="M501.5,87.8H364.7c-5.8,0-10.5-4.7-10.5-10.5v10.5c0,5.8,4.7,10.4,10.5,10.5h136.8c5.8,0,10.4-4.7,10.5-10.5
	V77.4C512,83.2,507.3,87.8,501.5,87.8z"/>
<line class="st4" x1="389.1" y1="256.3" x2="490.3" y2="256.3"/>
<line class="st4" x1="389.1" y1="51.9" x2="490.3" y2="51.9"/>
<ellipse transform="matrix(4.531437e-02 -0.999 0.999 4.531437e-02 -188.7225 311.7028)" class="st5" cx="68.7" cy="254.6" rx="12" ry="12.1"/>
<circle class="st5" cx="120.7" cy="254.6" r="12"/>
<circle class="st5" cx="172.8" cy="254.6" r="12"/>
<path class="st3" d="M364.7,414.3h136.8c5.8,0,10.5,4.7,10.5,10.5v72c0,5.8-4.7,10.5-10.5,10.5H364.7c-5.8,0-10.5-4.7-10.5-10.5v-72
	C354.2,419,358.9,414.3,364.7,414.3z"/>
<path class="st1" d="M501.5,496.8H364.7c-5.8,0-10.5-4.7-10.5-10.5v10.5c0,5.8,4.7,10.4,10.5,10.5h136.8c5.8,0,10.4-4.7,10.5-10.5
	v-10.5C512,492.1,507.3,496.8,501.5,496.8z"/>
<line class="st4" x1="383.5" y1="460.8" x2="484.7" y2="460.8"/>
</svg>
