<?xml version="1.0" encoding="utf-8"?>
<!-- Generator: Adobe Illustrator 24.1.1, SVG Export Plug-In . SVG Version: 6.00 Build 0)  -->
<svg version="1.1" id="Capa_1" xmlns="http://www.w3.org/2000/svg" xmlns:xlink="http://www.w3.org/1999/xlink" x="0px" y="0px"
	 viewBox="0 0 512 512" style="enable-background:new 0 0 512 512;" xml:space="preserve">
<style type="text/css">
	.st0{fill:#1F2F59;}
	.st1{fill:#FFFFFF;}
	.st2{fill:#0059EA;}
	.st3{fill:none;stroke:#FC1F25;stroke-width:4.7563;stroke-linecap:round;stroke-linejoin:round;}
	.st4{fill:#FC1F25;}
	.st5{fill:none;stroke:#FFFFFF;stroke-width:4.8514;stroke-linecap:round;stroke-linejoin:round;stroke-dasharray:4.8158,14.4592;}
	.st6{enable-background:new    ;}
	.st7{fill:none;stroke:#B0B0B0;stroke-width:14.2689;stroke-linecap:round;stroke-linejoin:round;}
	.st8{fill:none;stroke:#00B0EC;stroke-width:9.7512;stroke-linecap:round;stroke-linejoin:round;}
</style>
<path class="st0" d="M144.6,0h226c19.1,0,34.6,15.5,34.6,34.6v442.7c0,19.1-15.5,34.6-34.6,34.6h-226c-19.1,0-34.6-15.5-34.6-34.6
	V34.6C110,15.5,125.5,0,144.6,0z"/>
<path class="st1" d="M159.8,26.9h195.6c11.3,0,20.5,9.2,20.5,20.5v357.5c0,11.3-9.2,20.5-20.5,20.5H159.8
	c-11.3,0-20.5-9.2-20.5-20.5V47.3C139.3,36,148.5,26.9,159.8,26.9z"/>
<path class="st2" d="M276.2,472.1c0,10.3-8.3,18.6-18.6,18.6c-10.3,0-18.6-8.3-18.6-18.6c0-10.3,8.3-18.6,18.6-18.6c0,0,0,0,0,0
	C267.9,453.5,276.2,461.8,276.2,472.1"/>
<g>
	<path class="st3" d="M115.8,64.5c3.5-3.1,7.1-6,10.9-8.8"/>
	<path class="st3" d="M91.4,94.6c4.9-8.5,10.8-16.4,17.6-23.5"/>
	<path class="st3" d="M119.9,255.3c-41.5-34.5-56.5-91.4-37.4-141.9c0.8-2.1,1.6-4.1,2.5-6.1"/>
	<circle class="st4" cx="200.1" cy="160.4" r="114.8"/>
	<circle class="st5" cx="200.1" cy="160.4" r="95.1"/>
	<g class="st6">
		<path class="st1" d="M231.8,192.1c-1.4,3.1-3.4,5.9-6,8.2c-2.5,2.4-5.6,4.3-9.2,5.7c-3.6,1.5-7.6,2.4-12.1,2.9v13.7h-14.4v-14
			c-6-0.7-11.8-2.2-17.4-4.5c-5.6-2.3-10.7-5.1-15.3-8.7l10.8-15.8c3.8,2.9,7.5,5.2,11,7.1c3.6,1.9,7.4,3.3,11.6,4.1v-22
			c-5-1.4-9.4-2.9-13.1-4.6c-3.7-1.7-6.8-3.7-9.3-6c-2.4-2.3-4.3-5-5.5-8.1c-1.2-3.1-1.9-6.7-1.9-10.7c0-3.9,0.7-7.4,2.1-10.5
			c1.4-3.1,3.3-5.9,5.9-8.2c2.5-2.4,5.6-4.2,9.2-5.7c3.6-1.4,7.6-2.4,11.9-2.8v-8h14.4v8.3c5,0.7,9.6,2,13.8,3.7
			c4.2,1.7,8.2,3.9,12,6.6l-9.3,16.2c-2.8-1.8-5.6-3.5-8.5-4.9c-2.9-1.4-5.8-2.5-8.7-3.3v20.9c10.5,2.9,18.2,6.6,22.9,11.3
			c4.8,4.7,7.1,10.9,7.1,18.6C233.9,185.5,233.2,189,231.8,192.1z M190.8,129.5c-3.3,0.5-5.8,1.5-7.3,3c-1.5,1.6-2.3,3.5-2.3,5.7
			c0,2.1,0.6,4,1.9,5.5c1.3,1.6,3.8,3,7.6,4.4V129.5z M211.6,176.8c-1.4-1.6-4-3-7.8-4.4v19.4c6.6-1,9.8-4,9.8-9
			C213.7,180.3,213,178.3,211.6,176.8z"/>
	</g>
	<line class="st7" x1="176.4" y1="300.7" x2="334.8" y2="137.7"/>
	<polygon class="st1" points="334.9,137.7 351.2,165.1 194.5,326.3 178.2,299 	"/>
</g>
<line class="st8" x1="328.8" y1="257.1" x2="240.9" y2="345"/>
<line class="st8" x1="324.9" y1="199.7" x2="187.7" y2="340.8"/>
</svg>
