<svg id="Capa_1" data-name="Capa 1" xmlns="http://www.w3.org/2000/svg" viewBox="0 0 512 512"><defs><style>.cls-1{fill:#e7e8e9;}.cls-2{fill:#e6e6e6;}.cls-3{fill:#eceff1;}.cls-4{fill:#d9d9d9;}.cls-5{fill:#fc1f25;}.cls-6{fill:none;stroke:#b0b0b0;stroke-linecap:round;stroke-linejoin:round;stroke-width:10px;}</style></defs><ellipse id="Elipse_6" data-name="Elipse 6" class="cls-1" cx="256" cy="488.13" rx="176.81" ry="7.52"/><path class="cls-2" d="M304.51,16.21H111.59A27.61,27.61,0,0,0,84,43.77V429.61a27.59,27.59,0,0,0,27.56,27.56h275.6a27.57,27.57,0,0,0,27.56-27.56V126.45Z"/><path class="cls-3" d="M317.73,0H124.81A27.6,27.6,0,0,0,97.25,27.56V413.4A27.59,27.59,0,0,0,124.81,441h275.6A27.57,27.57,0,0,0,428,413.4V110.24Z"/><path class="cls-4" d="M317.73,0V82.68a27.57,27.57,0,0,0,27.56,27.56H428Z"/><path class="cls-5" d="M273.38,219.7a46.92,46.92,0,0,1-10.88,15.05,55.14,55.14,0,0,1-16.82,10.49,79.54,79.54,0,0,1-22,5.32v25H197.37V250.05a124.89,124.89,0,0,1-31.74-8.22A120.67,120.67,0,0,1,137.68,226l19.73-28.84a150.59,150.59,0,0,0,20.11,13,76.13,76.13,0,0,0,21.12,7.46V177.46A162.46,162.46,0,0,1,174.73,169a61.7,61.7,0,0,1-16.94-11,41.25,41.25,0,0,1-10.12-14.8,52.09,52.09,0,0,1-3.42-19.6,47.18,47.18,0,0,1,3.8-19.23,45.19,45.19,0,0,1,10.75-15,53.3,53.3,0,0,1,16.82-10.38,82.11,82.11,0,0,1,21.75-5.18V59.08h26.31V74.26a105.73,105.73,0,0,1,47,18.71l-16.94,29.6a144.21,144.21,0,0,0-15.43-9,77.46,77.46,0,0,0-15.94-6v38.2q28.85,7.84,41.86,20.61t13,34A45.87,45.87,0,0,1,273.38,219.7ZM198.64,105.37q-9.1,1.26-13.28,5.56a14.34,14.34,0,0,0-4.18,10.37,15.44,15.44,0,0,0,3.54,10.12q3.54,4.31,13.92,8.09Zm37.94,86.25q-3.79-4.31-14.17-8.09v35.41q18-2.79,18-16.44A15.83,15.83,0,0,0,236.58,191.62Z"/><line class="cls-6" x1="304.44" y1="204.16" x2="379.85" y2="204.16"/><line class="cls-6" x1="304.44" y1="155.53" x2="379.85" y2="155.53"/><line class="cls-6" x1="304.03" y1="259.28" x2="379.85" y2="259.28"/><line class="cls-6" x1="146.46" y1="314.4" x2="379.85" y2="314.4"/><line class="cls-6" x1="143.95" y1="369.52" x2="379.85" y2="369.52"/></svg>