<svg xmlns="http://www.w3.org/2000/svg" viewBox="0 0 103.5 30.9"><defs><style>.cls-1{fill:#00b0ea;}.cls-2{fill:#174a9a;}</style></defs><g id="Capa_2" data-name="Capa 2"><g id="Capa_1-2" data-name="Capa 1"><path class="cls-1" d="M35.1,4.7A4.49,4.49,0,0,1,39.7,0H53a3.78,3.78,0,0,1,4,4,3.83,3.83,0,0,1-4,4H44.4v3.8h7A3.47,3.47,0,0,1,55,15.4,3.47,3.47,0,0,1,51.4,19h-7v5.2a4.65,4.65,0,0,1-9.3,0Z"/><path class="cls-1" d="M78.1,17.6v8.8a4,4,0,0,1-4.2,4.2,4.14,4.14,0,0,1-3.6-1.8,9.51,9.51,0,0,1-6.2,2.1c-5.3,0-8.5-2.6-8.5-6.8S59.2,17,64.3,17a12.69,12.69,0,0,1,4.4.7c0-1.4-1.5-2.5-3.6-2.5s-2.8.7-4.4.7a3.36,3.36,0,0,1-3.6-3.4,4,4,0,0,1,2.2-3.3c.9-.6,3-1.6,7.8-1.6,6.8-.4,11,3.6,11,10m-9,5.9a1.89,1.89,0,0,0-2-1.7A1.93,1.93,0,0,0,65,23.5c0,1,.9,1.7,2.1,1.7a2,2,0,0,0,2-1.7"/><path class="cls-1" d="M103.5,16V26.1a4.41,4.41,0,0,1-4.6,4.6,4.53,4.53,0,0,1-4.6-4.6V19c0-1.7-.8-2.6-2.3-2.6a2.18,2.18,0,0,0-2.3,2.4v7.3a4.53,4.53,0,0,1-4.6,4.6,4.41,4.41,0,0,1-4.6-4.6V12.5a4.15,4.15,0,0,1,4.2-4.4,3.93,3.93,0,0,1,4.1,3,7.91,7.91,0,0,1,6.4-3.2c5.1.1,8.3,3.3,8.3,8.1"/><path class="cls-2" d="M26.1,13.2A3.29,3.29,0,0,0,29.3,10a3.29,3.29,0,0,0-3.2-3.2h-.8l.5-2.3A3.43,3.43,0,0,0,19.1,3l-.8,3.8H14.7l.5-2.3A3.59,3.59,0,0,0,12.6.4,3.59,3.59,0,0,0,8.5,3L7.7,6.8H5.6A3.29,3.29,0,0,0,2.4,10a3.29,3.29,0,0,0,3.2,3.2h.7L5.2,17.4h-2a3.2,3.2,0,0,0,0,6.4h.6l-.4,2.3A3.42,3.42,0,0,0,6,30.2a3.59,3.59,0,0,0,4.1-2.6l.8-3.8h3.6L14,26.1a3.43,3.43,0,1,0,6.7,1.5l.8-3.8h2.3a3.2,3.2,0,0,0,0-6.4h-.9l.9-4.2ZM16,17.4H12.4l.9-4.2h3.6Z"/></g></g></svg>