<?xml version="1.0" encoding="utf-8"?>
<!-- Generator: Adobe Illustrator 24.1.1, SVG Export Plug-In . SVG Version: 6.00 Build 0)  -->
<svg version="1.1" id="Capa_1" xmlns="http://www.w3.org/2000/svg" xmlns:xlink="http://www.w3.org/1999/xlink" x="0px" y="0px"
	 viewBox="0 0 512 512" style="enable-background:new 0 0 512 512;" xml:space="preserve">
<style type="text/css">
	.st0{fill:#ACADAD;}
	.st1{fill:#00B0EA;}
	.st2{fill:none;stroke:#FFFFFF;stroke-width:10;stroke-miterlimit:10;}
	.st3{fill:#FF1920;}
	.st4{fill:none;stroke:#FFFFFF;stroke-width:10;stroke-linecap:round;stroke-miterlimit:10;}
</style>
<ellipse id="Elipse_6" class="st0" cx="186" cy="495.2" rx="176.8" ry="7.5"/>
<path class="st1" d="M141.4,6.2c129.1,0,233.7,104.6,233.7,233.7S270.5,473.6,141.4,473.6"/>
<path class="st2" d="M141.4,6.2c129.1,0,233.7,104.6,233.7,233.7S270.5,473.6,141.4,473.6"/>
<line class="st2" x1="40.6" y1="239.9" x2="446.5" y2="239.9"/>
<polygon class="st3" points="512,239.9 445,278.6 445,201.3 "/>
<line class="st4" x1="112.9" y1="239.9" x2="75.3" y2="277.5"/>
<line class="st4" x1="77.7" y1="239.9" x2="40.1" y2="277.5"/>
<line class="st4" x1="42.5" y1="239.9" x2="5" y2="277.5"/>
<line class="st4" x1="5" y1="202.4" x2="42.5" y2="239.9"/>
<line class="st4" x1="40.1" y1="202.4" x2="77.7" y2="239.9"/>
<line class="st4" x1="75.3" y1="202.4" x2="112.9" y2="239.9"/>
</svg>
