<svg id="Capa_1" data-name="Capa 1" xmlns="http://www.w3.org/2000/svg" viewBox="0 0 419.2 388.69"><defs><style>.cls-1{fill:#c60928;}.cls-2{fill:#ff1634;}.cls-3{fill:#fefefe;}.cls-4{fill:none;stroke:#d9d9d9;stroke-linejoin:round;stroke-width:7.83px;}.cls-5{fill:#141414;}.cls-6{fill:#00b0ec;}.cls-7{fill:#d9d9d9;}.cls-8{fill:#201a19;}.cls-9{fill:#211b1a;}.cls-10{fill:#221817;}.cls-11{fill:#fff;}.cls-12{fill:#192642;}.cls-13{fill:#0059ea;}.cls-14{fill:#09afea;}.cls-15{fill:#0059ed;}.cls-16{fill:#191919;}.cls-17{fill:#1c1c1c;}.cls-18{fill:#1f1f1f;}.cls-19{fill:#1d1d1d;}.cls-20{fill:#2b2b2b;}.cls-21{fill:#fcfcfc;}</style></defs><path class="cls-1" d="M147.57,225.76c26.59-6,53.29-5.3,88,17.44L229,235.48l9,2.36-5.82-6.32,7.28.59c-38.65-24.15-67.34-24.21-94.19-18.72-19,3.9-40.89,17.21-62.75,22.08-17.26,3.84-29.09,3.59-38.5,1.26l-8.42,9.53c14,4.48,30.95,4.8,48,.91C108.78,241.44,133.85,228.88,147.57,225.76Z"/><polygon class="cls-2" points="415.29 133.07 119.52 35.37 119.52 0 415.29 97.7 415.29 133.07"/><path class="cls-3" d="M227.05,45.41v5.05l7.5,2.47V56.5L227.05,54v7.75l-5.12-1.7V40.17l14.12,4.66v3.56Z"/><path class="cls-3" d="M246.37,68.16l-5.12-1.69V46.55l5.12,1.69Z"/><path class="cls-3" d="M272,56.72V76.64l-2.65-.88a3.39,3.39,0,0,1-1-.49,3.93,3.93,0,0,1-.79-.86l-10.35-15.3c0,.37.07.72.08,1.06s0,.65,0,.95V71.79l-4.49-1.48V50.39l2.68.89a4.82,4.82,0,0,1,.56.21,2.2,2.2,0,0,1,.4.23,2.15,2.15,0,0,1,.35.33c.11.13.24.29.38.49L267.68,68c-.05-.39-.08-.78-.1-1.14s0-.71,0-1V55.24Z"/><path class="cls-3" d="M298.23,85.29l-4-1.3a2.71,2.71,0,0,1-1.07-.64,2.79,2.79,0,0,1-.61-.92l-1.3-3.9L283,75.77l-1.3,3a1,1,0,0,1-.59.49,1.56,1.56,0,0,1-1.06,0L276,78l8.49-17.12,5.22,1.73ZM290.14,75l-2-6.12q-.23-.6-.48-1.38c-.17-.53-.34-1.09-.52-1.7-.15.51-.31,1-.48,1.39s-.33.77-.48,1.07l-2,4.76Z"/><path class="cls-3" d="M315.45,87.29V91l-13.23-4.37V66.69l5.09,1.68V84.6Z"/><line class="cls-4" x1="119.52" x2="119.52" y2="286.21"/><line class="cls-4" x1="415.29" y1="97.7" x2="415.29" y2="383.92"/><path class="cls-5" d="M390,339.79l1.44.66v2.05Q373,355.73,354.57,369c-1.55,1.11-2.55.46-2.82-1.72,0-.81.66-1.15,1.2-1.54,11.8-8.43,23.54-16.94,35.37-25.33C388.81,340,389.27,339.53,390,339.79Z"/><path class="cls-5" d="M337,350.58c.41-.2.82-.08,1.41.39,2.54,2,5.18,3.91,7.77,5.86a.89.89,0,0,0,.86-1,3.75,3.75,0,0,0-1.41-1.44c-1.82-1.37-3.61-2.8-5.48-4.08-.54-.36-1.39-1-.76-2A11.35,11.35,0,0,0,337,350.58Z"/><path class="cls-5" d="M95.57,286.61a2.22,2.22,0,0,1-1-.09c-3.32-.75-6.66-1.43-10-2.13A1,1,0,0,0,84.7,286c2.57.79,5.22,1.19,7.82,1.83.7.17,1.52.39,1.6.69A6,6,0,0,0,95.57,286.61Z"/><path class="cls-5" d="M86.12,306.33c-3.27-.81-6.53-1.64-9.8-2.44a3,3,0,0,0-2.16-.13,1.13,1.13,0,0,0-.11,1.37c3.48.87,7,1.73,10.43,2.61,1,.27,2.49.33,3.18.86a5.24,5.24,0,0,1,.37-2.25C87.69,306.67,87.2,306.59,86.12,306.33Z"/><path class="cls-6" d="M350,330.64a1.2,1.2,0,0,1,.31-.71l0,0a2.3,2.3,0,0,0,.55-1.56,3,3,0,0,0-.78-1.59c-.64-.8-1.16-1.69-1.77-2.51a433.16,433.16,0,0,0-36.23-42.3,128.06,128.06,0,0,0-36.54-26.89c-9.37-4.53-18.82-8.85-28.55-12.53a3.28,3.28,0,0,1-2.63.93c-5,.05-9.9.17-14.84.23-10.24.13-20.48.34-30.72.43-5.91.06-11.83-.14-17.74.36-.68.06-1.38,0-1.91.55-.33,2.37-.62,4.74-1,7.1-1.16,6.9-2.6,13.71-5.37,20.2A15.66,15.66,0,0,1,161.76,282a127.39,127.39,0,0,1-24.48,3.34,316.49,316.49,0,0,1-39.8.08c-.51,0-1.09-.15-1.3.48-.15.44-.35.64-.61.71a6,6,0,0,1-1.45,1.93c.18.25.07.49-.36,1.55A81.65,81.65,0,0,0,91,297.8c-.44,1.49-.2,1.77,1.32,2.09a48.6,48.6,0,0,0,5.1.38c7.27.73,14.57.54,21.84.94,3.35.18,6.72-.1,10.07-.23,4.78-.19,9.56-.31,14.33-.73a117.75,117.75,0,0,0,22-3.78,31.36,31.36,0,0,0,18.17-13.09A60.8,60.8,0,0,0,192,265a91.2,91.2,0,0,0,2.29-13.74,60.32,60.32,0,0,1-1.73,13c-.54,2.44.18,3.14,2.67,2.64.28-.06.55-.15.82-.23,4.38-1.32,7.06-4.44,8.91-8.41a31.38,31.38,0,0,0,1.93-5.57,21.36,21.36,0,0,1-3.53,8.8c-2.43,3.51-5.68,5.74-10.06,6A2.36,2.36,0,0,0,191,269.4a64.41,64.41,0,0,1-3.63,8.66c-5.14,10.21-13,16.88-24.33,19.49a151.4,151.4,0,0,1-30.31,3.69,325.4,325.4,0,0,1-33.49-.55c-2.49-.2-5-.48-7.5-.45a1.92,1.92,0,0,0-2.06,1.4c-.38,1.07-.64,2.19-1,3.27-.12.38-.22.66-.31.9a2.07,2.07,0,0,1,.28-.32,2.07,2.07,0,0,0-.28.32,1.62,1.62,0,0,1-.34.54,5.24,5.24,0,0,0-.37,2.25,1.16,1.16,0,0,1,.26.28c.48.75-.3,2.32-.55,3.53a78.36,78.36,0,0,0-1.83,20.2c.17,3.42.41,3.65,3.78,4.09a94,94,0,0,0,13.83.64A453.75,453.75,0,0,0,150.9,334c12.44-1.5,24.83-3.35,37-6.6,5-1.34,10-2.78,14.37-5.68a55.15,55.15,0,0,0,22.51-30.41c2.25-7.16,4.18-14.41,6-21.69.11-.44.09-1.27.73-1.15.84.16.44.9.25,1.4-.45,1.22-.06,1.74,1.22,2.1,6,1.7,11.93,3.73,17.8,5.9,8.25,3,16.15,6.53,22.73,12.75,20.7,19.56,40.3,40.15,59,61.62.31.36,1.18.79.51,1.34-.48.39-.82-.41-1.12-.76-4.11-4.58-8.14-9.24-12.31-13.77-15.28-16.55-30.88-32.79-47.5-48a45.14,45.14,0,0,0-12.77-8.41A274.24,274.24,0,0,0,232.16,273c-.87-.26-1.14-.19-1.36.75-.83,3.48-1.71,7-2.72,10.39-.34,1.15-.11,1.56.95,2,5.29,2.22,10.55,4.52,15.82,6.79a82.75,82.75,0,0,1,28,19.11C282.6,322.33,292,333,301.28,343.7c5.18,6,10.32,12,15.6,17.93,2.47,2.75,1.56,2.47,4.88.84a48.48,48.48,0,0,0,14.49-11.27c.9-1,2-1.82,2.92-2.81.24-.27.47-.55.7-.83.54-.68,1.06-1.36,1.57-2.05q1.79-2.42,3.38-5c.55-.87,1.08-1.75,1.6-2.65.27-.45.53-.91.78-1.37a8.4,8.4,0,0,1,.73-1.32c.15-.27.28-.55.44-.81a4.68,4.68,0,0,1,.61-1,.84.84,0,0,1,.89-.21,6.12,6.12,0,0,0,.61-1.53.38.38,0,0,0,0-.21.41.41,0,0,0-.12-.17A1,1,0,0,1,350,330.64Z"/><path class="cls-5" d="M363.89,343c-4.39-3.81-8.77-7.63-13.18-11.41-.07-.06-.56-.7-.62-.75a10.55,10.55,0,0,1-.5,2.26,7.17,7.17,0,0,1,1.28.78c.31.25.58.55.88.81,3.38,3,6.71,6,10.16,8.84.47.39.88.93,1.62.8A1,1,0,0,0,363.89,343Z"/><path class="cls-7" d="M363.38,344.27c.43-.31.28-.86.51-1.25l4.81-1.85c.59.56-.05,1.31.41,2,.38-1.51.9-2.9,2.6-3.27l2.2-.57c.52.49-.1,1.23.44,1.82.57-1.25.47-3.08,2.55-2.89a34.62,34.62,0,0,1,8.41-1.25,9.16,9.16,0,0,1,3.32.68c.91.39,1.55,1,1.36,2.09-5,3.55-10,7.08-15,10.65q-11,7.83-21.91,15.72c-.46.33-.87.72-1.3,1.09a5.42,5.42,0,0,1-2.08-2.58,48.16,48.16,0,0,1-3.49-7.84l.9-.83c.18-.78.93-.72,1.46-1a64.76,64.76,0,0,0,10.2-5.83A23.34,23.34,0,0,0,363.38,344.27Z"/><path class="cls-7" d="M74.28,303.87c-.08.42-.15.84-.23,1.26l-3.24,3c-.56-.27-.57-1-1.21-1.42.24,1.56.39,3-1.16,3.91l-1.69,1.49c-.59-.24-.53-1-1.07-1.36-.27,1.25.65,2.89-1.16,3.58a48,48,0,0,1-6,4.07A9.94,9.94,0,0,1,54,319.68a1.81,1.81,0,0,1-2.05-1.37,4.5,4.5,0,0,1,.86-2C60,303.65,67.24,291,74.5,278.35c.2-.34.36-.72.76-.89,1.57.15,2.68,1.19,3.81,2.11,1.89,1.54,3.68,3.2,5.51,4.82a1.23,1.23,0,0,1-.16,1.17c.06.73-.53,1.09-.91,1.56-2.72,3.36-5.51,6.66-7.5,10.55C75,299.65,74.84,301.8,74.28,303.87Z"/><path class="cls-5" d="M75.26,277.46a40.79,40.79,0,0,1-3.47,6.44Q62.43,300.36,53,316.77c-.31.54-.7,1-1.06,1.54a1.79,1.79,0,0,1-2.23-.76c-.5-.73,0-1.4.35-2q10.88-19,21.74-38C72.93,275.5,74.05,275.51,75.26,277.46Z"/><path class="cls-8" d="M64.52,314.34a2.91,2.91,0,0,0,.62-3.26c-.21-.48-.48-1,.16-1.26s.83.43,1,.86a11.92,11.92,0,0,1,.43,1.44,4,4,0,0,1-1,2.58C65.15,315.34,64.71,315.23,64.52,314.34Z"/><path class="cls-9" d="M376.9,338.27a2.64,2.64,0,0,0-1.91,2.67c0,.51.06,1.16-.67,1.09s-.64-.7-.63-1.2a14.86,14.86,0,0,1,.22-1.49,4.21,4.21,0,0,1,1.85-1.88C376.45,337.17,377.18,337.08,376.9,338.27Z"/><path class="cls-9" d="M68.44,310.63c.75-1.23,1.47-2.46.53-3.93a.53.53,0,0,1,.28-.83.6.6,0,0,1,.83.37c.27.62.49,1.26.73,1.9a5.58,5.58,0,0,1-.87,2.36C69.48,311.13,69,311.29,68.44,310.63Z"/><path class="cls-10" d="M371.71,339.91c-1.09,1-2.33,1.82-2.06,3.58a.52.52,0,0,1-.56.52c-.41,0-.57-.28-.61-.66a5,5,0,0,1,.22-2.18,4.53,4.53,0,0,1,1.76-1.74C371,339.15,371.55,339.09,371.71,339.91Z"/><path class="cls-3" d="M74.28,303.87a9.77,9.77,0,0,1,1.15-5.93,53.71,53.71,0,0,1,9-12.38c3.22.71,6.44,1.48,9.67,2.12,1,.19,1,.47.66,1.31a100.24,100.24,0,0,0-3.84,10.32c5.69.61,11.3.87,16.92,1.07a281.49,281.49,0,0,0,36.39-.65c9-.84,17.85-2.12,26.3-5.53,5.39-2.18,9.28-6.06,12.56-10.69,6-8.47,9-18.05,10.2-28.25.16-1.35.22-2.72.33-4.08,0-.49-.11-1.21.57-1.23s.69.74.67,1.29a62.72,62.72,0,0,1-2,13.65c-.45,1.62,0,1.87,1.4,1.67a12.09,12.09,0,0,0,8-4.76,21.58,21.58,0,0,0,4-9.13c.12-.57,0-1.56.84-1.39,1,.2.42,1.11.3,1.72a21.23,21.23,0,0,1-6.09,11.58,11.11,11.11,0,0,1-8,3.26c-1.15,0-1.42.45-1.72,1.34a56.08,56.08,0,0,1-9.75,18.05c-4.93,6.11-11.6,9-18.9,10.79-12.26,3-24.76,3.68-37.32,3.84-11.41.14-22.79-.3-34.16-1.23-.86-.07-1.06.17-1.23.89-.37,1.49-.93,2.94-1.25,4.43-.26,1.19-.67,1.52-1.94,1.17C82.78,306,78.52,304.94,74.28,303.87Z"/><path class="cls-3" d="M363.38,344.27a7.61,7.61,0,0,1-2.67,3.85A49.22,49.22,0,0,1,347.08,356l-9-6.81a89.24,89.24,0,0,0,10.51-16c.62-1.21,1-.91,1.79-.23C354.68,336.73,359,340.49,363.38,344.27Z"/><path class="cls-11" d="M332.46,353.7a.76.76,0,0,1-.57-.26c-36.12-42.66-62.14-64.17-62.4-64.38l-.08-.07c-7.19-7.81-37.34-15.82-37.65-15.9a.74.74,0,0,1,.38-1.43c1.26.33,30.79,8.17,38.33,16.28,1.18,1,27,22.55,62.56,64.54a.76.76,0,0,1-.09,1A.78.78,0,0,1,332.46,353.7Z"/><ellipse class="cls-12" cx="220.46" cy="383.99" rx="159.43" ry="4.7"/><path class="cls-13" d="M359,147.2s-5.8-3.5-6.08-9.78L357.2,134s-.58,3.86,4.42,9.38Z"/><path class="cls-13" d="M372.84,68.62s-5.47-4-5.2-10.28l4.58-3.06s-.92,3.8,3.57,9.74Z"/><path class="cls-14" d="M354.32,294.22s-5.47-4-5.2-10.27l4.58-3.07s-.93,3.8,3.57,9.74Z"/><path class="cls-14" d="M293.54,28.06s-2.21-6.41,1.59-11.4l5.51.09s-2.92,2.59-2.63,10Z"/><path class="cls-14" d="M382.69,208.33s3,6.06-.06,11.52l-5.47.63s2.55-2.95,1.27-10.29Z"/><path class="cls-13" d="M64.74,64.53s3.84-6.31.94-12.51L59.8,50.85s2.51,3.43.47,11.29Z"/><path class="cls-14" d="M135.77,17.3s-.08,6.77,5.1,10.32l5.2-1.83s-3.59-1.54-5.66-8.69Z"/><path class="cls-13" d="M31,184.45s5.93-3.29,6.44-9.55l-4.16-3.61s.44,3.88-4.76,9.22Z"/><path class="cls-14" d="M93.07,171s-5.93-3.29-6.43-9.55l4.15-3.61s-.44,3.88,4.76,9.22Z"/><path class="cls-13" d="M102.36,157.34s-2.54-6.28,1-11.47l5.51-.19s-2.79,2.74-2.1,10.16Z"/><path class="cls-13" d="M163.51,80.49s-.38,6.77,4.65,10.53l5.27-1.6s-3.52-1.69-5.27-8.93Z"/><path class="cls-14" d="M261.17,110.91s3.07,6,0,11.52l-5.47.66s2.54-3,1.21-10.3Z"/><path class="cls-13" d="M231.59,23.31s-5-4.6-4-10.8L232.51,10s-1.35,3.66,2.43,10.08Z"/><path class="cls-14" d="M369.67,158.89s3,6.1-.23,11.51L364,171s2.59-2.92,1.4-10.28Z"/><path class="cls-13" d="M283.62,219.13s-2-6.48,2-11.33l5.5.31s-3.81,2.66-3.79,10.11Z"/><path class="cls-13" d="M332.07,225.74s-5.82-3.47-6.14-9.74l4.27-3.48a17.49,17.49,0,0,0,4,10Z"/><path class="cls-13" d="M119.45,79.73s2.93,6.11-.27,11.51l-5.48.54s2.61-2.91,1.45-10.27Z"/><path class="cls-13" d="M14,95.52s5.19-4.35,4.51-10.59l-4.77-2.76s1.17,3.73-2.92,10Z"/><path class="cls-13" d="M0,257.42s1.49,8.36,8.7,11.5l6-3.46s-4.78-1-9-9.38Z"/><path class="cls-14" d="M54.74,130.33s-.31,6.77,4.75,10.49l5.25-1.65s-4.35-1.65-6.17-8.88Z"/><path class="cls-15" d="M250.68,243.92l-35.77.48-11,.17L179,245c-.9-.13-.63-.82-.61-1.33q.66-24.28,1.36-48.57c.06-1.93.25-3.87.37-5.8,0-.44.09-1-.6-1-.53,0-.53.5-.56.9-.1,1.54-.25,3.07-.3,4.61,0,.8-.28.94-1,.73a59.12,59.12,0,0,1-12-4.34c-1.46-.78-2-1.5-.79-2.87a3.91,3.91,0,0,0,.44-.92,2.24,2.24,0,0,1,.18-1.25A143.11,143.11,0,0,0,175.84,164a2.33,2.33,0,0,1,.69-1c.73-1.41,1.94-.59,2.87-.51,3.71.33,7.38.5,11-.64.57-.43,1.09-.05,1.61.13,2.76.91,5.55,1.34,8.38.31a1.93,1.93,0,0,1,2.29.66c2.8,3.28,6.5,4,10.54,3.7,1.64-.11,2.05.27,1.8,2a18.16,18.16,0,0,0,0,4.42c.55,5.91,4.76,8.89,9.93,10a5.36,5.36,0,0,0,5.14-1.64,13,13,0,0,0,3.52-6.54c.51-2.39,1.11-4.8.45-7.27a2.57,2.57,0,0,1,0-.68,26.77,26.77,0,0,1,3.58-5.93c3.12.2,6.2-.63,9.32-.27a2.13,2.13,0,0,1,1,1.1,96.39,96.39,0,0,1,7.65,22.88,3,3,0,0,1-.11,1.66c.61,1.93-.49,3.11-1.83,4.19A26.55,26.55,0,0,1,244,195c-.95.26-.94-.32-1.06-.83-.48-2-.92-4-1.41-6-.12-.49,0-1.37-.88-1.15s-.37,1-.26,1.46c3.4,15.64,6.28,31.39,10.09,46.94.55,2.22,1,4.47,1.59,6.65C252.46,243.48,252.17,244.06,250.68,243.92Z"/><path class="cls-5" d="M237.6,160.92a15,15,0,0,1-2.9,5c-.64.64-.18,1.3-.11,1.93a18.36,18.36,0,0,1-2.76,12.25c-2.12,3.29-5,4.23-8.74,2.93-6.94-2.44-9.07-7-8.64-13.77,0-.45.09-.9.16-1.36.12-.78,0-1.06-1-.94-4.54.54-8.65-.29-11.67-4.11-.26-.32-.47-.61-1-.38-3.63,1.59-7.13.73-10.6-.66-9.08-5.6-10.36-17.45-2.52-25.06,2.36-2.29,3.38-4.67,2.93-7.91a16.24,16.24,0,0,1,.36-6.79,13,13,0,0,1,12.52-9.1,3.05,3.05,0,0,0,2.61-1.13,13.89,13.89,0,0,1,16.93-2.56c3.89,2.31,5.43,6.34,4,10.94a1.83,1.83,0,0,0,.72,2.4c3,2.39,4.23,5.7,4.55,9.42.35,4-.5,8,0,12a11.1,11.1,0,0,0,2.27,6.17C237.42,153.31,238.57,156.81,237.6,160.92Z"/><path class="cls-5" d="M176.53,162.93l-.35,1.13c-.88.4-1.55-.21-2.22-.56a39.39,39.39,0,0,1-15.29-14.85c-4-6.56-6.21-13.84-8.52-21.08-2-6.26-3.64-12.62-5.46-18.93-.1-.33-.2-.66-.31-1s-.19-.58-.53-.59-.48.29-.6.53a9.11,9.11,0,0,0-.85,3.65,4.22,4.22,0,0,1-1.27,2.91,5.34,5.34,0,0,0-1.86,4.25c0,.51.08,1.32-.69,1.31s-.81-.74-.9-1.3a5.29,5.29,0,0,1,1.22-4.49,4.14,4.14,0,0,0,.6-5.17c-1.06-2.14-1.74-4.48-3.21-6.42-.37-.47-.73-1.19-1.48-.91s-.61,1-.62,1.65a6.87,6.87,0,0,0,1.08,3,20.75,20.75,0,0,1,1.27,3c.13.44.25.94-.31,1.18a.9.9,0,0,1-1.17-.45c-.73-1.16-1.38-2.37-2.05-3.56a21.23,21.23,0,0,0-2.18-3.28c-.28-.33-.62-.8-1.14-.47s-.27.72-.19,1.11A15,15,0,0,0,131,107.1c.53,1.08,1.1,2.13,1.6,3.23.27.61.7,1.39-.11,1.82s-1.18-.46-1.53-1c-.75-1.15-1.3-2.42-2.12-3.53-.55-.74-1.21-2.12-2.07-1.63s0,1.75.39,2.58c.55,1.2,1.45,2.19,2.07,3.35.3.55.64,1.25,0,1.69s-1-.24-1.41-.65c-.71-.77-1.13-1.83-2.26-2.36a3.31,3.31,0,0,0,.4,2.73,143.13,143.13,0,0,1,9.81,28.81,72.59,72.59,0,0,0,12.93,27.39A66,66,0,0,0,164,183.8c.65.44,1.45.73,1.74,1.58l-.53,1a66.34,66.34,0,0,1-24.3-25.86c-4.11-7.66-6.32-15.95-8.39-24.31A106.57,106.57,0,0,0,125,115.41a16.82,16.82,0,0,1-1.43-3.83c-.23-1.13-.2-2.22,1.05-2.76.67-.29.39-.62.27-1.07-.73-2.78-.55-3.12,2.17-4,.49-.16.56-.47.59-.89.08-1.07.28-2.1,1.49-2.43a2.66,2.66,0,0,1,2.68,1.12,2.06,2.06,0,0,1,.28.41c.61.1.52-.21.55-.39a2.27,2.27,0,0,1,1.72-2.09,2.59,2.59,0,0,1,2.56,1,16.61,16.61,0,0,1,2.66,4.35c.48,1,.93,2.08,1.46,3.25.46-.82.83-1.6,1.31-2.3s1-1.29,1.95-1.13,1.2.92,1.43,1.72c1.7,5.91,3.36,11.83,5.15,17.71,2.43,7.94,4.67,16,8.92,23.21C163.84,154.17,169.19,159.62,176.53,162.93Z"/><path class="cls-5" d="M247.54,161.75c-.21-.37-.42-.73-.62-1.1,6.18-3.65,10.54-9,13.93-15.2,5.64-10.31,9.73-21.32,14.12-32.19.43-1.06.92-2.09,1.32-3.15.28-.75.65-1.37,1.49-1.47s1.47.55,1.86,1.26.67,1.56,1.05,2.48c.7-1.17,1.37-2.32,2.05-3.46a17.1,17.1,0,0,1,2.45-3.28c.83-.82,1.74-1.6,3-1.21s1.55,1.55,1.6,2.87c1.29-.74,2.43-2.27,4.05-1,1,.8.84,2,.46,3.08,3.06.47,3.6,1.38,2.49,4.39-.18.5-.29.78.24,1.1,1.09.65,1,1.66.73,2.72a12.37,12.37,0,0,1-1.44,3.08c-5,8.07-8.64,16.75-11.84,25.69-4.69,13.14-11.55,25-21.92,34.62a39.66,39.66,0,0,1-7.08,5.35l-.18-1.29a2.38,2.38,0,0,1,1.11-1.25c7.37-5.19,13-12,17.66-19.59a113.19,113.19,0,0,0,10.23-22A131.15,131.15,0,0,1,295,119.41c.49-.82,1.14-1.59.89-2.76-.82,0-1.13.68-1.64,1-.78.54-1.46,2.13-2.4,1.26s.54-1.74,1-2.56c.61-1,1.5-1.74,2-2.75.33-.63,1-1.45.32-2s-1.35.31-1.83.83c-1.09,1.18-1.85,2.61-2.87,3.84-.47.58-1,1.66-1.84,1s-.08-1.47.33-2.13c.78-1.26,1.63-2.48,2.46-3.71a8.13,8.13,0,0,0,1.13-2.49c.09-.37.3-.83-.16-1.08s-.79.09-1.05.38a41.42,41.42,0,0,0-3.79,4.86,7.07,7.07,0,0,1-1.25,1.63c-.31.25-.67.48-1.08.2s-.36-.68-.25-1.08a8,8,0,0,1,1.09-1.93c.83-1.37,1.8-2.66,1.91-4.34,0-.47.1-.95-.39-1.21a1,1,0,0,0-1.24.32,26.83,26.83,0,0,0-5.09,8.45,2.82,2.82,0,0,0,.58,2.59,8.72,8.72,0,0,1,1.25,3.35,3.84,3.84,0,0,1-.38,2.49c-.17.31-.41.62-.78.59s-.48-.43-.55-.77a8.14,8.14,0,0,1-.08-1.71,3.87,3.87,0,0,0-1.1-3,4.7,4.7,0,0,1-1.31-3.91,5.64,5.64,0,0,0-.93-4,6.34,6.34,0,0,0-1.32,2.45C272.48,124,268.29,134.77,263,145a43.29,43.29,0,0,1-13.32,15.86C249,161.34,248.47,162,247.54,161.75Z"/><path class="cls-3" d="M165.76,185.38c-14.48-8.86-23.74-21.74-28.93-37.72-2.31-7.09-3.44-14.52-6.14-21.51-1.62-4.19-3-8.48-5.12-12.47a5.74,5.74,0,0,1-.8-2.6c0-.43-.15-1,.41-1.17s.87.18,1.15.55c.57.72,1.09,1.47,1.68,2.17.3.37.57,1.2,1.08.84s-.1-1-.36-1.44c-.63-1.09-1.33-2.13-2-3.21a6.16,6.16,0,0,1-.93-2.37c-.07-.51-.11-1.06.45-1.36s.88,0,1.24.34a7.38,7.38,0,0,1,1.88,2.2c.67,1.25,1.39,2.48,2.11,3.71.21.34.32,1,1,.63.48-.29.12-.71-.05-1-.76-1.47-1.56-2.91-2.29-4.4a9.44,9.44,0,0,1-1.18-3.54c0-.52,0-1.12.51-1.35s1,.18,1.31.59c.84,1.15,1.68,2.3,2.43,3.51s1.31,2.4,2,3.58c.23.4.38,1.21,1,.85s0-.91-.18-1.32c-.68-1.63-1.77-3.09-2.14-4.83-.25-1.13-.66-2.69.66-3.23s1.87,1,2.46,1.87a42.71,42.71,0,0,1,3.55,7.75c.47,1.23-.06,2.16-.84,3.1-1.47,1.78-2.27,3.74-1.24,6.38a2.77,2.77,0,0,0,.33-2,4.42,4.42,0,0,1,1.73-3.74,3.33,3.33,0,0,0,1.46-2.92,8.72,8.72,0,0,1,1-4.28c.24-.43.5-1,1.09-.92s.46.71.58,1.13c2.28,7.76,4.3,15.6,6.85,23.28,2.32,7,4.66,14.07,9,20.23,4.05,5.83,9.07,10.52,15.67,13.37A131.42,131.42,0,0,1,165.76,185.38Z"/><path class="cls-3" d="M247.54,161.75a38.89,38.89,0,0,0,13.71-14.54c4.84-8.41,8.38-17.43,12-26.4q2-5,4-10c.14-.36.17-.89.65-.87s.62.46.79.82a7.25,7.25,0,0,1,.69,4,4.24,4.24,0,0,0,1.42,4c1,.86,1.1,2.19,1.08,3.48,0,.59-.32,1.18,0,1.8,1.22-1.59,1.32-3.54-.18-5.64a4.07,4.07,0,0,1-.14-5,41.16,41.16,0,0,1,4.19-6.63c.55-.64,1.17-1.5,2.13-1s.65,1.44.55,2.3c-.26,2.22-1.92,3.71-2.85,5.58-.21.41-.87.91-.28,1.3s.83-.39,1.1-.78a49.31,49.31,0,0,1,4.65-6.12c.5-.51,1.08-1.32,1.85-.82s.39,1.38.15,2.05a24.31,24.31,0,0,1-3.29,5.58,6,6,0,0,0-.56.86c-.21.47-1,1-.33,1.46s.85-.5,1.18-.89c1.35-1.61,2.19-3.63,4-4.88.51-.36,1.05-.88,1.68-.41s.35,1.26.09,1.87c-.83,1.91-2.33,3.37-3.53,5-.23.32-.86.68-.26,1.11.42.3.68-.24.94-.51.72-.73,1.41-1.5,2.13-2.23.32-.34.74-.65,1.2-.39s.39.83.25,1.24a10.43,10.43,0,0,1-.92,2.2,141.14,141.14,0,0,0-12.11,26.13c-4.51,12.4-10.79,23.76-20.26,33.14a48.06,48.06,0,0,1-8,6.44,117.3,117.3,0,0,0-4.7-16C249.62,166.55,248.56,164.15,247.54,161.75Z"/><path class="cls-3" d="M227,140.5c-.12,3.37-.29,6.93-2.12,10.1-3,5.26-9.23,7.52-15.8,5.67-7.07-2-11-7-12.59-13.93-.25-1.06-.42-1.65-1.75-1.71a3.8,3.8,0,0,1-3.31-5.08,2.41,2.41,0,0,1,3.05-1.8c1.44.38,1.89-.12,2.19-1.45a8.8,8.8,0,0,1,1.31-2.75,4.48,4.48,0,0,1,4.82-2.15,51.49,51.49,0,0,0,15.33.27,11.64,11.64,0,0,0,4.8-1.68c1-.66,1.3-.38,1.65.59A45.21,45.21,0,0,1,227,140.5Z"/><path class="cls-3" d="M211.66,166c-3.44-.08-6.25-.93-8.43-3.37a1.52,1.52,0,0,1-.21-2.23,6.23,6.23,0,0,0,1.1-3.54c0-.73.27-.85.95-.5a16.78,16.78,0,0,0,10.81,1.55c.85-.15,1.1.14,1.1,1,0,2.37-1.3,4.35-2.12,6.42C214.44,166.31,212.56,165.7,211.66,166Z"/><path class="cls-16" d="M217.19,146.14c2.47-.09,3.09.67,2.48,2.38a5,5,0,0,1-4.3,3.42c-2.23.26-4.38-.06-5.82-2-1.09-1.49-.59-2.55,1.23-2.83C213.14,146.7,215.5,146.38,217.19,146.14Z"/><path class="cls-17" d="M216.79,142.31c.06,1.68-1.89,3-3.15,2.46a.7.7,0,0,1-.4-.46c-.06-.42.26-.51.62-.63,2.26-.75,2.25-.77.52-2.31-.61-.56-1.12-4.69-.65-5.39.29-.44.64-.27.73.08a10.38,10.38,0,0,1,.18,1.86c.07,1.25.11,2.47,1.44,3.19A1.42,1.42,0,0,1,216.79,142.31Z"/><path class="cls-18" d="M219.48,134.16a3.56,3.56,0,0,1,3,1.21c.21.24.42.57.14.93s-.57.17-.85-.06a2.89,2.89,0,0,0-4,0c-.3.25-.64.65-1,.25s.06-.83.33-1.14A3.62,3.62,0,0,1,219.48,134.16Z"/><path class="cls-19" d="M207.65,136.17a4.82,4.82,0,0,1,.92.28c.45.21,1.05.46.81,1.09s-.76.42-1.26.15c-1.23-.67-2,0-2.7.95-.26.36-.34,1.21-1,.82s-.13-1,.14-1.46A3.33,3.33,0,0,1,207.65,136.17Z"/><path class="cls-18" d="M205.47,132.39c.28,0,.57,0,.85.05s.85.1.83.61-.46.38-.79.44c-.94.16-1.88.37-2.81.56-.4.09-.84.21-1-.32s.23-.72.6-.9A4.9,4.9,0,0,1,205.47,132.39Z"/><path class="cls-16" d="M216.87,132.14a3.4,3.4,0,0,1,4.2-.82c.32.21.54.44.44.82s-.53.35-.85.31c-.62-.07-1.22-.24-1.84-.3S217.72,132.14,216.87,132.14Z"/><path class="cls-20" d="M194.06,138.07c-.48,0-.64-.38-.67-.78s-.12-1.24.58-1.37.67.49.72.91A1.07,1.07,0,0,1,194.06,138.07Z"/><path class="cls-2" d="M208.43,143.94c-.06.3-.21.53-.54.53a.52.52,0,0,1-.59-.62.5.5,0,0,1,.6-.45A.59.59,0,0,1,208.43,143.94Z"/><path class="cls-2" d="M219.9,142a.52.52,0,0,1-.44-.6.43.43,0,0,1,.45-.41.46.46,0,0,1,.54.49A.51.51,0,0,1,219.9,142Z"/><path class="cls-2" d="M205.37,143.88c0,.35-.12.58-.45.54a.69.69,0,0,1-.46-.39c-.08-.32.18-.53.47-.56A.42.42,0,0,1,205.37,143.88Z"/><path class="cls-2" d="M208.76,141.49a.5.5,0,0,1-.51-.34.37.37,0,0,1,.3-.5c.32-.09.55,0,.59.37A.43.43,0,0,1,208.76,141.49Z"/><path class="cls-2" d="M218.42,139.31c0,.29-.06.53-.35.49a.5.5,0,0,1-.31-.31c0-.23.07-.45.34-.42S218.34,139.24,218.42,139.31Z"/><path class="cls-2" d="M222.37,140c.19.08.44.12.39.41a.36.36,0,0,1-.46.31.5.5,0,0,1-.32-.3C221.91,140.11,222.16,140.06,222.37,140Z"/><path class="cls-21" d="M209.9,147.93a59.89,59.89,0,0,1,8.08-1.11c1.31-.07,1.26.55.92,1.45a4.46,4.46,0,0,1-4.05,2.63A4.86,4.86,0,0,1,209.9,147.93Z"/><path class="cls-2" d="M144.76,251.48c18.41-16.9,38.65-28.06,70.6-23.84l-6.93-3.74,7.41-2-6-2.86,5.62-2.7c-35.31-3.68-56.87,8.92-75.61,25.48-13.28,11.73-26.24,32.81-41.4,46.63-12,10.91-20.91,15.91-28.59,18.07L66,318.46c11.65-2.32,24.49-9.53,36.31-20.41C119.7,282,135.26,260.21,144.76,251.48Z"/><path class="cls-2" d="M249.34,215.54a9.31,9.31,0,0,0-.44-.9c-3-5.31-4.47-5.4-4.47-5.4l.34,1c.06.18.29.38.39.56a3.63,3.63,0,0,1,.28.67,4.77,4.77,0,0,1-1.64,4.84,4.63,4.63,0,0,1-2.48.67c-1,0-1.9.19-2.85.27a47.52,47.52,0,0,1-5.47.14l-.76,0c-1.11-.07-2.21-.18-3.3-.35L234,221l-2.45.44-2.72.49,1.83,1.14.79.49,3.48,2.16-1.69.89-2.82,1.49c.1-.06.52.11.63.13l1.18.26a17,17,0,0,0,2.57.4,31.52,31.52,0,0,0,5.23-.12l1.52-.16a7.81,7.81,0,0,0,6.77-3.84,9.35,9.35,0,0,0,1.5-2.53,8.24,8.24,0,0,0,.27-2.93A10.15,10.15,0,0,0,249.34,215.54Z"/></svg>