<?xml version="1.0" encoding="utf-8"?>
<!-- Generator: Adobe Illustrator 24.1.1, SVG Export Plug-In . SVG Version: 6.00 Build 0)  -->
<svg version="1.1" id="Capa_1" xmlns="http://www.w3.org/2000/svg" xmlns:xlink="http://www.w3.org/1999/xlink" x="0px" y="0px"
	 viewBox="0 0 774.1 54.7" style="enable-background:new 0 0 774.1 54.7;" xml:space="preserve">
<style type="text/css">
	.st0{fill:#F7F7F7;}
</style>
<g>
	<g>
		<rect x="305.3" y="5.7" class="st0" width="1.1" height="39.6"/>
	</g>
	<g>
		<rect x="471.5" y="5.7" class="st0" width="1.1" height="39.6"/>
	</g>
	<g>
		<rect x="138.6" y="5.7" class="st0" width="1.1" height="39.6"/>
	</g>
	<g>
		<g>
			<path class="st0" d="M107.4,10.9c-0.5-0.5-1.1-0.8-1.8-0.7c-0.9,0-1.9,0.6-2.9,1.8c-0.8,1-1.6,2-2,3.1c-0.2,0.6-0.6,1.4-1,2.6
				l-1.3,2.8c-0.3,0.6-0.6,1.7-0.9,3.1l-0.8,3.1v0.5l-0.1,0.4l-1,1.9l-0.9,1.1l-2.1,2l-1.1,0.6c-0.3,0-0.5,0.2-0.8,0.4
				c-0.3,0.2-0.5,0.3-0.7,0.4c-0.6,0.1-1.1-0.7-1.2-2.3l-0.2-0.6l-0.6-0.8c-0.7-0.7-1.3-0.9-1.8-0.9c-0.5,0.1-1,0.4-1.4,1l-1.8,3
				c-0.5,0.5-1,0.7-1.5,0.7c0.7-2.1,1.3-3.6,1.9-4.5c0.4-0.6,0.9-1.1,1.3-1.5l1.7-0.1l0.8,1.1c0.3,0.4,0.7,0.6,1.1,0.5
				c0.3-0.1,0.6-0.3,0.7-0.5c0.2-0.3,0.3-0.5,0.3-0.8c-0.1-0.6-0.4-1.2-1-1.8c-0.7-0.7-1.4-1.1-2.3-1.3c-1-0.1-1.9-0.1-2.8,0.3
				c-0.5,0.1-1,0.3-1.3,0.6c-0.2,0.1-0.3,0.3-0.5,0.4l-0.4,0.5c-0.4,0.2-0.6,0.4-1,0.9l-2.2,5.4c-0.2,0.5-0.1,1,0.1,1.4l0.4,1.1
				c0.1,0.3,0.3,0.6,0.4,0.8c0.4,0.5,1,0.8,1.5,0.9c1.3,0.3,2.6-0.3,3.9-1.3l2.2-1.7c0.1-0.1,0.3,0.1,0.4,0.5l0.2,0.5l0.5,0.5
				l1.5,1.1c0.4,0.3,0.8,0.4,1.2,0.4c0.8,0,1.6-0.2,2.3-0.5l0.9-0.5l0.8-0.7c0.4-0.3,0.7-0.4,1-0.4c0.1,0,0.2,0,0.2,0.1l0,0.3
				l0.4,3.9l0.7,2.9c0.3,0.8,0.8,1.4,1.5,1.9c0.7,0.5,1.4,0.8,2.2,0.8c0.5-0.5,0.5-1.2-0.1-2.2c-0.5-0.8-0.7-1.5-0.8-2.2l-0.2-6.4
				c-0.1-1.3,0-2.2,0.3-3c0.3-0.7,0.6-1.5,1.3-2.3l1.6-2.3l1.4-2.8l3.6-8.5c0.3-0.9,0.4-1.8,0.3-2.6C108.1,12,107.8,11.4,107.4,10.9
				z M102.6,17.7c0.2-0.6,0.3-1,0.4-1.3c0.4-0.7,1-1.5,1.9-2.3h0.2v0.5l-0.3,0.8l-2.2,5.4l-1.2,2.2c-0.1,0.4-0.3,0.7-0.5,0.8
				l-0.2,0.1l-0.1-0.1l-0.1-0.3l0.7-3.1c0.2-0.5,0.3-0.9,0.5-1.2L102.6,17.7z"/>
		</g>
		<g>
			<path class="st0" d="M77.9,36.7l-0.9-1c-0.5-0.7-0.8-1.6-1-2.8l-0.4-3.1l-0.8-2.6c-0.3-0.5-0.9-0.9-1.5-1.2l-1.9,0l-1,0.6
				c-0.4,0.3-0.7,0.5-1,0.8c-0.2,0.3-0.4,0.6-0.6,1.1l-0.6,1.2c-0.3-0.2-0.4-0.4-0.4-0.8l0.1-0.5l-0.1-0.5l-0.9-2.5
				c-0.4-0.7-0.9-1.4-1.5-1.9c-0.7-0.5-1.5-0.9-2.3-1.1c-0.4-0.1-0.8-0.1-1.5,0l-1.3,0.1c-0.6,0.2-1.2,0.5-1.6,0.9L57.5,25
				c-0.4,0.7-0.8,1.2-1.2,1.6c-0.3,0.2-0.5,0.6-0.8,1l-1.2,2.6l-0.6,1.1c-0.3,0.5-0.4,1.3-0.4,2.4c0,0.9,0.2,1.6,0.5,2.2
				c0.5,0.8,1.1,1.3,2,1.7c1.2,0.4,2.1,0.6,2.8,0.4c0.3-0.1,0.6-0.2,1.1-0.5l0.9-0.5c0.5-0.3,0.8-0.7,1-1.4c0.3-0.9,0.3-2.2,0-3.9
				c-0.3-1-0.4-1.8-0.5-2.3c-0.1-0.9,0.2-1.7,0.6-2.2l0.3-0.4c0.1-0.2,0.1-0.4,0-0.5l-0.2-0.4c0-0.2,0-0.3,0.3-0.3
				c0.6-0.1,1.1,0.2,1.4,0.7c0.3,0.4,0.5,1,0.6,1.8l0.5,6.5c0.1,0.5,0.1,0.9,0.3,1.3c0.3,0.6,0.8,1,1.6,1.3c0.7,0.2,1.4,0.2,2-0.2
				c0.6-0.3,1.1-0.8,1.4-1.6l0.5-2.1c0.2-0.9,0.4-1.6,0.7-2l0.4-0.5l0.2,0L72,31c0.3,0.2,0.5,0.5,0.6,0.8c0.2,0.4,0.4,1,0.7,2.2
				c0.3,0.9,0.6,1.7,0.9,2.2c0.5,0.7,1.2,1.2,2,1.6c0.9,0.3,1.7,0.4,2.5,0.2v-0.1L77.9,36.7z M58.1,29.1c0.6,0,0.8,0.6,0.7,1.9
				c-0.1,1-0.4,2-0.7,3.1c-0.2,0.4-0.4,0.7-0.5,0.8c-0.3,0.3-0.5,0.3-0.8,0.2c-0.3-0.1-0.4-0.3-0.4-0.7c0-0.4,0-0.9,0.2-1.5l0.4-1.5
				C57.3,30.6,57.7,29.8,58.1,29.1z"/>
		</g>
		<g>
			<path class="st0" d="M16.8,11.3c-0.6-0.5-1.4-1.1-2.4-1.7c-0.6-0.4-1.5-0.8-2.8-1.2C11,8.1,10.5,8,10.2,7.9L8.7,7.7
				c-0.5-0.2-1-0.3-1.5-0.3H5.6L2,8C1.5,8,1,8.1,0.8,8.4C0.5,8.7,0.3,9.1,0.2,9.4C0,9.8,0,10.2,0,10.6c0.1,0.4,0.3,0.6,0.7,0.8
				c0.5,0.3,1.1,0.3,1.7,0.3l4.9-0.6l4.6,0.6c0.5,0.1,0.9,0.2,1.3,0.4c0.6,0.3,1.3,0.8,2,1.7c0.7,0.8,1,1.6,1,2.4
				c-0.1,0.8-0.5,1.5-1.3,2.1L13,19.7c-1,0.6-1.7,0.8-2.2,0.8l0.4-0.9l0.2-0.9l0.1-2l0.4-0.9L12,15c0.1-0.4-0.1-0.9-0.3-1.4
				c-0.3-0.7-0.8-1.2-1.4-1.4l-1,0c-0.4,0.1-0.7,0.3-0.9,0.6c-0.4,0.4-0.6,1.1-0.7,1.9l-1,5.7c-0.2,0.7-0.5,1.2-0.9,1.4
				c-0.4,0.2-0.8,0-1.3-0.8L4,20.1c-0.3-0.3-0.5-0.4-0.8-0.5c-0.6-0.1-1.1,0-1.4,0.5c-0.3,0.6-0.4,1.1,0,1.8c0.2,0.6,0.6,1,1.2,1.5
				c0.2,0.1,0.6,0.3,1.2,0.5l1.2,0.6c0.5,0.3,0.6,0.8,0.5,1.5c0,0.3-0.2,1-0.4,2L3.6,39.5l-0.4,1.1c-0.2,0.3-0.1,0.7,0.2,1
				c0.4,0.5,1,0.8,1.8,0.8c0.8,0,1.4-0.2,1.8-0.8c0.3-0.4,0.5-1,0.6-1.8l0.3-2.9c0.1-1.3,0.3-2.4,0.5-3.3l0.7-3.2
				c0.1-1,0.3-2,0.3-2.8c0.1-1,0.2-1.6,0.4-2c0.2-0.6,0.8-1,1.7-1.3l2.9-0.9c0.6-0.3,1.4-0.8,2.5-1.5c1-0.7,1.7-1.4,2.1-1.9
				c1.1-1.3,1.3-2.9,0.8-4.7C19.2,13.8,18.3,12.5,16.8,11.3z"/>
		</g>
		<g>
			<path class="st0" d="M52.6,24.3c0.1-0.3,0-0.7-0.3-1c-0.2-0.3-0.5-0.6-0.8-0.7c-0.4-0.2-0.8-0.3-1.2-0.3
				c-0.4,0.1-0.7,0.2-1.2,0.4l-0.8,0.3c-0.3,0.2-0.4,0.3-0.5,0.3l-0.3,0.4l-0.4,0.2L46.3,25l-0.3,0.3C46,25.3,46,25.4,46,25.5
				l-0.2,0.6c-0.3,0.5-0.6,0.8-0.6,1c0,0.3,0,0.7,0,1.2c0.1,0.8,0.4,1.7,0.9,2.5l1.5,2.2c0.6,0.9,0.9,1.7,0.8,2.4
				c0,0.5-0.5,0.9-1.4,1.2l-1.9,0.1l-1.2-0.4c-0.5-0.1-0.8,0-1.1,0.3c0,0.3,0,0.6,0,0.9l1.1,1.8c0.3,0.4,0.8,0.6,1.7,0.7
				c1.5,0.2,2.9,0,4-0.4c0.7-0.3,1.3-0.6,1.8-1.1c0.5-0.5,0.9-1.1,1-1.8c0.2-1.1-0.2-2.3-1.3-3.7l-1.1-1.7c-0.4-0.6-0.7-1.2-0.7-1.8
				c-0.1-0.9,0-1.6,0.6-2.3c0.3-0.4,0.9-0.9,1.7-1.5C52.2,25.3,52.6,24.8,52.6,24.3z"/>
		</g>
		<g>
			<path class="st0" d="M44.9,26.1c0.1-0.1,0.2-0.5,0-0.8c-0.1-0.5-0.3-0.8-0.4-0.9c-1.2-0.4-2.1-0.6-2.9-0.4c-0.6,0-1.3,0.4-2,1
				l-1.7,1.6l-1.4,1.8c-0.5,0.8-1.2,1.3-1.7,1.5l-0.4-0.9c-0.1-0.2-0.2-0.5-0.2-1c-0.1-0.6-0.3-1.1-0.8-1.5c-0.5-0.4-1-0.6-1.6-0.7
				c-0.6-0.1-1.2,0-1.6,0.3l-0.7,0.7l-0.6,0.8l-1.3,1.4c-0.5,0.5-1.4,1.6-2.7,3.2l-1.9,2.4c-0.7,0.8-1.3,1.1-1.9,1
				c-0.6-0.2-1-0.6-1.2-1.4c-0.1-0.8,0.1-1.3,0.5-1.7l4.1-2l1.9-1.3l0.9-0.8c0.1-0.8-0.1-1.6-0.6-2.5c-0.4-0.7-1-1.4-1.8-1.9
				c-0.8-0.5-1.6-0.8-2.4-0.9c-1-0.1-1.8,0.2-2.6,0.6c-1.5,0.9-2.7,2.4-3.3,4.3l-0.3,0.8L16,28.9L15.8,29h-1.2L14,29.1
				c-0.2,0.1-0.3,0.3-0.3,0.5c-0.1,0.4,0,0.7,0.2,1.1l0.9,0.9l0.7,0.6c0.2,0.2,0.3,0.6,0.4,1.2l0.5,1.2c0.8,1.7,1.7,2.9,2.8,3.4
				c1.3,0.7,2.7,0.8,3.9,0.4c0.9-0.3,1.9-0.9,2.8-1.9l2.4-2.8c1-1.1,1.9-1.9,2.8-2.4l0.4,2.1l0.1,1.5l-0.1,1.4c0,0.6,0.1,1,0.3,1.4
				c0.4,0.7,0.9,1.1,1.6,1.3c0.7,0.1,1.3-0.2,1.9-0.9l1.1-2.4l1.6-2.1l1.3-2.7c0.5-1,1.1-1.9,1.7-2.5c0.5-0.6,1.1-1,1.9-1.4l1.7-0.7
				L44.9,26.1z M24.1,26.1c0.1,0.3,0,0.6-0.1,0.8c0,0.4-0.4,0.8-1,1.1l-2.3,1.5c-0.4,0.2-0.8,0.3-1.1,0.4l-0.3,0
				c-0.1-0.1-0.1-0.1-0.1-0.2l0.1-0.4c0-0.2,0.2-0.5,0.4-0.7l1.1-1.5c0.5-0.7,0.8-1.3,1.3-1.5c0.6-0.5,1.2-0.6,1.6-0.2
				C23.9,25.6,24,25.9,24.1,26.1z"/>
		</g>
	</g>
	<g>
		<g>
			<path class="st0" d="M354.7,28.6c0.3,4.4,2.7,6.4,6.9,6.4c3.9,0,6.5-2.2,7.2-5.6c0,0,0.1-0.7,0.1-1.2c0-0.2,0-0.4,0-0.6
				c0-2-0.7-3.7-1.8-4.9c-1.2-1.3-2.6-2-4.6-2c-2.5,0-3.6,1.1-4.3,1.9l0,0.1v-8c0-0.1-0.1-0.2-0.2-0.2H355c-0.1,0-0.2,0.1-0.2,0.2
				L354.7,28.6L354.7,28.6z M361.8,24c2.4,0,3.7,1.8,3.7,3.8c0,2.2-1.3,3.8-3.7,3.8c-2.4,0-3.6-1.5-3.6-3.8
				C358.1,25.8,359.4,24,361.8,24"/>
		</g>
		<g>
			<path class="st0" d="M370.6,34c0,0.1,0.1,0.2,0.2,0.2h3.1c0.1,0,0.2-0.1,0.2-0.2V14.7c0-0.1-0.1-0.2-0.2-0.2h-3.1
				c-0.1,0-0.2,0.1-0.2,0.2V34z"/>
		</g>
		<g>
			<path class="st0" d="M379.5,28.9C379.5,28.9,379.4,28.8,379.5,28.9l-0.2,0L379.5,28.9L379.5,28.9z"/>
		</g>
		<g>
			<path class="st0" d="M402.8,21h-3.2c-0.1,0-0.3,0.1-0.3,0.2l-3.2,8.7c0,0.1-0.1,0.1-0.2,0l-3.2-8.7c-0.1-0.1-0.2-0.2-0.3-0.2
				h-3.3c-0.1,0-0.2,0.1-0.2,0.2c0,0,0,0.1,0.1,0.1l5.1,12.7c0,0.1,0.2,0.2,0.3,0.2h3.2c0.1,0,0.3-0.1,0.3-0.2l5-12.8
				C403,21.1,402.9,21,402.8,21"/>
		</g>
		<g>
			<path class="st0" d="M383,20.7c-2,0-3.9,0.7-5.2,1.9c-1.3,1.2-1.9,3-1.9,5c0,2.1,0.6,3.8,1.9,5c1.3,1.2,3.2,1.9,5.2,1.9l0,0
				c2.1,0,3.8-0.7,5.4-2.5v0c0.1-0.1,0.1-0.2,0-0.3l0,0l-2.2-1.6l0,0c-0.1-0.1-0.2-0.1-0.3,0c-0.8,0.9-1.6,1.6-3.2,1.6
				c-1.8,0-3-1.1-3.3-2.9h9v0h0.6c0.1,0,0.2-0.1,0.2-0.2v-0.5h0v-0.3c0-2.3-0.6-4.1-1.7-5.3C386.3,21.3,384.9,20.7,383,20.7
				 M385.6,26.2L385.6,26.2l-6.1,0v0c0,0,0,0,0,0c0.3-1.8,1.5-2.9,3.1-2.9C384.5,23.3,385.5,24.4,385.6,26.2
				C385.6,26.2,385.6,26.2,385.6,26.2 M407.6,21h-3.1c-0.1,0-0.2,0.1-0.2,0.2V34c0,0.1,0.1,0.2,0.2,0.2h3.1c0.1,0,0.2-0.1,0.2-0.2
				V21.2C407.8,21.1,407.7,21,407.6,21 M434.4,18.5h2.4c0.1,0,0.3-0.1,0.4-0.1l3.8-3.8c0.1-0.1,0.1-0.1-0.1-0.1h-3.6
				c-0.1,0-0.2,0-0.2,0c0,0-0.1,0.1-0.1,0.2l-2.6,3.7C434.2,18.5,434.2,18.5,434.4,18.5 M347.1,20.7c-2.1,0-4,0.6-5.4,2
				c-0.1,0.1-0.1,0.2,0,0.3l1.6,1.6c0.1,0.1,0.2,0.1,0.3,0c0.9-0.8,1.9-1.3,3.2-1.3c1.8,0,3,0.8,3,2.4v0.3H349
				c-1.7,0-3.8,0.1-5.5,0.7c-1.7,0.6-2.8,1.8-2.8,3.9c0,2.7,2.2,4,4.7,4l0,0c1.8,0,3.3-0.6,4.3-2.1v0.7c0.1,0.5,0.3,1.1,1.1,1.1h1.8
				c0.1,0,0.2-0.1,0.2-0.2v-0.5l0,0v-6.9c0-0.9,0-2.4-0.7-3.7C351.5,21.7,350,20.7,347.1,20.7 M349.5,29c0,1.8-1,2.9-3.3,2.9
				c-0.5,0-0.9-0.1-1.3-0.4c-0.4-0.3-0.7-0.7-0.7-1.2c0-0.9,0.5-1.4,1.5-1.6c1-0.3,2.2-0.3,3.1-0.3h0.7V29z M424.8,14.5
				c-1.2,0-2.1,0.9-2.1,1.9c0,1,0.9,2,2.1,2c1.2,0,2.1-0.8,2.1-2C426.9,15.3,426,14.5,424.8,14.5 M455.6,22.3c-0.8-1-2-1.6-3.9-1.6
				c-2.1,0-3.4,1-4,2.2c0,0,0,0,0,0v-1.7c0-0.1-0.1-0.2-0.2-0.2h-2.9c-0.1,0-0.2,0.1-0.2,0.2V34c0,0.1,0.1,0.2,0.2,0.2h3.1
				c0.1,0,0.2-0.1,0.2-0.2v-7c0-1.7,0.8-3.2,3-3.3c1.1,0,1.7,0.6,2,1.3c0.3,0.8,0.4,1.7,0.4,2.4v6V34c0,0.1,0.1,0.2,0.2,0.2h3.1
				c0.1,0,0.2-0.1,0.2-0.2v-8.1C456.7,24.6,456.4,23.3,455.6,22.3 M435.4,20.7c-2,0-3.7,0.7-5,1.9c-1.3,1.2-1.9,3-1.9,5
				c0,2.1,0.6,3.8,1.9,5c1.3,1.2,2.9,1.9,5,1.9c2,0,3.7-0.7,5-1.9c1.3-1.2,1.9-3,1.9-5c0-2.1-0.6-3.8-1.9-5
				C439,21.4,437.4,20.7,435.4,20.7 M435.4,31.5c-2.4,0-3.4-1.8-3.4-3.9c0-2,1-3.8,3.4-3.8c2.4,0,3.4,1.8,3.4,3.8
				C438.8,29.6,437.8,31.5,435.4,31.5 M406.1,14.5c-1.2,0-2.1,0.9-2.1,1.9c0,1,0.9,2,2.1,2c1.2,0,2.1-0.8,2.1-2
				C408.2,15.3,407.2,14.5,406.1,14.5 M426.3,21h-3.1c-0.1,0-0.2,0.1-0.2,0.2V34c0,0.1,0.1,0.2,0.2,0.2h3.1c0.1,0,0.2-0.1,0.2-0.2
				V21.2C426.5,21.1,426.4,21,426.3,21 M417.3,26.4c-0.9-0.2-1.8-0.4-2.5-0.6c-0.7-0.2-1.1-0.5-1.1-1c0-0.5,0.2-0.8,0.6-1
				c0.4-0.2,0.8-0.3,1.3-0.3c1.1,0,1.9,0.4,2.5,1.2c0.1,0.1,0.2,0.1,0.3,0h0l2-1.8v0c0.1-0.1,0.1-0.2,0-0.3v0
				c-1.1-1.4-3-1.9-4.7-1.9c-1.4,0-2.7,0.3-3.7,1c-1,0.7-1.7,1.8-1.7,3.3c0,2.5,1.9,3.3,3.7,3.7c0.9,0.2,1.8,0.4,2.5,0.6
				c0.7,0.2,1.1,0.6,1.1,1.2c0,0.5-0.3,0.8-0.7,1.1c-0.4,0.2-1,0.4-1.4,0.4c-1.3,0-2.2-0.6-3-1.5h0c-0.1-0.1-0.2-0.1-0.3,0l-1.9,1.7
				l-0.2,0.2c-0.1,0.1-0.1,0.2,0,0.3l0.3,0.3c1.3,1.2,3,1.6,4.8,1.6h0c1.4,0,2.8-0.3,3.9-0.9c1.1-0.7,1.9-1.8,1.9-3.3
				C421,27.7,419.2,26.9,417.3,26.4"/>
		</g>
		<g>
			<path class="st0" d="M333.1,17.6L333.1,17.6c1.9,0.1,2.9,0.7,4.2,2.3c0.1,0.2,0.2,0.2,0.4,0.1l2.1-1.6c0.2-0.1,0.2-0.3,0.1-0.4
				l0,0c-1.5-2.3-3.5-3.2-5-3.6c-0.3-0.1-1.1-0.2-1.7-0.2c-2.8,0-5,1-6.7,2.8c-1.7,1.8-2.5,4.4-2.5,7.5c0,3,0.8,5.6,2.5,7.4
				c1.7,1.8,3.9,2.8,6.7,2.8c2.6,0,4.8-0.8,6.5-3.1l0,0c0.1-0.2,0.2-0.3,0-0.4l-2.4-1.8c-0.1-0.1-0.3,0-0.4,0.1
				c-1.1,1.5-2.3,2-3.7,2c-3.7,0-5.7-3-5.7-7.1C327.6,20.8,329.5,17.6,333.1,17.6"/>
		</g>
	</g>
	<g>
		<g>
			<g>
				<g>
					<path class="st0" d="M492.4,15.4l-4.7,20.6c0,0.1,0,0.1,0.1,0.1h4.2c0.1,0,0.1-0.1,0.2-0.1l1.9-8.2c0-0.1,0.1-0.1,0.2-0.1h6.9
						c0.1,0,0.1-0.1,0.2-0.1l1-3.3c0-0.1,0-0.1-0.1-0.1h-7.3c-0.1,0-0.1-0.1-0.1-0.1l1.2-4.9c0-0.1,0.1-0.1,0.2-0.1h7.2
						c0.1,0,0.1-0.1,0.2-0.1l1.5-3.3c0-0.1,0-0.1-0.1-0.1H492.4z"/>
				</g>
			</g>
		</g>
		<g>
			<path class="st0" d="M524.2,23.4c-0.9-1.1-2.4-1.7-4.2-1.7c-2.5,0-3.9,1.1-4.8,2l1.8-8l0,0c0,0,0-0.1,0-0.1c0-0.1,0-0.2-0.1-0.3
				c-0.1,0-0.2,0-0.2,0h-3l0,0c-0.2,0-0.4,0-0.4,0.3l-3.1,13.8h0c0,0.2-0.1,0.5-0.1,0.8c-0.1,1.2,0,2.7,0.9,4.1
				c0.9,1.3,2.5,2.4,5.4,2.4l0,0c4.8,0,7.2-3,8.2-5.4l0-0.1c0.1-0.3,0.2-0.6,0.4-1c0.1-0.2,0.1-0.4,0.2-0.6h0c0-0.1,0.1-0.3,0.1-0.4
				c0.1-0.4,0.1-0.9,0.2-1.3C525.5,26.1,525.1,24.5,524.2,23.4z M521.4,29.1c-0.5,2.1-2,4.1-4.5,4.1c-2.2,0-3.1-1.5-3-3.3
				c0-0.2,0-0.5,0.1-0.7c0.5-2.1,2.3-4.1,4.8-4.1c1.1,0,1.8,0.4,2.2,0.9c0.4,0.6,0.6,1.3,0.5,2.2C521.5,28.5,521.5,28.8,521.4,29.1z
				"/>
		</g>
		<g>
			<g>
				<path class="st0" d="M508.7,15.2c-1.4,0-2.5,1-2.7,2.2c0,0.1,0,0.2-0.1,0.3c0,0.5,0.1,1,0.4,1.3c0.3,0.3,0.8,0.6,1.4,0.6h0
					c1.4,0,2.5-0.9,2.8-2.2c0-0.1,0.1-0.2,0.1-0.4c0-0.5-0.1-1-0.4-1.4C509.8,15.4,509.3,15.2,508.7,15.2z"/>
			</g>
			<g>
				<path class="st0" d="M509,22h-3.5c-0.1,0-0.2,0.1-0.2,0.2l-3,13.8c0,0.1,0,0.1,0.1,0.1h3.5c0.1,0,0.2-0.1,0.2-0.1l3-13.9
					C509.1,22.1,509.1,22,509,22z"/>
			</g>
		</g>
		<g>
			<path class="st0" d="M540,23.2c-0.9-1-2.3-1.6-4.1-1.6c-4.4,0-8.2,3-9.2,7.4c-0.1,0.4-0.1,0.8-0.2,1.2c-0.1,1.9,0.4,3.4,1.5,4.5
				c1.1,1.1,2.7,1.7,4.7,1.7h0c2.3,0,4.4-0.8,6.5-2.8l0,0c0.2-0.2,0.1-0.2,0-0.3l-1.9-1.7c-0.2-0.1-0.3,0-0.4,0
				c-1.1,1-2.2,1.8-3.9,1.8c-1.9,0-3.1-1.1-3-2.9c0-0.1,0.1-0.1,0.1-0.1v0h10.2v0c0.4,0,0.4-0.1,0.4-0.3l0,0l0.2-0.7
				c0.1-0.6,0.2-1.2,0.3-1.7C541.3,25.8,540.9,24.3,540,23.2z M537.5,27.4L537.5,27.4c0,0,0,0.2-0.2,0.2h-6.6c-0.1-0.1,0-0.2,0-0.2
				l0,0c0.7-1.7,2.2-2.8,4.1-2.8c1,0,1.7,0.3,2.1,0.7c0.4,0.4,0.6,1.1,0.6,1.9C537.5,27.2,537.5,27.3,537.5,27.4z"/>
		</g>
		<g>
			<path class="st0" d="M552.4,21.8L552.4,21.8L552.4,21.8L552.4,21.8c-0.1,0,0.1,0-0.3,0h-0.3c-0.1,0-0.3,0-0.5,0h0h-2.9l0,0
				c-1.6,0.1-3,0.9-3.7,1.6c-1.4,1.4-1.8,3.7-2.3,5.5l0,0l0,0l-1.6,7c0,0.1,0,0.2,0.2,0.2h3.3c0.2,0,0.3-0.1,0.3-0.2l1.6-7.2
				c0.2-0.7,0.4-1.7,0.8-2.4c0.4-0.7,1.1-1.2,2.4-1.2h1.4c0.1,0,0.1-0.1,0.2-0.2L552.4,21.8"/>
		</g>
		<g>
			<path class="st0" d="M594.7,49c-4.7,0-7.1-0.9-7.3-1l0,0c0,0,1.6,0.3,4.3,0.3c3.7,0,9.6-0.5,16.6-3.2c9.2-3.4,15.1-8.5,16-12.6
				c0.2-1,0-1.8-0.6-2.5c-1.9-2.3-7.5-2.5-9.2-2.5c-0.4,0-0.7,0-0.7,0l-0.1-0.7c0,0,1.2-0.1,2.9-0.1c3.3,0,7.7,0.5,9.7,2.6
				c0.8,0.9,1.2,2.1,1,3.4c-0.5,4.7-8.7,10.8-18.5,13.9C603.9,48.2,599.1,49,594.7,49L594.7,49z"/>
		</g>
		<g>
			<path class="st0" d="M595.5,21.8L595.5,21.8L595.5,21.8L595.5,21.8c-0.1,0,0.1,0-0.3,0H595c-0.1,0-1,0-1.2,0l0,0h-2.2l0,0
				c-1.6,0.1-3,0.9-3.7,1.6c-1.3,1.4-1.8,3.7-2.3,5.5l0,0l0,0l-1.5,7c0,0.1,0,0.2,0.2,0.2h3.3c0.2,0,0.3-0.1,0.3-0.2l1.6-7.2
				c0.2-0.7,0.4-1.7,0.8-2.4c0.4-0.7,1.1-1.2,2.4-1.2h1.4c0.1,0,0.1-0.1,0.2-0.2L595.5,21.8"/>
		</g>
		<g>
			<path class="st0" d="M577.6,21.7c-4.4,0-8.6,3-9.6,7.5c-0.1,0.4-0.2,0.8-0.2,1.2c-0.3,3.8,2.4,6.3,6.4,6.3l0,0
				c4.4,0,8.6-3,9.6-7.5c0.1-0.4,0.2-0.8,0.2-1.2C584.3,24.2,581.6,21.7,577.6,21.7z M580.1,29.1c-0.5,2.2-2.5,4.2-5.1,4.2
				c-2.3,0-3.4-1.6-3.3-3.5c0-0.2,0.1-0.4,0.1-0.6c0.5-2.2,2.5-4.2,5.1-4.2c2.3,0,3.5,1.6,3.3,3.5C580.1,28.7,580.1,28.9,580.1,29.1
				z"/>
		</g>
		<g>
			<path class="st0" d="M603.8,21.7c-0.4,0-0.7,0-1.1,0.1c-3.5,0.2-7.2,2.2-8.4,7.2l-3.1,13.7c0,0.2,0.1,0.3,0.3,0.3h3.1
				c0.3,0,0.3-0.1,0.3-0.2h0l1.7-7.5c0.8,0.9,1.9,1.5,3.5,1.5h0.2c4.3,0,8.2-2.9,9.2-7.4c0.1-0.4,0.2-0.8,0.2-1.2
				C610.1,24.2,607.7,21.7,603.8,21.7z M606,28.6c0,0.2-0.1,0.4-0.1,0.6c-0.5,2.2-2.2,4.1-4.8,4.1c-2.3,0-3.4-1.5-3.2-3.4
				c0-0.2,0.1-0.4,0.1-0.6c0.5-2.2,2.5-4.2,5-4.2C605.4,25,606.2,26.7,606,28.6z"/>
		</g>
		<g>
			<path class="st0" d="M571.6,18.1c-1.4-2.2-3.3-3.2-6.1-3.2c-6.1,0-11.1,4.4-12.4,11c-0.6,3.1-0.2,5.8,1.2,7.8c1.4,2,3.9,3,6.8,3
				c2.4,0,4.6-0.8,6.4-2.3c0.1-0.1,0.1-0.2,0-0.3l-1.5-2.6c-0.1-0.1-0.2-0.1-0.3,0c-1.3,1.1-2.6,1.7-4,1.7c-1.8,0-3-0.7-3.9-1.9
				c-1-1.4-1.3-3.4-0.9-5.6c0.9-4.2,4.3-7.2,8-7.2c1.5,0,2.3,0.6,3.2,1.9l0,0c0.1,0.2,0.2,0.1,0.3,0h0l2.8-1.9
				C571.7,18.2,571.7,18.2,571.6,18.1z"/>
		</g>
	</g>
	<g>
		<g>
			<g>
				<g>
					<path class="st0" d="M172.7,15.1L168,35.9c0,0.1,0,0.1,0.1,0.1h4.2c0.1,0,0.2-0.1,0.2-0.1l2-8.4c0-0.1,0.1-0.1,0.2-0.1h7
						c0.1,0,0.2-0.1,0.2-0.1l1-3.4c0-0.1,0-0.1-0.1-0.1h-7.4c-0.1,0-0.1-0.1-0.1-0.1l1.2-4.9c0-0.1,0.1-0.1,0.2-0.1h7.3
						c0.1,0,0.1-0.1,0.2-0.1l1.5-3.3c0-0.1,0-0.1-0.1-0.1H172.7z"/>
				</g>
			</g>
			<g>
				<path class="st0" d="M265.8,14.9h-3.6c-0.1,0-0.1,0-0.1,0.1c0,0,0,0.1,0,0.2l-4.6,20.8c0,0.1,0,0.1,0.1,0.1h3.6
					c0.1,0,0.1-0.1,0.2-0.1l4.6-20.9C265.9,15,265.8,14.9,265.8,14.9z"/>
			</g>
			<g>
				<path class="st0" d="M204.9,23.2c-0.9-1.1-2.4-1.8-4.3-1.8c-2.5,0-3.9,1.1-4.8,2l1.9-8.1l0,0c0,0,0,0,0-0.1c0-0.1,0-0.2-0.1-0.3
					c-0.1,0-0.2,0-0.2,0h-3l0,0c-0.2,0-0.4,0-0.5,0.3l-3.1,14h0c0,0.2-0.1,0.5-0.1,0.8c-0.1,1.2,0,2.8,0.9,4.1
					c0.9,1.3,2.5,2.4,5.4,2.4h0c4.9,0,7.3-3.1,8.3-5.5l0,0c0.1-0.3,0.3-0.6,0.4-1c0.1-0.2,0.1-0.4,0.2-0.6h0c0-0.1,0.1-0.3,0.1-0.4
					c0.1-0.5,0.2-0.9,0.2-1.3C206.3,25.8,205.9,24.3,204.9,23.2z M202.1,28.9c-0.5,2.2-2,4.1-4.6,4.1c-2.3,0-3.1-1.5-3-3.3
					c0-0.2,0.1-0.5,0.1-0.7c0.5-2.2,2.3-4.1,4.9-4.1c1.1,0,1.8,0.4,2.2,0.9c0.4,0.6,0.6,1.4,0.5,2.2
					C202.2,28.3,202.2,28.6,202.1,28.9z"/>
			</g>
			<g>
				<g>
					<path class="st0" d="M189.2,14.9c-1.4,0-2.5,1-2.7,2.2c0,0.1,0,0.2-0.1,0.3c0,0.5,0.1,1,0.4,1.3c0.3,0.3,0.8,0.6,1.4,0.6h0
						c1.4,0,2.5-1,2.8-2.2c0-0.1,0-0.2,0-0.3c0-0.5-0.1-1-0.4-1.4C190.3,15.1,189.8,14.9,189.2,14.9z"/>
				</g>
				<g>
					<path class="st0" d="M189.6,21.7H186c-0.1,0-0.2,0.1-0.2,0.2l-3.1,14c0,0.1,0,0.1,0.1,0.1h3.6c0.1,0,0.2-0.1,0.2-0.1l3.1-14.1
						C189.7,21.8,189.6,21.7,189.6,21.7z"/>
				</g>
			</g>
			<g>
				<path class="st0" d="M221,23c-0.9-1-2.3-1.6-4.1-1.6c-4.4,0-8.3,3-9.3,7.5c-0.1,0.4-0.2,0.8-0.2,1.2c-0.2,1.9,0.4,3.5,1.5,4.6
					c1.1,1.1,2.7,1.7,4.7,1.7l0,0c2.3,0,4.5-0.8,6.6-2.8h0c0.2-0.2,0.1-0.2,0-0.3l-2-1.7c-0.2-0.1-0.3,0-0.4,0
					c-1.1,1-2.2,1.8-3.9,1.8c-1.9,0-3.1-1.1-3-3c0-0.1,0.1-0.1,0.1-0.1l0,0h10.3v0c0.4,0,0.4-0.1,0.5-0.3l0,0l0.2-0.8
					c0.1-0.6,0.2-1.2,0.3-1.7C222.3,25.5,221.9,24,221,23z M218.5,27.1L218.5,27.1c0,0,0,0.2-0.2,0.2h-6.7c-0.1-0.1,0-0.2,0-0.2l0,0
					c0.7-1.8,2.2-2.9,4.1-2.9c1,0,1.7,0.2,2.2,0.7c0.5,0.4,0.7,1.1,0.6,1.9C218.5,27,218.5,27.1,218.5,27.1z"/>
			</g>
			<g>
				<path class="st0" d="M243.3,21.5h-4.5c-0.1,0-0.1,0-0.1-0.1l0.9-3.8c0-0.2,0-0.2-0.2-0.2l0,0H236c-0.3,0-0.3,0.1-0.3,0.2l0,0
					c0,0,0,0,0,0.1l0,0l-0.9,3.8l0,0l-0.7,3.4l0,0l-1.4,6.4c-0.1,0.6-0.2,1.1-0.2,1.7c-0.1,1.1,0.1,2,0.7,2.6
					c0.6,0.6,1.7,0.9,3.2,0.9c0.8,0,2.1-0.1,2.9-0.5v0c0.1-0.1,0.1-0.1,0.1-0.2l0,0l0.7-3.1v0c0-0.1-0.1-0.1-0.1-0.1l0,0l-0.2,0.1
					c-0.5,0.3-1.4,0.4-2,0.4c-0.6,0-1-0.1-1.2-0.4c-0.2-0.2-0.3-0.6-0.3-1.1c0-0.2,0-0.4,0.1-0.7l1.3-6c0,0,0-0.1,0.1-0.1h3.7
					c0.1,0,0.1-0.1,0.2-0.1h0l1.5-3.3C243.5,21.5,243.4,21.5,243.3,21.5z"/>
			</g>
			<g>
				<path class="st0" d="M232.8,21.5L232.8,21.5L232.8,21.5L232.8,21.5c-0.1,0,0.1,0-0.3,0h-0.3c-0.1,0-0.3,0-0.5,0l0,0h-2.2l0,0
					c-1.6,0.1-3,0.9-3.8,1.7c-1.4,1.4-1.9,3.7-2.3,5.6l0,0l0,0l-1.6,7.1c0,0.1,0,0.2,0.2,0.2h3.3c0.2,0,0.3-0.1,0.4-0.2l1.6-7.3
					c0.2-0.7,0.4-1.7,0.8-2.4c0.4-0.7,1.1-1.2,2.4-1.2h1.4c0.1,0,0.1-0.1,0.2-0.2L232.8,21.5"/>
			</g>
			<g>
				<path class="st0" d="M255.7,23c-0.9-1-2.3-1.6-4.1-1.6c-4.4,0-8.3,3-9.3,7.5c-0.1,0.4-0.2,0.8-0.2,1.2c-0.1,1.9,0.4,3.5,1.5,4.6
					c1.1,1.1,2.7,1.7,4.7,1.7l0,0c2.3,0,4.5-0.8,6.6-2.8h0c0.2-0.2,0.1-0.2,0-0.3l-2-1.7c-0.2-0.1-0.3,0-0.4,0
					c-1.1,1-2.2,1.8-3.9,1.8c-1.9,0-3.1-1.1-3-3c0-0.1,0.1-0.1,0.1-0.1l0,0H256v0c0.4,0,0.4-0.1,0.5-0.3l0,0l0.2-0.8
					c0.1-0.6,0.2-1.2,0.2-1.7C257,25.5,256.6,24,255.7,23z M253.2,27.1L253.2,27.1c0,0,0,0.2-0.2,0.2h-6.7c-0.1-0.1,0-0.2,0-0.2h0
					c0.8-1.8,2.2-2.9,4.2-2.9c1,0,1.7,0.2,2.1,0.7c0.5,0.4,0.7,1.1,0.6,1.9C253.2,27,253.2,27.1,253.2,27.1z"/>
			</g>
		</g>
		<g>
			<path class="st0" d="M254.6,40.6c-4.8,0-7.2-1-7.4-1l0,0c0,0,1.6,0.3,4.3,0.3c3.7,0,9.7-0.6,16.8-3.2c9.3-3.5,15.3-8.6,16.2-12.7
				c0.2-1,0-1.8-0.6-2.6c-1.9-2.3-7.6-2.5-9.3-2.5c-0.4,0-0.7,0-0.7,0l-0.1-0.7c0.1,0,1.2-0.1,2.9-0.1c3.4,0,7.8,0.5,9.9,2.7
				c0.8,0.9,1.2,2.1,1,3.4c-0.5,4.8-8.8,10.9-18.7,14C263.8,39.8,259,40.6,254.6,40.6L254.6,40.6z"/>
		</g>
	</g>
</g>
<g>
	<path class="st0" d="M770.4,45.8c-11.2-10.8-27.9-19.6-49.9-19.6c-22.1,0-38.8,8.7-49.9,19.6c-5.8,5.6-4.9,10.4,3.7,7.7
		c7.3-2.3,23.8-7.3,46.2-7.3c22.6,0,38.9,5,46.3,7.3C775.3,56.2,776.2,51.4,770.4,45.8"/>
	<polygon class="st0" points="668.6,3.5 665,3.5 665,0.7 676,0.7 676,3.5 672.4,3.5 672.4,14.8 668.6,14.8 	"/>
	<polygon class="st0" points="680.1,0.7 690.3,0.7 690.3,3.4 684,3.4 684,6.3 689.9,6.3 689.9,8.9 684,8.9 684,12.2 690.5,12.2 
		690.5,14.8 680.1,14.8 	"/>
	<polygon class="st0" points="695.9,0.7 699.8,0.7 699.8,12 705.1,12 705.1,14.8 695.9,14.8 	"/>
	<polygon class="st0" points="708.5,0.7 718.7,0.7 718.7,3.4 712.4,3.4 712.4,6.3 718.3,6.3 718.3,8.9 712.4,8.9 712.4,12.1 
		718.9,12.1 718.9,14.8 708.5,14.8 	"/>
	<path class="st0" d="M734.4,14.5c-1.1,0.3-2.1,0.6-4,0.6c-3.6,0-8-1.9-8-7.3c0-4.9,3.5-7.4,8-7.4c1.5,0,2.7,0.3,4,0.7L734,4.2
		c-1.2-0.7-2-1-3.5-1c-2.6,0-4.3,1.9-4.3,4.6c0,2.8,2,4.5,4.6,4.5c1.3,0,2.3-0.3,3.3-0.7L734.4,14.5z"/>
	<path class="st0" d="M744.3,0.4c4.8,0,7.2,2.8,7.2,7.3c0,4.5-2.5,7.3-7.2,7.3c-4.7,0-7.2-2.8-7.2-7.3C737,3.2,739.5,0.4,744.3,0.4
		 M744.3,12.3c2.3,0,3.3-2.2,3.3-4.5c0-2.4-0.9-4.5-3.3-4.5c-2.3,0-3.3,2.1-3.3,4.5C741,10.1,741.9,12.3,744.3,12.3"/>
	<polygon class="st0" points="755.8,0.7 761.5,0.7 764.5,10.2 764.5,10.2 767.5,0.7 773.3,0.7 773.3,14.8 769.6,14.8 769.6,3.6 
		769.6,3.6 765.9,14.8 762.7,14.8 759.3,3.6 759.3,3.6 759.4,14.8 755.8,14.8 	"/>
</g>
</svg>
