<?xml version="1.0" encoding="utf-8"?>
<!-- Generator: Adobe Illustrator 24.1.1, SVG Export Plug-In . SVG Version: 6.00 Build 0)  -->
<svg version="1.1" id="Capa_1" xmlns="http://www.w3.org/2000/svg" xmlns:xlink="http://www.w3.org/1999/xlink" x="0px" y="0px"
	 viewBox="0 0 512 512" style="enable-background:new 0 0 512 512;" xml:space="preserve">
<style type="text/css">
	.st0{fill:#00B1EC;}
	.st1{fill:#FFFFFF;}
	.st2{fill:#FFFFFF;stroke:#0054A6;stroke-width:15.0778;stroke-miterlimit:10;}
	.st3{fill:none;stroke:#FC1F25;stroke-width:5.6526;stroke-linecap:round;stroke-linejoin:round;}
</style>
<g>
	<path class="st0" d="M362,52.2c36.3,0,65.7,29.4,65.7,65.7s-29.4,65.7-65.7,65.7l0,0H68.2c-36.3,0-65.7-29.4-65.7-65.7
		c0-36.3,29.4-65.7,65.7-65.7L362,52.2z"/>
	<circle class="st1" cx="109.7" cy="116.4" r="15.7"/>
	<circle class="st1" cx="166.9" cy="117.9" r="15.7"/>
	<path class="st0" d="M362,205.4c36.3,0.5,65.3,30.3,64.8,66.6c-0.5,35.6-29.2,64.3-64.8,64.8H68.2c-36.3-0.5-65.3-30.3-64.8-66.6
		c0.5-35.6,29.2-64.3,64.8-64.8H362z"/>
	
		<ellipse transform="matrix(7.088908e-02 -0.9975 0.9975 7.088908e-02 -167.0334 359.9656)" class="st1" cx="109.7" cy="269.6" rx="15.7" ry="15.7"/>
	<circle class="st1" cx="166.9" cy="271.1" r="15.7"/>
	<path class="st0" d="M362,358.6c36.3,0.5,65.3,30.3,64.8,66.6c-0.5,35.6-29.2,64.3-64.8,64.8H68.2c-36.3-0.5-65.3-30.3-64.8-66.6
		c0.5-35.6,29.2-64.3,64.8-64.8H362z"/>
	
		<ellipse transform="matrix(7.088908e-02 -0.9975 0.9975 7.088908e-02 -319.843 502.3008)" class="st1" cx="109.7" cy="422.8" rx="15.7" ry="15.7"/>
	<circle class="st1" cx="166.9" cy="424.3" r="15.7"/>
	<path class="st2" d="M380.3,22L380.3,22c59.2,0,107.1,48,107.1,107.1v0c0,59.2-48,107.1-107.1,107.1h0
		c-59.2,0-107.1-48-107.1-107.1v0C273.2,69.9,321.1,22,380.3,22z"/>
	<path class="st3" d="M471.8,222.6c-8.7,8.7-18.5,16-29.3,21.9"/>
	<path class="st3" d="M509.1,120.9c2.3,28.7-5,57.4-20.9,81.4c-1.4,2.1-2.8,4.1-4.3,6.1"/>
	<path class="st0" d="M445.1,120.9c-0.4-2.8-3.1-4.7-5.9-4.3c-2.8,0.4-4.7,3.1-4.3,5.9v0.1c5.3,30.8-15.4,60-46.2,65.2
		s-60-15.4-65.2-46.2c-5.3-30.8,15.4-60,46.2-65.2c18.9-3.2,38.2,3.4,51.1,17.5l-22.7,7.6c-2.7,0.9-4.1,3.8-3.3,6.5c0,0,0,0,0,0l0,0
		c0.9,2.7,3.8,4.1,6.5,3.3c0,0,0,0,0,0l0,0l30.8-10.2c2.1-0.7,3.5-2.7,3.5-4.9V65.3c0-2.8-2.3-5.1-5.1-5.1c-2.8,0-5.1,2.3-5.1,5.1
		v18.7C399.1,59,357.3,60,332.2,86.4s-24.1,68.2,2.3,93.3s68.2,24.1,93.3-2.3C442.2,162.4,448.6,141.4,445.1,120.9L445.1,120.9z"/>
</g>
</svg>
