<svg id="Capa_1" data-name="Capa 1" xmlns="http://www.w3.org/2000/svg" viewBox="0 0 512 512"><defs><style>.cls-1{fill:#bbbdc2;}.cls-2{fill:#1f2f59;}.cls-3{fill:#fff;stroke:#0054a6;stroke-width:14.12px;}.cls-3,.cls-5{stroke-miterlimit:10;}.cls-4,.cls-5,.cls-6,.cls-7,.cls-9{fill:none;stroke-linecap:round;}.cls-4,.cls-5{stroke:#09afea;stroke-width:10.09px;}.cls-4,.cls-6,.cls-7,.cls-9{stroke-linejoin:round;}.cls-6,.cls-7{stroke:#fc1f25;}.cls-6{stroke-width:13.11px;}.cls-7{stroke-width:13.09px;}.cls-8{fill:#ff1634;}.cls-9{stroke:#002c60;stroke-width:14.23px;}</style></defs><ellipse id="Elipse_6" data-name="Elipse 6" class="cls-1" cx="256" cy="503.48" rx="176.81" ry="7.52"/><path class="cls-2" d="M414.66,102.85A222.73,222.73,0,0,0,271.82,37.68L294,15.51a7.24,7.24,0,0,0,0-10.23h0a7.24,7.24,0,0,0-10.24,0l-36,36a6.42,6.42,0,0,0,0,9.1l36,36a7.25,7.25,0,0,0,10.24,0h0a7.25,7.25,0,0,0,0-10.24l-24-24c109.57,7.23,196.45,98.89,196,210.37-.51,114.92-94.39,208.64-209.31,209-116,.33-210.51-94-210.51-209.91,0-2.32,0-4.67.12-7a7.2,7.2,0,0,0-6.69-7.45H39.4a7.19,7.19,0,0,0-7.66,6.88c-.08,2.53-.13,5.07-.13,7.58a224.39,224.39,0,0,0,448.78,0A223,223,0,0,0,414.66,102.85Z"/><rect class="cls-3" x="89.37" y="98.15" width="333.25" height="333.25" rx="166.63"/><line class="cls-4" x1="122.19" y1="264.78" x2="154.16" y2="264.78"/><line class="cls-4" x1="353.11" y1="264.78" x2="385.08" y2="264.78"/><line class="cls-4" x1="256" y1="133.33" x2="256" y2="165.31"/><line class="cls-5" x1="256" y1="364.25" x2="256" y2="396.22"/><line class="cls-4" x1="157.66" y1="175.87" x2="180.27" y2="198.48"/><line class="cls-4" x1="323.97" y1="341.17" x2="346.58" y2="363.78"/><line class="cls-4" x1="346.58" y1="171.83" x2="323.97" y2="194.44"/><line class="cls-4" x1="183.3" y1="335.12" x2="160.69" y2="357.72"/><circle class="cls-4" cx="256" cy="273.57" r="16.99"/><line class="cls-6" x1="256" y1="185.28" x2="256" y2="273.57"/><line class="cls-7" x1="255.95" y1="274.05" x2="312.45" y2="330.55"/><circle class="cls-8" cx="256" cy="273.66" r="12.04"/><path class="cls-9" d="M66.72,153.41a216.31,216.31,0,0,0-24.57,67.16"/></svg>