<?xml version="1.0" encoding="utf-8"?>
<!-- Generator: Adobe Illustrator 24.1.1, SVG Export Plug-In . SVG Version: 6.00 Build 0)  -->
<svg version="1.1" id="Capa_1" xmlns="http://www.w3.org/2000/svg" xmlns:xlink="http://www.w3.org/1999/xlink" x="0px" y="0px"
	 viewBox="0 0 512 512" style="enable-background:new 0 0 512 512;" xml:space="preserve">
<style type="text/css">
	.st0{fill:#C92025;}
	.st1{fill:#7F7F7F;}
	.st2{fill:#E6E6E6;}
	.st3{fill:#ECEFF1;}
	.st4{fill:#D9D9D9;}
	.st5{fill:#00B0EC;}
	.st6{fill:none;stroke:#B0B0B0;stroke-width:7.6545;stroke-linecap:round;stroke-linejoin:round;}
	.st7{fill:#FC1F25;}
	.st8{fill:#F01D23;}
	.st9{fill:#00B1EC;}
	.st10{fill:none;stroke:#1F2F59;stroke-width:4.2129;stroke-linecap:round;stroke-linejoin:round;}
	.st11{fill:none;stroke:#FFFFFF;stroke-width:8.5922;stroke-linecap:round;stroke-linejoin:round;}
</style>
<polygon class="st0" points="391.9,166.6 121.1,163.5 54.4,243.9 438.4,243.9 "/>
<ellipse id="Elipse_6" class="st1" cx="257.6" cy="507.7" rx="101.3" ry="4.3"/>
<path class="st2" d="M294.4,14.2h-168c-13.2,0-24,10.8-24,24v336c0,13.2,10.8,24,24,24h240c13.3,0,24-10.7,24-24l0,0l0,0v-264
	L294.4,14.2z"/>
<path class="st3" d="M305.9,0h-168c-13.2,0-24,10.8-24,24v336c0,13.2,10.7,24,24,24h240c13.2,0,24-10.8,24-24V96L305.9,0z"/>
<path class="st4" d="M305.9,0v72c0,13.3,10.7,24,24,24l0,0h72L305.9,0z"/>
<path class="st5" d="M236.9,189.1c-1.5,3.3-3.6,6.2-6.2,8.6c-2.8,2.6-6,4.6-9.6,6c-4,1.6-8.2,2.6-12.5,3v14.3h-15v-14.6
	c-6.2-0.7-12.3-2.3-18.1-4.7c-5.7-2.3-11-5.3-15.9-9l11.3-16.5c3.6,2.8,7.5,5.3,11.5,7.4c3.8,2,7.8,3.4,12,4.3V165
	c-4.7-1.2-9.2-2.8-13.6-4.8c-3.5-1.5-6.8-3.7-9.7-6.3c-2.5-2.4-4.5-5.2-5.7-8.4c-1.4-3.6-2-7.4-1.9-11.2c-0.1-3.8,0.6-7.5,2.1-11
	c1.4-3.3,3.5-6.2,6.1-8.6c2.8-2.5,6-4.5,9.6-5.9c4-1.5,8.2-2.5,12.4-2.9v-8.4h15v8.7c9.7,1.3,18.9,5,26.8,10.7l-9.6,16.8
	c-2.8-1.9-5.8-3.6-8.8-5.1c-2.9-1.5-5.9-2.6-9.1-3.4V147c11,3,18.9,6.9,23.9,11.8c5,4.9,7.5,11.3,7.4,19.4
	C239.2,181.9,238.4,185.6,236.9,189.1z M194.3,123.9c-3.5,0.5-6,1.5-7.6,3.2c-1.5,1.6-2.4,3.7-2.3,5.9c0,2.1,0.7,4.1,2,5.7
	c1.4,1.6,4,3.2,7.9,4.7L194.3,123.9z M215.9,173.1c-1.4-1.6-4.1-3.2-8.1-4.7v20.2c6.8-1,10.2-4.2,10.2-9.3
	C218.1,177,217.4,174.8,215.9,173.1L215.9,173.1z"/>
<line class="st6" x1="272.9" y1="162.6" x2="360" y2="162.6"/>
<line class="st6" x1="272.9" y1="120.2" x2="360" y2="120.2"/>
<line class="st6" x1="272.4" y1="205.1" x2="360" y2="205.1"/>
<line class="st6" x1="156.7" y1="247.5" x2="360" y2="247.5"/>
<line class="st6" x1="154.5" y1="289.9" x2="360" y2="289.9"/>
<line class="st6" x1="154.5" y1="332.4" x2="360" y2="332.4"/>
<path class="st7" d="M438.4,243.9v218.9c0,6.5-2.6,12.7-7.2,17.2L270,243.9H438.4z"/>
<path class="st8" d="M270,243.9L431.2,480c-4.5,4.5-10.6,7-17,7H78.5c-6.4,0-12.5-2.5-17-7l175.6-236.1H270z"/>
<path class="st8" d="M270,243.9h-32.8l4.5-6c5-6.7,14.5-8,21.2-3c1.3,1,2.5,2.2,3.4,3.5L270,243.9z"/>
<path class="st7" d="M237.2,243.9L61.6,480c-4.6-4.5-7.2-10.7-7.2-17.1V243.9H237.2z"/>
<circle class="st9" cx="416.4" cy="235.5" r="69.4"/>
<path class="st10" d="M486.4,287.3c1.9-2.8,3.6-5.7,5.1-8.7"/>
<path class="st10" d="M494.4,272.3c2.8-6.5,4.7-13.4,5.9-20.3"/>
<path class="st10" d="M501.4,241.7c0.1-1.6,0.1-3.2,0.1-4.8c0-38.9-24.7-73.5-61.5-86.2"/>
<polyline class="st11" points="416.8,235.6 446.4,265.6 416.3,235.6 446.4,205.6 "/>
<polyline class="st11" points="416,235.4 386.5,205.4 416.5,235.4 386.5,265.5 "/>
</svg>
