<?xml version="1.0" encoding="utf-8"?>
<!-- Generator: Adobe Illustrator 24.1.1, SVG Export Plug-In . SVG Version: 6.00 Build 0)  -->
<svg version="1.1" id="Capa_1" xmlns="http://www.w3.org/2000/svg" xmlns:xlink="http://www.w3.org/1999/xlink" x="0px" y="0px"
	 viewBox="0 0 512 512" style="enable-background:new 0 0 512 512;" xml:space="preserve">
<style type="text/css">
	.st0{fill:#E6E6E6;}
	.st1{fill:#ECEFF1;}
	.st2{fill:#D9D9D9;}
	.st3{fill:#00B0EC;}
	.st4{fill:none;stroke:#B0B0B0;stroke-width:8.6778;stroke-linecap:round;stroke-linejoin:round;}
	.st5{fill:#FC1F25;}
	.st6{fill:none;stroke:#FC1F25;stroke-width:3.4823;stroke-linecap:round;stroke-linejoin:round;}
	.st7{fill:none;stroke:#FFFFFF;stroke-width:11.3146;stroke-linecap:round;stroke-linejoin:round;}
</style>
<path class="st0" d="M335.1,76.4H144.6c-15,0-27.2,12.2-27.2,27.2v381.2c0,15,12.2,27.2,27.2,27.2h272.3c15,0,27.2-12.2,27.2-27.2
	l0,0V185.3L335.1,76.4z"/>
<path class="st1" d="M348.2,60.4H157.6c-15,0-27.2,12.2-27.2,27.2v381.2c0,15,12.2,27.2,27.2,27.2h272.3c15,0,27.2-12.2,27.2-27.2
	V169.3L348.2,60.4z"/>
<path class="st2" d="M348.2,60.4v81.7c0,15,12.2,27.2,27.2,27.2h81.7L348.2,60.4z"/>
<path class="st3" d="M269.9,274.8c-1.7,3.7-4.1,7-7,9.8c-3.2,2.9-6.9,5.2-10.8,6.8c-4.6,1.8-9.3,3-14.2,3.4V311h-17v-16.5
	c-7-0.9-13.9-2.7-20.5-5.3c-6.5-2.6-12.5-6-18.1-10.2l12.8-18.6c4.1,3.1,8.5,6,13,8.4c4.3,2.3,8.9,3.9,13.7,4.8v-26
	c-5.3-1.4-10.5-3.2-15.5-5.4c-4-1.8-7.7-4.2-11-7.1c-2.8-2.7-5.1-5.9-6.5-9.6c-1.5-4-2.3-8.3-2.2-12.7c-0.1-4.3,0.7-8.5,2.4-12.5
	c1.6-3.7,4-7,6.9-9.8c3.2-2.9,6.8-5.2,10.8-6.7c4.5-1.8,9.3-2.9,14.1-3.4v-9.5h17v9.9c11,1.5,21.4,5.7,30.4,12.1L257.2,212
	c-3.2-2.1-6.5-4.1-10-5.8c-3.3-1.6-6.7-2.9-10.3-3.8V227c12.4,3.4,21.5,7.8,27.1,13.3s8.5,12.8,8.4,22
	C272.5,266.6,271.6,270.9,269.9,274.8z M221.6,200.9c-3.9,0.6-6.8,1.7-8.6,3.6c-1.8,1.8-2.7,4.2-2.7,6.7c0,2.4,0.8,4.7,2.3,6.5
	c1.5,1.9,4.5,3.6,9,5.2L221.6,200.9z M246.1,256.6c-1.6-1.9-4.7-3.6-9.2-5.2v22.9c7.7-1.2,11.6-4.7,11.6-10.6
	C248.6,261.1,247.8,258.6,246.1,256.6L246.1,256.6z"/>
<line class="st4" x1="310.8" y1="244.8" x2="409.6" y2="244.8"/>
<line class="st4" x1="310.8" y1="196.7" x2="409.6" y2="196.7"/>
<line class="st4" x1="310.2" y1="292.9" x2="409.6" y2="292.9"/>
<line class="st4" x1="179" y1="341.1" x2="409.6" y2="341.1"/>
<line class="st4" x1="176.5" y1="389.2" x2="409.6" y2="389.2"/>
<line class="st4" x1="176.5" y1="437.3" x2="409.6" y2="437.3"/>
<circle class="st5" cx="143.3" cy="93.1" r="82.9"/>
<path class="st6" d="M62.6,133.8c1.6,3,3.3,6,5.2,8.8"/>
<path class="st6" d="M53.7,106.8c1.2,7.1,3.2,14,6,20.6"/>
<path class="st6" d="M114.8,4.2c-37.3,12.8-62.3,48-62.3,87.4c0,1.6,0,3.2,0.1,4.8"/>
<polyline class="st7" points="103.9,53.6 143.5,93.2 103.9,132.7 142.8,93.2 "/>
<polyline class="st7" points="182.7,132.5 143.2,93 182.7,53.4 143.8,93 "/>
</svg>
