<?xml version="1.0" encoding="utf-8"?>
<!-- Generator: Adobe Illustrator 24.0.0, SVG Export Plug-In . SVG Version: 6.00 Build 0)  -->
<svg version="1.1" id="Capa_1" xmlns="http://www.w3.org/2000/svg" xmlns:xlink="http://www.w3.org/1999/xlink" x="0px" y="0px"
	 viewBox="0 0 512 512" style="enable-background:new 0 0 512 512;" xml:space="preserve">
<style type="text/css">
	.st0{fill:none;stroke:#0054A6;stroke-width:8.08;stroke-linecap:round;stroke-miterlimit:10;}
	.st1{fill:none;stroke:#0054A6;stroke-width:8.08;stroke-linecap:round;stroke-linejoin:round;}
	.st2{fill:#00B0EC;}
	.st3{fill:none;stroke:#FFFFFF;stroke-width:13;stroke-linecap:round;stroke-linejoin:round;stroke-dasharray:9.94,29.82;}
	.st4{fill:#FFFFFF;}
	.st5{fill:#FC1F25;}
	.st6{fill:none;stroke:#FFFFFF;stroke-width:10.04;stroke-linecap:round;stroke-linejoin:round;}
</style>
<path class="st0" d="M315.4,12.6c109.6,26.7,191,125.5,191,243.4c0,1.5,0,2.9,0,4.4"/>
<path class="st1" d="M452.1,411.8c-7.2,9.1-15.1,17.7-23.5,25.7"/>
<path class="st1" d="M462.8,397.3c-3.4,5-6.9,9.8-10.7,14.4"/>
<path class="st1" d="M480.4,367.4c-5.2,10.4-11,20.4-17.6,29.9"/>
<path class="st0" d="M500.6,310.1c-1.9,8.4-4.2,16.8-6.9,25"/>
<path class="st0" d="M504,291.3c-0.9,6.4-2,12.6-3.4,18.8"/>
<circle class="st2" cx="256" cy="256" r="236.7"/>
<circle class="st3" cx="256" cy="256" r="196.1"/>
<path class="st4" d="M331.4,321.4c-2.9,6.4-7.1,12.2-12.3,17c-5.6,5.1-12,9.1-19,11.9c-8,3.2-16.3,5.2-24.9,6v28.3h-29.7v-28.9
	c-12.3-1.5-24.4-4.6-35.9-9.3c-11.3-4.5-21.9-10.5-31.6-17.9l22.3-32.5c7.2,5.5,14.8,10.4,22.7,14.7c7.5,4,15.6,6.8,23.9,8.4v-45.4
	c-9.2-2.5-18.3-5.7-27-9.6c-7-3.1-13.5-7.3-19.1-12.4c-5-4.7-8.9-10.4-11.5-16.7c-2.7-7.1-4-14.6-3.9-22.1
	c-0.1-7.5,1.4-14.9,4.3-21.7c2.8-6.4,7-12.2,12.1-17c5.6-5,12-9,19-11.7c7.9-3.1,16.2-5,24.6-5.9V140h29.7v17.1
	c19.2,2.6,37.4,9.9,53.1,21.1l-19.1,33.4c-5.6-3.7-11.4-7.1-17.4-10.1c-5.7-2.9-11.8-5.1-18-6.7V238c21.7,5.9,37.5,13.7,47.3,23.3
	c9.8,9.6,14.7,22.4,14.7,38.4C335.9,307.2,334.4,314.6,331.4,321.4z M247,192.3c-6.9,1-11.9,3.1-15,6.3c-3.1,3.1-4.8,7.3-4.7,11.7
	c-0.1,4.2,1.3,8.2,4,11.4c2.7,3.2,7.9,6.3,15.7,9.1V192.3z M289.9,289.7c-2.9-3.2-8.2-6.3-16-9.1v40c13.5-2.1,20.3-8.3,20.3-18.6
	C294.3,297.5,292.8,293.1,289.9,289.7L289.9,289.7z"/>
<circle class="st5" cx="422.9" cy="426.1" r="73.6"/>
<polyline class="st6" points="388,391.1 423.1,426.2 388,461.3 422.5,426.2 "/>
<polyline class="st6" points="457.9,461.1 422.8,426 457.9,390.9 423.4,426 "/>
</svg>
