<svg id="Capa_1" data-name="Capa 1" xmlns="http://www.w3.org/2000/svg" viewBox="0 0 512 512"><defs><style>.cls-1{fill:#0054a6;}.cls-2{fill:#09afea;}.cls-3,.cls-6{fill:#fff;}.cls-4{fill:#0059ea;}.cls-5{fill:#bdbdbd;}.cls-6{stroke:#bdbdbd;stroke-miterlimit:10;stroke-width:1.04px;}.cls-7{fill:#fa1f25;}.cls-8{fill:#002c60;}</style></defs><rect class="cls-1" x="224.06" y="386.82" width="96.46" height="22.07"/><path class="cls-2" d="M93.13,162.05H444.49a10.38,10.38,0,0,1,10.38,10.38V382.85a10.38,10.38,0,0,1-10.38,10.38H82.75a0,0,0,0,1,0,0V172.43A10.38,10.38,0,0,1,93.13,162.05Z"/><path class="cls-3" d="M106.39,175.61H431.23a7,7,0,0,1,7,7V373.43a7,7,0,0,1-7,7H99.4a0,0,0,0,1,0,0V182.59A7,7,0,0,1,106.39,175.61Z"/><path class="cls-4" d="M168.78,408.9H372.56a3.24,3.24,0,0,1,3.24,3.24v10.18a0,0,0,0,1,0,0H172a3.24,3.24,0,0,1-3.24-3.24V408.9A0,0,0,0,1,168.78,408.9Z"/><path class="cls-5" d="M389.66,234.35H145.37a11.15,11.15,0,0,1-11.14-11.14v-1.08A11.16,11.16,0,0,1,145.37,211H389.66a11.16,11.16,0,0,1,11.14,11.14v1.08A11.15,11.15,0,0,1,389.66,234.35ZM145.37,212.82a9.33,9.33,0,0,0-9.31,9.31v1.08a9.33,9.33,0,0,0,9.31,9.32H389.66a9.33,9.33,0,0,0,9.32-9.32v-1.08a9.33,9.33,0,0,0-9.32-9.31Z"/><path class="cls-5" d="M213.82,315H136a1.09,1.09,0,0,1,0-2.17h77.78a1.09,1.09,0,0,1,0,2.17Z"/><path class="cls-5" d="M213.82,346.59H136a1.09,1.09,0,0,1,0-2.17h77.78a1.09,1.09,0,0,1,0,2.17Z"/><path class="cls-6" d="M79,328.53,64.69,314.28V280.81a1,1,0,0,0-1-1h-53A4.62,4.62,0,0,0,6,284.42v53.27a.79.79,0,0,0,.79.79H61.12a3.57,3.57,0,0,0,3.57-3.58v-4.83H78.31A.9.9,0,0,0,79,328.53Z"/><path class="cls-7" d="M51.41,326.9a3.16,3.16,0,0,1-2.25-.93L19.89,296.7a3.19,3.19,0,0,1,4.51-4.5l29.26,29.26a3.19,3.19,0,0,1-2.25,5.44Z"/><path class="cls-7" d="M22.15,326.9a3.19,3.19,0,0,1-2.26-5.44L49.16,292.2a3.18,3.18,0,0,1,4.5,4.5L24.4,326A3.18,3.18,0,0,1,22.15,326.9Z"/><path class="cls-3" d="M472.12,194.6a2.15,2.15,0,0,1-2.15-2.15,40.44,40.44,0,0,0-40.39-40.4,2.15,2.15,0,1,1,0-4.3,44.75,44.75,0,0,1,44.7,44.7A2.16,2.16,0,0,1,472.12,194.6Z"/><path class="cls-7" d="M368.45,89.68H506.71a2.76,2.76,0,0,1,2.76,2.76v98.4a9.77,9.77,0,0,1-9.77,9.77H358a2.16,2.16,0,0,1-2.16-2.16V102.3A12.61,12.61,0,0,1,368.45,89.68Z"/><path class="cls-7" d="M386.4,200.61v20.32a1.33,1.33,0,0,0,2.27.94l22.95-23Z"/><path class="cls-3" d="M480.44,122.48H383.29a1.3,1.3,0,1,1,0-2.59h97.15a1.3,1.3,0,1,1,0,2.59Z"/><path class="cls-3" d="M481.22,146.44H384.07a1.3,1.3,0,0,1,0-2.59h97.15a1.3,1.3,0,1,1,0,2.59Z"/><path class="cls-3" d="M482,170.4H384.86a1.3,1.3,0,1,1,0-2.59H482a1.3,1.3,0,1,1,0,2.59Z"/><path class="cls-6" d="M78.15,243.67,64.69,230.21V196.06a1,1,0,0,0-1-1h-53A4.62,4.62,0,0,0,6,199.67v53.27a.79.79,0,0,0,.79.79H61.12a3.57,3.57,0,0,0,3.57-3.58v-4.94H77.52A.9.9,0,0,0,78.15,243.67Z"/><path class="cls-2" d="M26.86,240.13h-.13a3.17,3.17,0,0,1-2.26-1.07l-9.56-10.81A3.19,3.19,0,0,1,19.69,224L27,232.34l24.16-23.43a3.19,3.19,0,1,1,4.44,4.58L29.07,239.23A3.16,3.16,0,0,1,26.86,240.13Z"/><path class="cls-7" d="M144.83,191a30.61,30.61,0,1,1-30.61,30.61A30.62,30.62,0,0,1,144.83,191Zm25.65,30.61a25.65,25.65,0,1,0-25.65,25.65A25.65,25.65,0,0,0,170.48,221.57Z"/><path class="cls-7" d="M170.73,246.84h4.81a2.26,2.26,0,0,1,2.26,2.26v33.17a0,0,0,0,1,0,0h-9.34a0,0,0,0,1,0,0V249.1a2.26,2.26,0,0,1,2.26-2.26Z" transform="translate(-121.8 150.64) rotate(-35.68)"/><path class="cls-8" d="M242.47,278.25h-7.78V260.3h37.45c17.11,0,29.07,7.66,29.07,22.37,0,9.58-5.5,15.8-9.93,18.19v.24c9.81,3,13.4,11.73,13.4,19.26,0,18.67-15.55,25.49-32.54,25.49H251.2c-6.1,0-8.73-2.64-8.73-8.74Zm29.91,15.19c5,0,7.3-3.83,7.3-7.89s-2.28-7.3-7.66-7.3h-8.14v15.19Zm-5.86,34.46h7.65c5.75,0,8.5-4.19,8.5-9s-2.63-8.74-8.38-8.74H263.88v15.08A2.4,2.4,0,0,0,266.52,327.9Z"/><path class="cls-8" d="M356,258.87c10.17,0,32.78,3.94,32.78,20v11.24H369.65v-4.66c0-4.91-7.66-6.82-13.17-6.82-12.44,0-22.49,8-22.49,23.57,0,14,10.41,25.36,23,25.36,15,0,24.41-10.89,24.41-10.89L392.26,332a49.14,49.14,0,0,1-35.66,15.31c-27,0-44.86-19.38-44.86-45.1C311.74,277.65,330.52,258.87,356,258.87Z"/></svg>