<svg id="Capa_1" data-name="Capa 1" xmlns="http://www.w3.org/2000/svg" viewBox="0 0 512 512"><defs><style>.cls-1{fill:#ff1634;}.cls-2{fill:#fff;}</style></defs><path class="cls-1" d="M499.42,257.57c0,135.3-109.68,245-245,245-48.61,0-96.08-32.36-141.32-31.59-25.76.44-97.9,29.7-97.9,29.7S59,406.33,49.53,391.91A243.88,243.88,0,0,1,9.45,257.57c0-135.31,109.68-245,245-245S499.42,122.26,499.42,257.57Z"/><path class="cls-1" d="M256,0C118,0,0,117.8,0,256c0,47.21,13.53,97.41,36.34,135.38L.51,498.84a10,10,0,0,0,12.65,12.64l107.46-35.82C158.59,498.48,208.79,512,256,512c138,0,256-117.82,256-256C512,118,394.19,0,256,0Zm0,492c-45.28,0-93.42-13.36-128.76-35.75a10,10,0,0,0-8.51-1l-92.92,31,31-92.92a10,10,0,0,0-1-8.51C33.36,349.42,20,301.29,20,256,20,128.07,128.07,20,256,20S492,128.07,492,256,383.93,492,256,492Z"/><path class="cls-2" d="M306,346H296V216a10,10,0,0,0-10-10H206a10,10,0,0,0-10,10v40a10,10,0,0,0,10,10h10v80H206a10,10,0,0,0-10,10v40a10,10,0,0,0,10,10H306a10,10,0,0,0,10-10V356A10,10,0,0,0,306,346Zm-10,40H216V366h10a10,10,0,0,0,10-10V256a10,10,0,0,0-10-10H216V226h60V356a10,10,0,0,0,10,10h10Z"/><path class="cls-2" d="M256,186a40,40,0,1,0-40-40A40.05,40.05,0,0,0,256,186Zm0-60a20,20,0,1,1-20,20A20,20,0,0,1,256,126Z"/></svg>