<?xml version="1.0" encoding="utf-8"?>
<!-- Generator: Adobe Illustrator 24.1.1, SVG Export Plug-In . SVG Version: 6.00 Build 0)  -->
<svg version="1.1" id="Capa_1" xmlns="http://www.w3.org/2000/svg" xmlns:xlink="http://www.w3.org/1999/xlink" x="0px" y="0px"
	 viewBox="0 0 512 512" style="enable-background:new 0 0 512 512;" xml:space="preserve">
<style type="text/css">
	.st0{fill:#00B2EF;}
	.st1{fill:#0054A6;}
	.st2{fill:#FFFFFF;}
	.st3{fill:#002C60;}
	.st4{fill:#0059ED;}
	.st5{fill:none;stroke:#FC1F25;stroke-width:8.57;stroke-linecap:round;stroke-linejoin:round;}
	.st6{fill:#FC1F25;}
</style>
<path class="st0" d="M0.7,406.3h473.5c0,19.3-15.6,34.9-34.9,34.9H35.6C16.3,441.2,0.7,425.6,0.7,406.3
	C0.7,406.3,0.7,406.3,0.7,406.3L0.7,406.3"/>
<path class="st1" d="M451.9,406.3H23V157.8c0-7.3,6-13.3,13.3-13.3h402.3c7.3,0,13.3,6,13.3,13.3L451.9,406.3z"/>
<path class="st2" d="M51.3,165.9h372.2c4.8,0,8.7,3.9,8.7,8.7v210.7c0,4.8-3.9,8.7-8.7,8.7H51.3c-4.8,0-8.7-3.9-8.7-8.7V174.7
	C42.6,169.9,46.5,165.9,51.3,165.9z"/>
<path class="st3" d="M281.3,418.8h-87.6c-3.7,0-6.7-3-6.7-6.7l0,0v-5.2H288v5.2C288,415.8,285,418.8,281.3,418.8
	C281.3,418.8,281.3,418.8,281.3,418.8z"/>
<circle class="st4" cx="238" cy="282" r="97"/>
<g>
	<path class="st2" d="M209.2,266.8c-0.2-3.9,2.8-7.1,6.7-7.3c0.2,0,0.4,0,0.5,0h20.8c3.4-0.2,6.4,2.5,6.5,6c0.2,3.4-2.5,6.4-6,6.5
		c-0.2,0-0.4,0-0.6,0h-13.5v5.9h11c3.1,0,5.6,2.5,5.6,5.5c0,3.1-2.5,5.6-5.5,5.6c0,0,0,0,0,0h-11v8.1c0,4-3.3,7.3-7.3,7.3
		s-7.3-3.3-7.3-7.3L209.2,266.8z"/>
	<path class="st2" d="M275.7,285.2V298c0.1,3.3-2.4,6-5.7,6.2c-0.2,0-0.4,0-0.6,0c-2.1,0.1-4.1-0.9-5.3-2.6c-2.6,2-5.8,3.1-9.1,3
		c-7.7,0-12.4-4-12.4-10s5.2-10.4,12.9-10.4c2.2,0,4.4,0.3,6.5,1c0-2-2.2-3.7-5.2-3.7c-3,0-4.1,1.1-6.4,1.1c-2.7,0.2-5-1.9-5.2-4.6
		c0-0.2,0-0.3,0-0.5c0.2-2.1,1.3-3.9,3.2-5c1.3-0.9,4.4-2.4,11.4-2.4C269.4,270,275.7,275.9,275.7,285.2 M262.3,293.9
		c-0.1-1.5-1.4-2.6-2.9-2.6c-1.4-0.2-2.7,0.8-2.9,2.2c-0.2,1.4,0.8,2.7,2.2,2.9c0.2,0,0.5,0,0.7,0
		C260.9,296.6,262.2,295.4,262.3,293.9"/>
	<path class="st2" d="M314.8,282.2v15.2c-0.2,3.8-3.4,6.7-7.2,6.6c-3.6-0.2-6.4-3-6.6-6.6v-10.7c0-2.6-1.2-4-3.5-4
		c-1.8-0.1-3.3,1.3-3.4,3.1c0,0.2,0,0.4,0,0.5v11.1c0,3.8-3.1,6.9-6.9,6.9c-3.8,0-6.9-3.1-6.9-6.9v-20.6c-0.1-3.4,2.5-6.3,6-6.5
		c0.2,0,0.3,0,0.5,0c2.9-0.1,5.4,1.8,6.2,4.5c2.3-3.1,5.9-4.9,9.7-4.8C309.9,270,314.8,274.9,314.8,282.2"/>
	<path class="st0" d="M199.2,278.7c2.6,0,4.7-2.1,4.7-4.7c0-2.6-2.1-4.7-4.7-4.7h-1l0.7-3.4c0.6-2.7-1.2-5.5-3.9-6.1
		c-2.7-0.6-5.5,1.2-6.1,3.9l0,0l-1.2,5.5h-5.3l0.7-3.4c0.5-2.8-1.4-5.4-4.1-5.9c-2.6-0.5-5.2,1.2-5.8,3.8l-1.2,5.5H169
		c-2.6,0-4.7,2.1-4.7,4.7c0,2.6,2.1,4.7,4.7,4.7h1.1l-1.3,6.2h-2.8c-2.6,0-4.7,2.1-4.7,4.7c0,2.6,2.1,4.7,4.7,4.7h0.8l-0.7,3.4
		c-0.5,2.8,1.4,5.4,4.1,5.9c2.6,0.5,5.2-1.2,5.8-3.8l1.2-5.6h5.3l-0.7,3.4c-0.6,2.7,1.2,5.5,3.9,6c2.7,0.6,5.5-1.2,6-3.9l1.2-5.6
		h3.4c2.6,0.1,4.8-1.9,4.9-4.5c0.1-2.6-1.9-4.8-4.5-4.9c-0.2,0-0.3,0-0.5,0h-1.3l1.3-6.2L199.2,278.7z M184.4,284.9h-5.3l1.3-6.2
		h5.3L184.4,284.9z"/>
</g>
<line class="st5" x1="485.5" y1="116.9" x2="460.3" y2="137.3"/>
<line class="st5" x1="507.5" y1="171.7" x2="475.1" y2="171.5"/>
<line class="st5" x1="431.4" y1="89.6" x2="431.4" y2="121.9"/>
<path class="st1" d="M379.6,190.5c0,2.2-1.8,4-4,4s-4-1.8-4-4s1.8-4,4-4S379.6,188.3,379.6,190.5"/>
<path class="st0" d="M393.6,190.5c0,2.2-1.8,4-4,4s-4-1.8-4-4s1.8-4,4-4S393.6,188.3,393.6,190.5"/>
<path class="st6" d="M407.6,190.5c0,2.2-1.8,4-4,4s-4-1.8-4-4s1.8-4,4-4S407.6,188.3,407.6,190.5"/>
</svg>
