<?xml version="1.0" encoding="utf-8"?>
<!-- Generator: Adobe Illustrator 24.1.1, SVG Export Plug-In . SVG Version: 6.00 Build 0)  -->
<svg version="1.1" id="Capa_1" xmlns="http://www.w3.org/2000/svg" xmlns:xlink="http://www.w3.org/1999/xlink" x="0px" y="0px"
	 viewBox="0 0 512 512" style="enable-background:new 0 0 512 512;" xml:space="preserve">
<style type="text/css">
	.st0{fill:#1F2F59;}
	.st1{fill:#FFFFFF;}
	.st2{fill:#0059EA;}
	.st3{fill:#EBEBEB;}
	.st4{fill:#00B0EA;}
	.st5{fill:#174A9A;}
	.st6{fill:#FC1F25;}
	.st7{fill:none;stroke:#FC1F25;stroke-width:1.3277;stroke-linecap:round;stroke-linejoin:round;}
	.st8{fill:none;stroke:#FFFFFF;stroke-width:4.318;stroke-linecap:round;stroke-linejoin:round;}
</style>
<path class="st0" d="M143,0h226c19.1,0,34.6,15.5,34.6,34.6v442.7c0,19.1-15.5,34.6-34.6,34.6H143c-19.1,0-34.6-15.5-34.6-34.6V34.6
	C108.4,15.5,123.9,0,143,0z"/>
<path class="st1" d="M158.2,26.9h195.6c11.3,0,20.5,9.2,20.5,20.5v357.5c0,11.3-9.2,20.5-20.5,20.5H158.2
	c-11.3,0-20.5-9.2-20.5-20.5V47.3C137.7,36,146.9,26.9,158.2,26.9z"/>
<path class="st2" d="M274.6,472.1c0,10.3-8.3,18.6-18.6,18.6c-10.3,0-18.6-8.3-18.6-18.6s8.3-18.6,18.6-18.6c0,0,0,0,0,0l0,0
	C266.3,453.5,274.6,461.8,274.6,472.1"/>
<g>
	<circle class="st3" cx="253.9" cy="232.7" r="101.3"/>
	<path class="st4" d="M226,213.2c-0.1-3.5,2.6-6.5,6.1-6.6c0.2,0,0.3,0,0.5,0h18.9c3.1,0,5.7,2.5,5.7,5.7c0,3.1-2.5,5.7-5.7,5.7l0,0
		h-12.2v5.4h10c2.8,0,5.1,2.3,5.1,5.1c0,2.8-2.3,5.1-5.1,5.1h-10v7.3c-0.2,3.7-3.2,6.5-6.9,6.3c-3.4-0.1-6.2-2.9-6.3-6.3L226,213.2z
		"/>
	<path class="st4" d="M286.6,230v11.7c0.1,3-2.2,5.5-5.1,5.6c-0.2,0-0.3,0-0.5,0c-1.9,0.1-3.7-0.8-4.8-2.4c-2.4,1.9-5.3,2.8-8.4,2.7
		c-7,0-11.3-3.6-11.3-9.1s4.8-9.5,11.7-9.5c2,0,4,0.2,5.9,0.9c0-1.8-2-3.3-4.8-3.3s-3.8,1-5.8,1c-2.5,0.2-4.6-1.7-4.8-4.1
		c0-0.2,0-0.4,0-0.5c0.1-1.9,1.2-3.6,2.9-4.5c1.2-0.8,4.1-2.2,10.4-2.2c8.8,0,14.5,5.3,14.5,13.9 M274.2,238
		c-0.1-1.4-1.3-2.4-2.7-2.3c-1.3-0.3-2.6,0.4-2.9,1.7c-0.3,1.3,0.4,2.6,1.7,2.9c0.4,0.1,0.8,0.1,1.2,0
		C273,240.4,274.1,239.4,274.2,238"/>
	<path class="st4" d="M322.2,227.3v13.8c0.2,3.4-2.5,6.4-6,6.5c-3.4,0.2-6.4-2.5-6.5-6c0-0.2,0-0.4,0-0.5v-9.8c0-2.4-1-3.6-3.2-3.6
		c-1.6-0.1-3,1.2-3.1,2.8c0,0.2,0,0.3,0,0.5v10.1c0,3.4-2.8,6.2-6.2,6.2s-6.2-2.8-6.2-6.2v-18.8c-0.1-3.1,2.3-5.8,5.4-5.9
		c0.1,0,0.3,0,0.4,0c2.6-0.1,4.9,1.6,5.6,4.1c2.1-2.8,5.4-4.4,8.8-4.4C317.7,216.2,322.2,220.6,322.2,227.3"/>
	<path class="st5" d="M216.9,224.1c2.4,0.1,4.4-1.7,4.5-4c0.1-2.4-1.7-4.4-4-4.5c-0.2,0-0.3,0-0.5,0h-1l0.7-3.1
		c0.5-2.5-1.2-4.9-3.7-5.4c-2.4-0.4-4.7,1.1-5.3,3.4l-1.1,5h-4.8l0.7-3.1c0.6-2.5-0.8-5-3.3-5.7s-5,0.8-5.7,3.3
		c0,0.1-0.1,0.3-0.1,0.4l-1.1,5h-2.9c-2.4,0-4.3,1.9-4.3,4.3c0,2.4,1.9,4.3,4.3,4.3h1l-1.2,5.7h-2.6c-2.4,0-4.3,1.9-4.3,4.3
		c0,2.4,1.9,4.3,4.3,4.3h0.7l-0.7,3.1c-0.5,2.5,1.2,4.9,3.7,5.4c2.4,0.4,4.7-1.1,5.3-3.4l1.1-5.1h4.8l-0.7,3.1
		c-0.6,2.5,0.8,5,3.3,5.7s5-0.8,5.7-3.3c0-0.1,0.1-0.3,0.1-0.4l1.1-5.1h3.1c2.4,0.1,4.4-1.7,4.5-4c0.1-2.4-1.7-4.4-4-4.5
		c-0.2,0-0.3,0-0.5,0h-1.2l1.2-5.7L216.9,224.1z M203.4,229.7h-4.8l1.2-5.7h4.8L203.4,229.7z"/>
	<circle class="st6" cx="324.8" cy="155.9" r="31.6"/>
	<path class="st7" d="M353.6,174.7c0.7-1.1,1.4-2.2,1.9-3.4"/>
	<path class="st7" d="M356.7,169c1.1-2.5,1.8-5.2,2.3-7.9"/>
	<path class="st7" d="M359.4,157.2c0-0.6,0-1.2,0-1.8c0-15-9.5-28.4-23.8-33.3"/>
	<polyline class="st8" points="325,155.9 339.8,171 324.7,155.9 339.8,140.8 	"/>
	<polyline class="st8" points="324.6,155.8 309.7,140.8 324.8,155.8 309.7,170.9 	"/>
</g>
</svg>
