<?xml version="1.0" encoding="utf-8"?>
<!-- Generator: Adobe Illustrator 24.1.1, SVG Export Plug-In . SVG Version: 6.00 Build 0)  -->
<svg version="1.1" id="Capa_1" xmlns="http://www.w3.org/2000/svg" xmlns:xlink="http://www.w3.org/1999/xlink" x="0px" y="0px"
	 viewBox="0 0 512 512" style="enable-background:new 0 0 512 512;" xml:space="preserve">
<style type="text/css">
	.st0{fill:#C1C1C1;}
	.st1{fill:#1F2F59;}
	.st2{fill:#FFFFFF;stroke:#FF1634;stroke-width:15.2832;stroke-miterlimit:10;}
	.st3{fill:#00B0EA;}
	.st4{fill:#174A9A;}
</style>
<ellipse id="Elipse_6" class="st0" cx="206" cy="490.9" rx="176.8" ry="10.3"/>
<path class="st1" d="M309.7,364.3l99.2,98.9c17.4,15.5,44.1,14.1,59.6-3.4c14.3-16,14.3-40.3,0-56.3l-99.1-99.2
	C354.3,328.7,333.8,349.1,309.7,364.3z"/>
<path class="st2" d="M338.3,68.2C264.2-6,143.9-6.1,69.7,68s-74.3,194.4-0.1,268.6c59.3,59.5,150.7,72.8,224.7,32.9
	c32.7-17.5,59.3-44.1,76.8-76.8C410.8,218.7,397.5,127.5,338.3,68.2z"/>
<path class="st3" d="M153.2,173.8c-0.2-6.4,4.7-11.7,11-11.9c0.3,0,0.6,0,0.9,0h34c5.7-0.2,10.4,4.1,10.7,9.8
	c0.2,5.7-4.1,10.4-9.8,10.7c-0.3,0-0.7,0-0.9,0h-22v9.6h18c5,0,9.1,4.1,9.1,9.1c0,5-4.1,9.1-9.1,9.1l0,0h-18v13.2
	c0,6.6-5.3,11.9-11.9,11.9s-11.9-5.3-11.9-11.9L153.2,173.8z"/>
<path class="st3" d="M262.3,204.1v21c0.2,5.3-4,9.9-9.3,10.1c-0.3,0-0.6,0-0.9,0c-3.4,0.1-6.7-1.5-8.6-4.3c-4.2,3.4-9.5,5.1-15,4.9
	c-12.7,0-20.4-6.5-20.4-16.3s8.5-17,21.1-17c3.6-0.1,7.1,0.5,10.6,1.6c0-3.2-3.6-6-8.5-6s-6.8,1.7-10.6,1.7
	c-4.4,0.2-8.3-3.1-8.5-7.6c0-0.2,0-0.6,0-0.8c0.2-3.4,2.2-6.5,5.2-8.2c2.2-1.5,7.3-4,18.7-4C251.9,179.1,262.3,188.7,262.3,204.1
	 M240.2,218.4c-0.2-2.5-2.3-4.3-4.8-4.2c-2.3-0.3-4.4,1.2-4.8,3.5c-0.3,2.3,1.2,4.4,3.5,4.8c0.5,0.1,0.8,0.1,1.2,0
	C238,222.6,240,220.8,240.2,218.4"/>
<path class="st3" d="M326.4,199.1V224c-0.2,6.2-5.6,11-11.7,10.8c-5.8-0.2-10.4-4.9-10.8-10.8v-17.6c0-4.3-1.9-6.5-5.7-6.5
	c-2.9-0.1-5.4,2.2-5.6,5.1c0,0.3,0,0.6,0,0.9v18.2c0,6.2-5,11.2-11.2,11.2s-11.2-5-11.2-11.2v-33.8c-0.2-5.7,4.1-10.3,9.8-10.6
	c0.2,0,0.5,0,0.8,0c4.7-0.2,8.8,2.8,10.1,7.4c3.7-5,9.6-7.9,15.9-7.9C318.3,179.1,326.4,187.1,326.4,199.1"/>
<path class="st4" d="M137,193.3c4.2,0,7.7-3.4,7.7-7.7c0-4.2-3.4-7.7-7.7-7.7h-1.7l1.2-5.4c1-4.5-1.9-9-6.4-9.9
	c-4.5-1-9,1.9-9.9,6.4l0,0l-1.9,9.1h-8.6l1.2-5.4c0.8-4.5-2.3-8.8-6.8-9.6c-4.3-0.8-8.5,1.9-9.5,6.1l-1.9,9.1h-5.1
	c-4.2,0-7.7,3.4-7.7,7.7c0,4.2,3.4,7.7,7.7,7.7h1.7l-2.2,10.2h-4.7c-4.2,0-7.7,3.4-7.7,7.7c0,4.2,3.4,7.7,7.7,7.7h1.2l-1.2,5.6
	c-0.8,4.5,2.3,8.8,6.8,9.6c4.3,0.8,8.5-1.9,9.5-6.1l1.9-9.1h8.6l-1.2,5.6c-1,4.5,1.9,9,6.4,9.9c4.5,1,9-1.9,9.9-6.4l1.9-9.1h5.6
	c4.2,0.2,7.8-3.1,8.1-7.3c0.2-4.2-3.1-7.8-7.3-8.1c-0.2,0-0.6,0-0.8,0h-2.2l2.2-10.2L137,193.3z M112.6,203.5H104l2.2-10.2h8.6
	L112.6,203.5z"/>
</svg>
