<svg id="Capa_1" data-name="Capa 1" xmlns="http://www.w3.org/2000/svg" xmlns:xlink="http://www.w3.org/1999/xlink" viewBox="0 0 512 512"><defs><style>.cls-1,.cls-10,.cls-8,.cls-9{fill:none;}.cls-2{fill:#00b2ef;}.cls-3{fill:#002c60;}.cls-4{fill:#fc1f25;}.cls-5{fill:#cb1e2a;}.cls-6{clip-path:url(#clip-path);}.cls-7{clip-path:url(#clip-path-3);}.cls-8,.cls-9{stroke:#fff;}.cls-10,.cls-8,.cls-9{stroke-miterlimit:10;}.cls-8{stroke-width:3.47px;}.cls-9{stroke-width:5px;}.cls-10{stroke:#cb1e2a;stroke-linecap:round;stroke-width:2.67px;}</style><clipPath id="clip-path"><rect class="cls-1" x="201.99" y="109.17" width="165.95" height="166.02"/></clipPath><clipPath id="clip-path-3"><rect class="cls-1" x="259.75" y="270.94" width="49.26" height="17.33"/></clipPath></defs><polygon class="cls-2" points="284.39 512 352.11 511.71 351.55 298.33 282.89 298.78 284.39 512"/><polygon class="cls-3" points="351.55 298.33 351.71 323.24 283.01 330.36 282.89 298.78 351.55 298.33"/><path class="cls-2" d="M192.26,173.42l-41,4.34c-4.61.49-5.81-6.4-1.27-7.29.23-.05.46-.08.69-.11l33.14-3.69a7.64,7.64,0,0,1,8.44,6.75"/><path class="cls-2" d="M191.89,148.53l-24.24-22.68c-.17-.16-.33-.32-.48-.49-3.13-3.52,2.08-8.37,5.52-5.15l24.5,22.93c3.44,3.22-1.06,8.74-4.78,5.84-.18-.14-.35-.29-.52-.45"/><path class="cls-4" d="M356.11,298.73H271.58a11.82,11.82,0,0,1-11.82-11.82v-47.8l108.18-29.18v77a11.83,11.83,0,0,1-11.83,11.82"/><path class="cls-5" d="M322.44,116.74H277.39V41.29a9.09,9.09,0,0,1,9.08-9.09h26.89a9.08,9.08,0,0,1,9.08,9.09Z"/><path class="cls-4" d="M347.76,171H351a16.92,16.92,0,0,1,16.91,16.92v25.8H347.76Z"/><g class="cls-6"><g class="cls-6"><path class="cls-4" d="M284.92,109.17A83,83,0,1,1,202,195.67l45.43-4.8c0,.43,0,.88,0,1.31a37.6,37.6,0,1,0,9.55-25l-33.67-30.64a82.68,82.68,0,0,1,61.64-27.41"/></g></g><g class="cls-7"><g class="cls-7"><path class="cls-5" d="M306,270.93l3,12.8a84,84,0,0,1-49.26,1.57V271.54a84.07,84.07,0,0,0,46.28-.61"/></g></g><path class="cls-4" d="M365.7,180.45H320.65v-160a9.08,9.08,0,0,1,9.08-9.09h26.88a9.09,9.09,0,0,1,9.09,9.09Z"/><path class="cls-8" d="M360.4,187.54v2.14c-.11-1.71-.21-3.43-.32-5.14A13.86,13.86,0,0,1,360.4,187.54Z"/><path class="cls-8" d="M298.8,272a83.28,83.28,0,0,1-21.49,2.78,84.54,84.54,0,0,1-20.21-2.46,82.15,82.15,0,0,0,41.38-1.82Z"/><path class="cls-9" d="M360.08,184.54a20.31,20.31,0,0,0-1.93-5.24V20.07A9.08,9.08,0,0,0,349.06,11H322.11a9,9,0,0,0-9,9.09V35.79a9.08,9.08,0,0,0-7.38-4H278.91a9.08,9.08,0,0,0-9.09,9.09v68.23a82.57,82.57,0,0,0-53.47,26.41.9.9,0,0,0-.43.43.1.1,0,0,0-.1.11l-.11.1a7.32,7.32,0,0,0,.86,9.42L239.45,167a7.17,7.17,0,0,0,10-.1c0-.11.1-.11.1-.22A37.53,37.53,0,0,1,313,180.05a39.14,39.14,0,0,1,1.82,11.77,37.51,37.51,0,0,1-28.12,36.35,38.44,38.44,0,0,1-9.41,1.18,37.49,37.49,0,0,1-37.43-37.53v-1.29a7.37,7.37,0,0,0-8-6.41l-31.23,3.52a6.84,6.84,0,0,0-6.2,7.7A83.09,83.09,0,0,0,252.18,271v15.61a11.82,11.82,0,0,0,11.87,11.77h84.48a11.82,11.82,0,0,0,11.87-11.77V189.67C360.29,188,360.19,186.25,360.08,184.54ZM277.31,274.8a84,84,0,0,1-20.21-2.46,82.15,82.15,0,0,0,41.38-1.82l.32,1.5A83.28,83.28,0,0,1,277.31,274.8Z"/><path class="cls-8" d="M360.08,184.54a20.44,20.44,0,0,0-1.93-5.24v-6.73A103.13,103.13,0,0,1,360.08,184.54Z"/><path class="cls-8" d="M216.35,135.56a.9.9,0,0,0-.43.43,1.84,1.84,0,0,1,.32-.43Z"/><path class="cls-10" d="M317.5,114.66s21.32,7.91,28.15,18.82"/></svg>