<svg id="Capa_1" data-name="Capa 1" xmlns="http://www.w3.org/2000/svg" viewBox="0 0 512 512"><defs><style>.cls-1{fill:#00b2ef;}.cls-2{fill:#002c60;}.cls-3{fill:#fc1f25;}.cls-4,.cls-5{fill:none;stroke:#fff;stroke-width:8px;}.cls-4{stroke-miterlimit:10;}.cls-5{stroke-linecap:round;stroke-linejoin:round;}</style></defs><polygon class="cls-1" points="220.66 512 289.25 511.7 288.69 295.55 219.13 296.01 220.66 512"/><polygon class="cls-2" points="288.69 295.55 288.85 320.79 219.26 328 219.13 296.01 288.69 295.55"/><path class="cls-3" d="M330.22,258.13l-9.25,0a19.14,19.14,0,0,1-19.1-19.17l.45-210.14A19.15,19.15,0,0,1,321.5,9.7l9.25,0a19.14,19.14,0,0,1,19.1,19.18L349.4,239a19.13,19.13,0,0,1-19.18,19.09"/><path class="cls-4" d="M330.22,258.13l-9.25,0a19.14,19.14,0,0,1-19.1-19.17l.45-210.14A19.15,19.15,0,0,1,321.5,9.7l9.25,0a19.14,19.14,0,0,1,19.1,19.18L349.4,239A19.13,19.13,0,0,1,330.22,258.13Z"/><path class="cls-3" d="M349.5,189.93,349.3,283a11.48,11.48,0,0,1-11.51,11.47l-167.44-.36a11.5,11.5,0,0,1-11.47-11.52l.2-93.08"/><path class="cls-5" d="M349.5,189.93,349.3,283a11.48,11.48,0,0,1-11.51,11.47l-167.44-.36a11.5,11.5,0,0,1-11.47-11.52l.2-93.08"/><path class="cls-3" d="M235,202l-9.25,0a19.15,19.15,0,0,1-19.1-19.18l.12-57.32a19.13,19.13,0,0,1,19.18-19.1l9.25,0a19.14,19.14,0,0,1,19.1,19.18l-.13,57.32A19.13,19.13,0,0,1,235,202"/><path class="cls-4" d="M235,202l-9.25,0a19.15,19.15,0,0,1-19.1-19.18l.12-57.32a19.13,19.13,0,0,1,19.18-19.1l9.25,0a19.14,19.14,0,0,1,19.1,19.18l-.13,57.32A19.13,19.13,0,0,1,235,202Z"/><path class="cls-3" d="M282.65,202.13l-9.25,0a19.13,19.13,0,0,1-19.09-19.18l.12-57.32a19.14,19.14,0,0,1,19.18-19.1l9.25,0A19.13,19.13,0,0,1,302,125.71L301.83,183a19.14,19.14,0,0,1-19.18,19.1"/><path class="cls-4" d="M282.65,202.13l-9.25,0a19.13,19.13,0,0,1-19.09-19.18l.12-57.32a19.14,19.14,0,0,1,19.18-19.1l9.25,0A19.13,19.13,0,0,1,302,125.71L301.83,183A19.14,19.14,0,0,1,282.65,202.13Z"/><path class="cls-3" d="M290.39,234.15,240.16,183.7a11.49,11.49,0,0,1,0-16.25l17.39-17.32a11.49,11.49,0,0,1,16.25,0l50.24,50.45"/><path class="cls-5" d="M290.39,234.15,240.16,183.7a11.49,11.49,0,0,1,0-16.25l17.39-17.32a11.49,11.49,0,0,1,16.25,0l50.24,50.45"/><path class="cls-3" d="M187.43,207.86h-9.25a19.15,19.15,0,0,1-19.1-19.18l.13-57.33a19.12,19.12,0,0,1,19.17-19.09h9.25a19.15,19.15,0,0,1,19.1,19.18l-.12,57.33a19.13,19.13,0,0,1-19.18,19.09"/><path class="cls-4" d="M187.43,207.86h-9.25a19.15,19.15,0,0,1-19.1-19.18l.13-57.33a19.12,19.12,0,0,1,19.17-19.09h9.25a19.15,19.15,0,0,1,19.1,19.18l-.12,57.33A19.13,19.13,0,0,1,187.43,207.86Z"/></svg>