<?xml version="1.0" encoding="utf-8"?>
<!-- Generator: Adobe Illustrator 24.0.0, SVG Export Plug-In . SVG Version: 6.00 Build 0)  -->
<svg version="1.1" id="Capa_1" xmlns="http://www.w3.org/2000/svg" xmlns:xlink="http://www.w3.org/1999/xlink" x="0px" y="0px"
	 viewBox="0 0 512 512" style="enable-background:new 0 0 512 512;" xml:space="preserve">
<style type="text/css">
	.st0{fill:#00B2EF;}
	.st1{fill:#002C60;}
	.st2{fill:#FC1F25;}
	.st3{fill:none;stroke:#FFFFFF;stroke-width:5;stroke-linecap:round;stroke-linejoin:round;}
	.st4{fill:none;stroke:#FFFFFF;stroke-width:8;stroke-linejoin:round;}
	.st5{fill:#FC1F25;stroke:#FFFFFF;stroke-width:5;stroke-miterlimit:10;}
	.st6{fill:none;stroke:#FFFFFF;stroke-width:5;stroke-linejoin:round;}
</style>
<polygon class="st0" points="510.7,239.6 510.2,340.2 315.1,339.4 315.8,237.4 "/>
<polygon class="st1" points="315.1,339.4 352.1,339.6 362.7,237.6 315.8,237.4 "/>
<path class="st2" d="M167.7,147.4l132.3,0.9c9,0.1,16.2,7.4,16.2,16.4l-1.6,238.1c-0.1,9-7.4,16.2-16.4,16.2l-132.3-0.9H90.2V293.7"
	/>
<path class="st3" d="M167.7,147.4l132.3,0.9c9,0.1,16.2,7.4,16.2,16.4l-1.6,238.1c-0.1,9-7.4,16.2-16.4,16.2l-132.3-0.9H90.2V293.7"
	/>
<path class="st2" d="M154.3,179.1L111.4,65.7c-4.2-10.7-0.4-22.2,8.4-25.6l34-13.2c8.8-3.4,19.3,2.5,23.4,13.3l45.1,116.2"/>
<path class="st4" d="M154.3,179.1L111.4,65.7c-4.2-10.7-0.4-22.2,8.4-25.6l34-13.2c8.8-3.4,19.3,2.5,23.4,13.3l45.1,116.2"/>
<path class="st2" d="M117.2,416l-60.3,61.4c-8.2,8.2-21.4,8.2-29.6,0c0,0,0,0,0,0L9.1,459.1C1,451,1,437.8,9.1,429.6c0,0,0,0,0,0
	L95.7,343"/>
<path class="st3" d="M117.2,416l-60.3,61.4c-8.2,8.2-21.4,8.2-29.6,0c0,0,0,0,0,0L9.1,459.1C1,451,1,437.8,9.1,429.6c0,0,0,0,0,0
	L95.7,343"/>
<path class="st2" d="M184.2,304l-0.2,25.8c-0.1,11.5-9.5,20.8-21,20.8L68.9,350c-11.5-0.1-20.8-9.5-20.8-21c0,0,0,0,0,0l0.2-25.8
	c0.1-11.5,9.5-20.8,21-20.8c0,0,0,0,0,0l94.1,0.6C175,283.1,184.3,292.5,184.2,304"/>
<path class="st3" d="M184.2,304l-0.2,25.8c-0.1,11.5-9.5,20.8-21,20.8L68.9,350c-11.5-0.1-20.8-9.5-20.8-21c0,0,0,0,0,0l0.2-25.8
	c0.1-11.5,9.5-20.8,21-20.8c0,0,0,0,0,0l94.1,0.6C175,283.1,184.3,292.5,184.2,304z"/>
<path class="st2" d="M200.6,237.5l-0.2,23.4c-0.1,12.2-10,22-22.2,21.9c0,0,0,0,0,0l-107.7-0.7c-12.2-0.1-22-10-21.9-22.2l0.1-23.4
	c0.1-12.2,10-22,22.2-22l107.7,0.7C190.9,215.4,200.7,225.3,200.6,237.5"/>
<path class="st3" d="M200.6,237.5l-0.2,23.4c-0.1,12.2-10,22-22.2,21.9c0,0,0,0,0,0l-107.7-0.7c-12.2-0.1-22-10-21.9-22.2l0.1-23.4
	c0.1-12.2,10-22,22.2-22l107.7,0.7C190.9,215.4,200.7,225.3,200.6,237.5z"/>
<path class="st5" d="M184.7,168.7l-0.2,25.8c-0.1,11.5-9.5,20.8-21,20.8c0,0,0,0,0,0l-94.1-0.6c-11.5-0.1-20.8-9.5-20.7-21l0.2-25.8
	c0.1-11.5,9.5-20.8,21-20.8l94.1,0.6C175.4,147.7,184.7,157.2,184.7,168.7C184.6,168.7,184.6,168.7,184.7,168.7"/>
<path class="st6" d="M184.7,168.7l-0.2,25.8c-0.1,11.5-9.5,20.8-21,20.8c0,0,0,0,0,0l-94.1-0.6c-11.5-0.1-20.8-9.5-20.7-21l0.2-25.8
	c0.1-11.5,9.5-20.8,21-20.8l94.1,0.6C175.4,147.7,184.7,157.1,184.7,168.7C184.7,168.7,184.7,168.7,184.7,168.7z"/>
</svg>
