<?xml version="1.0" encoding="utf-8"?>
<!-- Generator: Adobe Illustrator 24.0.0, SVG Export Plug-In . SVG Version: 6.00 Build 0)  -->
<svg version="1.1" id="Capa_1" xmlns="http://www.w3.org/2000/svg" xmlns:xlink="http://www.w3.org/1999/xlink" x="0px" y="0px"
	 viewBox="0 0 512 512" style="enable-background:new 0 0 512 512;" xml:space="preserve">
<style type="text/css">
	.st0{fill:#00B2EF;}
	.st1{fill:#002C60;}
	.st2{fill:#FC1F25;stroke:#FFFFFF;stroke-width:5;stroke-linecap:round;stroke-linejoin:round;}
	.st3{fill:none;stroke:#09AFEA;stroke-width:13;stroke-linecap:round;stroke-linejoin:round;}
</style>
<polygon class="st0" points="0,275.8 0.2,333.5 272.2,332.4 271.8,274 "/>
<polygon class="st1" points="265.5,332.4 244.3,332.6 238.3,274.1 265.2,274 "/>
<path class="st2" d="M497,251.3l-0.1-20.9c0-4.9-4-8.9-9-8.9l-184.6,1.2c-4.9,0-8.9,4-8.9,9l0.1,20.9c0,4.9,4,8.9,9,8.9l184.6-1.2
	C493.1,260.2,497,256.2,497,251.3z"/>
<path class="st2" d="M350,222.4l-51.2,0.3c-18.8,0.1-33.9,15.4-33.8,34.2c0,0,0,0,0,0l0.6,87.2c0.1,18.8,15.4,33.9,34.2,33.8
	l51.2-0.4"/>
<path class="st2" d="M418.5,326.8l-0.1-15.4c0-6.4-5.3-11.6-11.7-11.6l-54.6,0.4c-6.4,0-11.6,5.3-11.6,11.7l0.1,15.4
	c0,6.4,5.3,11.6,11.7,11.6l54.6-0.4C413.4,338.4,418.6,333.2,418.5,326.8z"/>
<path class="st2" d="M418.3,287.9l-0.1-15.4c0-6.4-5.3-11.6-11.7-11.6l-54.6,0.4c-6.4,0-11.6,5.3-11.6,11.7l0.1,15.4
	c0,6.4,5.3,11.6,11.7,11.6l54.6-0.4C413.1,299.6,418.3,294.3,418.3,287.9z"/>
<path class="st2" d="M358.5,239.3l19.2-50.9c1.9-4.8-0.5-10.2-5.3-12.1c0,0,0,0,0,0l-18.7-7.2c-4.8-1.9-10.2,0.5-12.1,5.3
	c0,0,0,0,0,0l-20.2,52.2"/>
<path class="st2" d="M413.9,365.5l-0.1-15.4c0-6.4-5.3-11.6-11.7-11.6l-54.6,0.4c-6.4,0-11.6,5.3-11.6,11.7l0.1,15.4
	c0,6.4,5.3,11.6,11.7,11.6l54.6-0.4C408.8,377.2,414,371.9,413.9,365.5z"/>
<line class="st3" x1="402.6" y1="134.1" x2="409.4" y2="163.6"/>
<line class="st3" x1="490.4" y1="190.2" x2="460.4" y2="197"/>
<line class="st3" x1="455.1" y1="142.6" x2="443.9" y2="165.1"/>
</svg>
