<svg id="Capa_1" data-name="Capa 1" xmlns="http://www.w3.org/2000/svg" viewBox="0 0 512 512"><defs><style>.cls-1{fill:#00b2ef;}.cls-2{fill:#002c60;}.cls-3{fill:#fc1f25;stroke:#fff;stroke-width:5px;}.cls-3,.cls-4{stroke-linecap:round;stroke-linejoin:round;}.cls-4{fill:none;stroke:#09afea;stroke-width:13px;}</style></defs><polygon class="cls-1" points="512 275.84 511.82 333.49 239.86 332.42 240.25 273.97 512 275.84"/><polygon class="cls-2" points="246.5 332.42 267.7 332.56 273.77 274.07 246.88 273.97 246.5 332.42"/><rect class="cls-3" x="96.93" y="140.28" width="38.72" height="202.4" rx="8.91" transform="translate(-125.94 356.18) rotate(-89.62)"/><path class="cls-3" d="M162,222.41l51.21.34A34,34,0,0,1,247,257l-.57,87.16a34,34,0,0,1-34.21,33.77L161,377.56"/><rect class="cls-3" x="113.13" y="280.35" width="38.72" height="77.89" rx="11.66" transform="translate(-187.66 449.68) rotate(-89.62)"/><rect class="cls-3" x="113.39" y="241.49" width="38.72" height="77.89" rx="11.66" transform="translate(-148.56 411.34) rotate(-89.62)"/><path class="cls-3" d="M153.53,239.26l-19.19-50.95a9.35,9.35,0,0,1,5.34-12.11L158.33,169a9.35,9.35,0,0,1,12.11,5.35l20.22,52.17"/><rect class="cls-3" x="117.71" y="319.1" width="38.72" height="77.89" rx="11.66" transform="translate(-221.86 492.76) rotate(-89.62)"/><line class="cls-4" x1="109.4" y1="134.1" x2="102.68" y2="163.55"/><line class="cls-4" x1="21.62" y1="190.18" x2="51.6" y2="197.02"/><line class="cls-4" x1="56.92" y1="142.65" x2="68.11" y2="165.11"/></svg>