<svg id="Capa_1" data-name="Capa 1" xmlns="http://www.w3.org/2000/svg" viewBox="0 0 512 512"><defs><style>.cls-1{fill:#00b2ef;}.cls-2{fill:#002c60;}.cls-3,.cls-6{fill:#fc1f25;}.cls-4,.cls-5,.cls-7,.cls-8{fill:none;stroke-linejoin:round;}.cls-4,.cls-5,.cls-6,.cls-7{stroke:#fff;}.cls-4,.cls-5,.cls-8{stroke-linecap:round;}.cls-4,.cls-6,.cls-7{stroke-width:5.77px;}.cls-5{stroke-width:5.76px;}.cls-6{stroke-miterlimit:10;}.cls-8{stroke:#00b2ef;stroke-width:8.05px;}</style></defs><polygon class="cls-1" points="0 246.37 0.21 339.64 155.51 338.87 155.18 244.3 0 246.37"/><polygon class="cls-2" points="155.51 338.87 121.2 339.09 111.39 244.47 154.88 244.3 155.51 338.87"/><path class="cls-3" d="M292.19,160.89l-122.7.81a15.14,15.14,0,0,0-15.05,15.24l1.45,220.72a15.15,15.15,0,0,0,15.25,15l122.69-.81H364V296.57"/><path class="cls-4" d="M292.19,160.89l-122.7.81a15.14,15.14,0,0,0-15.05,15.24l1.45,220.72a15.15,15.15,0,0,0,15.25,15l122.69-.81H364V296.57"/><path class="cls-3" d="M304.56,190.29,344.37,85.15c3.86-10,.39-20.59-7.75-23.74l-31.47-12.2c-8.13-3.15-17.86,2.36-21.72,12.32L241.67,169.27"/><path class="cls-5" d="M304.56,190.29,344.37,85.15c3.86-10,.39-20.59-7.75-23.74l-31.47-12.2c-8.13-3.15-17.86,2.36-21.72,12.32L241.67,169.27"/><path class="cls-3" d="M339,409.87l55.94,56.86a19.39,19.39,0,0,0,27.4,0l16.9-16.9a19.39,19.39,0,0,0,0-27.4L359,342.18"/><path class="cls-4" d="M339,409.87l55.94,56.86a19.39,19.39,0,0,0,27.4,0l16.9-16.9a19.39,19.39,0,0,0,0-27.4L359,342.18"/><path class="cls-3" d="M276.87,306.09,277,330a19.37,19.37,0,0,0,19.5,19.25l87.27-.58a19.38,19.38,0,0,0,19.25-19.5l-.16-23.89A19.36,19.36,0,0,0,383.39,286l-87.28.57a19.37,19.37,0,0,0-19.24,19.5"/><path class="cls-4" d="M276.87,306.09,277,330a19.37,19.37,0,0,0,19.5,19.25l87.27-.58a19.38,19.38,0,0,0,19.25-19.5l-.16-23.89A19.36,19.36,0,0,0,383.39,286l-87.28.57A19.37,19.37,0,0,0,276.87,306.09Z"/><path class="cls-3" d="M261.69,244.43l.15,21.69a20.48,20.48,0,0,0,20.61,20.35l99.83-.66a20.47,20.47,0,0,0,20.34-20.61l-.14-21.69a20.48,20.48,0,0,0-20.61-20.35l-99.83.66a20.49,20.49,0,0,0-20.35,20.61"/><path class="cls-4" d="M261.69,244.43l.15,21.69a20.48,20.48,0,0,0,20.61,20.35l99.83-.66a20.47,20.47,0,0,0,20.34-20.61l-.14-21.69a20.48,20.48,0,0,0-20.61-20.35l-99.83.66A20.49,20.49,0,0,0,261.69,244.43Z"/><path class="cls-6" d="M276.46,180.62l.15,23.9a19.38,19.38,0,0,0,19.51,19.24l87.27-.58a19.36,19.36,0,0,0,19.24-19.5l-.15-23.89A19.38,19.38,0,0,0,383,160.54l-87.27.58a19.35,19.35,0,0,0-19.24,19.5"/><path class="cls-7" d="M276.46,180.62l.15,23.9a19.38,19.38,0,0,0,19.51,19.24l87.27-.58a19.36,19.36,0,0,0,19.24-19.5l-.15-23.89A19.38,19.38,0,0,0,383,160.54l-87.27.58A19.35,19.35,0,0,0,276.46,180.62Z"/><path class="cls-8" d="M448.49,394.32a45.89,45.89,0,0,1,10,80.22"/><path class="cls-8" d="M487.87,405c16.25,10.86,22.54,36.46,13.94,61.64C496.92,481,488.17,492.41,478,499.4"/><path class="cls-8" d="M256.93,64.16A45.88,45.88,0,0,1,322.87,17.4"/></svg>