<svg id="Capa_1" data-name="Capa 1" xmlns="http://www.w3.org/2000/svg" viewBox="0 0 512 512"><defs><style>.cls-1{fill:#00b2ef;}.cls-2{fill:#002c60;}.cls-3{fill:#fc1f25;}.cls-4,.cls-5{fill:none;stroke-linecap:round;stroke-linejoin:round;}.cls-4{stroke:#fff;stroke-width:8px;}.cls-5{stroke:#09afea;stroke-width:12.95px;}</style></defs><polygon class="cls-1" points="281.82 512 352.45 511.7 351.87 289.13 280.25 289.6 281.82 512"/><polygon class="cls-2" points="351.87 289.13 352.04 315.11 280.38 322.54 280.25 289.6 351.87 289.13"/><path class="cls-3" d="M232.2,253.65l18.1-.12a14.68,14.68,0,0,0,14.58-14.77L263.44,20.12A14.67,14.67,0,0,0,248.67,5.55l-18.1.12A14.66,14.66,0,0,0,216,20.44l1.43,218.63a14.68,14.68,0,0,0,14.77,14.58"/><path class="cls-4" d="M232.2,253.65l18.1-.12a14.68,14.68,0,0,0,14.58-14.77L263.44,20.12A14.67,14.67,0,0,0,248.67,5.55l-18.1.12A14.66,14.66,0,0,0,216,20.44l1.43,218.63A14.68,14.68,0,0,0,232.2,253.65Z"/><path class="cls-3" d="M217.08,185.62l.61,92.92a11.48,11.48,0,0,0,11.55,11.4l167.15-1.1a11.47,11.47,0,0,0,11.4-11.55l-.61-92.92"/><path class="cls-4" d="M217.08,185.62l.61,92.92a11.48,11.48,0,0,0,11.55,11.4l167.15-1.1a11.47,11.47,0,0,0,11.4-11.55l-.61-92.92"/><path class="cls-3" d="M327.05,197.22l18.09-.12a14.68,14.68,0,0,0,14.58-14.77l-.44-66.09a14.67,14.67,0,0,0-14.76-14.58l-18.1.12a14.68,14.68,0,0,0-14.58,14.77l.44,66.09a14.66,14.66,0,0,0,14.77,14.58"/><path class="cls-4" d="M327.05,197.22l18.09-.12a14.68,14.68,0,0,0,14.58-14.77l-.44-66.09a14.67,14.67,0,0,0-14.76-14.58l-18.1.12a14.68,14.68,0,0,0-14.58,14.77l.44,66.09A14.66,14.66,0,0,0,327.05,197.22Z"/><path class="cls-3" d="M279.44,197.53l18.1-.11a14.67,14.67,0,0,0,14.57-14.77l-.43-66.1A14.67,14.67,0,0,0,296.91,102l-18.1.12a14.67,14.67,0,0,0-14.57,14.77l.43,66.09a14.67,14.67,0,0,0,14.77,14.57"/><path class="cls-4" d="M279.44,197.53l18.1-.11a14.67,14.67,0,0,0,14.57-14.77l-.43-66.1A14.67,14.67,0,0,0,296.91,102l-18.1.12a14.67,14.67,0,0,0-14.57,14.77l.43,66.09A14.67,14.67,0,0,0,279.44,197.53Z"/><path class="cls-3" d="M237.72,175.21,175.29,151.7a11.48,11.48,0,0,0-14.84,6.55L151.6,181.1a11.47,11.47,0,0,0,6.55,14.84l63.93,24.78"/><path class="cls-4" d="M237.72,175.21,175.29,151.7a11.48,11.48,0,0,0-14.84,6.55L151.6,181.1a11.47,11.47,0,0,0,6.55,14.84l63.93,24.78"/><path class="cls-3" d="M374.53,202.84l18.09-.12A14.68,14.68,0,0,0,407.2,188l-.44-66.09A14.67,14.67,0,0,0,392,107.28l-18.1.12a14.69,14.69,0,0,0-14.58,14.77l.44,66.09a14.68,14.68,0,0,0,14.77,14.58"/><path class="cls-4" d="M374.53,202.84l18.09-.12A14.68,14.68,0,0,0,407.2,188l-.44-66.09A14.67,14.67,0,0,0,392,107.28l-18.1.12a14.69,14.69,0,0,0-14.58,14.77l.44,66.09A14.68,14.68,0,0,0,374.53,202.84Z"/><line class="cls-5" x1="104.21" y1="116.96" x2="140.28" y2="108.73"/><line class="cls-5" x1="172.92" y1="9.41" x2="181.3" y2="46.15"/><line class="cls-5" x1="111.74" y1="44.95" x2="137.78" y2="61.31"/></svg>