<svg id="Capa_1" data-name="Capa 1" xmlns="http://www.w3.org/2000/svg" viewBox="0 0 512 512"><defs><style>.cls-1{fill:none;stroke:#fff;stroke-miterlimit:10;stroke-width:5px;}.cls-2{fill:#00b2ef;}.cls-3{fill:#ff1920;}.cls-4{fill:#002861;}</style></defs><path class="cls-1" d="M238.86,63.16A58.16,58.16,0,1,1,180.7,5,58.15,58.15,0,0,1,238.86,63.16Z"/><path class="cls-2" d="M218,63.16A37.36,37.36,0,1,1,180.7,25.79,37.34,37.34,0,0,1,218,63.16"/><path class="cls-3" d="M389.46,281h0l-.6-77.42a17.34,17.34,0,0,0-17.4-17.09l-21.18.15a17.16,17.16,0,0,0-16.48,14.22h-.61v-3.8A17.1,17.1,0,0,0,316,180l-21.32.15a17.07,17.07,0,0,0-16.94,17.25l.15.9h-.32l-.12-.9a17,17,0,0,0-17.25-16.94l-21.16.15a17,17,0,0,0-16.79,15.12c0,.61-.32,1.21-.32,1.82v-1.82l-1-111.13A17,17,0,0,0,203.6,67.5l-21.18.14c-9.5,0-17.23,7.85-18,17.23l1.82,271.28V363a24.8,24.8,0,0,0,24.83,24.84H364.62A24.83,24.83,0,0,0,389.46,363Z"/><path class="cls-3" d="M380.5,272.67h0l-.61-77.4a17.36,17.36,0,0,0-17.4-17.1l-21.15.17a17.06,17.06,0,0,0-16.48,14.2h-.61v-3.79A17.11,17.11,0,0,0,307,171.67l-21.33.15a17.06,17.06,0,0,0-16.91,17.25l.14.9h-.31l-.15-.9a17,17,0,0,0-17.23-16.94l-21.17.15a17,17,0,0,0-16.8,15.12c0,.6-.29,1.21-.29,1.82V187.4L211.88,76.27a17,17,0,0,0-17.22-17.11l-21.18.17c-9.53,0-17.23,7.85-18,17.23l1.82,271.28v6.81a24.83,24.83,0,0,0,24.84,24.84H355.66a24.83,24.83,0,0,0,24.84-24.84Z"/><path class="cls-1" d="M380.5,272.67h0l-.61-77.4a17.36,17.36,0,0,0-17.4-17.1l-21.15.17a17.06,17.06,0,0,0-16.48,14.2h-.61v-3.79A17.11,17.11,0,0,0,307,171.67l-21.33.15a17.06,17.06,0,0,0-16.91,17.25l.14.9h-.31l-.15-.9a17,17,0,0,0-17.23-16.94l-21.17.15a17,17,0,0,0-16.8,15.12c0,.6-.29,1.21-.29,1.82V187.4L211.88,76.27a17,17,0,0,0-17.22-17.11l-21.18.17c-9.53,0-17.23,7.85-18,17.23l1.82,271.28v6.81a24.83,24.83,0,0,0,24.84,24.84H355.66a24.83,24.83,0,0,0,24.84-24.84Z"/><polygon class="cls-2" points="237.64 511 316.38 510.56 316.52 386.61 236.7 387.15 237.64 511"/><polygon class="cls-4" points="316.55 386.61 316.71 415.57 236.84 423.86 236.7 387.15 316.55 386.61"/></svg>