<svg id="Capa_1" data-name="Capa 1" xmlns="http://www.w3.org/2000/svg" viewBox="0 0 512 512"><defs><style>.cls-1{fill:#00b2ef;}.cls-2{fill:#002c60;}.cls-3,.cls-6{fill:#fc1f25;}.cls-4,.cls-5,.cls-7{fill:none;stroke-linejoin:round;}.cls-4,.cls-5,.cls-6,.cls-7{stroke:#fff;}.cls-4{stroke-linecap:round;}.cls-4,.cls-6,.cls-7{stroke-width:5px;}.cls-5{stroke-width:8px;}.cls-6{stroke-miterlimit:10;}</style></defs><polygon class="cls-1" points="-0.48 243.87 -0.14 324.75 254.72 324.08 254.18 242.07 -0.48 243.87"/><polygon class="cls-2" points="254.72 324.08 224.97 324.27 216.46 242.22 254.18 242.07 254.72 324.08"/><path class="cls-3" d="M373.24,169.74l-106.4.7a13.15,13.15,0,0,0-13,13.22l1.26,191.41a13.13,13.13,0,0,0,13.22,13l106.4-.7h60.87v-100"/><path class="cls-4" d="M373.24,169.74l-106.4.7a13.15,13.15,0,0,0-13,13.22l1.26,191.41a13.13,13.13,0,0,0,13.22,13l106.4-.7h60.87v-100"/><path class="cls-3" d="M384,195.24l34.53-91.18c3.35-8.63.34-17.85-6.72-20.58L384.49,72.9c-7.06-2.74-15.5,2-18.84,10.68L329.43,177"/><path class="cls-5" d="M384,195.24l34.53-91.18c3.35-8.63.34-17.85-6.72-20.58L384.49,72.9c-7.06-2.74-15.5,2-18.84,10.68L329.43,177"/><path class="cls-3" d="M413.82,385.65,462.33,435a16.8,16.8,0,0,0,23.76,0l14.65-14.65a16.78,16.78,0,0,0,0-23.76L431.15,327"/><path class="cls-4" d="M413.82,385.65,462.33,435a16.8,16.8,0,0,0,23.76,0l14.65-14.65a16.78,16.78,0,0,0,0-23.76L431.15,327"/><path class="cls-3" d="M360,295.66l.14,20.72A16.8,16.8,0,0,0,377,333.07l75.67-.5a16.8,16.8,0,0,0,16.7-16.91l-.14-20.72a16.8,16.8,0,0,0-16.91-16.69l-75.68.5A16.79,16.79,0,0,0,360,295.66"/><path class="cls-4" d="M360,295.66l.14,20.72A16.8,16.8,0,0,0,377,333.07l75.67-.5a16.8,16.8,0,0,0,16.7-16.91l-.14-20.72a16.8,16.8,0,0,0-16.91-16.69l-75.68.5A16.79,16.79,0,0,0,360,295.66Z"/><path class="cls-3" d="M346.8,242.19l.13,18.81a17.75,17.75,0,0,0,17.87,17.64l86.57-.57A17.76,17.76,0,0,0,469,260.19l-.12-18.8A17.77,17.77,0,0,0,451,223.74l-86.57.57a17.77,17.77,0,0,0-17.64,17.88"/><path class="cls-4" d="M346.8,242.19l.13,18.81a17.75,17.75,0,0,0,17.87,17.64l86.57-.57A17.76,17.76,0,0,0,469,260.19l-.12-18.8A17.77,17.77,0,0,0,451,223.74l-86.57.57A17.77,17.77,0,0,0,346.8,242.19Z"/><path class="cls-6" d="M359.6,186.85l.14,20.72a16.8,16.8,0,0,0,16.91,16.69l75.68-.5A16.8,16.8,0,0,0,469,206.85l-.14-20.72A16.8,16.8,0,0,0,452,169.44l-75.68.5a16.8,16.8,0,0,0-16.69,16.91"/><path class="cls-7" d="M359.6,186.85l.14,20.72a16.8,16.8,0,0,0,16.91,16.69l75.68-.5A16.8,16.8,0,0,0,469,206.85l-.14-20.72A16.8,16.8,0,0,0,452,169.44l-75.68.5A16.8,16.8,0,0,0,359.6,186.85Z"/></svg>