<?xml version="1.0" encoding="utf-8"?>
<!-- Generator: Adobe Illustrator 24.1.1, SVG Export Plug-In . SVG Version: 6.00 Build 0)  -->
<svg version="1.1" id="Capa_1" xmlns="http://www.w3.org/2000/svg" xmlns:xlink="http://www.w3.org/1999/xlink" x="0px" y="0px"
	 viewBox="0 0 469.3 469.3" style="enable-background:new 0 0 469.3 469.3;" xml:space="preserve">
<style type="text/css">
	.st0{fill:#FFFFFF;}
</style>
<g>
	<path class="st0" d="M63.3,127.9h342.8c9.6-0.1,17.4-8.7,17.2-19.1c-0.1-10.2-7.8-18.4-17.2-18.6H63.3c-9.6,0.1-17.4,8.7-17.2,19.1
		C46.2,119.5,53.8,127.7,63.3,127.9z"/>
	<path class="st0" d="M406.1,215.8H63.3c-9.6,0.1-17.4,8.7-17.2,19.1c0.1,10.2,7.8,18.4,17.2,18.6h342.8c9.6-0.1,17.4-8.7,17.2-19.1
		C423.2,224.2,415.5,216,406.1,215.8z"/>
	<path class="st0" d="M406.1,341.5H63.3c-9.6,0-17.5,8.4-17.5,18.8c0,10.4,7.8,18.8,17.5,18.8h342.8c9.6,0,17.5-8.4,17.5-18.8
		C423.5,349.9,415.7,341.5,406.1,341.5z"/>
</g>
</svg>
