<?xml version="1.0" encoding="utf-8"?>
<!-- Generator: Adobe Illustrator 24.1.1, SVG Export Plug-In . SVG Version: 6.00 Build 0)  -->
<svg version="1.1" id="Capa_1" xmlns="http://www.w3.org/2000/svg" xmlns:xlink="http://www.w3.org/1999/xlink" x="0px" y="0px"
	 viewBox="0 0 512 512" style="enable-background:new 0 0 512 512;" xml:space="preserve">
<style type="text/css">
	.st0{fill:#1F2F59;}
	.st1{fill:#0054A6;}
	.st2{fill:#ECEFF1;}
	.st3{fill:#D9D9D9;}
	.st4{fill:#FC1F25;}
	.st5{fill:#00B2EF;}
	.st6{fill:#F33939;}
	.st7{fill:#FCFFFF;stroke:#002C60;stroke-width:11.2753;stroke-miterlimit:10;}
	.st8{fill:none;stroke:#FC1F25;stroke-width:4.7215;stroke-linecap:round;stroke-linejoin:round;}
	.st9{fill:#00B1EC;}
</style>
<rect x="102.3" y="43.2" class="st0" width="59.8" height="89.2"/>
<path class="st1" d="M169,52.1H95.4c-2.8,0-5-2.2-5-5V30c0-2.7,2.2-5,5-5H169c2.8,0,5,2.2,5,5v17.2C174,49.9,171.7,52.1,169,52.1z"
	/>
<polygon class="st2" points="432.1,169.1 247.4,46.2 62.7,169.1 62.7,460.3 432.2,460.3 432.2,169.1 "/>
<polygon class="st3" points="432.1,169.1 247.4,46.2 203.4,75.5 386.2,197.1 386.3,197.1 386.3,460.3 432.2,460.3 432.2,169.1 "/>
<path class="st4" d="M28.2,218.5L244.3,74.6c1.9-1.3,4.3-1.3,6.2,0l216.1,143.8c6.1,4.1,14,4.1,20.1,0l0,0
	c8.3-5.5,10.6-16.8,5.1-25.1c-1.3-2-3.1-3.7-5.1-5.1L250.6,31c-1.9-1.3-4.3-1.3-6.2,0L8.1,188.2C-0.3,193.8-2.5,205,3,213.4
	c1.3,2,3.1,3.7,5.1,5.1l0,0C14.2,222.5,22.1,222.5,28.2,218.5z"/>
<path class="st5" d="M225.7,243.7H115.9c-4.6,0-8.3,3.7-8.3,8.3l0,0v208.4H234V252C234,247.4,230.3,243.7,225.7,243.7
	C225.7,243.7,225.7,243.7,225.7,243.7z"/>
<path class="st0" d="M470.5,433.9H24.4c-7.3,0-13.3,6-13.3,13.3l0,0c0,7.3,6,13.3,13.3,13.3l0,0h446.1c7.3,0,13.3-6,13.3-13.3l0,0
	l0,0C483.8,439.8,477.8,433.9,470.5,433.9z"/>
<path class="st6" d="M489.6,216.1c0.4-0.4,0.7-0.7,1-1.1c0.1-0.1,0.2-0.2,0.2-0.3c0.3-0.4,0.6-0.8,0.9-1.2v-0.1
	c0.3-0.4,0.5-0.8,0.7-1.2l0.2-0.3c0.2-0.4,0.5-0.9,0.7-1.4v-0.1c0.2-0.4,0.4-0.9,0.5-1.3c0-0.1,0.1-0.2,0.1-0.3
	c0.1-0.5,0.3-1,0.4-1.5l0,0c0.1-0.5,0.2-1,0.3-1.5c0-0.1,0-0.1,0-0.2c0.1-0.5,0.1-1,0.1-1.5l0,0c0-0.5,0-1,0-1.6v-0.1
	c0-1.1-0.2-2.1-0.4-3.2l0,0c-1-4.6-3.7-8.6-7.6-11.1l-23.5-15.6l-3.8,6.3c-4.1,6.6-12.8,8.7-19.4,4.6c-0.1-0.1-0.3-0.2-0.4-0.3
	l-189-125.9c-1.9-1.3-4.3-1.3-6.2,0L28.2,201.2c-6.1,4.1-14,4.1-20.1,0l0,0c-2.5-1.6-4.5-3.9-5.9-6.5c-4.5,8.3-1.9,18.6,5.9,23.8
	l0,0c6.1,4.1,14,4.1,20.1,0L244.3,74.6c1.9-1.3,4.3-1.3,6.2,0l216.1,143.8c6.1,4.1,14,4.1,20.1,0l0,0c0.4-0.3,0.9-0.6,1.3-1l0.3-0.3
	C488.8,216.9,489.2,216.6,489.6,216.1L489.6,216.1z"/>
<path class="st7" d="M402.3,309.4L402.3,309.4c49.3,0,89.3,40,89.3,89.3v0c0,49.3-40,89.3-89.3,89.3h0c-49.3,0-89.3-40-89.3-89.3v0
	C313,349.3,353,309.4,402.3,309.4z"/>
<path class="st8" d="M507,371.1c2.6,9.9,3.8,20.1,3.6,30.3"/>
<path class="st8" d="M449.4,301.4c21.7,10.4,39.3,27.8,49.9,49.3c0.9,1.9,1.8,3.8,2.6,5.6"/>
<path class="st9" d="M456.6,389.5c-0.4-2.3-2.6-3.9-4.9-3.5c-2.3,0.4-3.9,2.6-3.5,4.9l0,0c4.3,25.7-13,50-38.6,54.3
	c-25.7,4.3-50-13-54.3-38.6s13-50,38.6-54.3c15.8-2.7,31.8,2.9,42.6,14.6l-19,6.3c-2.2,0.7-3.4,3.1-2.7,5.3c0,0,0,0.1,0,0.1l0,0
	c0.7,2.2,3.1,3.4,5.3,2.7c0,0,0.1,0,0.1,0l0,0l25.7-8.6c1.8-0.6,2.9-2.2,2.9-4.1v-25.6c0-2.4-1.9-4.3-4.3-4.3s-4.3,1.9-4.3,4.3v15.6
	c-22.1-20.9-56.9-20-77.8,2c-20.9,22.1-20,56.9,2,77.8c22.1,20.9,56.9,20,77.8-2C454.2,424.1,459.5,406.6,456.6,389.5z"/>
<circle class="st1" cx="212.7" cy="360.1" r="9.4"/>
</svg>
