<svg id="Capa_1" data-name="Capa 1" xmlns="http://www.w3.org/2000/svg" viewBox="0 0 512 512"><defs><style>.cls-1,.cls-2,.cls-4{fill:none;stroke-linecap:round;}.cls-1,.cls-2{stroke:#0054a6;stroke-width:8.08px;}.cls-1{stroke-miterlimit:10;}.cls-2,.cls-4{stroke-linejoin:round;}.cls-3{fill:#fc1f25;}.cls-4{stroke:#fff;stroke-width:13px;stroke-dasharray:9.94 29.82;}.cls-5{fill:#fff;}</style></defs><path class="cls-1" d="M315.44,12.63c109.64,26.68,191,125.52,191,243.37,0,1.45,0,2.91,0,4.35"/><path class="cls-2" d="M452.14,411.78a251.3,251.3,0,0,1-23.53,25.71"/><path class="cls-2" d="M462.81,397.34q-5.08,7.43-10.67,14.44"/><path class="cls-2" d="M480.37,367.44a249.83,249.83,0,0,1-17.56,29.9"/><path class="cls-1" d="M500.62,310.07a248.77,248.77,0,0,1-6.88,25"/><path class="cls-1" d="M504,291.27q-1.33,9.53-3.38,18.8"/><circle class="cls-3" cx="256" cy="256" r="236.7"/><circle class="cls-4" cx="256" cy="256" r="196.14" transform="translate(-106.04 256) rotate(-45)"/><path class="cls-5" d="M331.41,321.41a53,53,0,0,1-12.29,17,62.3,62.3,0,0,1-19,11.86,89.61,89.61,0,0,1-24.86,6v28.29H245.54V355.7a140.6,140.6,0,0,1-35.86-9.29,136.06,136.06,0,0,1-31.58-17.86L200.39,296a171.66,171.66,0,0,0,22.72,14.72A86.57,86.57,0,0,0,247,319.12V273.69a183.39,183.39,0,0,1-27-9.57,70,70,0,0,1-19.14-12.43A46.64,46.64,0,0,1,189.39,235a58.94,58.94,0,0,1-3.86-22.14,53.23,53.23,0,0,1,4.29-21.72,51.18,51.18,0,0,1,12.14-17,60.62,60.62,0,0,1,19-11.72,93.26,93.26,0,0,1,24.58-5.86V140h29.72v17.15a119.44,119.44,0,0,1,53.15,21.14l-19.15,33.43a165.11,165.11,0,0,0-17.43-10.14,87.94,87.94,0,0,0-18-6.71V238q32.58,8.86,47.29,23.29t14.72,38.43A51.76,51.76,0,0,1,331.41,321.41ZM247,192.25q-10.29,1.44-15,6.29a16.19,16.19,0,0,0-4.72,11.72,17.42,17.42,0,0,0,4,11.43q4,4.86,15.72,9.14Zm42.86,97.44q-4.29-4.85-16-9.14v40q20.28-3.14,20.29-18.57A17.89,17.89,0,0,0,289.83,289.69Z"/></svg>