<?xml version="1.0" encoding="utf-8"?>
<!-- Generator: Adobe Illustrator 24.1.1, SVG Export Plug-In . SVG Version: 6.00 Build 0)  -->
<svg version="1.1" id="Capa_1" xmlns="http://www.w3.org/2000/svg" xmlns:xlink="http://www.w3.org/1999/xlink" x="0px" y="0px"
	 viewBox="0 0 512 512" style="enable-background:new 0 0 512 512;" xml:space="preserve">
<style type="text/css">
	.st0{fill:#1F2F59;}
	.st1{fill:#FFFFFF;}
	.st2{fill:#0059EA;}
	.st3{fill:none;stroke:#0059EA;stroke-width:3.6654;stroke-linecap:round;stroke-linejoin:round;}
	.st4{fill:none;stroke:#FFFFFF;stroke-width:11.9059;stroke-linecap:round;stroke-linejoin:round;}
</style>
<path class="st0" d="M143,0h226c19.1,0,34.6,15.5,34.6,34.6v442.7c0,19.1-15.5,34.6-34.6,34.6H143c-19.1,0-34.6-15.5-34.6-34.6V34.6
	C108.4,15.5,123.9,0,143,0z"/>
<path class="st1" d="M158.2,26.9h195.6c11.3,0,20.5,9.2,20.5,20.5v357.5c0,11.3-9.2,20.5-20.5,20.5H158.2
	c-11.3,0-20.5-9.2-20.5-20.5V47.3C137.7,36,146.9,26.9,158.2,26.9z"/>
<path class="st2" d="M283.5,472.1c0,10.3-8.3,18.6-18.6,18.6c-10.3,0-18.6-8.3-18.6-18.6c0-10.3,8.3-18.6,18.6-18.6l0,0
	C275.1,453.5,283.5,461.8,283.5,472.1"/>
<g>
	<circle class="st2" cx="251.8" cy="231.5" r="87.3"/>
	<path class="st3" d="M331.4,283.6c2-3,3.8-6.1,5.4-9.3"/>
	<path class="st3" d="M339.9,267.7c2.9-7,5-14.3,6.3-21.7"/>
	<path class="st3" d="M347.3,235c0.1-1.7,0.1-3.4,0.1-5.1c0-41.5-26.3-78.5-65.6-92"/>
	<polyline class="st4" points="201.6,242.5 226.6,275.5 296.8,194.6 	"/>
</g>
</svg>
