<?xml version="1.0" encoding="utf-8"?>
<!-- Generator: Adobe Illustrator 24.1.1, SVG Export Plug-In . SVG Version: 6.00 Build 0)  -->
<svg version="1.1" id="Capa_1" xmlns="http://www.w3.org/2000/svg" xmlns:xlink="http://www.w3.org/1999/xlink" x="0px" y="0px"
	 viewBox="0 0 512 512" style="enable-background:new 0 0 512 512;" xml:space="preserve">
<style type="text/css">
	.st0{fill:#1F2F59;}
	.st1{fill:#FFFFFF;}
	.st2{fill:#0053A9;}
	.st3{fill:#00B0EC;}
	.st4{fill:none;stroke:#0053A9;stroke-width:7;stroke-miterlimit:10;}
</style>
<path class="st0" d="M124.9,2.6h251.6c11.6,0,21.1,9.4,21.1,21.1v467.2c0,11.6-9.4,21.1-21.1,21.1H124.9c-11.6,0-21.1-9.4-21.1-21.1
	V23.7C103.9,12.1,113.4,2.6,124.9,2.6z"/>
<path class="st1" d="M145.5,29.3h210.4c6.8,0,12.5,5.6,12.5,12.5v371.5c0,6.8-5.6,12.5-12.5,12.5H145.5c-6.8,0-12.5-5.6-12.5-12.5
	V41.8C133.1,34.9,138.6,29.3,145.5,29.3z"/>
<path class="st2" d="M269.2,472.3c0,10.3-8.3,18.5-18.5,18.5s-18.5-8.3-18.5-18.5c0-10.3,8.3-18.5,18.5-18.5S269.2,462,269.2,472.3
	L269.2,472.3"/>
<path class="st3" d="M338.1,328.7c0-44.4-39-80.3-87.1-80.3s-87.1,36-87.1,80.3H338.1z"/>
<path class="st4" d="M301.6,185.4c0,27.9-22.7,50.5-50.6,50.5c-27.9,0-50.5-22.7-50.5-50.6s22.6-50.5,50.6-50.5
	C279,134.9,301.6,157.5,301.6,185.4L301.6,185.4z"/>
</svg>
