<svg id="Capa_1" data-name="Capa 1" xmlns="http://www.w3.org/2000/svg" viewBox="0 0 512 512"><defs><style>.cls-1{fill:#0059ea;}.cls-2{fill:#bbbdc2;}.cls-3{fill:#174a9a;}.cls-4{fill:#fc1f25;}.cls-5{fill:#fff;}.cls-6,.cls-7{fill:none;stroke-width:4px;}.cls-6{stroke:#626364;stroke-miterlimit:10;}.cls-7{stroke:#a8abac;stroke-linecap:round;stroke-linejoin:round;}</style></defs><ellipse class="cls-1" cx="256" cy="416.79" rx="256.11" ry="12.96"/><path class="cls-2" d="M420.37,170.81h50.18a0,0,0,0,1,0,0V388.53a20.82,20.82,0,0,1-20.82,20.82H420.37a0,0,0,0,1,0,0V170.81A0,0,0,0,1,420.37,170.81Z"/><path class="cls-3" d="M431.47,85.25h12.37a26.7,26.7,0,0,1,26.7,26.7v92.91a0,0,0,0,1,0,0H431.47a0,0,0,0,1,0,0V85.25A0,0,0,0,1,431.47,85.25Z"/><path class="cls-4" d="M83.38,85.25h337A30.62,30.62,0,0,1,451,115.87v55.8a0,0,0,0,1,0,0H52.76a0,0,0,0,1,0,0v-55.8A30.62,30.62,0,0,1,83.38,85.25Z"/><path class="cls-5" d="M52.76,171.67H451a0,0,0,0,1,0,0v207a30.62,30.62,0,0,1-30.62,30.62h-337a30.62,30.62,0,0,1-30.62-30.62v-207A0,0,0,0,1,52.76,171.67Z"/><rect class="cls-4" x="52.76" y="138.49" width="66.38" height="66.38" rx="33.19"/><rect class="cls-4" x="119.13" y="138.49" width="66.38" height="66.38" rx="33.19"/><rect class="cls-4" x="185.51" y="138.49" width="66.38" height="66.38" rx="33.19"/><rect class="cls-4" x="251.89" y="138.49" width="66.38" height="66.38" rx="33.19"/><rect class="cls-4" x="318.26" y="138.49" width="66.38" height="66.38" rx="33.19"/><rect class="cls-4" x="384.64" y="138.49" width="66.38" height="66.38" rx="33.19"/><rect class="cls-6" x="172.9" y="232.42" width="163.06" height="176.92"/><line class="cls-6" x1="254.43" y1="232.42" x2="254.43" y2="409.35"/><line class="cls-7" x1="71.08" y1="311.15" x2="123.91" y2="258.33"/><line class="cls-7" x1="92.72" y1="306.56" x2="145.54" y2="253.74"/><line class="cls-7" x1="351.45" y1="308.86" x2="404.27" y2="256.04"/><line class="cls-7" x1="373.09" y1="304.26" x2="425.91" y2="251.44"/></svg>