<svg id="Capa_1" data-name="Capa 1" xmlns="http://www.w3.org/2000/svg" xmlns:xlink="http://www.w3.org/1999/xlink" viewBox="0 0 512 512"><defs><style>.cls-1,.cls-5{fill:none;}.cls-2{clip-path:url(#clip-path);}.cls-3{fill:#002861;}.cls-4{fill:#0053a9;}.cls-5{stroke:#ff1920;stroke-linecap:round;stroke-linejoin:round;stroke-width:9.92px;}</style><clipPath id="clip-path"><rect class="cls-1" x="1.04" y="104.86" width="453.42" height="302.26"/></clipPath></defs><g class="cls-2"><g class="cls-2"><path class="cls-3" d="M303.3,104.86a151.13,151.13,0,1,1-75.55,282.08,151.24,151.24,0,0,0,0-261.88,150.31,150.31,0,0,1,75.55-20.2"/><path class="cls-4" d="M227.75,125.06a151.24,151.24,0,0,1,0,261.88,151.23,151.23,0,0,1,0-261.88"/><path class="cls-4" d="M227.75,125.06a151.23,151.23,0,0,0,0,261.88,151.14,151.14,0,1,1,0-261.88"/></g></g><path class="cls-5" d="M304.37,53.38C416.27,53.38,507,144.05,507,256"/><path class="cls-5" d="M356.66,451.81a203.22,203.22,0,0,1-52.29,6.81c-4.71,0-9.44-.2-14.06-.5"/><path class="cls-5" d="M487.6,342.52A203.45,203.45,0,0,1,419,423.08"/></svg>