<?xml version="1.0" encoding="utf-8"?>
<!-- Generator: Adobe Illustrator 24.1.1, SVG Export Plug-In . SVG Version: 6.00 Build 0)  -->
<svg version="1.1" id="Capa_1" xmlns="http://www.w3.org/2000/svg" xmlns:xlink="http://www.w3.org/1999/xlink" x="0px" y="0px"
	 viewBox="0 0 512 512" style="enable-background:new 0 0 512 512;" xml:space="preserve">
<style type="text/css">
	.st0{fill:#E6E6E6;}
	.st1{fill:#ECEFF1;}
	.st2{fill:#D9D9D9;}
	.st3{fill:#00B0EC;}
	.st4{fill:none;stroke:#B0B0B0;stroke-width:8.6769;stroke-linecap:round;stroke-linejoin:round;}
	.st5{fill:#00499D;}
	.st6{fill:none;stroke:#00B2EF;stroke-width:8;stroke-linecap:round;stroke-linejoin:round;}
	.st7{fill:none;stroke:#EDEDED;stroke-width:8;stroke-linecap:round;stroke-linejoin:round;}
	.st8{fill:#FF1920;}
	.st9{fill:none;stroke:#FFFFFF;stroke-width:5;stroke-linecap:round;stroke-linejoin:round;}
</style>
<path class="st0" d="M333.6,76.4H143c-15.1,0-27.2,12.1-27.2,27.2v381.1c0,15.1,12.1,27.2,27.2,27.2h272.2
	c15.1,0,27.2-12.1,27.2-27.2l0,0V185.3L333.6,76.4z"/>
<path class="st1" d="M346.6,60.4H156.1c-15.1,0-27.2,12.1-27.2,27.2v381.1c0,15.1,12.1,27.2,27.2,27.2h272.2
	c15.1,0,27.2-12.1,27.2-27.2V169.3L346.6,60.4z"/>
<path class="st2" d="M346.6,60.4V142c0,15.1,12.1,27.2,27.2,27.2h81.7L346.6,60.4z"/>
<path class="st3" d="M268.3,274.8c-1.6,3.7-4,7.1-7,9.8c-3.1,2.9-6.8,5.2-10.8,6.8c-4.6,1.8-9.3,2.9-14.2,3.5v16.1h-17v-16.5
	c-7-0.9-14-2.6-20.5-5.3c-6.4-2.6-12.6-6.1-18.1-10.2l12.8-18.7c4.1,3.1,8.5,6,13,8.5c4.3,2.3,8.9,3.9,13.7,4.8v-26
	c-5.3-1.4-10.4-3.3-15.5-5.4c-4-1.7-7.7-4.1-11-7.2c-2.8-2.7-5.1-6-6.5-9.5c-1.5-4-2.3-8.4-2.2-12.7c-0.1-4.2,0.7-8.6,2.4-12.5
	c1.6-3.7,4-7.1,6.9-9.8c3.1-2.9,6.8-5.2,10.8-6.7c4.6-1.7,9.2-2.9,14.1-3.4v-9.5h17v9.9c11,1.5,21.4,5.6,30.4,12.1l-11,19.2
	c-3.3-2.2-6.5-4.1-10-5.9c-3.3-1.6-6.7-2.9-10.3-3.8v24.7c12.5,3.4,21.5,7.8,27.1,13.3c5.6,5.5,8.5,12.8,8.5,22
	C270.9,266.6,270.1,270.9,268.3,274.8z M220.1,200.8c-3.9,0.5-6.8,1.7-8.6,3.6c-1.7,1.7-2.7,4.2-2.7,6.7c0,2.4,0.8,4.7,2.3,6.5
	s4.6,3.6,9,5.2L220.1,200.8z M244.6,256.6c-1.6-1.8-4.7-3.6-9.1-5.2v22.9c7.7-1.2,11.6-4.8,11.6-10.6
	C247.1,261,246.2,258.5,244.6,256.6L244.6,256.6z"/>
<line class="st4" x1="309.2" y1="244.8" x2="408" y2="244.8"/>
<line class="st4" x1="309.2" y1="196.6" x2="408" y2="196.6"/>
<line class="st4" x1="308.7" y1="292.9" x2="408" y2="292.9"/>
<line class="st4" x1="177.4" y1="341.1" x2="408" y2="341.1"/>
<line class="st4" x1="174.9" y1="389.1" x2="408" y2="389.1"/>
<line class="st4" x1="174.9" y1="437.3" x2="408" y2="437.3"/>
<g>
	<path id="Rectángulo_91" class="st5" d="M0,0h203.3c8.1,0,14.7,6.5,14.7,14.7v138.9H14.7c-8.1,0-14.7-6.5-14.7-14.7l0,0
		C0,138.9,0,0,0,0z"/>
	<line id="Línea_32" class="st6" x1="79.6" y1="120" x2="126.4" y2="120"/>
	<line id="Línea_33" class="st6" x1="143.5" y1="120.1" x2="189.7" y2="120.1"/>
	<line id="Línea_42" class="st7" x1="57.1" y1="55.7" x2="93.3" y2="55.7"/>
	<line id="Línea_43" class="st7" x1="17.9" y1="55.7" x2="37.7" y2="55.7"/>
	<line id="Línea_44" class="st7" x1="19.4" y1="30.7" x2="93.3" y2="30.7"/>
	<circle id="Elipse_13" class="st8" cx="143.8" cy="42.8" r="20.1"/>
	<path id="Trazado_393" class="st9" d="M174.6,22.5c11,0.1,20,9.2,19.8,20.2s-9.2,20-20.2,19.8"/>
	<line id="Línea_45" class="st6" x1="17.9" y1="120.6" x2="61" y2="120.6"/>
</g>
</svg>
