<svg id="Capa_1" data-name="Capa 1" xmlns="http://www.w3.org/2000/svg" viewBox="0 0 512 512"><defs><style>.cls-1{fill:#1f2f59;}.cls-2{fill:#fff;}.cls-3{fill:#0059ea;}.cls-4,.cls-5{fill:none;stroke-linecap:round;stroke-linejoin:round;}.cls-4{stroke:#fff;stroke-width:7.28px;}.cls-5{stroke:#00b0ec;stroke-width:9.1px;}.cls-6{fill:#ff1634;}.cls-7{fill:#e7e8e9;}</style></defs><rect class="cls-1" x="97.74" y="2.62" width="266.05" height="461.37" rx="19.07"/><rect class="cls-2" x="124.17" y="26.83" width="213.19" height="359.09" rx="11.28"/><circle class="cls-3" cx="382.88" cy="371.96" r="92.04"/><polyline class="cls-4" points="365.86 325.2 343.22 347.83 365.86 370.47 343.59 347.83 429.02 347.83"/><polyline class="cls-4" points="407.08 420.04 429.72 397.4 407.08 374.77 429.35 397.4 343.92 397.4"/><line class="cls-5" x1="164.93" y1="215.29" x2="246.97" y2="133.26"/><line class="cls-5" x1="168.57" y1="268.92" x2="296.6" y2="137.25"/><path class="cls-6" d="M247.53,428a16.76,16.76,0,1,1-16.76-16.76A16.76,16.76,0,0,1,247.53,428"/><ellipse id="Elipse_6" data-name="Elipse 6" class="cls-7" cx="235" cy="488.93" rx="142.31" ry="8.66"/></svg>