<svg id="Capa_1" data-name="Capa 1" xmlns="http://www.w3.org/2000/svg" viewBox="0 0 512 512"><defs><style>.cls-1{fill:#0054a6;}.cls-2,.cls-3,.cls-4,.cls-6,.cls-8{fill:none;stroke-linecap:round;stroke-linejoin:round;}.cls-2,.cls-4,.cls-8{stroke:#fff;}.cls-2{stroke-width:11.13px;}.cls-3{stroke:#0059ea;stroke-width:20.65px;}.cls-4{stroke-width:5.57px;}.cls-5{fill:#00a1d6;}.cls-6{stroke:#1f2f59;stroke-width:10px;}.cls-7{fill:#1f2f59;}.cls-8{stroke-width:13.18px;}</style></defs><polygon class="cls-1" points="405.22 436.57 94.68 436.57 94.68 13.61 315.68 13.61 405.22 100.2 405.22 436.57"/><rect class="cls-2" x="150.56" y="75.1" width="150.26" height="180.87" rx="16.52" transform="translate(451.38 331.07) rotate(-180)"/><path class="cls-3" d="M405.19,166.16V116.29a25,25,0,0,0-7.57-18.14L315,19.68a21.56,21.56,0,0,0-14.8-6.12H117.13c-12.36,0-22.49,10.79-22.49,24.15V412.48c0,13.24,10.13,24,22.49,24H382.7c12.36,0,22.49-10.8,22.49-24v-174"/><polyline class="cls-4" points="200.67 79.74 200.67 139.04 293.45 139.04"/><line class="cls-4" x1="248.75" y1="79.74" x2="248.75" y2="139.05"/><line class="cls-4" x1="200.67" y1="192.02" x2="200.67" y2="251.33"/><line class="cls-4" x1="248.75" y1="192.02" x2="248.75" y2="251.33"/><line class="cls-4" x1="157.92" y1="192.27" x2="293.45" y2="192.27"/><ellipse id="Elipse_6" data-name="Elipse 6" class="cls-5" cx="247.32" cy="484.81" rx="167.73" ry="13.58"/><line class="cls-6" x1="478.2" y1="363.84" x2="445.59" y2="354.41"/><line class="cls-6" x1="471.17" y1="318.62" x2="441.44" y2="335.01"/><line class="cls-6" x1="438.31" y1="292.61" x2="428.87" y2="325.22"/><circle class="cls-7" cx="356.86" cy="385" r="75.55"/><polyline class="cls-8" points="342.18 419.23 308.56 385.61 342.18 352.01 309.12 385.61 408.94 385.61"/></svg>