<svg id="Capa_1" data-name="Capa 1" xmlns="http://www.w3.org/2000/svg" viewBox="0 0 512 512"><defs><style>.cls-1{fill:#00b2ef;}.cls-2{fill:#002c60;}.cls-3,.cls-4{fill:none;stroke-miterlimit:10;stroke-width:13px;}.cls-3{stroke:#fc1f25;}.cls-4{stroke:#7f1224;}</style></defs><path class="cls-1" d="M80.76,226.55H417a0,0,0,0,1,0,0V457.86a46.76,46.76,0,0,1-46.76,46.76H127.51a46.76,46.76,0,0,1-46.76-46.76V226.55A0,0,0,0,1,80.76,226.55Z"/><polygon class="cls-2" points="80.76 226.55 80.76 293.02 416.96 259.79 416.96 226.55 80.76 226.55"/><rect class="cls-1" x="55.75" y="126.74" width="386.22" height="106.25" rx="39.93"/><path class="cls-3" d="M482.6,74.36a55.75,55.75,0,0,1-55.75,55.75H248.68L395.07,28.55c37-25.65,87.53.81,87.53,45.81Z"/><path class="cls-3" d="M14.77,74.36a55.75,55.75,0,0,0,55.75,55.75H248.68L102.3,28.55c-37-25.65-87.53.81-87.53,45.81Z"/><circle class="cls-3" cx="248.86" cy="98.03" r="28.72"/><line class="cls-3" x1="248.86" y1="126.74" x2="248.86" y2="232.99"/><line class="cls-4" x1="248.86" y1="232.48" x2="248.86" y2="276.42"/><line class="cls-3" x1="248.86" y1="275.91" x2="248.86" y2="504.62"/></svg>