<?xml version="1.0" encoding="utf-8"?>
<!-- Generator: Adobe Illustrator 24.1.1, SVG Export Plug-In . SVG Version: 6.00 Build 0)  -->
<svg version="1.1" id="Capa_1" xmlns="http://www.w3.org/2000/svg" xmlns:xlink="http://www.w3.org/1999/xlink" x="0px" y="0px"
	 viewBox="0 0 512 512" style="enable-background:new 0 0 512 512;" xml:space="preserve">
<style type="text/css">
	.st0{fill:#BCBCBC;}
	.st1{fill:#FC1F25;}
	.st2{fill:#FFFFFF;}
	.st3{fill:none;stroke:#FFFFFF;stroke-width:9.3877;stroke-linecap:round;stroke-linejoin:round;stroke-dasharray:9.2534,27.7737;}
	.st4{fill:none;stroke:#0059EA;stroke-width:14.0346;stroke-linecap:round;stroke-linejoin:round;}
</style>
<ellipse id="Elipse_6" class="st0" cx="248.6" cy="500.9" rx="172.1" ry="11.1"/>
<circle id="Oval" class="st1" cx="241.8" cy="234.6" r="205.3"/>
<path class="st2" d="M323.4,299.5c-3.2,7.1-7.8,13.4-13.4,18.7c-6.1,5.6-13.2,10-20.9,13c-8.7,3.5-17.9,5.7-27.3,6.6v31h-32.6v-31.7
	c-13.5-1.7-26.7-5.1-39.4-10.2c-12.4-5-24-11.5-34.6-19.6l24.5-35.8c7.9,6,16.2,11.4,24.9,16.1c8.2,4.3,17,7.5,26.2,9.2v-49.7
	c-10.1-2.7-20-6.2-29.6-10.5c-7.7-3.4-14.8-8-21-13.6c-5.5-5.1-9.7-11.4-12.5-18.3c-3-7.7-4.4-16-4.2-24.3
	c-0.1-8.2,1.5-16.3,4.7-23.8c3.1-7.1,7.6-13.4,13.3-18.7c6.1-5.5,13.2-9.9,20.8-12.9c8.7-3.4,17.8-5.5,27-6.4v-18.3h32.6v18.8
	c21,2.9,41,10.9,58.3,23.2l-21,36.7c-6.1-4.1-12.5-7.8-19.1-11.1c-6.3-3.2-12.9-5.6-19.8-7.4V208c23.8,6.5,41.1,15,51.9,25.5
	c10.7,10.5,16.1,24.6,16.1,42.2C328.4,283.9,326.8,292,323.4,299.5z M230.8,157.8c-7.5,1.1-13,3.4-16.5,6.9c-3.4,3.4-5.3,8-5.2,12.9
	c-0.1,4.6,1.5,9,4.4,12.5c2.9,3.6,8.7,6.9,17.2,10v-42.3H230.8z M277.8,264.7c-3.1-3.6-9-6.9-17.6-10v43.9
	c14.8-2.3,22.2-9.1,22.3-20.4C282.6,273.3,281,268.5,277.8,264.7L277.8,264.7z"/>
<circle class="st3" cx="241.8" cy="234.6" r="182.7"/>
<path id="Oval-2" class="st4" d="M445.3,340.3C406.4,418,327.6,467,241.5,467C115.3,467,13.1,363.6,13.1,236S115.3,5,241.5,5
	s228.4,103.4,228.4,231"/>
<polyline class="st4" points="434.5,210.7 470.1,237.8 501.6,203.8 "/>
</svg>
