<?xml version="1.0" encoding="utf-8"?>
<!-- Generator: Adobe Illustrator 24.1.1, SVG Export Plug-In . SVG Version: 6.00 Build 0)  -->
<svg version="1.1" id="Capa_1" xmlns="http://www.w3.org/2000/svg" xmlns:xlink="http://www.w3.org/1999/xlink" x="0px" y="0px"
	 viewBox="0 0 512 512" style="enable-background:new 0 0 512 512;" xml:space="preserve">
<style type="text/css">
	.st0{fill:#1F2F59;}
	.st1{fill:#FFFFFF;}
	.st2{fill:#0059EA;}
	.st3{fill:none;stroke:#00B0EC;stroke-width:9.7522;stroke-linecap:round;stroke-linejoin:round;}
	.st4{fill:#FC1F25;}
	.st5{fill:none;stroke:#FFFFFF;stroke-width:5.1288;stroke-linecap:round;stroke-linejoin:round;stroke-dasharray:5.0551,15.1548;}
	.st6{fill:none;stroke:#0059EA;stroke-width:8.4989;stroke-linecap:round;stroke-linejoin:round;}
</style>
<g>
	<path class="st0" d="M99.2,0h226c19.1,0,34.6,15.5,34.6,34.6v442.7c0,19.1-15.5,34.6-34.6,34.6h-226c-19.1,0-34.6-15.5-34.6-34.6
		V34.6C64.5,15.5,80.1,0,99.2,0z"/>
	<path class="st1" d="M114.3,26.9H310c11.3,0,20.5,9.2,20.5,20.5v357.5c0,11.3-9.2,20.5-20.5,20.5H114.3c-11.3,0-20.5-9.2-20.5-20.5
		V47.3C93.9,36,103,26.9,114.3,26.9z"/>
	<path class="st2" d="M230.8,472.1c0,10.3-8.3,18.6-18.6,18.6s-18.6-8.3-18.6-18.6c0-10.3,8.3-18.6,18.6-18.6c0,0,0,0,0,0l0,0
		C222.4,453.5,230.7,461.8,230.8,472.1"/>
	<line class="st3" x1="282.8" y1="296.1" x2="194.9" y2="383.9"/>
	<line class="st3" x1="278.9" y1="238.6" x2="141.7" y2="379.7"/>
	<circle class="st1" cx="340.9" cy="249" r="125.7"/>
	<circle id="Oval" class="st4" cx="340.9" cy="249" r="112.1"/>
	<path class="st1" d="M385.4,284.4c-1.8,3.9-4.3,7.3-7.4,10.2c-3.3,3-7.2,5.4-11.4,7.1c-4.8,1.9-9.8,3.1-14.9,3.6v16.9H334V305
		c-7.4-0.9-14.6-2.8-21.5-5.6c-6.8-2.7-13.1-6.3-19-10.7l13.4-19.5c4.3,3.3,8.9,6.3,13.7,8.9c4.5,2.4,9.3,4.1,14.3,5.1v-27.2
		c-5.5-1.5-10.9-3.4-16.2-5.7c-4.2-1.8-8.1-4.3-11.5-7.4c-3-2.8-5.3-6.2-6.8-10c-1.6-4.2-2.4-8.7-2.3-13.3c-0.1-4.5,0.8-8.9,2.6-13
		c1.7-3.9,4.2-7.3,7.3-10.2c3.3-3,7.2-5.4,11.4-7c4.7-1.8,9.7-3,14.7-3.5v-9.9h17.8V186c11.5,1.6,22.4,5.9,31.8,12.6l-11.5,20
		c-3.4-2.2-6.8-4.3-10.4-6.1c-3.4-1.7-7-3.1-10.8-4v25.8c13,3.5,22.5,8.2,28.3,13.9c5.9,5.8,8.8,13.5,8.8,23
		C388.2,275.9,387.3,280.3,385.4,284.4z M334.9,207.1c-4.1,0.6-7.1,1.8-9,3.8c-1.8,1.9-2.9,4.4-2.8,7c0,2.5,0.8,4.9,2.4,6.8
		c1.6,1.9,4.7,3.8,9.4,5.5V207.1z M360.5,265.4c-1.7-1.9-4.9-3.8-9.6-5.5v24c8.1-1.3,12.2-5,12.2-11.1
		C363.2,270.1,362.3,267.4,360.5,265.4L360.5,265.4z"/>
	<circle class="st5" cx="340.9" cy="249" r="99.7"/>
	<path id="Oval-2" class="st6" d="M455.7,307.1c-32.1,63.5-109.5,88.9-173,56.8c-63.5-32.1-88.9-109.5-56.8-173s109.5-88.9,173-56.8
		c43.3,21.9,70.6,66.3,70.7,114.9"/>
	<polyline class="st6" points="449.7,234.9 469.7,250 487.5,231.1 	"/>
</g>
</svg>
