<svg id="Capa_1" data-name="Capa 1" xmlns="http://www.w3.org/2000/svg" viewBox="0 0 512 512"><defs><style>.cls-1{fill:#e6e6e6;}.cls-2{fill:#eceff1;}.cls-3{fill:#d9d9d9;}.cls-10,.cls-4,.cls-5,.cls-6,.cls-8{fill:none;stroke-linecap:round;stroke-linejoin:round;}.cls-4,.cls-5{stroke:#b0b0b0;}.cls-10,.cls-4{stroke-width:9px;}.cls-5{stroke-width:9.81px;}.cls-6{stroke:#fc1f25;stroke-width:4.08px;}.cls-7{fill:#fc1f25;}.cls-8{stroke:#fff;stroke-width:4.16px;stroke-dasharray:4.13 12.4;}.cls-9{fill:#fff;}.cls-10{stroke:#0054a6;}</style></defs><path class="cls-1" d="M280.19,19.36H64.66A30.83,30.83,0,0,0,33.87,50.15V481.21A30.81,30.81,0,0,0,64.66,512H372.58a30.79,30.79,0,0,0,30.79-30.79h0V142.52Z"/><path class="cls-2" d="M295,1.25H79.42A30.83,30.83,0,0,0,48.64,32V463.1a30.81,30.81,0,0,0,30.78,30.79H387.34a30.81,30.81,0,0,0,30.79-30.79V124.4Z"/><path class="cls-3" d="M295,1.25V93.61a30.8,30.8,0,0,0,30.79,30.79h92.38Z"/><line class="cls-4" x1="157.04" y1="209.82" x2="364.36" y2="209.82"/><line class="cls-5" x1="252.65" y1="155.38" x2="364.36" y2="155.38"/><line class="cls-4" x1="154.81" y1="264.26" x2="364.36" y2="264.26"/><line class="cls-4" x1="157.04" y1="318.7" x2="364.36" y2="318.7"/><line class="cls-4" x1="154.81" y1="373.14" x2="364.36" y2="373.14"/><line class="cls-4" x1="154.81" y1="427.57" x2="364.36" y2="427.57"/><path class="cls-6" d="M444.17,161a110.74,110.74,0,0,0-9.35-7.53"/><path class="cls-6" d="M465.07,186.8A106.81,106.81,0,0,0,450,166.64"/><path class="cls-6" d="M440.63,324.58a108.38,108.38,0,0,0,32.09-121.65q-1-2.66-2.13-5.24"/><circle class="cls-7" cx="367.78" cy="240.7" r="98.41"/><circle class="cls-8" cx="367.78" cy="240.7" r="81.55"/><path class="cls-9" d="M398.42,260.5a21.88,21.88,0,0,1-5.05,7,25.54,25.54,0,0,1-7.82,4.88,37,37,0,0,1-10.24,2.48v11.65H363.07V274.62a57.61,57.61,0,0,1-14.77-3.84,56,56,0,0,1-13-7.35L344.47,250a69.29,69.29,0,0,0,9.36,6.06,35.69,35.69,0,0,0,9.82,3.47V240.84a75.74,75.74,0,0,1-11.12-3.94,28.7,28.7,0,0,1-7.89-5.12,19.1,19.1,0,0,1-4.7-6.89,24.07,24.07,0,0,1-1.6-9.12,22,22,0,0,1,1.77-8.94,20.82,20.82,0,0,1,5-7,24.66,24.66,0,0,1,7.83-4.83,38,38,0,0,1,10.14-2.41v-6.83h12.24v7.06a49.27,49.27,0,0,1,21.89,8.71l-7.89,13.77a67.5,67.5,0,0,0-7.18-4.18,36.3,36.3,0,0,0-7.41-2.76v17.77q13.42,3.66,19.48,9.59t6.06,15.83A21.39,21.39,0,0,1,398.42,260.5Zm-34.78-53.2c-2.82.39-4.88,1.26-6.18,2.59a6.66,6.66,0,0,0-1.95,4.82,7.2,7.2,0,0,0,1.65,4.71q1.65,2,6.48,3.77Zm17.64,40.13c-1.17-1.33-3.37-2.59-6.59-3.76v16.47q8.35-1.29,8.36-7.65a7.39,7.39,0,0,0-1.76-5.06Z"/><line class="cls-10" x1="133.24" y1="209.82" x2="95.81" y2="209.82"/><line class="cls-10" x1="133.24" y1="265.68" x2="95.81" y2="265.68"/><line class="cls-10" x1="133.24" y1="318.7" x2="95.81" y2="318.7"/><line class="cls-10" x1="133.24" y1="373.14" x2="95.81" y2="373.14"/><line class="cls-10" x1="133.24" y1="427.57" x2="95.81" y2="427.57"/></svg>