<svg id="Capa_1" data-name="Capa 1" xmlns="http://www.w3.org/2000/svg" viewBox="0 0 510.04 357"><defs><style>.cls-1{fill:#00a1e0;}.cls-2{fill:#fff;}</style></defs><path class="cls-1" d="M213.23,116.44a89.37,89.37,0,0,1,64.68-27.77c33.66,0,63,18.77,78.68,46.64a108.81,108.81,0,0,1,44.47-9.45c60.73,0,110,49.66,110,110.92s-49.23,110.92-110,110.92a108.81,108.81,0,0,1-21.65-2.16,80.4,80.4,0,0,1-105.33,33.08,91.7,91.7,0,0,1-170.47-4.15,84.13,84.13,0,0,1-17.5,1.83c-47,0-85.13-38.51-85.13-86a86.14,86.14,0,0,1,42.57-74.51,99.05,99.05,0,0,1,169.68-99.33" transform="translate(-0.98 -77.5)"/><path class="cls-2" d="M74.85,262.63c-.32.84.12,1,.22,1.16A28.53,28.53,0,0,0,78,265.54a30.94,30.94,0,0,0,15.25,3.57c10.46,0,17-5.56,17-14.52v-.18c0-8.28-7.33-11.29-14.21-13.46l-.89-.29c-5.19-1.69-9.66-3.14-9.66-6.55v-.18c0-2.93,2.61-5.08,6.67-5.08a30.19,30.19,0,0,1,13.29,3.4s1,.66,1.38-.32c.2-.53,2-5.22,2.13-5.73a1,1,0,0,0-.51-1.18,29.65,29.65,0,0,0-15-4h-1c-9.58,0-16.26,5.78-16.26,14.07v.17c0,8.75,7.37,11.58,14.28,13.55l1.11.35c5,1.54,9.37,2.87,9.37,6.42v.17c0,3.24-2.81,5.66-7.36,5.66A24.77,24.77,0,0,1,80,257.52c-.73-.43-1.16-.74-1.73-1.09a.83.83,0,0,0-1.37.48l-2.07,5.72Z" transform="translate(-0.98 -77.5)"/><path class="cls-2" d="M228,262.63c-.32.84.12,1,.22,1.16a29.52,29.52,0,0,0,2.91,1.75,30.94,30.94,0,0,0,15.25,3.57c10.46,0,17-5.56,17-14.52v-.18c0-8.28-7.33-11.29-14.21-13.46l-.9-.29c-5.18-1.69-9.66-3.14-9.66-6.55v-.18c0-2.93,2.62-5.08,6.67-5.08a30.27,30.27,0,0,1,13.3,3.4s1,.66,1.38-.32l2.13-5.73a1,1,0,0,0-.51-1.18,29.68,29.68,0,0,0-15-4h-1c-9.57,0-16.26,5.78-16.26,14.07v.17c0,8.75,7.38,11.58,14.29,13.55l1.11.35c5,1.54,9.38,2.87,9.38,6.42v.17c0,3.24-2.83,5.66-7.38,5.66a24.81,24.81,0,0,1-13.48-3.88c-.73-.43-1.17-.73-1.72-1.09a.9.9,0,0,0-1.38.48L228,262.63Z" transform="translate(-0.98 -77.5)"/><path class="cls-2" d="M332.58,245.08c0,5.07-.94,9.06-2.8,11.88s-4.63,4.14-8.5,4.14-6.66-1.35-8.47-4.14-2.76-6.81-2.76-11.88.93-9,2.76-11.82,4.58-4.11,8.47-4.11,6.66,1.34,8.5,4.11,2.8,6.77,2.8,11.82m8.73-9.38a20.92,20.92,0,0,0-4-7.59,19.24,19.24,0,0,0-6.71-5.1,24.36,24.36,0,0,0-18.72,0,19.34,19.34,0,0,0-6.71,5.1,21.33,21.33,0,0,0-4,7.59,35,35,0,0,0,0,18.77,21.42,21.42,0,0,0,4,7.59,18.74,18.74,0,0,0,6.71,5.05,24.85,24.85,0,0,0,18.72,0,18.74,18.74,0,0,0,6.71-5.05,20.92,20.92,0,0,0,4-7.59,34.78,34.78,0,0,0,0-18.77" transform="translate(-0.98 -77.5)"/><path class="cls-2" d="M413,259.75a.83.83,0,0,0-1.11-.53,19.45,19.45,0,0,1-4.06,1.16,31,31,0,0,1-4.79.35c-4.23,0-7.59-1.26-10-3.75s-3.77-6.5-3.75-11.93c0-5,1.21-8.67,3.35-11.5s5.37-4.27,9.69-4.27a29,29,0,0,1,9.23,1.32s.69.3,1-.6c.76-2.12,1.33-3.64,2.14-6a.8.8,0,0,0-.54-1,33.9,33.9,0,0,0-5.83-1.46,42.27,42.27,0,0,0-6.55-.45A23.77,23.77,0,0,0,392.1,223a20.12,20.12,0,0,0-7,5.09,21.74,21.74,0,0,0-4.25,7.58,30.41,30.41,0,0,0-1.42,9.41c0,7.24,2,13.1,5.81,17.38s9.67,6.49,17.24,6.49a35.56,35.56,0,0,0,12.37-2.21.79.79,0,0,0,.35-1L413,259.75Z" transform="translate(-0.98 -77.5)"/><path class="cls-2" d="M428.31,240.23a17.06,17.06,0,0,1,2.39-7,9.41,9.41,0,0,1,8.45-4.29,9.17,9.17,0,0,1,8.28,4.29,14.58,14.58,0,0,1,2,7Zm29.4-6.18a18.47,18.47,0,0,0-3.78-6.92,17.5,17.5,0,0,0-5.61-4.28,21.63,21.63,0,0,0-8.47-1.71,23.22,23.22,0,0,0-9.76,1.89,19.57,19.57,0,0,0-6.81,5.2,21.34,21.34,0,0,0-4,7.67,33,33,0,0,0-1.3,9.44,31.76,31.76,0,0,0,1.34,9.44A19,19,0,0,0,431,267.22,29.87,29.87,0,0,0,441.77,269c8.54,0,13-1.93,14.89-2.95.33-.19.64-.51.25-1.42L455,259.17a.84.84,0,0,0-1.11-.51,28.65,28.65,0,0,1-12.13,2.18c-4.59,0-8-1.36-10.11-3.48s-3.26-5.34-3.45-9.83l29.57,0a.87.87,0,0,0,.85-.77,31.64,31.64,0,0,0-.88-12.74Z" transform="translate(-0.98 -77.5)"/><path class="cls-2" d="M191.55,240.23a17.21,17.21,0,0,1,2.39-7,9.41,9.41,0,0,1,8.45-4.29,9.2,9.2,0,0,1,8.29,4.29,14.69,14.69,0,0,1,1.95,7Zm29.4-6.18a18.61,18.61,0,0,0-3.78-6.92,17.5,17.5,0,0,0-5.61-4.28,21.66,21.66,0,0,0-8.47-1.71,23.22,23.22,0,0,0-9.76,1.89,19.48,19.48,0,0,0-6.81,5.2,21.34,21.34,0,0,0-4,7.67,33.39,33.39,0,0,0-1.3,9.44,31.76,31.76,0,0,0,1.34,9.44,19,19,0,0,0,11.72,12.44A29.87,29.87,0,0,0,205,269c8.54,0,13-1.93,14.89-2.95.33-.19.64-.51.25-1.42l-1.93-5.41a.86.86,0,0,0-1.12-.51A28.63,28.63,0,0,1,205,260.84c-4.58,0-8-1.36-10.11-3.48s-3.25-5.34-3.44-9.83l29.56,0a.88.88,0,0,0,.86-.77,31.64,31.64,0,0,0-.88-12.74Z" transform="translate(-0.98 -77.5)"/><path class="cls-2" d="M127.65,259.59a6,6,0,0,1-1.71-1.75,7.15,7.15,0,0,1-.88-3.84,6.47,6.47,0,0,1,2.64-5.73s2.54-2.22,8.57-2.14a60.16,60.16,0,0,1,8,.69v13.44h0a61.39,61.39,0,0,1-8,1.06c-6,.36-8.69-1.74-8.67-1.73m11.76-20.77c-1.2-.09-2.75-.14-4.61-.14a27.88,27.88,0,0,0-7.28.94,18.85,18.85,0,0,0-6.18,2.86,13.74,13.74,0,0,0-5.86,11.69,15.45,15.45,0,0,0,1.35,6.75,12.12,12.12,0,0,0,3.86,4.62,16.13,16.13,0,0,0,6,2.61,35.38,35.38,0,0,0,7.83.8,53.52,53.52,0,0,0,9-.75c2.89-.49,6.45-1.21,7.44-1.44s2.07-.53,2.07-.53a.93.93,0,0,0,.68-1l0-27c0-5.93-1.58-10.33-4.7-13s-7.67-4.09-13.58-4.09a48.6,48.6,0,0,0-7.92.73s-6.45,1.25-9.11,3.33a.92.92,0,0,0-.26,1.18l2.09,5.62a.74.74,0,0,0,1,.48,4.06,4.06,0,0,0,.49-.24c5.69-3.09,12.88-3,12.88-3,3.2,0,5.66.64,7.31,1.91s2.44,3.1,2.44,7v1.25c-2.55-.36-4.88-.57-4.88-.57" transform="translate(-0.98 -77.5)"/><path class="cls-2" d="M377.85,223.58a.8.8,0,0,0-.44-1.06,26.75,26.75,0,0,0-5-.85,14.77,14.77,0,0,0-7.62,1.23,13.52,13.52,0,0,0-5,3.69V223a.86.86,0,0,0-.85-.9h-7.57a.86.86,0,0,0-.85.9v44.09a.9.9,0,0,0,.9.9h7.76a.9.9,0,0,0,.9-.9v-22a25.68,25.68,0,0,1,1-7.76,11.28,11.28,0,0,1,2.58-4.35,9.19,9.19,0,0,1,3.66-2.19,14.29,14.29,0,0,1,4-.56,16.55,16.55,0,0,1,3.24.4c.57.06.89-.28,1.08-.8.51-1.35,1.95-5.4,2.22-6.21" transform="translate(-0.98 -77.5)"/><path class="cls-2" d="M305,203.15a25.58,25.58,0,0,0-2.92-.7,23.64,23.64,0,0,0-4-.3c-5.35,0-9.56,1.51-12.52,4.49s-4.94,7.47-5.94,13.41l-.36,2h-6.72a1,1,0,0,0-1,.85l-1.09,6.16c-.08.58.17.95,1,.95h6.53l-6.63,37a45.44,45.44,0,0,1-1.77,7.28,14.83,14.83,0,0,1-2.07,4.21,5.41,5.41,0,0,1-2.7,2.08,10.75,10.75,0,0,1-3.48.51,12.75,12.75,0,0,1-2.37-.27,7.16,7.16,0,0,1-1.6-.51.81.81,0,0,0-1.06.47c-.24.63-2,5.42-2.2,6a.89.89,0,0,0,.46,1.18,24.52,24.52,0,0,0,2.7.8,18.19,18.19,0,0,0,4.33.4,21.67,21.67,0,0,0,7.26-1.12,13.7,13.7,0,0,0,5.47-3.81,19.51,19.51,0,0,0,3.83-6.62,55.15,55.15,0,0,0,2.6-9.92L287.32,230h9.73a1,1,0,0,0,1-.87l1.1-6.14c.08-.59-.17-.95-1-.95h-9.46a41.67,41.67,0,0,1,1.57-6.67,8.6,8.6,0,0,1,2.07-3.16,6.23,6.23,0,0,1,2.48-1.54,10.37,10.37,0,0,1,3.17-.45,12.25,12.25,0,0,1,2.43.24c.91.2,1.27.3,1.51.37,1,.29,1.1,0,1.28-.46l2.26-6.2a.78.78,0,0,0-.54-1" transform="translate(-0.98 -77.5)"/><path class="cls-2" d="M172.88,267.09a.86.86,0,0,1-.85.89h-7.84a.85.85,0,0,1-.84-.89V204a.85.85,0,0,1,.84-.89H172a.86.86,0,0,1,.85.89v63.1Z" transform="translate(-0.98 -77.5)"/></svg>