<?xml version="1.0" encoding="utf-8"?>
<!-- Generator: Adobe Illustrator 24.1.1, SVG Export Plug-In . SVG Version: 6.00 Build 0)  -->
<svg version="1.1" id="Capa_1" xmlns="http://www.w3.org/2000/svg" xmlns:xlink="http://www.w3.org/1999/xlink" x="0px" y="0px"
	 viewBox="0 0 512 512" style="enable-background:new 0 0 512 512;" xml:space="preserve">
<style type="text/css">
	.st0{fill:#0054A6;}
	.st1{fill:#0459E8;}
	.st2{fill:#002C60;}
	.st3{fill:#00B1EC;}
</style>
<path class="st0" d="M120.9,105.9l-34.7-26c-1.5-1.1-3.3-1.7-5.2-1.7H8.7c-4.8,0-8.7-3.9-8.7-8.7l0,0c0-4.8,3.9-8.7,8.7-8.7h78.1
	c1.9,0,3.7,0.6,5.2,1.7L131.3,92c3.8,2.9,4.6,8.3,1.7,12.1l0,0C130.2,108,124.8,108.7,120.9,105.9L120.9,105.9z"/>
<path class="st0" d="M8.7,17.4L8.7,17.4c4.8,0,8.7,3.9,8.7,8.7l0,0c0,4.8-3.9,8.7-8.7,8.7l0,0C3.9,34.7,0,30.8,0,26l0,0
	C0,21.2,3.9,17.4,8.7,17.4z"/>
<path class="st0" d="M43.4,17.4h26c4.8,0,8.7,3.9,8.7,8.7l0,0c0,4.8-3.9,8.7-8.7,8.7h-26c-4.8,0-8.7-3.9-8.7-8.7l0,0
	C34.7,21.2,38.6,17.4,43.4,17.4z"/>
<path class="st0" d="M512,459.9c0,4.8-3.9,8.7-8.7,8.7H399.2c-1.9,0-3.7-0.6-5.2-1.7l-39.4-29.5c-3.8-2.9-4.6-8.3-1.7-12.1l0,0l0,0
	c2.9-3.8,8.3-4.6,12.1-1.7l0,0l34.7,26c1.5,1.1,3.3,1.7,5.2,1.7h98.4C508.1,451.2,512,455.1,512,459.9L512,459.9z"/>
<path class="st0" d="M503.3,494.6L503.3,494.6c4.8,0,8.7,3.9,8.7,8.7l0,0c0,4.8-3.9,8.7-8.7,8.7l0,0c-4.8,0-8.7-3.9-8.7-8.7l0,0
	C494.6,498.5,498.5,494.6,503.3,494.6z"/>
<path class="st0" d="M416.5,494.6h52.1c4.8,0,8.7,3.9,8.7,8.7l0,0c0,4.8-3.9,8.7-8.7,8.7h-52.1c-4.8,0-8.7-3.9-8.7-8.7l0,0
	C407.9,498.5,411.7,494.6,416.5,494.6z"/>
<path class="st1" d="M468.6,251.7c0,115-93.3,208.3-208.3,208.3S52.1,366.6,52.1,251.7S145.4,43.4,260.3,43.4v86.8
	c-67.1,0-121.5,54.4-121.5,121.5s54.4,121.5,121.5,121.5s121.5-54.4,121.5-121.5H468.6z"/>
<path class="st2" d="M260.3,373.2v86.8c-115,0-208.3-93.3-208.3-208.3h86.8C138.8,318.8,193.2,373.2,260.3,373.2z"/>
<path class="st3" d="M512,208.3h-86.8c0-67.1-54.4-121.5-121.5-121.5l0,0V0C418.7,0,512,93.3,512,208.3z"/>
</svg>
