<svg id="Capa_1" data-name="Capa 1" xmlns="http://www.w3.org/2000/svg" viewBox="0 0 512 512"><defs><style>.cls-1{fill:#00b2ef;}.cls-2,.cls-3,.cls-5{fill:none;}.cls-2{stroke:#fff;}.cls-2,.cls-3{stroke-miterlimit:10;stroke-width:9.19px;}.cls-3,.cls-5{stroke:#0054a6;}.cls-4{fill:#f61c36;}.cls-5{stroke-linecap:round;stroke-linejoin:round;stroke-width:9.19px;}</style></defs><path class="cls-1" d="M371.21,491.53c-130.08,0-235.53-105.45-235.53-235.53S241.13,20.47,371.21,20.47"/><path class="cls-2" d="M371.21,491.53c-130.08,0-235.53-105.45-235.53-235.53S241.13,20.47,371.21,20.47"/><line class="cls-3" x1="472.79" y1="256" x2="63.68" y2="256"/><path class="cls-4" d="M6.12,251.14l50.67-29.26a5.61,5.61,0,0,1,8.42,4.87v58.5a5.61,5.61,0,0,1-8.42,4.87L6.12,260.86A5.61,5.61,0,0,1,6.12,251.14Z"/><line class="cls-5" x1="399.93" y1="256" x2="437.8" y2="218.13"/><line class="cls-5" x1="435.37" y1="256" x2="473.25" y2="218.13"/><line class="cls-5" x1="470.82" y1="256" x2="508.69" y2="218.13"/><line class="cls-5" x1="508.69" y1="293.87" x2="470.82" y2="256"/><line class="cls-5" x1="473.25" y1="293.87" x2="435.37" y2="256"/><line class="cls-5" x1="437.8" y1="293.87" x2="399.93" y2="256"/></svg>