<svg id="Capa_1" data-name="Capa 1" xmlns="http://www.w3.org/2000/svg" viewBox="0 0 512 512"><defs><style>.cls-1{fill:#00b2ef;}.cls-2{fill:none;stroke:#002c60;stroke-linecap:round;stroke-linejoin:round;stroke-width:8px;}.cls-3{fill:#002c60;}</style></defs><path class="cls-1" d="M458.79,333.88H76.39a52.8,52.8,0,0,1-52.8-52.8V141.2a52.8,52.8,0,0,1,52.8-52.79h382.4a52.8,52.8,0,0,1,52.8,52.79V281.08a52.8,52.8,0,0,1-52.8,52.8"/><polygon class="cls-2" points="345.97 302.34 452.44 302.34 452.44 423.59 345.97 302.34"/><path class="cls-3" d="M180.65,211.14a19.72,19.72,0,1,1-19.71-19.71,19.72,19.72,0,0,1,19.71,19.71"/><path class="cls-3" d="M273,211.14a19.72,19.72,0,1,1-19.72-19.71A19.72,19.72,0,0,1,273,211.14"/><path class="cls-3" d="M365.38,211.14a19.72,19.72,0,1,1-19.71-19.71,19.72,19.72,0,0,1,19.71,19.71"/><path class="cls-2" d="M4.41,209.75V298c0,31.34,27,58.33,60.3,58.33H216.89"/></svg>