<svg id="Capa_1" data-name="Capa 1" xmlns="http://www.w3.org/2000/svg" viewBox="0 0 512 512"><defs><style>.cls-1{fill:#e6e6e6;}.cls-2{fill:#fff;}.cls-3,.cls-4,.cls-5,.cls-7{fill:none;}.cls-3{stroke:#0059ea;}.cls-3,.cls-4,.cls-5,.cls-6,.cls-7{stroke-linecap:round;stroke-linejoin:round;}.cls-3,.cls-5{stroke-width:7px;}.cls-4{stroke:#b0b0b0;stroke-width:10px;}.cls-5{stroke:#fc1f25;}.cls-6{fill:#0059ea;}.cls-6,.cls-7{stroke:#fff;stroke-width:6.76px;}</style></defs><rect class="cls-1" x="26.12" y="123.73" width="449.76" height="226.24" rx="31.43" transform="translate(502.99 472.64) rotate(179.76)"/><rect class="cls-2" x="4.15" y="101.62" width="449.76" height="226.24" rx="25.38" transform="translate(457.96 429.6) rotate(-179.97)"/><polygon class="cls-3" points="156.76 298.76 58.63 298.71 58.58 410.47 156.76 298.76"/><line class="cls-4" x1="107.33" y1="164.8" x2="342.49" y2="163.8"/><line class="cls-4" x1="107.54" y1="215.26" x2="342.71" y2="214.26"/><line class="cls-4" x1="107.75" y1="265.72" x2="342.92" y2="264.72"/><path class="cls-5" d="M507.54,252.74l.35,81.32c.12,28.88-24.66,53.87-55.35,54l-140.25.59"/><path class="cls-6" d="M464.61,70.89a54,54,0,1,0,22.68,28.47"/><polyline class="cls-7" points="409.1 107.56 436.13 132.95 482.81 77.53"/></svg>