<?xml version="1.0" encoding="utf-8"?>
<!-- Generator: Adobe Illustrator 24.1.1, SVG Export Plug-In . SVG Version: 6.00 Build 0)  -->
<svg version="1.1" id="Capa_1" xmlns="http://www.w3.org/2000/svg" xmlns:xlink="http://www.w3.org/1999/xlink" x="0px" y="0px"
	 viewBox="0 0 512 512" style="enable-background:new 0 0 512 512;" xml:space="preserve">
<style type="text/css">
	.st0{fill:#0054A6;}
	.st1{fill:none;stroke:#FFFFFF;stroke-width:11.6141;stroke-linecap:round;stroke-linejoin:round;}
	.st2{fill:none;stroke:#0059EA;stroke-width:21.5483;stroke-linecap:round;stroke-linejoin:round;}
	.st3{fill:none;stroke:#FFFFFF;stroke-width:5.6175;stroke-linecap:round;stroke-linejoin:round;}
	.st4{fill:none;stroke:#FFFFFF;stroke-width:5.8123;stroke-linecap:round;stroke-linejoin:round;}
	.st5{fill:#B7B7B7;}
	.st6{fill:none;stroke:#FC1F25;stroke-width:11.6287;stroke-linecap:round;stroke-linejoin:round;}
	.st7{fill:#FC1F25;}
	.st8{fill:#FFFFFF;}
</style>
<g>
	<polygon class="st0" points="408.1,455 84,455 84,13.6 314.7,13.6 408.1,104 	"/>
	<path class="st1" d="M281.9,266.5H159.6c-9.5,0-17.2-7.7-17.2-17.2V95c0-9.5,7.7-17.2,17.2-17.2h122.3c9.5,0,17.2,7.7,17.2,17.2
		v154.2C299.1,258.8,291.4,266.5,281.9,266.5z"/>
	<path class="st2" d="M408.1,172.8v-52.1c0.1-7.1-2.8-14-7.9-18.9L313.9,20c-4.2-4.1-9.7-6.4-15.4-6.4H107.4
		c-12.9,0-23.5,11.3-23.5,25.1v391.1c0,13.8,10.5,25,23.5,25h277.2c12.9,0,23.5-11.3,23.5-25V248.3"/>
	<polyline class="st3" points="197.7,80.3 197.7,140.1 291.2,140.1 	"/>
	<line class="st3" x1="246.2" y1="80.3" x2="246.2" y2="140.2"/>
	<line class="st4" x1="194.7" y1="199.8" x2="194.7" y2="261.6"/>
	<line class="st4" x1="244.9" y1="199.8" x2="244.9" y2="261.6"/>
	<line class="st3" x1="154.5" y1="193.8" x2="291.2" y2="193.8"/>
</g>
<ellipse id="Elipse_6" class="st5" cx="246" cy="498.8" rx="167.7" ry="13.6"/>
<line class="st6" x1="505.9" y1="363.6" x2="467.9" y2="352.6"/>
<line class="st6" x1="497.7" y1="311" x2="463.1" y2="330.1"/>
<line class="st6" x1="459.5" y1="280.8" x2="448.5" y2="318.7"/>
<circle class="st7" cx="364.8" cy="388.2" r="87.8"/>
<g>
	<path class="st8" d="M366.2,394.6c-3.1,0-5.7,2.6-5.7,5.7v11.4c0,3.1,2.6,5.7,5.7,5.7s5.7-2.6,5.7-5.7v-11.4
		C371.9,397.2,369.3,394.6,366.2,394.6z"/>
	<path class="st8" d="M404.2,371.9h-1.9v-5.7c0-19.9-16.2-36.1-36.1-36.1S330,346.3,330,366.2v5.7H328c-3.1,0-5.7,2.6-5.7,5.7v57
		c0,3.1,2.6,5.7,5.7,5.7h76c3.1,0,5.7-2.6,5.7-5.7v-57C409.9,374.4,407.4,371.9,404.2,371.9z M341.5,366.2c0-13.6,11-24.7,24.7-24.7
		c13.6,0,24.7,11,24.7,24.7v5.7h-49.4V366.2z M398.4,428.8h-64.6v-45.6h64.6V428.8z"/>
</g>
</svg>
