<?xml version="1.0" encoding="utf-8"?>
<!-- Generator: Adobe Illustrator 24.1.1, SVG Export Plug-In . SVG Version: 6.00 Build 0)  -->
<svg version="1.1" id="Capa_1" xmlns="http://www.w3.org/2000/svg" xmlns:xlink="http://www.w3.org/1999/xlink" x="0px" y="0px"
	 viewBox="0 0 325 56" style="enable-background:new 0 0 325 56;" xml:space="preserve">
<style type="text/css">
	.st0{fill:#EDEDED;}
	.st1{fill:#00B0EA;}
	.st2{fill:#174A9A;}
	.st3{fill:none;stroke:#FFFFFF;stroke-width:2;stroke-linecap:round;stroke-linejoin:round;stroke-miterlimit:10;}
</style>
<path class="st0" d="M267.2,56H0V0h292.1v31C292.2,44.8,281,56,267.2,56z"/>
<g>
	<path class="st1" d="M131.5,18.3c0-2.4,1.7-4.1,4-4.1h11.6c2.1,0,3.5,1.4,3.5,3.5c0,2.1-1.5,3.5-3.5,3.5h-7.5v3.3h6.1
		c1.8,0,3.1,1.3,3.1,3.1c0,1.8-1.3,3.1-3.1,3.1h-6.1v4.5c0,2.3-1.7,4-4.1,4c-2.3,0-4-1.7-4-4V18.3z"/>
	<path class="st1" d="M169,29.6v7.6c0,2.1-1.5,3.7-3.7,3.7c-1.4,0-2.5-0.6-3.1-1.6c-1.5,1.3-3.6,1.8-5.4,1.8c-4.6,0-7.4-2.3-7.4-5.9
		c0-3.6,3.1-6.2,7.6-6.2c1.4,0,2.6,0.2,3.8,0.6c0-1.2-1.3-2.2-3.1-2.2c-1.7,0-2.4,0.6-3.8,0.6c-1.8,0-3.1-1.2-3.1-3
		c0-1.2,0.8-2.2,1.9-2.9c0.8-0.5,2.6-1.4,6.8-1.4C165.3,20.5,169,24,169,29.6 M161.1,34.7c0-0.9-0.9-1.5-1.7-1.5
		c-1,0-1.8,0.6-1.8,1.5c0,0.9,0.8,1.5,1.8,1.5C160.2,36.2,161.1,35.6,161.1,34.7"/>
	<path class="st1" d="M191.1,28.2V37c0,2.3-1.6,4-4,4c-2.3,0-4-1.7-4-4v-6.2c0-1.5-0.7-2.3-2-2.3c-1.2,0-2,0.8-2,2.1V37
		c0,2.3-1.7,4-4,4c-2.4,0-4-1.7-4-4V25.1c0-2.2,1.5-3.8,3.7-3.8c1.8,0,3.1,1,3.6,2.6c1.3-1.8,3.5-2.8,5.6-2.8
		C188.3,21.2,191.1,24,191.1,28.2"/>
	<path class="st2" d="M123.7,25.7c1.5,0,2.8-1.3,2.8-2.8c0-1.5-1.3-2.8-2.8-2.8H123l0.4-2c0.4-1.6-0.7-3.2-2.3-3.6
		c-1.6-0.4-3.2,0.7-3.6,2.3l-0.7,3.3l-3.1,0l0.4-2c0.3-1.6-0.7-3.2-2.3-3.6c-1.6-0.3-3.2,0.7-3.6,2.3l-0.7,3.3h-1.8
		c-1.5,0-2.8,1.3-2.8,2.8c0,1.5,1.3,2.8,2.8,2.8h0.6l-0.8,3.7h-1.7c-1.5,0-2.8,1.3-2.8,2.8c0,1.5,1.3,2.8,2.8,2.8h0.5l-0.4,2
		c-0.4,1.6,0.7,3.2,2.3,3.6c1.6,0.3,3.2-0.7,3.6-2.3l0.7-3.3l3.1,0l-0.4,2c-0.4,1.6,0.7,3.2,2.3,3.6c1.6,0.4,3.2-0.7,3.6-2.3
		l0.7-3.3h2c1.5,0,2.8-1.3,2.8-2.8c0-1.5-1.3-2.8-2.8-2.8H121l0.8-3.7H123.7z M114.9,29.4l-3.1,0l0.8-3.7l3.1,0L114.9,29.4z"/>
</g>
<g>
	<path class="st3" d="M256.9,20.8c6.6,0,6.6,11.9,13.2,11.9c6.6,0,6.6-11.9,13.2-11.9c6.6,0,6.6,11.9,13.2,11.9
		c6.6,0,6.6-11.9,13.2-11.9c6.6,0,6.6,11.9,13.2,11.9"/>
</g>
</svg>
