<?xml version="1.0" encoding="utf-8"?>
<!-- Generator: Adobe Illustrator 24.1.1, SVG Export Plug-In . SVG Version: 6.00 Build 0)  -->
<svg version="1.1" id="Capa_1" xmlns="http://www.w3.org/2000/svg" xmlns:xlink="http://www.w3.org/1999/xlink" x="0px" y="0px"
	 viewBox="0 0 226.1 100" style="enable-background:new 0 0 226.1 100;" xml:space="preserve">
<style type="text/css">
	.st0{fill:#EDEDED;}
	.st1{fill:#00B0EA;}
	.st2{fill:#174A9A;}
	.st3{fill:none;stroke:#FFFFFF;stroke-width:2;stroke-linecap:round;stroke-linejoin:round;stroke-miterlimit:10;}
</style>
<path class="st0" d="M167.2,100H0V0h192.1v75C192.2,88.8,181,100,167.2,100z"/>
<g>
	<path class="st1" d="M72.7,39.3c0-2.8,2-4.7,4.6-4.7h13.3c2.4,0,4,1.6,4,4s-1.7,4-4,4H82v3.8h7c2.1,0,3.6,1.5,3.6,3.6
		s-1.5,3.6-3.6,3.6h-7v5.2c0,2.6-2,4.6-4.7,4.6c-2.6,0-4.6-2-4.6-4.6C72.7,58.8,72.7,39.3,72.7,39.3z"/>
	<path class="st1" d="M115.7,52.2V61c0,2.4-1.7,4.2-4.2,4.2c-1.6,0-2.9-0.7-3.6-1.8c-1.7,1.5-4.1,2.1-6.2,2.1
		c-5.3,0-8.5-2.6-8.5-6.8s3.6-7.1,8.7-7.1c1.6,0,3,0.2,4.4,0.7c0-1.4-1.5-2.5-3.6-2.5c-2,0-2.8,0.7-4.4,0.7c-2.1,0-3.6-1.4-3.6-3.4
		c0-1.4,0.9-2.5,2.2-3.3c0.9-0.6,3-1.6,7.8-1.6C111.5,41.8,115.7,45.8,115.7,52.2 M106.7,58.1c0-1-1-1.7-2-1.7
		c-1.1,0-2.1,0.7-2.1,1.7s0.9,1.7,2.1,1.7C105.6,59.8,106.7,59.1,106.7,58.1"/>
	<path class="st1" d="M141.1,50.6v10.1c0,2.6-1.8,4.6-4.6,4.6c-2.6,0-4.6-2-4.6-4.6v-7.1c0-1.7-0.8-2.6-2.3-2.6
		c-1.4,0-2.3,0.9-2.3,2.4v7.3c0,2.6-2,4.6-4.6,4.6c-2.8,0-4.6-2-4.6-4.6V47.1c0-2.5,1.7-4.4,4.2-4.4c2.1,0,3.6,1.1,4.1,3
		c1.5-2.1,4-3.2,6.4-3.2C137.9,42.6,141.1,45.8,141.1,50.6"/>
	<path class="st2" d="M63.7,47.8c1.7,0,3.2-1.5,3.2-3.2s-1.5-3.2-3.2-3.2h-0.8l0.5-2.3c0.5-1.8-0.8-3.7-2.6-4.1
		c-1.8-0.5-3.7,0.8-4.1,2.6l-0.8,3.8h-3.6l0.5-2.3c0.3-1.8-0.8-3.7-2.6-4.1c-1.8-0.3-3.7,0.8-4.1,2.6l-0.8,3.8h-2.1
		c-1.7,0-3.2,1.5-3.2,3.2s1.5,3.2,3.2,3.2h0.7L42.8,52h-2c-1.7,0-3.2,1.5-3.2,3.2s1.5,3.2,3.2,3.2h0.6L41,60.7
		c-0.5,1.8,0.8,3.7,2.6,4.1c1.8,0.3,3.7-0.8,4.1-2.6l0.8-3.8h3.6l-0.5,2.3c-0.5,1.8,0.8,3.7,2.6,4.1c1.8,0.5,3.7-0.8,4.1-2.6
		l0.8-3.8h2.3c1.7,0,3.2-1.5,3.2-3.2S63.1,52,61.4,52h-0.9l0.9-4.2C61.6,47.8,63.7,47.8,63.7,47.8z M53.6,52H50l0.9-4.2h3.6L53.6,52
		z"/>
</g>
<g>
	<path class="st3" d="M158.9,42.8c6.6,0,6.6,11.9,13.2,11.9s6.6-11.9,13.2-11.9s6.6,11.9,13.2,11.9s6.6-11.9,13.2-11.9
		s6.6,11.9,13.2,11.9"/>
</g>
</svg>
