<svg id="Capa_1" data-name="Capa 1" xmlns="http://www.w3.org/2000/svg" viewBox="0 0 512 512"><defs><style>.cls-1{fill:#00a1d6;}.cls-2{fill:#eceff1;}.cls-3{fill:#d9d9d9;}.cls-4{fill:#1f2f59;}.cls-5,.cls-8{fill:none;stroke-linecap:round;stroke-linejoin:round;stroke-width:10.36px;}.cls-5{stroke:#b0b0b0;}.cls-6{fill:#fff;stroke:#ff1634;stroke-miterlimit:10;stroke-width:13.47px;}.cls-7{fill:#0054a6;}.cls-8{stroke:#00b2ef;}</style></defs><ellipse id="Elipse_6" data-name="Elipse 6" class="cls-1" cx="286" cy="490.94" rx="176.81" ry="10.33"/><path class="cls-2" d="M387.18,96.22a15.93,15.93,0,0,1-15.93-15.93V.62h-239a31.86,31.86,0,0,0-31.86,31.87V430.82a31.86,31.86,0,0,0,31.86,31.87H435a31.87,31.87,0,0,0,31.87-31.87V96.22Z"/><path class="cls-3" d="M371.25,80.29a15.93,15.93,0,0,0,15.93,15.93h79.67L371.25.62Z"/><path class="cls-4" d="M230.16,350.76,305,425.48a31.87,31.87,0,0,0,45-45l-74.73-74.81A142.78,142.78,0,0,1,230.16,350.76Z"/><line class="cls-5" x1="140.22" y1="48.42" x2="331.42" y2="48.42"/><line class="cls-5" x1="251.75" y1="96.22" x2="331.42" y2="96.22"/><line class="cls-5" x1="291.58" y1="144.02" x2="427.02" y2="144.02"/><line class="cls-5" x1="315.48" y1="191.82" x2="427.02" y2="191.82"/><line class="cls-5" x1="315.7" y1="239.62" x2="427.02" y2="239.62"/><line class="cls-5" x1="307.73" y1="287.42" x2="427.02" y2="287.42"/><line class="cls-5" x1="339.6" y1="335.22" x2="427.02" y2="335.22"/><path class="cls-6" d="M251.74,127.23A143.32,143.32,0,1,0,218.46,354.6a141,141,0,0,0,57.94-58A143.31,143.31,0,0,0,251.74,127.23Z"/><path class="cls-7" d="M70.78,200.7a24.56,24.56,0,0,1,2.74-8.46,19.91,19.91,0,0,1,11.91-9.59,28.33,28.33,0,0,1,8.33-1.18,25.05,25.05,0,0,1,8.54,1.35,19.33,19.33,0,0,1,6.33,3.68,15.47,15.47,0,0,1,3.91,5.36,15.91,15.91,0,0,1,1.34,6.44,21.41,21.41,0,0,1-.62,5.41,12.67,12.67,0,0,1-1.85,4,11.43,11.43,0,0,1-3,2.89,18.1,18.1,0,0,1-4.12,2Q115,216.43,115,227.32a20.23,20.23,0,0,1-1.87,9,18.68,18.68,0,0,1-5,6.37,21.33,21.33,0,0,1-7.28,3.8,29.19,29.19,0,0,1-8.64,1.27,30.67,30.67,0,0,1-8.23-1,19,19,0,0,1-6.42-3.12,20.39,20.39,0,0,1-4.91-5.41A36.3,36.3,0,0,1,69,230.4l6.15-2.5a7.65,7.65,0,0,1,4.45-.48,4.17,4.17,0,0,1,2.94,2,16.11,16.11,0,0,0,4.25,5.37,8.61,8.61,0,0,0,5.27,1.67,9.63,9.63,0,0,0,4-.78,8.6,8.6,0,0,0,2.85-2,8.26,8.26,0,0,0,1.72-2.78,9.14,9.14,0,0,0,.58-3.16A22.45,22.45,0,0,0,101,224a5,5,0,0,0-1.63-2.87,9.17,9.17,0,0,0-4-1.85,33.75,33.75,0,0,0-7.5-.65v-9.52a27.68,27.68,0,0,0,6.55-.63,9.93,9.93,0,0,0,3.85-1.71,5.23,5.23,0,0,0,1.8-2.65,12.72,12.72,0,0,0,.44-3.43,8.58,8.58,0,0,0-1.84-5.9c-1.24-1.38-3.11-2.07-5.64-2.07a8.22,8.22,0,0,0-5.18,1.63,8.32,8.32,0,0,0-2.92,4,5.81,5.81,0,0,1-2.45,3.25,7,7,0,0,1-4.32.35Z"/><path class="cls-7" d="M146.47,207.11a19.87,19.87,0,0,1,6.95-1.15,21.63,21.63,0,0,1,6.94,1.15,17.44,17.44,0,0,1,10.53,9.64,20.84,20.84,0,0,1,1.67,8.66,22.41,22.41,0,0,1-1.69,8.62,21.54,21.54,0,0,1-4.79,7.12,22.77,22.77,0,0,1-7.46,4.83,25.26,25.26,0,0,1-9.66,1.78,26.31,26.31,0,0,1-9.75-1.71,20.26,20.26,0,0,1-11.91-12.14,26.93,26.93,0,0,1-1.58-9.39q0-9.57,7.39-19.46l14.61-19.72a8.38,8.38,0,0,1,3-2.23,10.09,10.09,0,0,1,4.43-.93H167.4l-19.24,23Zm2.23,29.74a9.8,9.8,0,0,0,4-.8,9.64,9.64,0,0,0,3.18-2.2,10.56,10.56,0,0,0,2.12-3.3,10.68,10.68,0,0,0,.78-4.12A12.62,12.62,0,0,0,158,222a9.14,9.14,0,0,0-2.07-3.29,8.88,8.88,0,0,0-3.22-2.05,12,12,0,0,0-4.21-.71,9.72,9.72,0,0,0-3.83.73,8.62,8.62,0,0,0-3,2.12,10.14,10.14,0,0,0-2,3.29,12.47,12.47,0,0,0-.71,4.32,14.81,14.81,0,0,0,.58,4.32,8.72,8.72,0,0,0,1.78,3.29,7.79,7.79,0,0,0,3,2.12A11.49,11.49,0,0,0,148.7,236.85Z"/><path class="cls-7" d="M228.93,214.59a52.67,52.67,0,0,1-1.83,14.74,30.29,30.29,0,0,1-5,10.33,20.45,20.45,0,0,1-7.66,6.1,23.07,23.07,0,0,1-9.59,2,22.84,22.84,0,0,1-9.56-2,20.39,20.39,0,0,1-7.59-6.1,30.24,30.24,0,0,1-5-10.33,60.88,60.88,0,0,1,0-29.47,30.24,30.24,0,0,1,5-10.33,20,20,0,0,1,7.59-6.08,23,23,0,0,1,9.56-2,23.22,23.22,0,0,1,9.59,2,20.1,20.1,0,0,1,7.66,6.08,30.29,30.29,0,0,1,5,10.33A52.55,52.55,0,0,1,228.93,214.59Zm-14.25,0a58.31,58.31,0,0,0-.85-11,22.61,22.61,0,0,0-2.24-6.74,8.14,8.14,0,0,0-3.19-3.36,7.83,7.83,0,0,0-3.6-.92,7.7,7.7,0,0,0-3.59.92,8,8,0,0,0-3.12,3.36,23.35,23.35,0,0,0-2.18,6.74,74.59,74.59,0,0,0,0,22.06,23.74,23.74,0,0,0,2.18,6.75,8,8,0,0,0,3.12,3.38,7.68,7.68,0,0,0,3.59.91,7.81,7.81,0,0,0,3.6-.91,8.14,8.14,0,0,0,3.19-3.38,23,23,0,0,0,2.24-6.75A58.17,58.17,0,0,0,214.68,214.59Z"/><path class="cls-7" d="M225.48,165.71a15.32,15.32,0,0,1,1.25-6.19,15.57,15.57,0,0,1,3.42-5,16.29,16.29,0,0,1,11.53-4.63,16.48,16.48,0,0,1,11.6,4.63,15.55,15.55,0,0,1,4.7,11.22,15.09,15.09,0,0,1-1.25,6.07,15.37,15.37,0,0,1-3.45,5,16.9,16.9,0,0,1-5.18,3.41,16.79,16.79,0,0,1-12.81,0,16.71,16.71,0,0,1-5.14-3.41,15.6,15.6,0,0,1-3.42-5A14.93,14.93,0,0,1,225.48,165.71Zm9.53.08a7.62,7.62,0,0,0,.48,2.74,7,7,0,0,0,1.38,2.23,6.36,6.36,0,0,0,2.12,1.49,7.12,7.12,0,0,0,5.39,0,6.32,6.32,0,0,0,2.11-1.49,6.64,6.64,0,0,0,1.38-2.23,7.41,7.41,0,0,0,.49-2.74,7.92,7.92,0,0,0-.49-2.82,6.45,6.45,0,0,0-6.19-4.34,6.44,6.44,0,0,0-2.69.55,6.59,6.59,0,0,0-2.12,1.52,6.84,6.84,0,0,0-1.38,2.27A8.15,8.15,0,0,0,235,165.79Z"/><path class="cls-8" d="M139.53,293.08c-54.17-1.7-96.86-20.79-96.86-44.09,0-9.67,7.35-18.61,19.83-25.89"/><path class="cls-8" d="M238.62,227.24c8.61,6.42,13.53,13.84,13.53,21.75,0,22.75-40.7,41.49-93,43.94"/><polyline class="cls-8" points="127.06 279.38 141.01 293.33 127.16 307.18"/></svg>