<?xml version="1.0" encoding="utf-8"?>
<!-- Generator: Adobe Illustrator 24.1.1, SVG Export Plug-In . SVG Version: 6.00 Build 0)  -->
<svg version="1.1" id="Capa_1" xmlns="http://www.w3.org/2000/svg" xmlns:xlink="http://www.w3.org/1999/xlink" x="0px" y="0px"
	 viewBox="0 0 512 512" style="enable-background:new 0 0 512 512;" xml:space="preserve">
<style type="text/css">
	.st0{fill:#1F2F59;}
	.st1{fill:#FFFFFF;}
	.st2{fill:#0059EA;}
	.st3{fill:none;stroke:#00B0EC;stroke-width:5.5034;stroke-linecap:round;stroke-linejoin:round;}
	.st4{fill:#FC1F25;}
	.st5{fill:none;stroke:#FFFFFF;stroke-width:1.7306;stroke-miterlimit:10;}
	.st6{fill:#00B2EF;}
	.st7{fill:none;stroke:#0054A6;stroke-width:13.8449;stroke-linecap:round;stroke-linejoin:round;}
	.st8{fill:#002C60;}
	.st9{fill:none;stroke:#00B0EC;stroke-width:3.4612;stroke-linecap:round;stroke-linejoin:round;}
</style>
<path class="st0" d="M166.5,256.1l64.6-241.6c2.8-10.4,13.5-16.6,24-13.8l123.3,33c10.4,2.8,16.6,13.5,13.8,24l-64.6,241.6
	c-2.8,10.4-13.5,16.6-24,13.8l-123.3-33C169.9,277.3,163.7,266.5,166.5,256.1z"/>
<path class="st1" d="M193.8,220.1l52.5-195.9c1.7-6.2,8-9.9,14.2-8.2l107.2,28.7c6.2,1.7,9.9,8,8.2,14.2l-52.5,195.9
	c-1.7,6.2-8,9.9-14.2,8.2L202,234.4C195.8,232.7,192.2,226.3,193.8,220.1z"/>
<path class="st2" d="M257.9,277.5c-1.5,5.6-7.3,8.9-12.9,7.4c-5.6-1.5-8.9-7.3-7.4-12.9c1.5-5.6,7.3-8.9,12.9-7.4c0,0,0,0,0,0l0,0
	C256.1,266.1,259.4,271.9,257.9,277.5C257.9,277.5,257.9,277.5,257.9,277.5"/>
<line class="st3" x1="320.8" y1="139" x2="260" y2="174.1"/>
<line class="st3" x1="327.1" y1="107" x2="231.6" y2="164"/>
<path class="st4" d="M337.7,135.9l-13.8,79.2c-0.6,3.6,1.8,7,5.4,7.6L394,234c3.6,0.6,7-1.8,7.6-5.4l16.4-94.2
	c0.6-3.6-1.8-7-5.3-7.6c0,0,0,0,0,0l-40.9-7.1c-1.2-0.2-2.5-0.1-3.6,0.4l-26.5,10.8C339.6,131.8,338.1,133.6,337.7,135.9z"/>
<path class="st5" d="M356.1,158l34.6,6c2.2,0.4,3.6,2.5,3.3,4.6l-7.5,42.9c-0.4,2.2-2.5,3.6-4.6,3.3l-34.6-6
	c-2.2-0.4-3.6-2.5-3.3-4.6l7.5-42.9C351.8,159,353.9,157.6,356.1,158z"/>
<polyline class="st5" points="361,158.8 357.7,177.3 362.6,183.8 368.3,184.8 374.9,180 378.1,161.8 "/>
<line class="st5" x1="376.8" y1="169.2" x2="393.3" y2="172.1"/>
<line class="st5" x1="350.4" y1="170.5" x2="358.7" y2="171.9"/>
<line class="st5" x1="375" y1="179.8" x2="391.5" y2="182.7"/>
<line class="st5" x1="354" y1="171.1" x2="350.3" y2="192.4"/>
<polyline class="st5" points="346.1,191.7 353.8,193 357.7,199 355.7,210.2 "/>
<polyline class="st5" points="388.5,199.4 373.9,196.9 368.2,201.2 366.3,212 "/>
<line class="st5" x1="357.7" y1="199" x2="368.2" y2="200.8"/>
<path class="st6" d="M169.4,401H412c6.7,0,12.8-4.1,15.3-10.3l67.7-167.3c3.4-8.4-0.7-18-9.2-21.4c-1.9-0.8-4-1.2-6.1-1.2H98.9
	L169.4,401"/>
<path class="st7" d="M169.4,401l-62.9-185.6c-12.6-37.2-39.4-67.8-74.5-85.4l-13-6.5"/>
<path class="st7" d="M467.6,401H141.4c-18.2,0-32.9,14.7-32.9,32.9l0,0v16.5c0,6.9,5.6,12.5,12.6,12.6h319.5"/>
<circle class="st8" cx="188.3" cy="483.6" r="24.5"/>
<circle class="st8" cx="375.6" cy="487.5" r="24.5"/>
<line class="st9" x1="435.1" y1="122" x2="425.7" y2="126.2"/>
<line class="st9" x1="437.4" y1="140.6" x2="427.5" y2="137.9"/>
<line class="st9" x1="420.8" y1="109.2" x2="418.1" y2="119.1"/>
</svg>
