<svg id="Capa_1" data-name="Capa 1" xmlns="http://www.w3.org/2000/svg" viewBox="0 0 512 512"><defs><style>.cls-1{fill:#bbbdc2;}.cls-2{fill:#0054a6;}.cls-3{fill:#002c60;}.cls-4{fill:#00b2ef;}.cls-5,.cls-6,.cls-7{fill:none;}.cls-5,.cls-6{stroke:#fff;stroke-width:2.95px;}.cls-5,.cls-7{stroke-linecap:round;stroke-linejoin:round;}.cls-6{stroke-miterlimit:10;}.cls-7{stroke:#002c60;stroke-width:6.15px;}</style></defs><ellipse class="cls-1" cx="187.48" cy="427.54" rx="186.81" ry="12.74"/><path class="cls-2" d="M313.72,77.9H434.86a0,0,0,0,1,0,0v132a15.76,15.76,0,0,1-15.76,15.76H329.48a15.76,15.76,0,0,1-15.76-15.76V77.9A0,0,0,0,1,313.72,77.9Z" transform="translate(428.2 -248.5) rotate(75.6)"/><path class="cls-2" d="M207.79,132.14h91.89a0,0,0,0,1,0,0v84.53A16.64,16.64,0,0,1,283,233.31H224.43a16.64,16.64,0,0,1-16.64-16.64V132.14A0,0,0,0,1,207.79,132.14Z" transform="translate(367.62 -108.48) rotate(75.6)"/><path class="cls-2" d="M121.1,157.3h69.29a0,0,0,0,1,0,0v83.76A17.41,17.41,0,0,1,173,258.47H138.52a17.41,17.41,0,0,1-17.41-17.41V157.3a0,0,0,0,1,0,0Z" transform="translate(318.37 5.33) rotate(75.6)"/><circle class="cls-3" cx="429.33" cy="132.3" r="60.57"/><polygon class="cls-3" points="314.16 214.65 291.31 125.65 273.12 130.32 308.49 216.1 314.16 214.65"/><polygon class="cls-3" points="213.36 228.86 196.13 161.75 177.94 166.42 207.69 230.32 213.36 228.86"/><circle class="cls-4" cx="445.84" cy="133.4" r="60.57"/><line class="cls-5" x1="394.84" y1="99.08" x2="504.36" y2="120.26"/><line class="cls-5" x1="505.45" y1="134.01" x2="388.5" y2="111.45"/><line class="cls-5" x1="385.39" y1="123.11" x2="504.01" y2="145.97"/><line class="cls-5" x1="498.91" y1="159.85" x2="385.02" y2="137.84"/><path class="cls-5" d="M504.36,120.26A57.8,57.8,0,0,1,505.45,134"/><path class="cls-5" d="M388.5,111.45a58.52,58.52,0,0,1,6.34-12.37"/><path class="cls-5" d="M504,146a62.57,62.57,0,0,1-5.1,13.88"/><path class="cls-5" d="M385,137.84a62.9,62.9,0,0,1,.37-14.73"/><circle class="cls-6" cx="450.74" cy="137.29" r="60.57"/><path class="cls-7" d="M88.15,427.54l79.27-174.13a10.25,10.25,0,0,1,19,.81l57.93,163.1"/></svg>