<?xml version="1.0" encoding="utf-8"?>
<!-- Generator: Adobe Illustrator 24.1.1, SVG Export Plug-In . SVG Version: 6.00 Build 0)  -->
<svg version="1.1" id="Capa_1" xmlns="http://www.w3.org/2000/svg" xmlns:xlink="http://www.w3.org/1999/xlink" x="0px" y="0px"
	 viewBox="0 0 512 512" style="enable-background:new 0 0 512 512;" xml:space="preserve">
<style type="text/css">
	.st0{fill:#00B2EF;}
	.st1{fill:#0054A6;}
	.st2{fill:#002C60;}
	.st3{fill:#FFFFFF;}
	.st4{fill:#0459E8;}
	.st5{fill:none;stroke:#FFFFFF;stroke-width:1.377;stroke-miterlimit:10;}
	.st6{fill:#00B1ED;}
	.st7{fill:#FC1F25;}
	.st8{fill:#0042B5;}
	.st9{fill:none;stroke:#FFFFFF;stroke-width:5.5199;stroke-linecap:round;stroke-miterlimit:10;}
	.st10{fill:#BABCC0;}
</style>
<path class="st0" d="M0,376.7h512c0,20.8-16.9,37.8-37.8,37.8H37.7C16.9,414.4,0,397.5,0,376.7L0,376.7"/>
<path class="st1" d="M487.9,376.7H24.1V108c0-8,6.5-14.4,14.4-14.4h435c7.9,0,14.4,6.5,14.4,14.4V376.7z"/>
<path class="st2" d="M303.4,390.3h-94.8c-4,0-7.2-3.2-7.2-7.2v-5.7h109.2v5.6C310.6,387,307.4,390.2,303.4,390.3
	C303.4,390.3,303.4,390.3,303.4,390.3z"/>
<path class="st3" d="M54.8,116.8h402.4c5.2,0,9.5,4.2,9.5,9.4v227.8c0,5.2-4.2,9.5-9.5,9.5H54.8c-5.2,0-9.5-4.2-9.5-9.5V126.3
	C45.3,121,49.6,116.8,54.8,116.8z"/>
<path class="st4" d="M122.4,163.8H359c13.3,0,24.1,10.8,24.1,24.1l0,0c0,13.3-10.8,24.1-24.1,24.1H122.4
	c-13.3,0-24.1-10.8-24.1-24.1l0,0C98.3,174.6,109.1,163.8,122.4,163.8z"/>
<circle class="st5" cx="338.9" cy="189.8" r="18.8"/>
<circle class="st6" cx="338.9" cy="189.8" r="15.4"/>
<path class="st7" d="M403.5,261L403.5,261l-0.2-25c0-3.1-2.6-5.5-5.6-5.5h-6.8c-2.6,0.1-4.9,2-5.3,4.6h-0.2v-1.2
	c0-3.1-2.5-5.5-5.5-5.5c0,0,0,0,0,0h-6.9c-3,0-5.5,2.5-5.5,5.6c0,0,0,0,0,0v0.3h0v-0.3c0-3-2.5-5.5-5.5-5.5c0,0-0.1,0-0.1,0h-6.8
	c-2.8,0-5.1,2.1-5.4,4.9c0,0.2-0.1,0.4-0.1,0.6v-0.6l-0.3-35.9c0-3-2.4-5.5-5.5-5.5c0,0-0.1,0-0.1,0h-6.8c-3.1,0.1-5.6,2.5-5.8,5.6
	l0.6,87.7v2.4c0,4.4,3.6,8,8,8h56.1c4.4,0,8-3.6,8-8c0,0,0,0,0,0L403.5,261z"/>
<path class="st4" d="M361,338l18-0.1c2.1,0,3.8-1.7,3.8-3.8v0v-32.6c0-2.1-1.7-3.7-3.7-3.8c0,0,0,0,0,0l-18.3,0.1
	c-2.1,0-3.7,1.7-3.7,3.8c0,0,0,0,0,0l0.2,32.5C357.3,336.4,359,338,361,338z"/>
<polygon class="st8" points="382.8,297.8 382.9,307.2 357,309.8 357,298 "/>
<line class="st9" x1="125.2" y1="187.9" x2="159" y2="187.9"/>
<line class="st9" x1="182.5" y1="187.9" x2="298.7" y2="187.9"/>
<path class="st10" d="M129.7,237.9h170c2.5,0,4.6,2,4.6,4.6v1.3c0,2.5-2,4.6-4.6,4.6h-170c-2.5,0-4.6-2-4.6-4.6v-1.3
	C125.2,239.9,127.2,237.9,129.7,237.9z"/>
<path class="st10" d="M129.7,282h170c2.5,0,4.6,2,4.6,4.6v1.3c0,2.5-2,4.6-4.6,4.6h-170c-2.5,0-4.6-2-4.6-4.6v-1.3
	C125.2,284,127.2,282,129.7,282z"/>
<path class="st10" d="M129.7,326.1h170c2.5,0,4.6,2,4.6,4.6v1.3c0,2.5-2,4.6-4.6,4.6h-170c-2.5,0-4.6-2-4.6-4.6v-1.3
	C125.2,328.1,127.2,326.1,129.7,326.1z"/>
<path class="st1" d="M410.2,144.5c0,2.2-1.8,4-4,4s-4-1.8-4-4s1.8-4,4-4S410.2,142.3,410.2,144.5"/>
<path class="st0" d="M424.2,144.5c0,2.2-1.8,4-4,4s-4-1.8-4-4s1.8-4,4-4S424.2,142.3,424.2,144.5"/>
<path class="st7" d="M438.3,144.5c0,2.2-1.8,4-4,4s-4-1.8-4-4s1.8-4,4-4S438.3,142.3,438.3,144.5"/>
</svg>
