<svg id="Capa_1" data-name="Capa 1" xmlns="http://www.w3.org/2000/svg" viewBox="0 0 512 512"><defs><style>.cls-1{fill:#00b2ef;}.cls-2,.cls-3,.cls-4{fill:none;stroke-width:13px;}.cls-2{stroke:#0053a9;stroke-miterlimit:10;}.cls-3{stroke:#fc1f25;}.cls-3,.cls-4{stroke-linecap:round;stroke-linejoin:round;}.cls-4{stroke:#fff;}</style></defs><path class="cls-1" d="M453.42,305.16V214H416.6a166,166,0,0,0-14.78-35.82l26-26L363.38,87.78l-26,26A165.22,165.22,0,0,0,301.56,99V62.18H210.44V99a165.22,165.22,0,0,0-35.82,14.77l-26-26L84.18,152.22l26,26A166,166,0,0,0,95.4,214H58.58v91.12H95.4A165.83,165.83,0,0,0,110.18,341l-26,26,64.44,64.43,26-26a165.75,165.75,0,0,0,35.82,14.78V457h91.12V420.2a165.75,165.75,0,0,0,35.82-14.78l26,26L427.82,367l-26-26a165.83,165.83,0,0,0,14.78-35.83ZM256,335.53a75.93,75.93,0,1,1,75.93-75.93A75.94,75.94,0,0,1,256,335.53Z"/><path class="cls-2" d="M256,138.11A121.49,121.49,0,1,0,377.49,259.6,121.5,121.5,0,0,0,256,138.11Zm0,197.42a75.93,75.93,0,1,1,75.93-75.93A75.94,75.94,0,0,1,256,335.53Z"/><path class="cls-3" d="M453.42,305.16V214H416.6a166,166,0,0,0-14.78-35.82l26-26L363.38,87.78l-26,26A165.22,165.22,0,0,0,301.56,99V62.18H210.44V99a165.22,165.22,0,0,0-35.82,14.77l-26-26L84.18,152.22l26,26A166,166,0,0,0,95.4,214H58.58v91.12H95.4A165.83,165.83,0,0,0,110.18,341l-26,26,64.44,64.43,26-26a165.75,165.75,0,0,0,35.82,14.78V457h91.12V420.2a165.75,165.75,0,0,0,35.82-14.78l26,26L427.82,367l-26-26a165.83,165.83,0,0,0,14.78-35.83ZM256,335.53a75.93,75.93,0,1,1,75.93-75.93A75.94,75.94,0,0,1,256,335.53Z"/><circle class="cls-4" cx="256" cy="259.6" r="75.93"/></svg>
