<svg id="Capa_1" data-name="Capa 1" xmlns="http://www.w3.org/2000/svg" viewBox="0 0 512 512"><defs><style>.cls-1{fill:#00b2ef;}.cls-2,.cls-4{fill:none;stroke-linecap:round;stroke-linejoin:round;stroke-width:10px;}.cls-2{stroke:#ff1920;}.cls-3{fill:#002c60;}.cls-4{stroke:#ededed;}</style></defs><path class="cls-1" d="M459.52,330.49H82.4a52.07,52.07,0,0,1-52.07-52.07v-138A52.06,52.06,0,0,1,82.4,88.41H459.52a52.06,52.06,0,0,1,52.07,52.06v138a52.07,52.07,0,0,1-52.07,52.07"/><polygon class="cls-2" points="345.97 302.34 452.44 302.34 452.44 423.59 345.97 302.34"/><path class="cls-3" d="M200.65,211.14a19.72,19.72,0,1,1-19.71-19.71,19.72,19.72,0,0,1,19.71,19.71"/><path class="cls-3" d="M293,211.14a19.72,19.72,0,1,1-19.72-19.71A19.72,19.72,0,0,1,293,211.14"/><path class="cls-3" d="M385.38,211.14a19.72,19.72,0,1,1-19.71-19.71,19.72,19.72,0,0,1,19.71,19.71"/><path class="cls-4" d="M5.41,209.75V298c0,31.34,27,58.33,60.3,58.33H217.89"/></svg>