<svg id="Capa_1" data-name="Capa 1" xmlns="http://www.w3.org/2000/svg" viewBox="0 0 512 512"><defs><style>.cls-1,.cls-3{fill:none;}.cls-1{stroke:#00b0ec;stroke-linecap:round;stroke-linejoin:round;stroke-width:13px;}.cls-2{fill:#ff1920;}.cls-3{stroke:#fff;stroke-miterlimit:10;stroke-width:2.53px;}.cls-4{fill:#0053a9;}.cls-5{fill:#e9ece9;}</style></defs><path class="cls-1" d="M70,459.76h0A45.18,45.18,0,0,1,24.8,414.58V92.8a45.18,45.18,0,1,1,90.35,0V414.58A45.19,45.19,0,0,1,70,459.76Z"/><path class="cls-2" d="M256,459.76h0a45.18,45.18,0,0,1-45.17-45.18V92.8a45.17,45.17,0,1,1,90.34,0V414.58A45.19,45.19,0,0,1,256,459.76"/><path class="cls-3" d="M256,459.76h0a45.18,45.18,0,0,1-45.17-45.18V92.8a45.17,45.17,0,1,1,90.34,0V414.58A45.19,45.19,0,0,1,256,459.76Z"/><path class="cls-4" d="M442,459.76h0a45.19,45.19,0,0,1-45.19-45.18V92.8a45.18,45.18,0,1,1,90.35,0V414.58A45.18,45.18,0,0,1,442,459.76"/><path class="cls-5" d="M140,197.88a70,70,0,1,1-70-70,70,70,0,0,1,70,70"/><path class="cls-5" d="M326,294.88a70,70,0,1,1-70-70,70,70,0,0,1,70,70"/><path class="cls-5" d="M512,127.91a70,70,0,1,1-70-70,70,70,0,0,1,70,70"/></svg>