<svg id="Capa_1" data-name="Capa 1" xmlns="http://www.w3.org/2000/svg" viewBox="0 0 512 512"><defs><style>.cls-1{fill:#ff1920;}.cls-2,.cls-4{fill:none;stroke-linecap:round;stroke-linejoin:round;stroke-width:13px;}.cls-2{stroke:#00b0ec;}.cls-3{fill:#00b2ef;}.cls-4{stroke:#ededed;}</style></defs><path class="cls-1" d="M25.17,118.9H311.41a7.74,7.74,0,0,1,7.74,7.74V403.46a62.48,62.48,0,0,1-62.48,62.48H79.9a62.48,62.48,0,0,1-62.48-62.48V126.65a7.74,7.74,0,0,1,7.74-7.74Z"/><path class="cls-2" d="M242.19,167.39V115.06a71.94,71.94,0,0,0-143.88,0v52.33"/><path class="cls-3" d="M257.74,256H485.6a5.36,5.36,0,0,1,5.36,5.36V422.73a43.21,43.21,0,0,1-43.21,43.21H295.59a43.21,43.21,0,0,1-43.21-43.21V261.36a5.36,5.36,0,0,1,5.36-5.36Z"/><path class="cls-4" d="M427.13,292.3V232a55.43,55.43,0,0,0-110.86,0V292.3"/></svg>