<svg id="Capa_1" data-name="Capa 1" xmlns="http://www.w3.org/2000/svg" viewBox="0 0 512 512"><defs><style>.cls-1{fill:#fc1f25;}.cls-2{fill:#0053a9;}.cls-3{fill:#e9ece9;}.cls-4{fill:none;stroke:#00b0ec;stroke-linecap:round;stroke-linejoin:round;stroke-width:19.88px;}</style></defs><path class="cls-1" d="M415.82,218.73h-8.14l4.59-17.51a170.39,170.39,0,0,0,0-86.44l-4.59-17.57h8.14a60.76,60.76,0,1,1,0,121.52"/><path class="cls-2" d="M509.59,599.65C509.59,459.61,396.05,346,256,346S2.41,459.61,2.41,599.65Z"/><path class="cls-3" d="M418.11,167.38c0,92.4-75,167.39-167.38,167.39A167.39,167.39,0,1,1,418.11,167.38Z"/><path class="cls-4" d="M435.81,217.42h0A53.53,53.53,0,0,1,382.29,271H254.78"/><path class="cls-1" d="M271.09,301.44H255.51a30.5,30.5,0,1,1,0-61h15.58a30.5,30.5,0,0,1,0,61"/></svg>