<svg id="Capa_1" data-name="Capa 1" xmlns="http://www.w3.org/2000/svg" viewBox="0 0 512 512"><defs><style>.cls-1{fill:#bbbdc2;}.cls-2{fill:#00b2ef;}.cls-3{fill:#ff1920;}.cls-4{fill:#0053a9;}.cls-5{fill:#e9ece9;}</style></defs><g id="surface1"><path class="cls-1" d="M67.29,91.49a9.23,9.23,0,0,1,4.23,2.4L201.89,224.26l23.59-23.59L95.11,70.31a9.12,9.12,0,0,1-2.4-4.25l-8.2-32.7L30.11,2.26,3.48,28.89l31.1,54.43Z"/><path class="cls-2" d="M183.22,388.86,390.08,182a9.1,9.1,0,0,1,8.66-2.4A90.74,90.74,0,0,0,512,91.22c0-1.71-.06-3.44-.17-5.18l-48.11,48.11a9.12,9.12,0,0,1-9.33,2.2l-54.73-18.24a9.14,9.14,0,0,1-5.77-5.76L375.65,57.62a9.11,9.11,0,0,1,2.21-9.33L426,.18a90.75,90.75,0,0,0-93.56,113.09,9.11,9.11,0,0,1-2.4,8.67L123.15,328.79a9.2,9.2,0,0,1-8.67,2.41,90.08,90.08,0,0,0-22-2.84,91.82,91.82,0,1,0,88.37,69.16A9.13,9.13,0,0,1,183.22,388.86Zm-68.58,67.19H70.24L48.35,419.57l21.89-36.49h44.4l21.89,36.49Zm35.2-106.78L350.49,148.62l12.9,12.89L162.73,362.17Z"/><path class="cls-3" d="M437.21,507.24A55.3,55.3,0,0,0,508.44,436Z"/><path class="cls-3" d="M495.78,416.25,393.34,313.77a28.47,28.47,0,0,1-40.13-40.08L338.7,259.17l-78.31,78.31L275,352.08a28.46,28.46,0,0,1,40.13,40.07L417.47,494.56c1.11,1.12,2.29,2.15,3.48,3.16l78-78C497.93,418.54,496.89,417.37,495.78,416.25ZM441.7,453.38l-91.21-91.21,12.9-12.9,91.21,91.22Z"/></g><path class="cls-4" d="M363.39,161.51,162.74,362.17l-12.9-12.9L350.49,148.62Z"/><path class="cls-5" d="M454.6,440.48l-12.9,12.9-91.21-91.21,12.9-12.9Z"/><path class="cls-5" d="M437.21,507.24,421,497.72l77.87-78.12L508.44,436Z"/></svg>