<svg id="Capa_1" data-name="Capa 1" xmlns="http://www.w3.org/2000/svg" viewBox="0 0 512 512"><defs><style>.cls-1{fill:#00b2ef;}.cls-2{fill:#0053a9;}.cls-3{fill:#fc1f25;}.cls-4,.cls-5{fill:none;stroke-linecap:round;stroke-linejoin:round;}.cls-4{stroke:#fff;stroke-width:9.07px;}.cls-5{stroke:#00b2ef;stroke-width:18px;}</style></defs><polygon class="cls-1" points="228.04 512 295.56 511.79 295 358.94 226.54 359.26 228.04 512"/><polygon class="cls-2" points="295 358.94 295.17 383.78 226.66 390.88 226.54 359.39 295 358.94"/><path class="cls-3" d="M202.56,316.13l20.5,1a16.62,16.62,0,0,0,17.42-15.81L251.24,77.48a16.64,16.64,0,0,0-15.81-17.43l-20.49-1a16.64,16.64,0,0,0-17.43,15.81L186.76,298.7a16.63,16.63,0,0,0,15.8,17.43"/><path class="cls-4" d="M246.36,179.8,251.3,76.35a16.64,16.64,0,0,0-15.8-17.43l-20.5-1a16.62,16.62,0,0,0-17.42,15.81l-10.82,225"/><path class="cls-3" d="M178,220,149.73,321.51a13,13,0,0,0,9,16l182.56,50.93a13,13,0,0,0,16-9l28.31-101.48"/><path class="cls-4" d="M178,220,149.73,321.51a13,13,0,0,0,9,16l182.56,50.93a13,13,0,0,0,16-9l28.31-101.48"/><path class="cls-3" d="M290.69,262.54l18.83,8.14c8.43,3.65,25.15-.32,28.79-8.75L397.67,110.2A16.65,16.65,0,0,0,389,88.33l-18.83-8.14a16.64,16.64,0,0,0-21.88,8.67L282,240.67a16.64,16.64,0,0,0,8.68,21.87"/><path class="cls-4" d="M339.85,242.63l58.27-133.46a16.64,16.64,0,0,0-8.66-21.88l-18.84-8.14a16.65,16.65,0,0,0-21.87,8.67L297.5,200.36"/><path class="cls-3" d="M247.32,253.12l20,4.52c9,2,20.86-2.81,22.88-11.77l41.73-195.4a16.63,16.63,0,0,0-12.57-19.88l-20-4.52a16.65,16.65,0,0,0-19.89,12.57L233,232.86c-2,9,5.37,18.24,14.34,20.26"/><path class="cls-4" d="M297.5,200.36,331.94,50.47a16.63,16.63,0,0,0-12.57-19.88l-20-4.52a16.65,16.65,0,0,0-19.89,12.57L243.67,188.18"/><path class="cls-3" d="M203.78,215.11,143.06,170a13,13,0,0,0-18.22,2.51l-16.78,22.14a13,13,0,0,0,2.52,18.22l62,46.95"/><path class="cls-4" d="M203.78,215.11,143.06,170a13,13,0,0,0-18.22,2.51l-16.78,22.14a13,13,0,0,0,2.52,18.22l62,46.95"/><path class="cls-3" d="M384.36,279.39l56.48-92.61A16.63,16.63,0,0,0,435.09,164l-17.62-10.53a16.65,16.65,0,0,0-22.81,5.75L330.37,264.77"/><path class="cls-4" d="M384.52,279.32l56.9-93.51A16.62,16.62,0,0,0,435.68,163l-17.62-10.52a16.64,16.64,0,0,0-22.81,5.74l-55.4,84.41"/><path class="cls-4" d="M232,236.23s66.72,15,40.66,82.76"/><path class="cls-5" d="M84.78,159.51S83,88,156.29,88"/><path class="cls-5" d="M43.53,167.56S53.12,48,167.32,43.76"/></svg>